<svg width="40" height="40" viewBox="0 0 42 42" fill="none" xmlns="http://www.w3.org/2000/svg">
<circle cx="20.9553" cy="20.9553" r="20.9553" fill="#2B193B"/>
<path d="M20.6122 19.0659C21.8352 19.0659 23.0307 18.7032 24.0476 18.0238C25.0645 17.3443 25.857 16.3786 26.3251 15.2487C26.7931 14.1188 26.9155 12.8755 26.6769 11.676C26.4383 10.4765 25.8494 9.37472 24.9846 8.50994C24.1199 7.64515 23.0181 7.05623 21.8186 6.81764C20.6191 6.57905 19.3758 6.7015 18.2459 7.16952C17.116 7.63753 16.1503 8.43009 15.4708 9.44696C14.7914 10.4638 14.4287 11.6594 14.4287 12.8823C14.4287 14.5223 15.0802 16.0951 16.2398 17.2548C17.3995 18.4144 18.9723 19.0659 20.6122 19.0659Z" fill="white"/>
<path d="M29.8879 34.5247C30.2979 34.5247 30.6911 34.3618 30.981 34.0719C31.271 33.782 31.4338 33.3888 31.4338 32.9788C31.4338 30.1089 30.2937 27.3565 28.2644 25.3271C26.235 23.2977 23.4826 22.1577 20.6127 22.1577C17.7427 22.1577 14.9903 23.2977 12.9609 25.3271C10.9316 27.3565 9.7915 30.1089 9.7915 32.9788C9.7915 33.3888 9.95437 33.782 10.2443 34.0719C10.5342 34.3618 10.9274 34.5247 11.3374 34.5247H29.8879Z" fill="white"/>
</svg>
