<svg width="14" height="9" viewBox="0 0 14 9" fill="current" xmlns="http://www.w3.org/2000/svg">
<path d="M6.82416 8.32966C6.99676 8.33066 7.16787 8.29758 7.32766 8.23231C7.48746 8.16704 7.6328 8.07087 7.75535 7.94932L13.0015 2.70317C13.1238 2.58089 13.2208 2.43571 13.287 2.27594C13.3531 2.11616 13.3872 1.94492 13.3872 1.77198C13.3872 1.59904 13.3531 1.4278 13.287 1.26802C13.2208 1.10825 13.1238 0.963075 13.0015 0.84079C12.8792 0.718504 12.734 0.621501 12.5743 0.555321C12.4145 0.48914 12.2432 0.455078 12.0703 0.455078C11.8974 0.455078 11.7261 0.48914 11.5663 0.555321C11.4066 0.621501 11.2614 0.718504 11.1391 0.84079L6.82416 5.18198L2.49609 1.01129C2.37543 0.877133 2.2284 0.769313 2.06418 0.694574C1.89996 0.619834 1.72208 0.579783 1.54168 0.576925C1.36127 0.574067 1.18221 0.608462 1.01571 0.677962C0.849202 0.747462 0.698828 0.85057 0.573988 0.980838C0.449149 1.11111 0.352529 1.26573 0.290174 1.43504C0.22782 1.60435 0.201071 1.78471 0.2116 1.96483C0.222129 2.14495 0.269711 2.32097 0.351367 2.48186C0.433024 2.64275 0.546999 2.78507 0.686166 2.8999L5.93231 7.96243C6.17216 8.19368 6.49102 8.32497 6.82416 8.32966V8.32966Z" fill="current"/>
</svg>
