<svg width="30" height="30" viewBox="0 0 37 37" fill="current" xmlns="http://www.w3.org/2000/svg">
<path d="M20.5441 18.5003L36.5767 2.46762C37.1412 1.90316 37.1412 0.987987 36.5767 0.423593C36.0122 -0.1408 35.097 -0.140872 34.5327 0.423593L18.5 16.4563L2.46738 0.423593C1.90291 -0.140872 0.987743 -0.140872 0.423349 0.423593C-0.141044 0.988059 -0.141116 1.90323 0.423349 2.46762L16.456 18.5002L0.423349 34.5329C-0.141116 35.0974 -0.141116 36.0125 0.423349 36.5769C0.705546 36.8591 1.07547 37.0002 1.4454 37.0002C1.81533 37.0002 2.18518 36.8591 2.46745 36.5769L18.5 20.5443L34.5326 36.5769C34.8148 36.8591 35.1847 37.0002 35.5546 37.0002C35.9246 37.0002 36.2944 36.8591 36.5767 36.5769C37.1412 36.0125 37.1412 35.0973 36.5767 34.5329L20.5441 18.5003Z" fill="current"/>
</svg>
