<svg width="current" height="current" viewBox="0 0 20 16" fill="current" xmlns="http://www.w3.org/2000/svg">
<g clip-path="url(#clip0_709_411)">
<path d="M12.7297 0L12.5118 0.488105C14.1659 0.877694 15.6643 1.75091 16.8159 3.00476C14.984 1.96586 13.1654 0.88665 9.99956 0.88665C6.83371 0.88665 5.01513 1.96138 3.1832 3.00476C4.34372 1.75987 5.84216 0.88665 7.48734 0.488105L7.26946 0C5.60205 0.232858 4.03247 0.922474 2.72522 1.99272C2.72522 1.99272 0.395295 5.71844 -0.00488281 12.9997C1.45799 14.7909 3.60561 15.8836 5.90886 16.0045L6.64696 14.9118C5.09961 14.3207 3.74345 13.3177 2.72522 12.0056C4.19698 13.2326 6.41575 14.2267 9.99956 14.2267C13.5834 14.2267 15.7977 13.2326 17.2739 12.0056C16.2557 13.3177 14.8995 14.3207 13.3522 14.9118L14.0858 16.0045C16.3891 15.8836 18.5367 14.7909 19.9996 12.9997C19.5994 5.71844 17.2739 1.99272 17.2739 1.99272C17.2739 1.99272 15.193 0.205989 12.7297 0ZM12.8008 11.5578C11.9204 11.5578 11.2001 10.5637 11.2001 9.33669C11.2001 8.10971 11.9204 7.11559 12.8008 7.11559C13.6812 7.11559 14.4015 8.10971 14.4015 9.33669C14.4015 10.5637 13.6812 11.5578 12.8008 11.5578ZM7.19832 11.5578C6.31793 11.5578 5.59761 10.5637 5.59761 9.33669C5.59761 8.10971 6.31793 7.11559 7.19832 7.11559C8.07871 7.11559 8.79903 8.10971 8.79903 9.33669C8.79903 10.5637 8.07871 11.5578 7.19832 11.5578Z" fill="current"/>
</g>
<defs>
<clipPath id="clip0_709_411">
<rect width="20" height="16" fill="white"/>
</clipPath>
</defs>
</svg>
