<svg width="27" height="25" viewBox="0 0 27 25" fill="current" xmlns="http://www.w3.org/2000/svg">
<g clip-path="url(#clip0_581_381)">
<path d="M26.9998 16.9189C26.9998 13.8166 25.0777 11.0479 22.1989 9.70116C22.1095 15.6494 16.9012 20.472 10.4771 20.5547C11.9316 23.2203 14.9218 25 18.2723 25C19.8432 25 21.3708 24.6126 22.7131 23.8766L26.9617 24.9647L25.7865 21.0308C26.5814 19.788 26.9998 18.3735 26.9998 16.9189Z" fill="current"/>
<path d="M20.6191 9.5459C20.6191 4.28219 15.9944 0 10.3096 0C4.62476 0 0 4.28219 0 9.5459C0 11.2614 0.493149 12.9316 1.4296 14.398L0.0379028 19.0565L5.0693 17.7681C6.65298 18.6352 8.45687 19.0918 10.3096 19.0918C15.9944 19.0918 20.6191 14.8096 20.6191 9.5459ZM8.72754 7.32422H7.14551C7.14551 5.7087 8.56481 4.39453 10.3096 4.39453C12.0543 4.39453 13.4736 5.7087 13.4736 7.32422C13.4736 8.14419 13.0987 8.93231 12.4447 9.4862L11.1006 10.6253V11.7676H9.51856V9.9802L11.3766 8.4055C11.7087 8.12416 11.8916 7.74021 11.8916 7.32422C11.8916 6.51646 11.182 5.85938 10.3096 5.85938C9.43719 5.85938 8.72754 6.51646 8.72754 7.32422ZM9.51856 13.2324H11.1006V14.6973H9.51856V13.2324Z" fill="current"/>
</g>
<defs>
<clipPath id="clip0_581_381">
<rect width="27" height="25" fill="white"/>
</clipPath>
</defs>
</svg>
