<svg  viewBox="0 0 438 363" fill="none" xmlns="http://www.w3.org/2000/svg">
<g clip-path="url(#clip0_781_207)">
<path d="M317.94 59.7598H224.98V325.83H317.94V59.7598Z" fill="#8F8597"/>
<path d="M253.74 76.0303H234.84V95.7003H253.74V76.0303Z" fill="#E0E0E0"/>
<g opacity="0.7">
<path d="M253.73 76.0303H249.16L234.84 85.7903V93.2603L253.73 80.3803V76.0303Z" fill="white"/>
<path d="M253.73 82.9902L235.08 95.7002H240.35L253.73 86.5802V82.9902Z" fill="white"/>
</g>
<path d="M280.86 76.0801H261.96V95.7501H280.86V76.0801Z" fill="#E0E0E0"/>
<g opacity="0.7">
<path d="M280.86 76.0801H276.29L261.96 85.8401V93.3001L280.86 80.4301V76.0801Z" fill="white"/>
<path d="M280.86 83.04L262.2 95.75H267.48L280.86 86.63V83.04Z" fill="white"/>
</g>
<path d="M308.02 76.0596H289.12V95.7296H308.02V76.0596Z" fill="#E0E0E0"/>
<g opacity="0.7">
<path d="M308.02 76.0596H303.44L289.12 85.8196V93.2896L308.02 80.4196V76.0596Z" fill="white"/>
<path d="M308.02 83.0195L289.36 95.7295H294.63L308.02 86.6095V83.0195Z" fill="white"/>
</g>
<path d="M310.79 95.6904H232.15V103.46H310.79V95.6904Z" fill="#453653"/>
<path d="M253.74 115.03H234.84V134.7H253.74V115.03Z" fill="#E0E0E0"/>
<g opacity="0.7">
<path d="M253.73 115.03H249.16L234.84 124.79V132.26L253.73 119.38V115.03Z" fill="white"/>
<path d="M253.73 121.99L235.08 134.7H240.35L253.73 125.58V121.99Z" fill="white"/>
</g>
<path d="M280.86 115.08H261.96V134.75H280.86V115.08Z" fill="#E0E0E0"/>
<g opacity="0.7">
<path d="M280.86 115.08H276.29L261.96 124.84V132.3L280.86 119.43V115.08Z" fill="white"/>
<path d="M280.86 122.04L262.2 134.75H267.48L280.86 125.63V122.04Z" fill="white"/>
</g>
<path d="M308.02 115.06H289.12V134.73H308.02V115.06Z" fill="#E0E0E0"/>
<g opacity="0.7">
<path d="M308.02 115.06H303.44L289.12 124.82V132.29L308.02 119.42V115.06Z" fill="white"/>
<path d="M308.02 122.02L289.36 134.73H294.63L308.02 125.61V122.02Z" fill="white"/>
</g>
<path d="M310.79 134.69H232.15V142.46H310.79V134.69Z" fill="#453653"/>
<path d="M253.74 154.03H234.84V173.7H253.74V154.03Z" fill="#E0E0E0"/>
<g opacity="0.7">
<path d="M253.73 154.03H249.16L234.84 163.79V171.26L253.73 158.38V154.03Z" fill="white"/>
<path d="M253.73 160.99L235.08 173.7H240.35L253.73 164.58V160.99Z" fill="white"/>
</g>
<path d="M280.86 154.08H261.96V173.75H280.86V154.08Z" fill="#E0E0E0"/>
<g opacity="0.7">
<path d="M280.86 154.08H276.29L261.96 163.84V171.3L280.86 158.43V154.08Z" fill="white"/>
<path d="M280.86 161.04L262.2 173.75H267.48L280.86 164.63V161.04Z" fill="white"/>
</g>
<path d="M308.02 154.06H289.12V173.73H308.02V154.06Z" fill="#E0E0E0"/>
<g opacity="0.7">
<path d="M308.02 154.06H303.44L289.12 163.82V171.29L308.02 158.42V154.06Z" fill="white"/>
<path d="M308.02 161.02L289.36 173.73H294.63L308.02 164.61V161.02Z" fill="white"/>
</g>
<path d="M310.79 173.69H232.15V181.46H310.79V173.69Z" fill="#453653"/>
<path d="M253.74 193.03H234.84V212.7H253.74V193.03Z" fill="#E0E0E0"/>
<g opacity="0.7">
<path d="M253.73 193.03H249.16L234.84 202.79V210.26L253.73 197.38V193.03Z" fill="white"/>
<path d="M253.73 199.99L235.08 212.7H240.35L253.73 203.58V199.99Z" fill="white"/>
</g>
<path d="M280.86 193.08H261.96V212.75H280.86V193.08Z" fill="#E0E0E0"/>
<g opacity="0.7">
<path d="M280.86 193.08H276.29L261.96 202.84V210.3L280.86 197.43V193.08Z" fill="white"/>
<path d="M280.86 200.04L262.2 212.75H267.48L280.86 203.63V200.04Z" fill="white"/>
</g>
<path d="M308.02 193.06H289.12V212.73H308.02V193.06Z" fill="#E0E0E0"/>
<g opacity="0.7">
<path d="M308.02 193.06H303.44L289.12 202.82V210.29L308.02 197.42V193.06Z" fill="white"/>
<path d="M308.02 200.02L289.36 212.73H294.63L308.02 203.61V200.02Z" fill="white"/>
</g>
<path d="M310.79 212.69H232.15V220.46H310.79V212.69Z" fill="#453653"/>
<path d="M253.74 232.03H234.84V251.7H253.74V232.03Z" fill="#E0E0E0"/>
<g opacity="0.7">
<path d="M253.73 232.03H249.16L234.84 241.79V249.26L253.73 236.38V232.03Z" fill="white"/>
<path d="M253.73 238.99L235.08 251.7H240.35L253.73 242.58V238.99Z" fill="white"/>
</g>
<path d="M280.86 232.08H261.96V251.75H280.86V232.08Z" fill="#E0E0E0"/>
<g opacity="0.7">
<path d="M280.86 232.08H276.29L261.96 241.84V249.3L280.86 236.43V232.08Z" fill="white"/>
<path d="M280.86 239.04L262.2 251.75H267.48L280.86 242.63V239.04Z" fill="white"/>
</g>
<path d="M308.02 232.06H289.12V251.73H308.02V232.06Z" fill="#E0E0E0"/>
<g opacity="0.7">
<path d="M308.02 232.06H303.44L289.12 241.82V249.29L308.02 236.42V232.06Z" fill="white"/>
<path d="M308.02 239.02L289.36 251.73H294.63L308.02 242.61V239.02Z" fill="white"/>
</g>
<path d="M310.79 251.69H232.15V259.46H310.79V251.69Z" fill="#453653"/>
<path d="M253.74 271.03H234.84V290.7H253.74V271.03Z" fill="#E0E0E0"/>
<g opacity="0.7">
<path d="M253.73 271.03H249.16L234.84 280.79V288.26L253.73 275.38V271.03Z" fill="white"/>
<path d="M253.73 277.99L235.08 290.7H240.35L253.73 281.58V277.99Z" fill="white"/>
</g>
<path d="M280.86 271.08H261.96V290.75H280.86V271.08Z" fill="#E0E0E0"/>
<g opacity="0.7">
<path d="M280.86 271.08H276.29L261.96 280.84V288.3L280.86 275.43V271.08Z" fill="white"/>
<path d="M280.86 278.04L262.2 290.75H267.48L280.86 281.63V278.04Z" fill="white"/>
</g>
<path d="M308.02 271.06H289.12V290.73H308.02V271.06Z" fill="#E0E0E0"/>
<g opacity="0.7">
<path d="M308.02 271.06H303.44L289.12 280.82V288.29L308.02 275.42V271.06Z" fill="white"/>
<path d="M308.02 278.02L289.36 290.73H294.63L308.02 281.61V278.02Z" fill="white"/>
</g>
<path d="M310.79 290.69H232.15V298.46H310.79V290.69Z" fill="#453653"/>
<path d="M253.74 310.03H234.84V329.7H253.74V310.03Z" fill="#E0E0E0"/>
<g opacity="0.7">
<path d="M253.73 310.03H249.16L234.84 319.79V327.26L253.73 314.38V310.03Z" fill="white"/>
<path d="M253.73 316.99L235.08 329.7H240.35L253.73 320.58V316.99Z" fill="white"/>
</g>
<path d="M280.86 310.08H261.96V329.75H280.86V310.08Z" fill="#E0E0E0"/>
<g opacity="0.7">
<path d="M280.86 310.08H276.29L261.96 319.84V327.3L280.86 314.43V310.08Z" fill="white"/>
<path d="M280.86 317.04L262.2 329.75H267.48L280.86 320.63V317.04Z" fill="white"/>
</g>
<path d="M308.02 310.06H289.12V329.73H308.02V310.06Z" fill="#E0E0E0"/>
<g opacity="0.7">
<path d="M308.02 310.06H303.44L289.12 319.82V327.29L308.02 314.42V310.06Z" fill="white"/>
<path d="M308.02 317.02L289.36 329.73H294.63L308.02 320.61V317.02Z" fill="white"/>
</g>
<path d="M310.79 329.69H232.15V337.46H310.79V329.69Z" fill="#453653"/>
<path d="M193.01 2.41016H191.67V36.1702H193.01V2.41016Z" fill="#453653"/>
<path d="M186.15 0H184.85V33.76H186.15V0Z" fill="#453653"/>
<path d="M197.51 7.57031H180.16V8.83031H197.51V7.57031Z" fill="#453653"/>
<path d="M142.72 9.49023H133.05V22.8202H142.72V9.49023Z" fill="#453653"/>
<path d="M213.72 18.2695H120.76V309.6H213.72V18.2695Z" fill="#453653"/>
<path d="M149.83 30.1602H130.34V66.4902H149.83V30.1602Z" fill="#8F8597"/>
<g opacity="0.7">
<path d="M149.84 37.8906L130.34 51.1706V58.8806L149.84 45.5906V37.8906Z" fill="white"/>
<path d="M149.84 48.2803L130.34 61.5603V65.2703L149.84 51.9903V48.2803Z" fill="white"/>
<path d="M149.84 30.6104L130.34 43.8904V47.6003L149.84 34.3204V30.6104Z" fill="white"/>
</g>
<path d="M177 30.1602H157.51V66.4902H177V30.1602Z" fill="#8F8597"/>
<g opacity="0.7">
<path d="M177 37.8906L157.51 51.1706V58.8806L177 45.5906V37.8906Z" fill="white"/>
<path d="M177 48.2803L157.51 61.5603V65.2703L177 51.9903V48.2803Z" fill="white"/>
<path d="M177 30.6104L157.51 43.8904V47.6003L177 34.3204V30.6104Z" fill="white"/>
</g>
<path d="M204.17 30.1602H184.68V66.4902H204.17V30.1602Z" fill="#8F8597"/>
<g opacity="0.7">
<path d="M204.17 37.8906L184.68 51.1706V58.8806L204.17 45.5906V37.8906Z" fill="white"/>
<path d="M204.17 48.2803L184.68 61.5603V65.2703L204.17 51.9903V48.2803Z" fill="white"/>
<path d="M204.17 30.6104L184.68 43.8904V47.6003L204.17 34.3204V30.6104Z" fill="white"/>
</g>
<path d="M149.83 79.6602H130.34V115.99H149.83V79.6602Z" fill="#8F8597"/>
<g opacity="0.7">
<path d="M149.84 87.3906L130.34 100.671V108.381L149.84 95.0906V87.3906Z" fill="white"/>
<path d="M149.84 97.7803L130.34 111.06V114.77L149.84 101.49V97.7803Z" fill="white"/>
<path d="M149.84 80.1104L130.34 93.3904V97.1003L149.84 83.8204V80.1104Z" fill="white"/>
</g>
<path d="M177 79.6602H157.51V115.99H177V79.6602Z" fill="#8F8597"/>
<g opacity="0.7">
<path d="M177 87.3906L157.51 100.671V108.381L177 95.0906V87.3906Z" fill="white"/>
<path d="M177 97.7803L157.51 111.06V114.77L177 101.49V97.7803Z" fill="white"/>
<path d="M177 80.1104L157.51 93.3904V97.1003L177 83.8204V80.1104Z" fill="white"/>
</g>
<path d="M204.17 79.6602H184.68V115.99H204.17V79.6602Z" fill="#8F8597"/>
<g opacity="0.7">
<path d="M204.17 87.3906L184.68 100.671V108.381L204.17 95.0906V87.3906Z" fill="white"/>
<path d="M204.17 97.7803L184.68 111.06V114.77L204.17 101.49V97.7803Z" fill="white"/>
<path d="M204.17 80.1104L184.68 93.3904V97.1003L204.17 83.8204V80.1104Z" fill="white"/>
</g>
<path d="M149.83 129.16H130.34V165.49H149.83V129.16Z" fill="#8F8597"/>
<g opacity="0.7">
<path d="M149.84 136.891L130.34 150.171V157.881L149.84 144.591V136.891Z" fill="white"/>
<path d="M149.84 147.28L130.34 160.56V164.27L149.84 150.99V147.28Z" fill="white"/>
<path d="M149.84 129.61L130.34 142.89V146.6L149.84 133.32V129.61Z" fill="white"/>
</g>
<path d="M177 129.16H157.51V165.49H177V129.16Z" fill="#8F8597"/>
<g opacity="0.7">
<path d="M177 136.891L157.51 150.171V157.881L177 144.591V136.891Z" fill="white"/>
<path d="M177 147.28L157.51 160.56V164.27L177 150.99V147.28Z" fill="white"/>
<path d="M177 129.61L157.51 142.89V146.6L177 133.32V129.61Z" fill="white"/>
</g>
<path d="M204.17 129.16H184.68V165.49H204.17V129.16Z" fill="#8F8597"/>
<g opacity="0.7">
<path d="M204.17 136.891L184.68 150.171V157.881L204.17 144.591V136.891Z" fill="white"/>
<path d="M204.17 147.28L184.68 160.56V164.27L204.17 150.99V147.28Z" fill="white"/>
<path d="M204.17 129.61L184.68 142.89V146.6L204.17 133.32V129.61Z" fill="white"/>
</g>
<path d="M149.83 178.66H130.34V214.99H149.83V178.66Z" fill="#8F8597"/>
<g opacity="0.7">
<path d="M149.84 186.391L130.34 199.671V207.381L149.84 194.091V186.391Z" fill="white"/>
<path d="M149.84 196.78L130.34 210.06V213.77L149.84 200.49V196.78Z" fill="white"/>
<path d="M149.84 179.11L130.34 192.39V196.1L149.84 182.82V179.11Z" fill="white"/>
</g>
<path d="M177 178.66H157.51V214.99H177V178.66Z" fill="#8F8597"/>
<g opacity="0.7">
<path d="M177 186.391L157.51 199.671V207.381L177 194.091V186.391Z" fill="white"/>
<path d="M177 196.78L157.51 210.06V213.77L177 200.49V196.78Z" fill="white"/>
<path d="M177 179.11L157.51 192.39V196.1L177 182.82V179.11Z" fill="white"/>
</g>
<path d="M204.17 178.66H184.68V214.99H204.17V178.66Z" fill="#8F8597"/>
<g opacity="0.7">
<path d="M204.17 186.391L184.68 199.671V207.381L204.17 194.091V186.391Z" fill="white"/>
<path d="M204.17 196.78L184.68 210.06V213.77L204.17 200.49V196.78Z" fill="white"/>
<path d="M204.17 179.11L184.68 192.39V196.1L204.17 182.82V179.11Z" fill="white"/>
</g>
<path d="M149.83 228.16H130.34V264.49H149.83V228.16Z" fill="#8F8597"/>
<g opacity="0.7">
<path d="M149.84 235.891L130.34 249.171V256.881L149.84 243.591V235.891Z" fill="white"/>
<path d="M149.84 246.28L130.34 259.56V263.27L149.84 249.99V246.28Z" fill="white"/>
<path d="M149.84 228.61L130.34 241.89V245.6L149.84 232.32V228.61Z" fill="white"/>
</g>
<path d="M177 228.16H157.51V264.49H177V228.16Z" fill="#8F8597"/>
<g opacity="0.7">
<path d="M177 235.891L157.51 249.171V256.881L177 243.591V235.891Z" fill="white"/>
<path d="M177 246.28L157.51 259.56V263.27L177 249.99V246.28Z" fill="white"/>
<path d="M177 228.61L157.51 241.89V245.6L177 232.32V228.61Z" fill="white"/>
</g>
<path d="M204.17 228.16H184.68V264.49H204.17V228.16Z" fill="#8F8597"/>
<g opacity="0.7">
<path d="M204.17 235.891L184.68 249.171V256.881L204.17 243.591V235.891Z" fill="white"/>
<path d="M204.17 246.28L184.68 259.56V263.27L204.17 249.99V246.28Z" fill="white"/>
<path d="M204.17 228.61L184.68 241.89V245.6L204.17 232.32V228.61Z" fill="white"/>
</g>
<path d="M149.83 277.66H130.34V313.99H149.83V277.66Z" fill="#8F8597"/>
<g opacity="0.7">
<path d="M149.84 285.391L130.34 298.671V306.381L149.84 293.091V285.391Z" fill="white"/>
<path d="M149.84 295.78L130.34 309.06V312.77L149.84 299.49V295.78Z" fill="white"/>
<path d="M149.84 278.11L130.34 291.39V295.1L149.84 281.82V278.11Z" fill="white"/>
</g>
<path d="M177 277.66H157.51V313.99H177V277.66Z" fill="#8F8597"/>
<g opacity="0.7">
<path d="M177 285.391L157.51 298.671V306.381L177 293.091V285.391Z" fill="white"/>
<path d="M177 295.78L157.51 309.06V312.77L177 299.49V295.78Z" fill="white"/>
<path d="M177 278.11L157.51 291.39V295.1L177 281.82V278.11Z" fill="white"/>
</g>
<path d="M204.17 277.66H184.68V313.99H204.17V277.66Z" fill="#8F8597"/>
<g opacity="0.7">
<path d="M204.17 285.391L184.68 298.671V306.381L204.17 293.091V285.391Z" fill="white"/>
<path d="M204.17 295.78L184.68 309.06V312.77L204.17 299.49V295.78Z" fill="white"/>
<path d="M204.17 278.11L184.68 291.39V295.1L204.17 281.82V278.11Z" fill="white"/>
</g>
<path d="M408.78 85.0498H357.8V330.88H408.78V85.0498Z" fill="#453653"/>
<path d="M368.94 99.21H339.96V345.04H368.94V99.21Z" fill="#8F8597"/>
<path d="M413.95 105.21H393.28V351.04H413.95V105.21Z" fill="#8F8597"/>
<path d="M421.1 114.98H328.14V353.46H421.1V114.98Z" fill="#453653"/>
<path d="M350.2 124.09C355.23 124.09 359.31 128.17 359.31 133.2V157.41C359.31 157.76 359.03 158.04 358.68 158.04H341.72C341.37 158.04 341.09 157.76 341.09 157.41V133.2C341.09 128.17 345.17 124.09 350.2 124.09Z" fill="#8F8597"/>
<g opacity="0.7">
<path d="M341.09 150.92L359.3 138.51V133.19C359.3 132.59 359.24 132 359.13 131.43L341.09 143.72V150.92Z" fill="white"/>
<path d="M341.09 156.899L359.3 144.489V141.029L341.09 153.429V156.899Z" fill="white"/>
<path d="M356.38 126.51L341.1 136.92V140.38L358.16 128.76C357.69 127.92 357.09 127.16 356.39 126.51H356.38Z" fill="white"/>
</g>
<path d="M375.07 123.95C380.1 123.95 384.18 128.03 384.18 133.06V157.27C384.18 157.62 383.9 157.9 383.55 157.9H366.59C366.24 157.9 365.96 157.62 365.96 157.27V133.06C365.96 128.03 370.04 123.95 375.07 123.95Z" fill="#8F8597"/>
<g opacity="0.7">
<path d="M365.97 150.78L384.18 138.37V133.05C384.18 132.45 384.12 131.86 384.01 131.29L365.97 143.58V150.78Z" fill="white"/>
<path d="M365.97 156.75L384.18 144.34V140.88L365.97 153.29V156.75Z" fill="white"/>
<path d="M381.25 126.36L365.97 136.77V140.23L383.03 128.61C382.56 127.77 381.96 127.01 381.26 126.36H381.25Z" fill="white"/>
</g>
<path d="M399.95 123.8C404.98 123.8 409.06 127.88 409.06 132.91V157.12C409.06 157.47 408.78 157.75 408.43 157.75H391.47C391.12 157.75 390.84 157.47 390.84 157.12V132.91C390.84 127.88 394.92 123.8 399.95 123.8Z" fill="#8F8597"/>
<g opacity="0.7">
<path d="M390.84 150.63L409.05 138.22V132.9C409.05 132.3 408.99 131.71 408.88 131.14L390.84 143.43V150.63Z" fill="white"/>
<path d="M390.84 156.6L409.05 144.189V140.729L390.84 153.139V156.6Z" fill="white"/>
<path d="M406.12 126.22L390.84 136.63V140.09L407.9 128.47C407.43 127.63 406.83 126.87 406.13 126.22H406.12Z" fill="white"/>
</g>
<path d="M350.2 170.54C355.23 170.54 359.31 174.62 359.31 179.65V203.86C359.31 204.21 359.03 204.49 358.68 204.49H341.72C341.37 204.49 341.09 204.21 341.09 203.86V179.65C341.09 174.62 345.17 170.54 350.2 170.54Z" fill="#8F8597"/>
<g opacity="0.7">
<path d="M341.09 197.37L359.3 184.96V179.64C359.3 179.04 359.24 178.45 359.13 177.88L341.09 190.17V197.37Z" fill="white"/>
<path d="M341.09 203.34L359.3 190.94V187.47L341.09 199.88V203.34Z" fill="white"/>
<path d="M356.38 172.96L341.1 183.37V186.83L358.16 175.21C357.69 174.37 357.09 173.61 356.39 172.96H356.38Z" fill="white"/>
</g>
<path d="M375.07 170.39C380.1 170.39 384.18 174.47 384.18 179.5V203.71C384.18 204.06 383.9 204.34 383.55 204.34H366.59C366.24 204.34 365.96 204.06 365.96 203.71V179.5C365.96 174.47 370.04 170.39 375.07 170.39Z" fill="#8F8597"/>
<g opacity="0.7">
<path d="M365.97 197.219L384.18 184.809V179.49C384.18 178.89 384.12 178.299 384.01 177.729L365.97 190.02V197.219Z" fill="white"/>
<path d="M365.97 203.199L384.18 190.789V187.329L365.97 199.729V203.199Z" fill="white"/>
<path d="M381.25 172.81L365.97 183.22V186.68L383.03 175.06C382.56 174.22 381.96 173.46 381.26 172.81H381.25Z" fill="white"/>
</g>
<path d="M399.95 170.25C404.98 170.25 409.06 174.33 409.06 179.36V203.57C409.06 203.92 408.78 204.2 408.43 204.2H391.47C391.12 204.2 390.84 203.92 390.84 203.57V179.36C390.84 174.33 394.92 170.25 399.95 170.25Z" fill="#8F8597"/>
<g opacity="0.7">
<path d="M390.84 197.08L409.05 184.67V179.35C409.05 178.75 408.99 178.16 408.88 177.59L390.84 189.88V197.08Z" fill="white"/>
<path d="M390.84 203.05L409.05 190.64V187.18L390.84 199.59V203.05Z" fill="white"/>
<path d="M406.12 172.67L390.84 183.08V186.54L407.9 174.92C407.43 174.08 406.83 173.32 406.13 172.67H406.12Z" fill="white"/>
</g>
<path d="M350.2 219.67C355.23 219.67 359.31 223.75 359.31 228.78V252.99C359.31 253.34 359.03 253.62 358.68 253.62H341.72C341.37 253.62 341.09 253.34 341.09 252.99V228.78C341.09 223.75 345.17 219.67 350.2 219.67Z" fill="#8F8597"/>
<g opacity="0.7">
<path d="M341.09 246.5L359.3 234.09V228.77C359.3 228.17 359.24 227.58 359.13 227.01L341.09 239.3V246.5Z" fill="white"/>
<path d="M341.09 252.47L359.3 240.07V236.6L341.09 249.01V252.47Z" fill="white"/>
<path d="M356.38 222.09L341.1 232.5V235.96L358.16 224.34C357.69 223.5 357.09 222.74 356.39 222.09H356.38Z" fill="white"/>
</g>
<path d="M375.07 219.52C380.1 219.52 384.18 223.6 384.18 228.63V252.84C384.18 253.19 383.9 253.47 383.55 253.47H366.59C366.24 253.47 365.96 253.19 365.96 252.84V228.63C365.96 223.6 370.04 219.52 375.07 219.52Z" fill="#8F8597"/>
<g opacity="0.7">
<path d="M365.97 246.35L384.18 233.94V228.62C384.18 228.02 384.12 227.43 384.01 226.86L365.97 239.15V246.35Z" fill="white"/>
<path d="M365.97 252.33L384.18 239.92V236.46L365.97 248.86V252.33Z" fill="white"/>
<path d="M381.25 221.94L365.97 232.35V235.81L383.03 224.19C382.56 223.35 381.96 222.59 381.26 221.94H381.25Z" fill="white"/>
</g>
<path d="M399.95 219.38C404.98 219.38 409.06 223.46 409.06 228.49V252.7C409.06 253.05 408.78 253.33 408.43 253.33H391.47C391.12 253.33 390.84 253.05 390.84 252.7V228.49C390.84 223.46 394.92 219.38 399.95 219.38Z" fill="#8F8597"/>
<g opacity="0.7">
<path d="M390.84 246.21L409.05 233.8V228.48C409.05 227.88 408.99 227.29 408.88 226.72L390.84 239.01V246.21Z" fill="white"/>
<path d="M390.84 252.18L409.05 239.77V236.31L390.84 248.72V252.18Z" fill="white"/>
<path d="M406.12 221.8L390.84 232.21V235.67L407.9 224.05C407.43 223.21 406.83 222.45 406.13 221.8H406.12Z" fill="white"/>
</g>
<path d="M350.2 265.97C355.23 265.97 359.31 270.05 359.31 275.08V299.29C359.31 299.64 359.03 299.92 358.68 299.92H341.72C341.37 299.92 341.09 299.64 341.09 299.29V275.08C341.09 270.05 345.17 265.97 350.2 265.97Z" fill="#8F8597"/>
<g opacity="0.7">
<path d="M341.09 292.8L359.3 280.39V275.07C359.3 274.47 359.24 273.88 359.13 273.31L341.09 285.6V292.8Z" fill="white"/>
<path d="M341.09 298.779L359.3 286.369V282.909L341.09 295.319V298.779Z" fill="white"/>
<path d="M356.38 268.39L341.1 278.8V282.26L358.16 270.64C357.69 269.8 357.09 269.04 356.39 268.39H356.38Z" fill="white"/>
</g>
<path d="M375.07 265.83C380.1 265.83 384.18 269.91 384.18 274.94V299.15C384.18 299.5 383.9 299.78 383.55 299.78H366.59C366.24 299.78 365.96 299.5 365.96 299.15V274.94C365.96 269.91 370.04 265.83 375.07 265.83Z" fill="#8F8597"/>
<g opacity="0.7">
<path d="M365.97 292.66L384.18 280.25V274.93C384.18 274.33 384.12 273.74 384.01 273.17L365.97 285.46V292.66Z" fill="white"/>
<path d="M365.97 298.63L384.18 286.22V282.76L365.97 295.17V298.63Z" fill="white"/>
<path d="M381.25 268.25L365.97 278.66V282.12L383.03 270.5C382.56 269.66 381.96 268.9 381.26 268.25H381.25Z" fill="white"/>
</g>
<path d="M399.95 265.68C404.98 265.68 409.06 269.76 409.06 274.79V299C409.06 299.35 408.78 299.63 408.43 299.63H391.47C391.12 299.63 390.84 299.35 390.84 299V274.79C390.84 269.76 394.92 265.68 399.95 265.68Z" fill="#8F8597"/>
<g opacity="0.7">
<path d="M390.84 292.51L409.05 280.1V274.78C409.05 274.18 408.99 273.59 408.88 273.02L390.84 285.31V292.51Z" fill="white"/>
<path d="M390.84 298.489L409.05 286.079V282.619L390.84 295.019V298.489Z" fill="white"/>
<path d="M406.12 268.1L390.84 278.51V281.97L407.9 270.35C407.43 269.51 406.83 268.75 406.13 268.1H406.12Z" fill="white"/>
</g>
<path d="M350.2 312.28C355.23 312.28 359.31 316.36 359.31 321.39V345.6C359.31 345.95 359.03 346.23 358.68 346.23H341.72C341.37 346.23 341.09 345.95 341.09 345.6V321.39C341.09 316.36 345.17 312.28 350.2 312.28Z" fill="#8F8597"/>
<g opacity="0.7">
<path d="M341.09 339.11L359.3 326.7V321.38C359.3 320.78 359.24 320.19 359.13 319.62L341.09 331.91V339.11Z" fill="white"/>
<path d="M341.09 345.08L359.3 332.68V329.21L341.09 341.62V345.08Z" fill="white"/>
<path d="M356.38 314.7L341.1 325.11V328.57L358.16 316.95C357.69 316.11 357.09 315.35 356.39 314.7H356.38Z" fill="white"/>
</g>
<path d="M375.07 312.13C380.1 312.13 384.18 316.21 384.18 321.24V345.45C384.18 345.8 383.9 346.08 383.55 346.08H366.59C366.24 346.08 365.96 345.8 365.96 345.45V321.24C365.96 316.21 370.04 312.13 375.07 312.13Z" fill="#8F8597"/>
<g opacity="0.7">
<path d="M365.97 338.96L384.18 326.55V321.23C384.18 320.63 384.12 320.04 384.01 319.47L365.97 331.76V338.96Z" fill="white"/>
<path d="M365.97 344.94L384.18 332.53V329.07L365.97 341.48V344.94Z" fill="white"/>
<path d="M381.25 314.55L365.97 324.96V328.42L383.03 316.8C382.56 315.96 381.96 315.2 381.26 314.55H381.25Z" fill="white"/>
</g>
<path d="M399.95 311.99C404.98 311.99 409.06 316.07 409.06 321.1V345.31C409.06 345.66 408.78 345.94 408.43 345.94H391.47C391.12 345.94 390.84 345.66 390.84 345.31V321.1C390.84 316.07 394.92 311.99 399.95 311.99Z" fill="#8F8597"/>
<g opacity="0.7">
<path d="M390.84 338.82L409.05 326.41V321.09C409.05 320.49 408.99 319.9 408.88 319.33L390.84 331.62V338.82Z" fill="white"/>
<path d="M390.84 344.79L409.05 332.38V328.92L390.84 341.33V344.79Z" fill="white"/>
<path d="M406.12 314.41L390.84 324.82V328.28L407.9 316.66C407.43 315.82 406.83 315.06 406.13 314.41H406.12Z" fill="white"/>
</g>
<path d="M88.5298 45.8301H37.5498V278.72H88.5298V45.8301Z" fill="#453653"/>
<path d="M92.7198 62.8301H69.0498V81.5001H92.7198V62.8301Z" fill="#8F8597"/>
<path d="M109.82 77.9199H16.8604V353.91H109.82V77.9199Z" fill="#453653"/>
<path d="M72.9996 246.21H54.0996V265.88H72.9996V246.21Z" fill="#E0E0E0"/>
<path d="M45.8697 90.54H26.9697V110.21H45.8697V90.54Z" fill="#E0E0E0"/>
<g opacity="0.7">
<path d="M45.8597 90.54H41.2897L26.9697 100.3V107.76L45.8597 94.89V90.54Z" fill="white"/>
<path d="M45.86 97.4902L27.21 110.2H32.48L45.86 101.09V97.4902Z" fill="white"/>
</g>
<path d="M72.9898 90.5801H54.0898V110.25H72.9898V90.5801Z" fill="#E0E0E0"/>
<g opacity="0.7">
<path d="M72.9898 90.5801H68.4198L54.0898 100.34V107.81L72.9898 94.9401V90.5801Z" fill="white"/>
<path d="M72.9901 97.54L54.3301 110.25H59.6001L72.9901 101.13V97.54Z" fill="white"/>
</g>
<path d="M100.15 90.5703H81.25V110.24H100.15V90.5703Z" fill="#E0E0E0"/>
<g opacity="0.7">
<path d="M100.14 90.5703H95.57L81.25 100.33V107.79L100.14 94.9203V90.5703Z" fill="white"/>
<path d="M100.14 97.5303L81.4902 110.24H86.7602L100.14 101.12V97.5303Z" fill="white"/>
</g>
<path d="M102.92 110.19H24.2803V117.96H102.92V110.19Z" fill="#8F8597"/>
<path d="M45.8697 129.54H26.9697V149.21H45.8697V129.54Z" fill="#E0E0E0"/>
<g opacity="0.7">
<path d="M45.8597 129.54H41.2897L26.9697 139.3V146.76L45.8597 133.89V129.54Z" fill="white"/>
<path d="M45.86 136.49L27.21 149.2H32.48L45.86 140.09V136.49Z" fill="white"/>
</g>
<path d="M72.9898 129.58H54.0898V149.25H72.9898V129.58Z" fill="#E0E0E0"/>
<g opacity="0.7">
<path d="M72.9898 129.58H68.4198L54.0898 139.34V146.81L72.9898 133.94V129.58Z" fill="white"/>
<path d="M72.9901 136.54L54.3301 149.25H59.6001L72.9901 140.13V136.54Z" fill="white"/>
</g>
<path d="M100.15 129.57H81.25V149.24H100.15V129.57Z" fill="#E0E0E0"/>
<g opacity="0.7">
<path d="M100.14 129.57H95.57L81.25 139.33V146.79L100.14 133.92V129.57Z" fill="white"/>
<path d="M100.14 136.53L81.4902 149.24H86.7602L100.14 140.12V136.53Z" fill="white"/>
</g>
<path d="M102.92 149.19H24.2803V156.96H102.92V149.19Z" fill="#8F8597"/>
<path d="M45.8697 168.54H26.9697V188.21H45.8697V168.54Z" fill="#E0E0E0"/>
<g opacity="0.7">
<path d="M45.8597 168.54H41.2897L26.9697 178.3V185.76L45.8597 172.89V168.54Z" fill="white"/>
<path d="M45.86 175.49L27.21 188.2H32.48L45.86 179.09V175.49Z" fill="white"/>
</g>
<path d="M72.9898 168.58H54.0898V188.25H72.9898V168.58Z" fill="#E0E0E0"/>
<g opacity="0.7">
<path d="M72.9898 168.58H68.4198L54.0898 178.34V185.81L72.9898 172.94V168.58Z" fill="white"/>
<path d="M72.9901 175.54L54.3301 188.25H59.6001L72.9901 179.13V175.54Z" fill="white"/>
</g>
<path d="M100.15 168.57H81.25V188.24H100.15V168.57Z" fill="#E0E0E0"/>
<g opacity="0.7">
<path d="M100.14 168.57H95.57L81.25 178.33V185.79L100.14 172.92V168.57Z" fill="white"/>
<path d="M100.14 175.53L81.4902 188.24H86.7602L100.14 179.12V175.53Z" fill="white"/>
</g>
<path d="M102.92 188.19H24.2803V195.96H102.92V188.19Z" fill="#8F8597"/>
<path d="M45.8697 207.54H26.9697V227.21H45.8697V207.54Z" fill="#E0E0E0"/>
<g opacity="0.7">
<path d="M45.8597 207.54H41.2897L26.9697 217.3V224.76L45.8597 211.89V207.54Z" fill="white"/>
<path d="M45.86 214.49L27.21 227.2H32.48L45.86 218.09V214.49Z" fill="white"/>
</g>
<path d="M72.9898 207.58H54.0898V227.25H72.9898V207.58Z" fill="#E0E0E0"/>
<g opacity="0.7">
<path d="M72.9898 207.58H68.4198L54.0898 217.34V224.81L72.9898 211.94V207.58Z" fill="white"/>
<path d="M72.9901 214.54L54.3301 227.25H59.6001L72.9901 218.13V214.54Z" fill="white"/>
</g>
<path d="M100.15 207.57H81.25V227.24H100.15V207.57Z" fill="#E0E0E0"/>
<g opacity="0.7">
<path d="M100.14 207.57H95.57L81.25 217.33V224.79L100.14 211.92V207.57Z" fill="white"/>
<path d="M100.14 214.53L81.4902 227.24H86.7602L100.14 218.12V214.53Z" fill="white"/>
</g>
<path d="M102.92 227.19H24.2803V234.96H102.92V227.19Z" fill="#8F8597"/>
<path d="M45.8697 246.54H26.9697V266.21H45.8697V246.54Z" fill="#E0E0E0"/>
<g opacity="0.7">
<path d="M45.8597 246.54H41.2897L26.9697 256.3V263.76L45.8597 250.89V246.54Z" fill="white"/>
<path d="M45.86 253.49L27.21 266.2H32.48L45.86 257.09V253.49Z" fill="white"/>
</g>
<g opacity="0.7">
<path d="M72.9898 246.58H68.4198L54.0898 256.34V263.81L72.9898 250.94V246.58Z" fill="white"/>
<path d="M72.9901 253.54L54.3301 266.25H59.6001L72.9901 257.13V253.54Z" fill="white"/>
</g>
<path d="M100.15 246.57H81.25V266.24H100.15V246.57Z" fill="#E0E0E0"/>
<g opacity="0.7">
<path d="M100.14 246.57H95.57L81.25 256.33V263.79L100.14 250.92V246.57Z" fill="white"/>
<path d="M100.14 253.53L81.4902 266.24H86.7602L100.14 257.12V253.53Z" fill="white"/>
</g>
<path d="M102.92 266.19H24.2803V273.96H102.92V266.19Z" fill="#8F8597"/>
<path d="M45.8697 285.54H26.9697V305.21H45.8697V285.54Z" fill="#E0E0E0"/>
<g opacity="0.7">
<path d="M45.8597 285.54H41.2897L26.9697 295.3V302.76L45.8597 289.89V285.54Z" fill="white"/>
<path d="M45.86 292.49L27.21 305.2H32.48L45.86 296.09V292.49Z" fill="white"/>
</g>
<path d="M72.9898 285.58H54.0898V305.25H72.9898V285.58Z" fill="#E0E0E0"/>
<g opacity="0.7">
<path d="M72.9898 285.58H68.4198L54.0898 295.34V302.81L72.9898 289.94V285.58Z" fill="white"/>
<path d="M72.9901 292.54L54.3301 305.25H59.6001L72.9901 296.13V292.54Z" fill="white"/>
</g>
<path d="M100.15 285.57H81.25V305.24H100.15V285.57Z" fill="#E0E0E0"/>
<g opacity="0.7">
<path d="M100.14 285.57H95.57L81.25 295.33V302.79L100.14 289.92V285.57Z" fill="white"/>
<path d="M100.14 292.53L81.4902 305.24H86.7602L100.14 296.12V292.53Z" fill="white"/>
</g>
<path d="M102.92 305.19H24.2803V312.96H102.92V305.19Z" fill="#8F8597"/>
<path d="M45.8697 324.54H26.9697V344.21H45.8697V324.54Z" fill="#E0E0E0"/>
<g opacity="0.7">
<path d="M45.8597 324.54H41.2897L26.9697 334.3V341.76L45.8597 328.89V324.54Z" fill="white"/>
<path d="M45.86 331.49L27.21 344.2H32.48L45.86 335.09V331.49Z" fill="white"/>
</g>
<path d="M72.9898 324.58H54.0898V344.25H72.9898V324.58Z" fill="#E0E0E0"/>
<g opacity="0.7">
<path d="M72.9898 324.58H68.4198L54.0898 334.34V341.81L72.9898 328.94V324.58Z" fill="white"/>
<path d="M72.9901 331.54L54.3301 344.25H59.6001L72.9901 335.13V331.54Z" fill="white"/>
</g>
<path d="M100.15 324.57H81.25V344.24H100.15V324.57Z" fill="#E0E0E0"/>
<g opacity="0.7">
<path d="M100.14 324.57H95.57L81.25 334.33V341.79L100.14 328.92V324.57Z" fill="white"/>
<path d="M100.14 331.53L81.4902 344.24H86.7602L100.14 335.12V331.53Z" fill="white"/>
</g>
<path d="M102.92 344.19H24.2803V351.96H102.92V344.19Z" fill="#8F8597"/>
<path d="M24.4201 57.46H23.0801V91.22H24.4201V57.46Z" fill="#453653"/>
<path d="M31.2404 55.0498H29.9404V88.8098H31.2404V55.0498Z" fill="#453653"/>
<path d="M35.9301 62.6299H18.5801V63.8899H35.9301V62.6299Z" fill="#453653"/>
<path d="M72.0501 151.59H367.53C371.36 151.59 374.46 154.7 374.46 158.52V334.45H65.1201V158.52C65.1201 154.69 68.2301 151.59 72.0501 151.59Z" fill="#2B193B"/>
<path d="M44.9102 333.78H392.74V334.57C392.74 345.01 384.26 353.49 373.82 353.49H63.8302C53.3902 353.49 44.9102 345.01 44.9102 334.57V333.78Z" fill="#453653"/>
<path d="M357.37 163.44H82.2103C78.3829 163.44 75.2803 166.543 75.2803 170.37V318.41C75.2803 322.238 78.3829 325.34 82.2103 325.34H357.37C361.198 325.34 364.3 322.238 364.3 318.41V170.37C364.3 166.543 361.198 163.44 357.37 163.44Z" fill="#8F8597"/>
<path d="M229.08 167.45H81.8301V320.26H229.08V167.45Z" fill="#F0F0F0"/>
<path d="M232.08 187.25H78.4902V194.54H232.08V187.25Z" fill="#8F8597"/>
<path d="M229.3 263.83H114.17V271.12H229.3V263.83Z" fill="#8F8597"/>
<path d="M197.26 164.68H189.27V270.08H197.26V164.68Z" fill="#8F8597"/>
<path d="M159.41 268.623L152.009 271.634L173.506 324.468L180.906 321.457L159.41 268.623Z" fill="#8F8597"/>
<path d="M111.78 163.494L104.379 166.505L115.666 194.247L123.067 191.235L111.78 163.494Z" fill="#8F8597"/>
<path d="M75.5416 256.963L81.1914 262.613L151.259 192.546L145.609 186.896L75.5416 256.963Z" fill="#8F8597"/>
<path d="M122.25 265.39H114.26V323.73H122.25V265.39Z" fill="#8F8597"/>
<path d="M351.2 170.77H246.77V214.63H351.2V170.77Z" fill="#453653"/>
<path d="M263.08 180.3L250.27 192.29H252.72V204.26H253.96H273.11V192.29H275.88L263.08 180.3Z" fill="#F9FDFE"/>
<path d="M258.09 180.9H254.69V189.78H258.09V180.9Z" fill="#F9FDFE"/>
<path d="M345.9 192.15H281.53V195.8H345.9V192.15Z" fill="#F9FDFE"/>
<path d="M345.9 202.05H281.53V205.7H345.9V202.05Z" fill="#F9FDFE"/>
<path d="M284.8 179.78L286.11 177.01L287.68 179.7L290.73 179.93L288.52 182.28L289.25 185.41L286.39 183.68L283.73 185.41L284.1 182.33L281.51 180.08L284.8 179.78Z" fill="white"/>
<path d="M298.53 179.8L299.84 177.03L301.41 179.71L304.46 179.95L302.25 182.29L302.98 185.43L300.12 183.69L297.46 185.43L297.83 182.35L295.24 180.1L298.53 179.8Z" fill="white"/>
<path d="M312.26 179.79L313.57 177.01L315.14 179.7L318.19 179.93L315.98 182.28L316.71 185.41L313.85 183.68L311.19 185.41L311.56 182.33L308.98 180.08L312.26 179.79Z" fill="white"/>
<path d="M326 179.78L327.32 177.01L328.88 179.7L331.93 179.93L329.72 182.28L330.45 185.41L327.6 183.68L324.94 185.41L325.3 182.33L322.72 180.08L326 179.78Z" fill="white"/>
<path d="M339.73 179.78L341.04 177.01L342.61 179.69L345.66 179.93L343.45 182.27L344.18 185.41L341.32 183.67L338.66 185.41L339.03 182.33L336.45 180.08L339.73 179.78Z" fill="#C6C6DB"/>
<path d="M246.64 266.2H351.07V222.34H246.64V266.2Z" fill="#584A65"/>
<path d="M262.95 231.87L250.14 243.86H252.59V255.83H253.83H272.98V243.86H275.75L262.95 231.87Z" fill="#F9FDFE"/>
<path d="M257.96 232.48H254.56V241.36H257.96V232.48Z" fill="#F9FDFE"/>
<path d="M345.77 243.72H281.4V247.37H345.77V243.72Z" fill="#F9FDFE"/>
<path d="M345.77 253.62H281.4V257.27H345.77V253.62Z" fill="#F9FDFE"/>
<path d="M284.67 231.36L285.98 228.58L287.55 231.27L290.6 231.51L288.39 233.85L289.12 236.99L286.26 235.25L283.6 236.99L283.97 233.9L281.38 231.66L284.67 231.36Z" fill="white"/>
<path d="M298.4 231.37L299.71 228.6L301.28 231.29L304.33 231.52L302.12 233.86L302.85 237L299.99 235.26L297.33 237L297.7 233.92L295.11 231.67L298.4 231.37Z" fill="white"/>
<path d="M312.13 231.36L313.44 228.59L315.01 231.27L318.06 231.51L315.85 233.85L316.58 236.99L313.72 235.25L311.06 236.99L311.43 233.91L308.84 231.66L312.13 231.36Z" fill="white"/>
<path d="M325.87 231.36L327.19 228.58L328.75 231.27L331.8 231.51L329.59 233.85L330.32 236.99L327.47 235.25L324.81 236.99L325.17 233.9L322.59 231.66L325.87 231.36Z" fill="white"/>
<path d="M339.6 231.35L340.91 228.58L342.48 231.27L345.53 231.5L343.32 233.84L344.05 236.98L341.19 235.24L338.53 236.98L338.9 233.9L336.32 231.65L339.6 231.35Z" fill="#C6C6DB"/>
<path d="M351.09 273.92H246.66V317.78H351.09V273.92Z" fill="#453653"/>
<path d="M262.97 283.44L250.16 295.43H252.61V307.4H253.86H273V295.43H275.77L262.97 283.44Z" fill="#F9FDFE"/>
<path d="M257.98 284.05H254.58V292.93H257.98V284.05Z" fill="#F9FDFE"/>
<path d="M345.79 295.3H281.42V298.95H345.79V295.3Z" fill="#F9FDFE"/>
<path d="M345.79 305.19H281.42V308.84H345.79V305.19Z" fill="#F9FDFE"/>
<path d="M284.69 282.93L286 280.16L287.57 282.85L290.62 283.08L288.41 285.42L289.14 288.56L286.28 286.82L283.62 288.56L283.99 285.48L281.4 283.23L284.69 282.93Z" fill="white"/>
<path d="M298.42 282.94L299.73 280.17L301.3 282.86L304.35 283.09L302.14 285.44L302.87 288.57L300.01 286.84L297.35 288.57L297.72 285.49L295.14 283.24L298.42 282.94Z" fill="white"/>
<path d="M312.15 282.93L313.47 280.16L315.03 282.85L318.08 283.08L315.87 285.42L316.6 288.56L313.75 286.82L311.08 288.56L311.45 285.48L308.87 283.23L312.15 282.93Z" fill="white"/>
<path d="M325.89 282.93L327.21 280.16L328.78 282.85L331.82 283.08L329.62 285.42L330.34 288.56L327.49 286.82L324.83 288.56L325.19 285.48L322.61 283.23L325.89 282.93Z" fill="white"/>
<path d="M339.62 282.92L340.94 280.15L342.5 282.84L345.55 283.07L343.34 285.42L344.07 288.55L341.22 286.82L338.56 288.55L338.92 285.47L336.34 283.22L339.62 282.92Z" fill="#C6C6DB"/>
<path d="M184.82 238.9C185.15 222.62 172.21 209.16 155.93 208.84C139.65 208.52 126.19 221.45 125.87 237.73C125.74 244.18 127.7 250.18 131.11 255.1H131.02L154.38 286.21L178.95 256.05H178.89C182.5 251.27 184.69 245.35 184.82 238.9Z" fill="#453653"/>
<path d="M156.16 218.3L138.5 234.84H141.87V251.35H157.26V250.77V236.59H165.47V251.34H170V234.83H173.82L156.17 218.29L156.16 218.3ZM153.63 244.05H145.42V236.59H153.63V244.05Z" fill="#F9FDFE"/>
<path d="M211.234 254.779L207.351 266.976L271.498 287.398L275.381 275.202L211.234 254.779Z" fill="#2B193B"/>
<g filter="url(#filter0_d_781_207)">
<path d="M253.12 270.344L250.562 278.377C248.88 283.66 251.8 289.307 257.083 290.989L336.753 316.354C342.037 318.036 347.684 315.116 349.366 309.833L351.923 301.8C353.605 296.516 350.686 290.869 345.402 289.187L265.732 263.823C260.449 262.141 254.802 265.06 253.12 270.344Z" fill="#453653"/>
</g>
<path d="M232.02 256.77L228.03 255.55C227.03 255.24 226.47 254.19 226.77 253.19L227.18 251.85C227.49 250.85 226.92 249.79 225.92 249.49L221.5 248.14C220.5 247.83 219.44 248.4 219.14 249.4L211.56 274.18C211.25 275.18 211.82 276.24 212.82 276.54L217.24 277.89C218.24 278.2 219.3 277.63 219.6 276.63C219.91 275.63 220.96 275.07 221.96 275.37L225.95 276.59C226.95 276.9 228.01 276.33 228.31 275.33L233.26 259.14C233.57 258.14 233 257.08 232 256.78L232.02 256.77Z" fill="#453653"/>
<path d="M216.71 263.18C205.96 296.96 169.73 315.7 135.95 304.94C102.17 294.19 83.43 257.96 94.19 224.18C104.94 190.4 141.17 171.66 174.95 182.42C208.73 193.17 227.47 229.4 216.71 263.18ZM104.7 227.53C95.79 255.51 111.31 285.53 139.3 294.43C167.28 303.34 197.3 287.82 206.2 259.83C215.11 231.85 199.59 201.83 171.6 192.93C143.62 184.02 113.6 199.54 104.7 227.53Z" fill="#453653"/>
<path d="M438 353.47H0V362.47H438V353.47Z" fill="#8F8597"/>
</g>
<defs>
<filter id="filter0_d_781_207" x="248.087" y="260.347" width="118.312" height="69.4834" filterUnits="userSpaceOnUse" color-interpolation-filters="sRGB">
<feFlood flood-opacity="0" result="BackgroundImageFix"/>
<feColorMatrix in="SourceAlpha" type="matrix" values="0 0 0 0 0 0 0 0 0 0 0 0 0 0 0 0 0 0 127 0" result="hardAlpha"/>
<feOffset dx="6" dy="5"/>
<feGaussianBlur stdDeviation="4"/>
<feColorMatrix type="matrix" values="0 0 0 0 0 0 0 0 0 0 0 0 0 0 0 0 0 0 0.25 0"/>
<feBlend mode="normal" in2="BackgroundImageFix" result="effect1_dropShadow_781_207"/>
<feBlend mode="normal" in="SourceGraphic" in2="effect1_dropShadow_781_207" result="shape"/>
</filter>
<clipPath id="clip0_781_207">
<rect width="438" height="362.47" fill="white"/>
</clipPath>
</defs>
</svg>
