<svg width="20" height="18" viewBox="0 0 20 18" fill="none" xmlns="http://www.w3.org/2000/svg">
<g clip-path="url(#clip0_709_408)">
<path d="M19.8415 4.51639C19.7079 3.33165 19.2057 2.28427 18.2267 1.44294C17.1968 0.561536 15.9381 0.166624 14.5586 0.103667C12.2064 -0.0108009 6.62467 -0.0852047 4.66027 0.200964C2.42251 0.532919 0.953976 1.70621 0.33732 3.69794C-0.139476 5.23181 -0.0441169 12.2944 0.229246 13.8054C0.610683 15.8773 1.97114 17.2051 4.24705 17.7316C5.82365 18.0979 13.5795 18.0522 15.3214 17.8003C17.6228 17.4626 19.104 16.2493 19.7016 14.2003C20.1593 12.6264 20.0004 5.93578 19.8415 4.51639ZM17.9978 13.5135C17.7308 15.0875 16.5675 16.0604 14.8128 16.2321C13.1981 16.3924 5.9953 16.4782 4.49498 16.1005C3.06459 15.7399 2.2445 14.8528 2.00928 13.5593C1.78042 12.3173 1.72321 6.13038 2.00928 4.4706C2.26993 2.91384 3.43331 1.94087 5.18157 1.76344C6.95525 1.58602 13.3316 1.56313 15.029 1.79778C16.7709 2.03817 17.8516 3.08554 18.0423 4.67092C18.2203 6.14755 18.2712 11.9224 18.0042 13.5135H17.9978ZM10.0004 4.38475C7.16504 4.38475 4.87006 6.45088 4.87006 8.99778C4.87006 11.5504 7.16504 13.6165 9.99403 13.6165C12.8294 13.6165 15.1244 11.5504 15.1244 9.00351C15.1244 6.45088 12.8294 4.38475 10.0004 4.38475ZM9.96224 11.9854C8.13134 11.9682 6.65646 10.6232 6.67553 8.97489C6.6946 7.32656 8.18856 5.99874 10.0195 6.01591C11.8504 6.03308 13.3252 7.37807 13.3062 9.0264C13.2871 10.6747 11.7931 12.0026 9.96224 11.9854ZM16.5293 4.21305C16.5293 4.80828 15.9889 5.29476 15.3278 5.28904C14.6666 5.28904 14.1263 4.80255 14.1326 4.20732C14.1326 3.61209 14.673 3.12561 15.3341 3.13133C15.9953 3.13133 16.5357 3.61782 16.5293 4.21305Z" fill="white"/>
<path d="M19.8415 4.51639C19.7079 3.33165 19.2057 2.28427 18.2267 1.44294C17.1968 0.561536 15.9381 0.166624 14.5586 0.103667C12.2064 -0.0108009 6.62467 -0.0852047 4.66027 0.200964C2.42251 0.532919 0.953976 1.70621 0.33732 3.69794C-0.139476 5.23181 -0.0441169 12.2944 0.229246 13.8054C0.610683 15.8773 1.97114 17.2051 4.24705 17.7316C5.82365 18.0979 13.5795 18.0522 15.3214 17.8003C17.6228 17.4626 19.104 16.2493 19.7016 14.2003C20.1593 12.6264 20.0004 5.93578 19.8415 4.51639ZM17.9978 13.5135C17.7308 15.0875 16.5675 16.0604 14.8128 16.2321C13.1981 16.3924 5.9953 16.4782 4.49498 16.1005C3.06459 15.7399 2.2445 14.8528 2.00928 13.5593C1.78042 12.3173 1.72321 6.13038 2.00928 4.4706C2.26993 2.91384 3.43331 1.94087 5.18157 1.76344C6.95525 1.58602 13.3316 1.56313 15.029 1.79778C16.7709 2.03817 17.8516 3.08554 18.0423 4.67092C18.2203 6.14755 18.2712 11.9224 18.0042 13.5135H17.9978ZM10.0004 4.38475C7.16504 4.38475 4.87006 6.45088 4.87006 8.99778C4.87006 11.5504 7.16504 13.6165 9.99403 13.6165C12.8294 13.6165 15.1244 11.5504 15.1244 9.00351C15.1244 6.45088 12.8294 4.38475 10.0004 4.38475ZM9.96224 11.9854C8.13134 11.9682 6.65646 10.6232 6.67553 8.97489C6.6946 7.32656 8.18856 5.99874 10.0195 6.01591C11.8504 6.03308 13.3252 7.37807 13.3062 9.0264C13.2871 10.6747 11.7931 12.0026 9.96224 11.9854ZM16.5293 4.21305C16.5293 4.80828 15.9889 5.29476 15.3278 5.28904C14.6666 5.28904 14.1263 4.80255 14.1326 4.20732C14.1326 3.61209 14.673 3.12561 15.3341 3.13133C15.9953 3.13133 16.5357 3.61782 16.5293 4.21305Z" fill="white"/>
</g>
<defs>
<clipPath id="clip0_709_408">
<rect width="20" height="18" fill="white"/>
</clipPath>
</defs>
</svg>
