<svg width="10" height="10" viewBox="0 0 10 12" fill="current" xmlns="http://www.w3.org/2000/svg">
<path d="M0.754948 5.87107C0.754137 6.01141 0.781035 6.15052 0.8341 6.28044C0.887165 6.41036 0.965353 6.52852 1.06418 6.62816L5.32946 10.8934C5.42888 10.9929 5.54691 11.0717 5.67681 11.1255C5.80671 11.1793 5.94594 11.207 6.08654 11.207C6.22715 11.207 6.36638 11.1793 6.49628 11.1255C6.62618 11.0717 6.74421 10.9929 6.84363 10.8934C6.94305 10.794 7.02192 10.676 7.07573 10.5461C7.12953 10.4162 7.15723 10.277 7.15723 10.1363C7.15723 9.99574 7.12953 9.85652 7.07573 9.72662C7.02192 9.59671 6.94305 9.47868 6.84363 9.37926L3.31411 5.87107L6.70501 2.35222C6.81408 2.25412 6.90174 2.13458 6.96251 2.00107C7.02327 1.86755 7.05584 1.72293 7.05816 1.57625C7.06049 1.42958 7.03252 1.284 6.97602 1.14863C6.91951 1.01325 6.83568 0.890992 6.72977 0.789494C6.62386 0.687995 6.49814 0.60944 6.36049 0.558743C6.22283 0.508048 6.0762 0.4863 5.92975 0.494861C5.78331 0.503421 5.6402 0.542107 5.50939 0.608496C5.37858 0.674885 5.26287 0.767549 5.16951 0.880697L1.05352 5.14597C0.865509 5.34098 0.758761 5.60022 0.754948 5.87107Z" fill="#2B193B"/>
<rect width="10" height="10" fill="none"/>
</svg>
