<svg width="18" height="18" viewBox="0 0 18 18" fill="none" xmlns="http://www.w3.org/2000/svg">
<g clip-path="url(#clip0_709_403)">
<path d="M0.299773 5.97723H4.03331V18.0068H0.299773V5.97723ZM2.16654 0C3.35882 0 4.32627 0.970019 4.32627 2.16546C4.32627 3.36091 3.35882 4.33776 2.16654 4.33776C0.974262 4.33776 0 3.36091 0 2.16546C0 0.970019 0.967449 0 2.16654 0Z" fill="white"/>
<path d="M6.37012 5.97733H9.94695V7.62363H9.99464C10.492 6.67411 11.7115 5.68359 13.5238 5.68359C17.2982 5.68359 17.9931 8.17012 17.9931 11.4149V18.0138H14.2664V12.1663C14.2664 10.7728 14.2392 8.97619 12.3315 8.97619C10.4239 8.97619 10.0968 10.4927 10.0968 12.0639V18.0138H6.37012V5.97733Z" fill="white"/>
</g>
<defs>
<clipPath id="clip0_709_403">
<rect width="18" height="18" fill="white"/>
</clipPath>
</defs>
</svg>
