<svg width="24" height="24" viewBox="0 0 24 24" fill="current" xmlns="http://www.w3.org/2000/svg">
<path d="M4.8 0C2.14903 0 0 2.14903 0 4.8V10.8H12.703L9.95148 8.04853C9.48288 7.5799 9.48288 6.8201 9.95148 6.35147C10.4201 5.88284 11.1799 5.88284 11.6485 6.35147L16.4477 11.1506L16.4563 11.1594C16.5676 11.2726 16.6517 11.4024 16.7089 11.5406C16.7672 11.6812 16.7995 11.835 16.8 11.9964V12V12.0036C16.799 12.3295 16.6681 12.625 16.4563 12.8406L16.4477 12.8494L11.6485 17.6485C11.1799 18.1171 10.4201 18.1171 9.95148 17.6485C9.48288 17.1799 9.48288 16.4201 9.95148 15.9515L12.703 13.2H0V19.2C0 21.8509 2.14903 24 4.8 24H19.2C21.8509 24 24 21.8509 24 19.2V4.8C24 2.14903 21.8509 0 19.2 0H4.8Z" fill="current"/>
</svg>
