<svg width="21" height="21" viewBox="0 0 21 21" fill="current" xmlns="http://www.w3.org/2000/svg">
<g clip-path="url(#clip0_581_386)">
<path d="M10.5 0C4.70154 0 0 4.70154 0 10.5C0 16.2985 4.70154 21 10.5 21C16.2985 21 21 16.2985 21 10.5C21 4.70154 16.2985 0 10.5 0ZM10.5 3.32111C11.3202 3.32111 11.9884 3.98602 11.9884 4.80617C11.9884 5.62632 11.3202 6.29459 10.5 6.29459C9.67985 6.29459 9.01158 5.62632 9.01158 4.80617C9.01158 3.98601 9.67985 3.32111 10.5 3.32111ZM13.6524 17.095C13.6524 17.419 13.3925 17.6789 13.0685 17.6789H7.93154C7.60752 17.6789 7.34762 17.419 7.34762 17.095V15.9069C7.34762 15.5863 7.60752 15.323 7.93154 15.323H9.01158V10.0443H8.48842C7.94165 10.0443 7.56702 9.49084 7.77289 8.98457L8.09691 8.17454C8.21166 7.8809 8.49856 7.68852 8.81244 7.68852H11.364C11.7083 7.68852 11.9884 7.96528 11.9884 8.30955V15.323H13.0685C13.3925 15.323 13.6524 15.5863 13.6524 15.9069L13.6524 17.095Z" fill="current"/>
</g>
<defs>
<clipPath id="clip0_581_386">
<rect width="21" height="21" fill="white"/>
</clipPath>
</defs>
</svg>
