<svg width="23" height="23" viewBox="0 0 23 23" fill="none" xmlns="http://www.w3.org/2000/svg">
<path d="M2.1131 10.8272H0.675736C0.303334 10.8272 0.00195312 11.1285 0.00195312 11.501V22.3262C0.00195312 22.6986 0.303289 23 0.675736 23H2.1131C3.2277 23 4.13441 22.0933 4.13441 20.9787V12.8485C4.13441 11.7339 3.22775 10.8272 2.1131 10.8272Z" fill="#4E196F"/>
<path d="M22.4475 12.4308C21.8949 12.0265 21.1269 12.1074 20.6687 12.606L17.0304 17.1337C16.7743 17.4032 16.2892 17.5649 16.0332 17.5649H10.1983C9.82094 17.5649 9.5245 17.2685 9.5245 16.8911C9.5245 16.5137 9.82089 16.2173 10.1983 16.2173C13.2168 16.2173 12.2331 16.2173 15.5885 16.2173C16.3296 16.2173 16.936 15.6109 16.936 14.8698C16.936 14.1287 16.3296 13.5223 15.5885 13.5223C12.4242 13.5223 15.4425 13.5223 12.0579 13.5223C11.7221 13.5223 11.5547 13.3093 11.2898 13.0776C10.8855 12.7138 10.4274 12.4443 9.95575 12.2556C8.49552 11.6593 6.80821 11.8398 5.48193 12.7621C5.48193 15.2155 5.48193 18.8712 5.48193 21.6524H15.5885C16.8552 21.6524 18.068 21.046 18.8227 20.0354L22.7305 14.3308C23.1751 13.7379 23.0538 12.8755 22.4475 12.4308Z" fill="#2B193B"/>
<path d="M22.1187 9.14809L19.2281 6.25746V2.91829C19.2281 2.31452 18.7388 1.82522 18.1342 1.82522C17.5309 1.82522 17.0417 2.31452 17.0417 2.91829V4.07104L14.8893 1.91866C13.8252 0.855115 11.9751 0.857001 10.9134 1.92058L3.68572 9.14809C3.25906 9.5756 3.25906 10.2673 3.68572 10.6942C4.11258 11.1216 4.80567 11.1216 5.23237 10.6942L12.4593 3.4665C12.6948 3.2323 13.1097 3.2323 13.3439 3.46581L20.5721 10.6942C20.7865 10.9079 21.0659 11.0142 21.3453 11.0142C21.6252 11.0142 21.9051 10.9078 22.1188 10.6942C22.5456 10.2674 22.5456 9.57564 22.1187 9.14809Z" fill="#2B193B"/>
<path d="M12.8922 4.95541L6.82959 10.5517V10.7345C7.27436 10.6321 7.72771 10.5627 8.19158 10.5627C8.97659 10.5627 9.74111 10.7127 10.4649 11.0081C10.6076 11.0652 10.7356 11.146 10.8722 11.2132V10.1535C10.8722 9.78106 11.1735 9.47968 11.5459 9.47968H14.241C14.6134 9.47968 14.9148 9.78101 14.9148 10.1535V12.1748H15.5886C16.6697 12.1748 17.604 12.8143 18.033 13.7348L18.9575 12.5844V10.5677L12.8922 4.95541Z" fill="#4E196F"/>
<path d="M12.2197 10.8272V12.1016L12.3007 12.1748H13.5673V10.8272H12.2197Z" fill="black"/>
</svg>
