<svg width="10" height="10" viewBox="0 0 10 12" fill="current" xmlns="http://www.w3.org/2000/svg">
<path d="M6.55267 5.87107C6.55348 6.01141 6.52658 6.15052 6.47352 6.28044C6.42045 6.41036 6.34226 6.52852 6.24344 6.62816L1.97816 10.8934C1.87874 10.9929 1.76071 11.0717 1.63081 11.1255C1.5009 11.1793 1.36168 11.207 1.22107 11.207C1.08047 11.207 0.941241 11.1793 0.81134 11.1255C0.681439 11.0717 0.563408 10.9929 0.463986 10.8934C0.364564 10.794 0.285698 10.676 0.231891 10.5461C0.178084 10.4162 0.150391 10.277 0.150391 10.1363C0.150391 9.99574 0.178084 9.85652 0.231891 9.72662C0.285698 9.59671 0.364564 9.47868 0.463986 9.37926L3.9935 5.87107L0.602607 2.35222C0.493534 2.25412 0.405873 2.13458 0.345108 2.00107C0.284342 1.86755 0.25178 1.72293 0.249456 1.57625C0.247132 1.42958 0.275097 1.284 0.331602 1.14863C0.388107 1.01325 0.471938 0.890992 0.577849 0.789494C0.683761 0.687995 0.809475 0.60944 0.947131 0.558743C1.08479 0.508048 1.23142 0.4863 1.37787 0.494861C1.52431 0.503421 1.66741 0.542107 1.79823 0.608496C1.92904 0.674885 2.04474 0.767549 2.13811 0.880697L6.2541 5.14597C6.44211 5.34098 6.54886 5.60022 6.55267 5.87107Z" fill="current"/>
<rect width="10" height="10" fill="none"/>
</svg>
