<svg width="20" height="16" viewBox="0 0 20 16" fill="none" xmlns="http://www.w3.org/2000/svg">
<g clip-path="url(#clip0_709_406)">
<path fill-rule="evenodd" clip-rule="evenodd" d="M6.06436 12.521C3.92883 12.447 2.59413 10.9399 2.23821 9.71531C2.83369 9.82297 3.41549 9.80278 3.99728 9.66149C4.01097 9.66149 4.02466 9.64803 4.05888 9.63457C2.90214 9.37217 2.01234 8.75989 1.38948 7.77755C0.978799 7.1249 0.780305 6.4117 0.787149 5.63121C1.3621 5.93399 1.97127 6.10219 2.61467 6.12238C1.7454 5.50337 1.1636 4.7027 0.924042 3.67326C0.68448 2.64383 0.841907 1.66822 1.3621 0.746433C3.5866 3.32339 6.40659 4.73634 9.83575 4.9651C9.80837 4.80362 9.78784 4.66233 9.7673 4.52103C9.65094 3.57234 9.84259 2.6842 10.3696 1.87679C11.0199 0.867544 11.9576 0.241808 13.1554 0.0534141C14.538 -0.168621 15.7427 0.214894 16.7557 1.17705C16.8241 1.24433 16.8789 1.26452 16.9747 1.24433C17.8166 1.06267 18.6174 0.766618 19.3635 0.342733C19.384 0.329276 19.3977 0.322548 19.4182 0.315819C19.4182 0.315819 19.4319 0.315819 19.4456 0.315819C19.1239 1.25779 18.5284 1.97772 17.6865 2.51599C18.4805 2.42852 19.2403 2.21994 19.9726 1.91044C19.9726 1.91044 19.9863 1.92389 19.9863 1.93062C19.8289 2.13247 19.6783 2.34105 19.514 2.53617C19.076 3.06771 18.5763 3.53197 18.0219 3.92894C17.974 3.96258 17.9535 3.99622 17.9535 4.05678C17.974 4.6556 17.9535 5.25442 17.8782 5.85325C17.7208 7.11145 17.3648 8.30909 16.8173 9.45291C16.256 10.6304 15.5168 11.7002 14.5928 12.6354C13.0253 14.2233 11.1431 15.2527 8.94595 15.7305C8.19304 15.8919 7.42644 15.9794 6.65984 15.9996C4.2916 16.0669 2.10132 15.4882 0.0821529 14.2637C0.0547744 14.2502 0.0342405 14.23 -0.0136719 14.2031C1.4237 14.3579 2.78578 14.1762 4.09995 13.6447C4.7981 13.3621 5.4415 12.9987 6.05751 12.5278L6.06436 12.521Z" fill="white"/>
</g>
<defs>
<clipPath id="clip0_709_406">
<rect width="20" height="16" fill="white"/>
</clipPath>
</defs>
</svg>
