<svg width="61" height="61" viewBox="0 0 61 61" fill="current" xmlns="http://www.w3.org/2000/svg">
<g clip-path="url(#clip0_776_446)">
<path d="M35.4107 10.1667C37.4782 10.1687 39.4604 10.9909 40.9223 12.4528C42.3843 13.9148 43.2065 15.897 43.2085 17.9645C43.2085 18.6386 43.4763 19.2851 43.9529 19.7617C44.4296 20.2384 45.0761 20.5062 45.7502 20.5062C46.4243 20.5062 47.0707 20.2384 47.5474 19.7617C48.024 19.2851 48.2918 18.6386 48.2918 17.9645V17.7917C48.2918 17.7434 48.2918 17.7002 48.2918 17.6519C48.207 14.2911 46.8129 11.0964 44.4067 8.74856C42.0005 6.40076 38.7725 5.08558 35.4107 5.08333H33.0418V2.54167C33.0418 1.86757 32.774 1.22109 32.2974 0.744437C31.8207 0.267782 31.1743 0 30.5002 0C29.8261 0 29.1796 0.267782 28.7029 0.744437C28.2263 1.22109 27.9585 1.86757 27.9585 2.54167V5.08333H25.5897C22.5328 5.0866 19.5768 6.17684 17.2499 8.1592C14.923 10.1416 13.377 12.8868 12.8881 15.9043C12.3992 18.9218 12.9993 22.0147 14.5812 24.6304C16.1631 27.2461 18.6236 29.214 21.523 30.1823L27.9585 32.33V50.8333H25.5897C23.5222 50.8313 21.5399 50.0091 20.078 48.5472C18.6161 47.0852 17.7938 45.103 17.7918 43.0355C17.7918 42.3614 17.524 41.7149 17.0474 41.2383C16.5707 40.7616 15.9243 40.4938 15.2502 40.4938C14.5761 40.4938 13.9296 40.7616 13.4529 41.2383C12.9763 41.7149 12.7085 42.3614 12.7085 43.0355V43.2083C12.7085 43.2566 12.7085 43.2998 12.7085 43.3481C12.7933 46.7089 14.1874 49.9036 16.5936 52.2514C18.9998 54.5992 22.2278 55.9144 25.5897 55.9167H27.9585V58.4583C27.9585 59.1324 28.2263 59.7789 28.7029 60.2556C29.1796 60.7322 29.8261 61 30.5002 61C31.1743 61 31.8207 60.7322 32.2974 60.2556C32.774 59.7789 33.0418 59.1324 33.0418 58.4583V55.9167H35.4107C38.4675 55.9134 41.4235 54.8232 43.7504 52.8408C46.0773 50.8584 47.6233 48.1132 48.1122 45.0957C48.6012 42.0783 48.001 38.9853 46.4191 36.3696C44.8373 33.7539 42.3767 31.786 39.4773 30.8177L33.0418 28.67V10.1667H35.4107ZM37.8761 35.6367C39.6334 36.2216 41.1252 37.4129 42.0844 38.9974C43.0435 40.5819 43.4073 42.456 43.1107 44.2843C42.8141 46.1125 41.8765 47.7755 40.4656 48.9754C39.0547 50.1754 37.2628 50.834 35.4107 50.8333H33.0418V34.0253L37.8761 35.6367ZM27.9585 26.9747L23.1293 25.3633C21.3724 24.7785 19.8809 23.5876 18.9217 22.0037C17.9625 20.4197 17.5983 18.5462 17.8943 16.7183C18.1902 14.8903 19.127 13.2274 20.5369 12.027C21.9469 10.8266 23.7379 10.1672 25.5897 10.1667H27.9585V26.9747Z" fill="current"/>
</g>
<defs>
<clipPath id="clip0_776_446">
<rect width="61" height="61" fill="white"/>
</clipPath>
</defs>
</svg>
