<svg width="70" height="70" viewBox="0 0 70 70" fill="current" xmlns="http://www.w3.org/2000/svg">
<g clip-path="url(#clip0_776_433)">
<path d="M66.8558 4.95849C65.8736 4.1352 64.7218 3.53892 63.4825 3.21221C62.2432 2.8855 60.9471 2.83643 59.6867 3.06849L41.6617 6.3439C39.0823 6.80897 36.7352 8.13049 35 10.0947C33.2661 8.12725 30.9188 6.80257 28.3383 6.33515L10.3133 3.05974C9.05266 2.83081 7.75709 2.88155 6.51818 3.20836C5.27927 3.53517 4.12725 4.13009 3.14353 4.95106C2.15981 5.77203 1.36839 6.79903 0.825202 7.95949C0.282014 9.11994 0.00031134 10.3855 0 11.6668L0 60.766L35 67.1331L70 60.766V11.6668C70.0001 10.3865 69.7185 9.12177 69.1751 7.96243C68.6318 6.8031 67.8399 5.77754 66.8558 4.95849ZM32.0833 60.6668L5.83333 55.901V11.6668C5.8337 11.2398 5.92782 10.818 6.10907 10.4314C6.29031 10.0447 6.55425 9.70258 6.88223 9.42912C7.21022 9.15566 7.59425 8.95755 8.0072 8.8488C8.42015 8.74005 8.85195 8.7233 9.27208 8.79974L27.2942 12.0752C28.6382 12.3197 29.8538 13.0282 30.7291 14.0772C31.6043 15.1261 32.0835 16.449 32.0833 17.8152V60.6668ZM64.1667 55.8952L37.9167 60.6668V17.8152C37.9165 16.449 38.3957 15.1261 39.271 14.0772C40.1462 13.0282 41.3618 12.3197 42.7058 12.0752L60.7279 8.79974C61.148 8.7233 61.5798 8.74005 61.9928 8.8488C62.4058 8.95755 62.7898 9.15566 63.1178 9.42912C63.4458 9.70258 63.7097 10.0447 63.8909 10.4314C64.0722 10.818 64.1663 11.2398 64.1667 11.6668V55.8952Z" fill="current"/>
</g>
<defs>
<clipPath id="clip0_776_433">
<rect width="70" height="70" fill="white"/>
</clipPath>
</defs>
</svg>
