<svg width="48" height="48" viewBox="0 0 48 48" fill="current" xmlns="http://www.w3.org/2000/svg">
<g clip-path="url(#clip0_777_491)">
<path d="M40.0005 0H10.0005C8.40919 0 6.88307 0.632141 5.75785 1.75736C4.63263 2.88258 4.00049 4.4087 4.00049 6V42C4.00049 43.5913 4.63263 45.1174 5.75785 46.2426C6.88307 47.3679 8.40919 48 10.0005 48H44.0005V4C44.0005 2.93913 43.5791 1.92172 42.8289 1.17157C42.0788 0.421427 41.0614 0 40.0005 0V0ZM40.0005 36H16.0005V4H40.0005V36ZM10.0005 4H12.0005V36H10.0345C9.33995 36.006 8.65173 36.1325 8.00049 36.374V6C8.00049 5.46957 8.2112 4.96086 8.58628 4.58579C8.96135 4.21071 9.47006 4 10.0005 4ZM10.0005 44C9.47282 44 8.96652 43.7915 8.5919 43.4199C8.21729 43.0483 8.00471 42.5437 8.00049 42.016H8.03049C8.02838 41.752 8.07855 41.4902 8.17811 41.2457C8.27768 41.0012 8.42466 40.7788 8.61059 40.5914C8.79652 40.404 9.01771 40.2553 9.26141 40.1538C9.50511 40.0522 9.76649 40 10.0305 40H40.0005V44H10.0005Z" fill="current"/>
</g>
<defs>
<clipPath id="clip0_777_491">
<rect width="48" height="48" fill="white"/>
</clipPath>
</defs>
</svg>
