<svg width="54" height="54" viewBox="0 0 54 54" fill="current" xmlns="http://www.w3.org/2000/svg">
<g clip-path="url(#clip0_777_507)">
<path d="M44.9992 27.0001C43.6189 26.9998 42.2571 27.3175 41.0194 27.9286C39.7817 28.5396 38.7013 29.4276 37.8622 30.5236L37.7047 30.4561C38.3235 28.5391 38.4163 26.4912 37.9733 24.5261C37.5303 22.5611 36.5678 20.751 35.1864 19.285C33.8049 17.8189 32.0552 16.7507 30.1199 16.1918C28.1846 15.6329 26.1348 15.6039 24.1845 16.1078L23.9797 15.7208C25.6141 14.2667 26.662 12.2665 26.9272 10.095C27.1924 7.92357 26.6566 5.72993 25.4203 3.92522C24.1839 2.12051 22.3319 0.828604 20.2112 0.291624C18.0905 -0.245356 15.8468 0.00944697 13.9006 1.00828C11.9543 2.00712 10.4391 3.68142 9.63895 5.71741C8.83876 7.7534 8.80851 10.0113 9.55387 12.068C10.2992 14.1247 11.769 15.839 13.6878 16.8896C15.6066 17.9402 17.8427 18.2551 19.977 17.7751L20.1412 18.0833C17.8913 19.8098 16.3778 22.3235 15.9046 25.1197C15.4313 27.9159 16.0333 30.7876 17.5897 33.1583L13.3485 37.1251C11.4314 36.0659 9.19388 35.7422 7.05521 36.2145C4.91653 36.6868 3.02349 37.9228 1.73082 39.6909C0.438148 41.4589 -0.165428 43.6377 0.0331953 45.8189C0.231819 48.0001 1.21901 50.034 2.80977 51.5395C4.40054 53.045 6.4857 53.9187 8.67451 53.997C10.8633 54.0752 13.0056 53.3526 14.6998 51.9646C16.394 50.5766 17.5239 48.6184 17.8778 46.4569C18.2317 44.2955 17.7853 42.0792 16.6222 40.2233L20.7577 36.3578C23.0291 37.876 25.7758 38.5144 28.4838 38.1537C31.1919 37.793 33.6757 36.4578 35.4705 34.3981L36.0982 34.6658C35.8259 36.4826 36.116 38.3392 36.9297 39.9863C37.7434 41.6334 39.0416 42.992 40.6499 43.8797C42.2583 44.7673 44.0998 45.1416 45.9271 44.9521C47.7544 44.7626 49.4799 44.0185 50.8719 42.8196C52.2639 41.6208 53.2557 40.0247 53.7141 38.2457C54.1725 36.4668 54.0755 34.5901 53.4361 32.8679C52.7968 31.1456 51.6457 29.6603 50.1375 28.6114C48.6294 27.5625 46.8363 27.0002 44.9992 27.0001ZM13.4992 9.00009C13.4992 8.11007 13.7631 7.24004 14.2576 6.50002C14.7521 5.76 15.4549 5.18322 16.2771 4.84263C17.0994 4.50204 18.0042 4.41292 18.8771 4.58655C19.75 4.76019 20.5519 5.18877 21.1812 5.81811C21.8105 6.44744 22.2391 7.24927 22.4128 8.12218C22.5864 8.9951 22.4973 9.8999 22.1567 10.7222C21.8161 11.5444 21.2393 12.2472 20.4993 12.7417C19.7593 13.2362 18.8892 13.5001 17.9992 13.5001C16.8058 13.5001 15.6612 13.026 14.8172 12.1821C13.9733 11.3382 13.4992 10.1936 13.4992 9.00009ZM8.99922 49.5001C8.10921 49.5001 7.23918 49.2362 6.49916 48.7417C5.75914 48.2472 5.18236 47.5444 4.84177 46.7222C4.50117 45.8999 4.41206 44.9951 4.58569 44.1222C4.75932 43.2493 5.18791 42.4474 5.81724 41.8181C6.44658 41.1888 7.2484 40.7602 8.12132 40.5866C8.99423 40.4129 9.89903 40.502 10.7213 40.8426C11.5436 41.1832 12.2464 41.76 12.7408 42.5C13.2353 43.24 13.4992 44.1101 13.4992 45.0001C13.4992 46.1936 13.0251 47.3382 12.1812 48.1821C11.3373 49.026 10.1927 49.5001 8.99922 49.5001ZM26.9992 33.7501C25.5383 33.7472 24.1177 33.2705 22.9508 32.3914C21.784 31.5123 20.9338 30.2784 20.528 28.8749C20.1222 27.4714 20.1828 25.9742 20.7005 24.608C21.2182 23.2419 22.1652 22.0806 23.3992 21.2986L24.315 20.8103C25.2351 20.4101 26.233 20.22 27.2358 20.254C28.2387 20.2879 29.2214 20.545 30.1123 21.0066C31.0033 21.4682 31.7802 22.1226 32.3864 22.9222C32.9926 23.7218 33.4129 24.6465 33.6167 25.629C33.8206 26.6116 33.8028 27.6272 33.5646 28.6019C33.3265 29.5767 32.874 30.4861 32.2402 31.264C31.6063 32.0419 30.807 32.6687 29.9004 33.0987C28.9938 33.5288 28.0027 33.7513 26.9992 33.7501ZM44.9992 40.5001C44.1092 40.5001 43.2392 40.2362 42.4992 39.7417C41.7591 39.2472 41.1824 38.5444 40.8418 37.7222C40.5012 36.8999 40.4121 35.9951 40.5857 35.1222C40.7593 34.2493 41.1879 33.4474 41.8172 32.8181C42.4466 32.1888 43.2484 31.7602 44.1213 31.5866C44.9942 31.4129 45.899 31.502 46.7213 31.8426C47.5436 32.1832 48.2464 32.76 48.7408 33.5C49.2353 34.24 49.4992 35.1101 49.4992 36.0001C49.4992 37.1936 49.0251 38.3382 48.1812 39.1821C47.3373 40.026 46.1927 40.5001 44.9992 40.5001Z" fill="current"/>
</g>
<defs>
<clipPath id="clip0_777_507">
<rect width="54" height="54" fill="white"/>
</clipPath>
</defs>
</svg>
