<svg width="63" height="63" viewBox="0 0 63 63" fill="current" xmlns="http://www.w3.org/2000/svg">
<g clip-path="url(#clip0_776_459)">
<path d="M35.0122 2.18674C34.0482 1.31901 32.7971 0.838867 31.5 0.838867C30.2029 0.838867 28.9518 1.31901 27.9877 2.18674L0 27.3762V54.6762C0 56.9041 0.884997 59.0406 2.4603 60.6159C4.03561 62.1912 6.17218 63.0762 8.4 63.0762H54.6C56.8278 63.0762 58.9644 62.1912 60.5397 60.6159C62.115 59.0406 63 56.9041 63 54.6762V27.3762L35.0122 2.18674ZM39.375 57.8184H23.625V44.6251C23.625 42.5365 24.4547 40.5335 25.9315 39.0567C27.4084 37.5798 29.4114 36.7501 31.5 36.7501C33.5886 36.7501 35.5916 37.5798 37.0685 39.0567C38.5453 40.5335 39.375 42.5365 39.375 44.6251V57.8184ZM57.75 54.6684C57.75 55.5038 57.4181 56.305 56.8274 56.8958C56.2366 57.4865 55.4354 57.8184 54.6 57.8184H44.625V44.6251C44.625 41.1442 43.2422 37.8058 40.7808 35.3443C38.3194 32.8829 34.981 31.5001 31.5 31.5001C28.019 31.5001 24.6806 32.8829 22.2192 35.3443C19.7578 37.8058 18.375 41.1442 18.375 44.6251V57.8184H8.4C7.56457 57.8184 6.76335 57.4865 6.17261 56.8958C5.58187 56.305 5.25 55.5038 5.25 54.6684V29.7125L31.5 6.08749L57.75 29.7125V54.6684Z" fill="current"/>
</g>
<defs>
<clipPath id="clip0_776_459">
<rect width="63" height="63" fill="white"/>
</clipPath>
</defs>
</svg>
