<svg width="68" height="68" viewBox="0 0 68 68" fill="current" xmlns="http://www.w3.org/2000/svg">
<g clip-path="url(#clip0_777_509)">
<path d="M19.8333 34H34V39.6667H19.8333V34ZM48.1667 22.6667H19.8333V28.3333H48.1667V22.6667ZM48.1667 11.3333H19.8333V17H48.1667V11.3333ZM56.6667 55.0913V68L51 62.3333L45.3333 68V55.0913C43.1725 53.8498 41.4828 51.9286 40.5275 49.6269C39.5722 47.3251 39.4048 44.7721 40.0514 42.3653C40.698 39.9586 42.1224 37.8332 44.1026 36.3201C46.0829 34.8071 48.5079 33.9914 51 34C51.9578 34.012 52.9101 34.1472 53.8333 34.4023V8.5C53.8333 7.74855 53.5348 7.02788 53.0035 6.49653C52.4721 5.96518 51.7514 5.66667 51 5.66667H17C16.2486 5.66667 15.5279 5.96518 14.9965 6.49653C14.4652 7.02788 14.1667 7.74855 14.1667 8.5V56.6667H39.6667V62.3333H8.5V8.5C8.5 6.24566 9.39553 4.08365 10.9896 2.48959C12.5837 0.895533 14.7457 0 17 0L51 0C53.2543 0 55.4164 0.895533 57.0104 2.48959C58.6045 4.08365 59.5 6.24566 59.5 8.5V37.9157C60.6099 39.162 61.4269 40.6408 61.8914 42.2438C62.3558 43.8468 62.4559 45.5333 62.1843 47.18C61.9126 48.8266 61.2762 50.3917 60.3215 51.7606C59.3668 53.1294 58.118 54.2675 56.6667 55.0913ZM56.6667 45.3333C56.6667 44.2126 56.3343 43.117 55.7117 42.1851C55.089 41.2532 54.204 40.5269 53.1685 40.098C52.1331 39.6691 50.9937 39.5569 49.8945 39.7755C48.7953 39.9942 47.7856 40.5339 46.9931 41.3264C46.2006 42.1189 45.6609 43.1286 45.4422 44.2278C45.2236 45.327 45.3358 46.4664 45.7647 47.5019C46.1936 48.5373 46.9199 49.4223 47.8518 50.045C48.7836 50.6677 49.8792 51 51 51C52.5029 51 53.9442 50.403 55.0069 49.3403C56.0696 48.2776 56.6667 46.8362 56.6667 45.3333Z" fill="current"/>
</g>
<defs>
<clipPath id="clip0_777_509">
<rect width="68" height="68" fill="white"/>
</clipPath>
</defs>
</svg>
