<svg width="67" height="67" viewBox="0 0 67 67" fill="current" xmlns="http://www.w3.org/2000/svg">
<g clip-path="url(#clip0_776_390)">
<path d="M33.5 67C26.8743 67 20.3975 65.0353 14.8884 61.3542C9.37936 57.6732 5.08559 52.4412 2.55005 46.3199C0.0145151 40.1986 -0.648897 33.4629 0.643708 26.9645C1.93631 20.4661 5.12688 14.497 9.81194 9.81194C14.497 5.12688 20.4661 1.93631 26.9645 0.643708C33.4629 -0.648897 40.1986 0.0145151 46.3199 2.55005C52.4412 5.08559 57.6732 9.37936 61.3542 14.8884C65.0353 20.3975 67 26.8743 67 33.5C66.9904 42.3818 63.4579 50.8971 57.1775 57.1775C50.8971 63.4579 42.3818 66.9904 33.5 67ZM33.5 5.58335C27.9786 5.58335 22.5812 7.22063 17.9903 10.2882C13.3995 13.3557 9.82133 17.7157 7.70838 22.8168C5.59543 27.9179 5.04259 33.531 6.11976 38.9463C7.19693 44.3616 9.85573 49.3359 13.76 53.2401C17.6642 57.1443 22.6384 59.8031 28.0537 60.8803C33.469 61.9574 39.0822 61.4046 44.1833 59.2917C49.2844 57.1787 53.6444 53.6006 56.7119 49.0097C59.7794 44.4188 61.4167 39.0214 61.4167 33.5C61.4086 26.0986 58.4647 19.0026 53.2311 13.7689C47.9975 8.5353 40.9015 5.59148 33.5 5.58335Z" fill="#2B193B"/>
<path d="M36.2908 41.8737H30.7075V39.7994C30.6663 37.8297 31.153 35.8848 32.1171 34.1667C33.0812 32.4485 34.4876 31.0197 36.1903 30.0286C37.2218 29.4605 38.0472 28.5808 38.5486 27.5154C39.05 26.4499 39.2017 25.2532 38.982 24.0963C38.7645 22.9942 38.2233 21.9819 37.4277 21.1888C36.6321 20.3956 35.6181 19.8577 34.5153 19.6436C33.7106 19.4947 32.8829 19.5244 32.0909 19.7309C31.2989 19.9373 30.562 20.3154 29.9323 20.8382C29.3026 21.3611 28.7956 22.016 28.4472 22.7565C28.0987 23.4971 27.9173 24.3052 27.9158 25.1237H22.3325C22.3332 23.1541 22.8548 21.2199 23.8444 19.517C24.8339 17.8142 26.2562 16.4033 27.9671 15.4276C29.6779 14.4519 31.6163 13.946 33.5858 13.9613C35.5552 13.9765 37.4856 14.5124 39.1811 15.5146C40.8765 16.5167 42.2768 17.9494 43.2398 19.6674C44.2029 21.3854 44.6944 23.3276 44.6645 25.2969C44.6347 27.2661 44.0845 29.1925 43.0699 30.8805C42.0552 32.5685 40.6121 33.9582 38.8871 34.9084C38.0628 35.4238 37.3889 36.1472 36.9331 37.0058C36.4773 37.8644 36.2558 38.828 36.2908 39.7994V41.8737Z" fill="#2B193B"/>
<path d="M36.2909 47.457H30.7075V53.0404H36.2909V47.457Z" fill="current"/>
</g>
<defs>
<clipPath id="clip0_776_390">
<rect width="67" height="67" fill="white"/>
</clipPath>
</defs>
</svg>
