<svg width="99" height="99" viewBox="0 0 99 99" fill="none" xmlns="http://www.w3.org/2000/svg">
<g clip-path="url(#clip0_873_3335)">
<path d="M75.9562 34.3034L84.3441 32.3492C84.3441 32.3492 89.9524 31.8448 90.7107 36.8327C91.469 41.8207 91.2492 71.3724 91.0119 77.4669C90.9336 79.4756 90.9433 81.3317 91.1142 82.9503C91.47 86.3214 88.8415 89.2661 85.4543 89.325L69.8389 89.5956L75.9566 34.3034H75.9562Z" fill="#3B2C68"/>
<path d="M71.4935 91.9975C71.4935 91.9975 73.1692 68.4864 85.0872 54.1546C85.2427 53.9678 85.5116 54.0145 85.5938 54.2444C86.8925 57.875 94.1918 81.2222 71.4932 91.9975H71.4935Z" fill="#8F66A7"/>
<path d="M84.5729 60.9776C84.4723 62.3493 84.2741 63.7027 84.044 65.054C83.8063 66.4031 83.527 67.745 83.1981 69.0758C82.5421 71.7374 81.7217 74.3619 80.7124 76.9161C80.2037 78.1912 79.664 79.4551 79.0601 80.6889C78.7675 81.3101 78.4408 81.9151 78.1277 82.5263C77.7949 83.1274 77.4703 83.7328 77.1102 84.3184C75.7153 86.6843 74.0813 88.914 72.2161 90.9206C72.1604 90.9802 72.0671 90.9838 72.0071 90.9281C71.9508 90.8757 71.9446 90.7898 71.9902 90.7298L71.9917 90.728C73.6515 88.5752 75.1469 86.312 76.4438 83.9365C76.7781 83.3483 77.0754 82.7401 77.3938 82.1437C77.6897 81.535 77.9988 80.9336 78.2742 80.3156C78.4124 80.007 78.5625 79.7038 78.6964 79.393L79.1047 78.4639C79.2386 78.1531 79.3642 77.8391 79.4942 77.5269C79.626 77.2154 79.7488 76.8999 79.8701 76.5841C80.1222 75.9561 80.3563 75.3209 80.5929 74.6864C80.8184 74.0479 81.0438 73.4095 81.2546 72.7657C81.6894 71.4823 82.0757 70.1828 82.4484 68.8789C82.8136 67.5729 83.1532 66.2583 83.458 64.9354C83.769 63.6144 84.0447 62.2803 84.2792 60.946L84.2799 60.9417C84.2939 60.8612 84.3707 60.8073 84.4512 60.8217C84.5265 60.8349 84.5782 60.9036 84.5729 60.9783V60.9776Z" fill="#81589F"/>
<path d="M72.9707 89.4237C72.9707 89.4237 85.2568 68.7437 98.6235 68.42C98.8608 68.4143 99.0407 68.6324 98.9919 68.8645C98.4228 71.5677 94.4432 85.7181 72.9707 89.4237Z" fill="#665B89"/>
<path d="M95.7929 71.7011C94.9829 72.5518 94.1489 73.3707 93.3033 74.1812C92.8764 74.5814 92.4492 74.9813 92.0176 75.3769C91.5824 75.7678 91.152 76.1648 90.7125 76.551C88.9586 78.101 87.1497 79.5895 85.2935 81.0158C84.3725 81.7383 83.4182 82.417 82.4768 83.1122L81.0363 84.1164C80.7958 84.2831 80.557 84.4524 80.3139 84.6151L79.5786 85.0951C77.6362 86.4033 75.6065 87.576 73.5625 88.7149C73.4911 88.7548 73.4013 88.7289 73.3614 88.6578C73.3223 88.5873 73.3467 88.499 73.4157 88.4584L73.4196 88.4562L74.9279 87.5709L75.6819 87.1283C75.9311 86.977 76.1756 86.8182 76.4226 86.6637L77.9044 85.7354C78.3927 85.4174 78.8753 85.0897 79.3607 84.7675L80.0881 84.2824L80.804 83.7809L82.2352 82.776C83.1708 82.0804 84.1187 81.4013 85.0339 80.6785C85.9613 79.9718 86.8682 79.2388 87.7759 78.507L89.1201 77.3878L90.4479 76.2489C90.8902 75.8687 91.3229 75.4782 91.7609 75.0931C92.195 74.7036 92.6247 74.3098 93.0545 73.9157C93.9101 73.1245 94.7607 72.323 95.5775 71.4963L95.5797 71.4941C95.6371 71.4359 95.7305 71.4356 95.7886 71.493C95.8461 71.5498 95.8471 71.6418 95.7919 71.7L95.7929 71.7011Z" fill="#8980A4"/>
<path d="M58.9038 34.7099C58.9038 34.7099 74.1767 35.5495 84.3436 32.3501C84.3436 32.3501 77.5847 31.8866 77.5847 47.5018C77.5847 59.4404 79.354 82.2279 77.8091 86.5536C76.2641 90.8794 70.4875 96.694 62.2066 91.6968C53.9256 86.6995 58.9034 34.7099 58.9034 34.7099H58.9038Z" fill="#7B4C97"/>
<path d="M54.8431 11.2981C54.8431 11.2981 71.6944 13.1362 73.8652 10.2781C73.8652 10.2781 72.1382 5.13426 67.01 5.47629C61.8818 5.81833 54.8428 11.2981 54.8428 11.2981H54.8431Z" fill="#3B2C68"/>
<path d="M0.0369668 17.0859C1.50652 33.6111 4.59285 68.5646 5.93566 85.5914C6.2351 89.3872 9.27547 92.3855 13.0727 92.6294C26.5992 93.4982 57.0406 95.1839 68.7227 93.6156C66.0468 92.2956 64.3614 89.5593 64.3858 86.5741L65.0063 10.1704C65.0282 7.47078 67.7152 5.53065 70.2418 6.47808C71.8335 7.07485 73.0387 8.34635 73.8653 10.2789C72.7623 7.06263 71.0278 4.70969 67.0101 5.47712C67.0101 5.47712 27.7176 5.87017 8.65038 7.05329C3.46976 7.37449 -0.423325 11.9119 0.0369668 17.0859Z" fill="#8F66A7"/>
<path d="M10.2191 10.0339L63.0166 8C60.839 24.1322 61.7581 56.9846 62.5889 89.361C62.6381 91.2803 63.763 93.0077 65.4979 93.8283C65.4979 93.8283 30.2824 94.2343 15.1509 93.1604C11.5881 92.9075 8.68171 90.21 8.15248 86.6754C6.07542 72.8038 1.10557 36.969 2.13997 17.997C2.37693 13.6526 5.87436 10.2013 10.2191 10.0339Z" fill="#D9CDE4"/>
<path d="M9.0582 34.2627L9.67432 40.1804C9.78741 41.2651 10.68 42.1018 11.769 42.1435L15.2122 42.2757C16.4541 42.3235 17.4867 41.329 17.4867 40.0852V33.7011C17.4867 32.4195 16.3931 31.4114 15.1167 31.5163L11.0573 31.8501C9.83301 31.9507 8.93074 33.0393 9.05784 34.2619L9.0582 34.2627Z" fill="#665B89"/>
<path d="M21.166 32.4389C26.8966 32.2607 48.8958 31.545 54.4509 31.3639C55.1518 31.3413 55.7309 31.9032 55.7309 32.6049C55.7309 33.2728 55.2031 33.8207 54.536 33.8455L21.2726 35.0814C20.6317 35.1052 20.0784 34.6366 19.9962 34.0004L19.9754 33.8394C19.8809 33.1119 20.4332 32.4616 21.166 32.4389Z" fill="#665B89"/>
<path d="M20.8058 40.2405C20.9031 40.4037 21.0805 40.5021 21.2704 40.4981L44.1109 40.0016C44.3977 39.9955 44.6272 39.7609 44.6272 39.4735V37.9666C44.6272 37.6674 44.3787 37.4277 44.0796 37.4388L21.8761 38.2695C20.8873 38.3065 20.2988 39.3898 20.8058 40.2402V40.2405Z" fill="#665B89"/>
<path d="M9.0582 50.6875L9.67432 56.6052C9.78741 57.6899 10.68 58.5266 11.769 58.5683L15.2122 58.7005C16.4541 58.7483 17.4867 57.7538 17.4867 56.51V50.1259C17.4867 48.8443 16.3931 47.8362 15.1167 47.9411L11.0573 48.2749C9.83301 48.3755 8.93074 49.4641 9.05784 50.6867L9.0582 50.6875Z" fill="#665B89"/>
<path d="M21.166 48.8628C26.8966 48.6846 48.8958 47.9689 54.4509 47.7878C55.1518 47.7648 55.7309 48.3271 55.7309 49.0288C55.7309 49.6967 55.2031 50.2446 54.536 50.2694L21.2726 51.5049C20.6317 51.5286 20.0784 51.0601 19.9962 50.4238L19.9754 50.2629C19.8809 49.5353 20.4332 48.885 21.166 48.8624V48.8628Z" fill="#665B89"/>
<path opacity="0.78" d="M20.8058 56.665C20.9031 56.8281 21.0805 56.9265 21.2704 56.9226L44.1109 56.4261C44.3977 56.42 44.6272 56.1853 44.6272 55.8983V54.3914C44.6272 54.0922 44.3787 53.8525 44.0796 53.8637L21.8761 54.6943C20.8873 54.7313 20.2988 55.8146 20.8058 56.665Z" fill="#665B89"/>
<path d="M9.0582 67.1113L9.67432 73.029C9.78741 74.1137 10.68 74.9505 11.769 74.9922L15.2122 75.1244C16.4541 75.1722 17.4867 74.1777 17.4867 72.9338V66.5497C17.4867 65.2682 16.3931 64.26 15.1167 64.3649L11.0573 64.6987C9.83301 64.7993 8.93074 65.8879 9.05784 67.1106L9.0582 67.1113Z" fill="#665B89"/>
<path d="M21.166 65.2876C26.8966 65.1093 48.8958 64.3937 54.4509 64.2126C55.1518 64.1899 55.7309 64.7519 55.7309 65.4535C55.7309 66.1214 55.2031 66.6694 54.536 66.6941L21.2726 67.9297C20.6317 67.9534 20.0784 67.4849 19.9962 66.8486L19.9754 66.6877C19.8809 65.9601 20.4332 65.3098 21.166 65.2872V65.2876Z" fill="#665B89"/>
<path d="M20.8058 73.0888C20.9031 73.2519 21.0805 73.3504 21.2704 73.3464L44.1109 72.8499C44.3977 72.8438 44.6272 72.6092 44.6272 72.3221V70.8153C44.6272 70.516 44.3787 70.2763 44.0796 70.2875L21.8761 71.1181C20.8873 71.1552 20.2988 72.2384 20.8058 73.0888Z" fill="#665B89"/>
<g style="mix-blend-mode:soft-light">
<path d="M75.6005 68.8438C75.4609 68.8438 75.3463 68.7317 75.3438 68.5915C75.3438 68.5836 75.328 67.7735 75.2501 64.9962C75.2462 64.8543 75.3578 64.7357 75.4996 64.7318C75.6382 64.7246 75.7599 64.8396 75.7639 64.9815C75.8418 67.762 75.8576 68.5736 75.858 68.5815C75.8605 68.7234 75.7477 68.8409 75.6059 68.8434H75.6009L75.6005 68.8438Z" fill="white"/>
</g>
<g style="mix-blend-mode:soft-light">
<path d="M75.414 62.066C75.2755 62.066 75.1616 61.9561 75.1573 61.8167C75.102 60.0091 75.0159 58.0108 74.9247 55.895C74.8015 53.0365 74.6741 50.0803 74.6069 47.233C74.4296 39.7179 75.6682 36.8332 76.7389 35.7363C77.3206 35.1403 77.8081 35.123 77.862 35.123C78.0038 35.123 78.1191 35.2384 78.1191 35.3803C78.1191 35.5222 78.0067 35.6347 77.8674 35.6375C77.8089 35.6419 74.8557 35.9663 75.1214 47.2212C75.1886 50.0638 75.3157 53.0171 75.4388 55.8731C75.53 57.9903 75.6162 59.9904 75.6715 61.8012C75.6758 61.9431 75.5645 62.0617 75.4223 62.066C75.4198 62.066 75.4169 62.066 75.4144 62.066H75.414Z" fill="white"/>
</g>
<path d="M38.1653 89.7819C37.9046 89.7819 37.644 89.6587 37.3682 89.4054C36.3561 88.4748 36.0947 87.0445 36.0236 85.6843C35.5565 86.2074 35.0786 86.7168 34.6061 87.2206L34.3447 86.9752C34.8994 86.3834 35.4621 85.7838 36.0046 85.1644C35.9597 83.3011 36.0455 81.4181 36.2599 79.566C36.3913 78.4304 36.5808 77.2289 37.0727 76.1327C37.2296 75.7832 37.4896 75.2823 37.9373 74.969C38.4044 74.6421 39.0166 74.6065 39.4266 74.8821C39.8873 75.1918 40.0115 75.7788 40.0646 76.1935C40.3777 78.6301 39.4277 80.8638 38.5757 82.3081C37.943 83.3805 37.1772 84.3617 36.3661 85.2948C36.4081 86.6874 36.6009 88.2129 37.6106 89.1409C37.8231 89.3364 38.0084 89.4291 38.1818 89.4226C38.4665 89.4122 38.6967 89.1359 38.8844 88.8672C39.7379 87.6438 40.4018 86.3173 40.866 84.9107C40.9202 84.4875 41.0383 84.0722 41.2182 83.6849L41.555 83.8027C41.4573 84.2044 41.3446 84.6003 41.2171 84.9901C41.1697 85.3886 41.1841 85.7942 41.2631 86.1883C41.3051 86.3978 41.4818 87.0891 41.9916 87.1861C42.3722 87.2579 42.7686 86.9701 43.2066 86.304L45.0018 83.5731L44.7749 84.5507C44.6948 84.896 44.5605 85.7202 45.042 85.9182C45.316 86.031 45.6057 85.8679 45.9411 85.6785C46.2746 85.4906 46.6189 85.2959 47.0106 85.3483L47.1955 85.3731L47.1639 85.5567C47.1456 85.662 47.0006 86.5864 47.4799 86.6924C47.6993 86.7413 47.8828 86.5889 48.1592 86.3331C48.3764 86.1319 48.6012 85.9243 48.897 85.8524L48.9814 86.2013C48.7764 86.2509 48.5951 86.4186 48.403 86.5965C48.1301 86.8491 47.8217 87.135 47.4027 87.0427C46.857 86.922 46.723 86.3069 46.7819 85.7065C46.5669 85.7378 46.3471 85.8617 46.1173 85.9915C45.7533 86.1966 45.3404 86.4291 44.9059 86.2501C44.5473 86.1025 44.353 85.7461 44.3383 85.2359L43.5064 86.5013C43.1707 87.0122 42.6422 87.6761 41.9245 87.5389C41.4318 87.4451 41.0531 86.9666 40.9112 86.2591C40.8915 86.1607 40.8753 86.0612 40.8631 85.9616C40.4229 87.0557 39.8596 88.0965 39.1781 89.073C38.9537 89.3946 38.6392 89.7657 38.1947 89.7819C38.1847 89.7819 38.1746 89.7826 38.1646 89.7826L38.1653 89.7819ZM38.7893 75.0534C38.5538 75.0534 38.3157 75.1418 38.143 75.2629C37.7682 75.5252 37.5395 75.9689 37.3998 76.2797C36.928 77.3313 36.7442 78.5008 36.616 79.6074C36.4186 81.3107 36.3313 83.041 36.3554 84.7573C37.0576 83.9285 37.7158 83.0604 38.2673 82.1256C39.0909 80.7294 40.0097 78.5748 39.7095 76.2391C39.6388 75.6905 39.4855 75.3538 39.227 75.1799C39.0941 75.0905 38.9423 75.0534 38.7897 75.0534H38.7893Z" fill="#3B2C68"/>
<path opacity="0.78" d="M53.9018 25.0445L11.8415 26.2934C10.3307 26.3383 9.06181 25.1648 8.98785 23.6541L8.83346 20.5057C8.75734 18.9496 9.97521 17.635 11.5317 17.594L53.8009 16.4756C55.3814 16.4339 56.6772 17.7198 56.6485 19.3014L56.5939 22.3193C56.567 23.801 55.3821 25.0007 53.9018 25.0445Z" fill="#665B89"/>
<path d="M40.653 58.2051C40.653 58.2051 39.2502 57.2843 39.056 57.4966C38.9867 57.5721 38.8255 57.829 38.675 58.1092C38.5688 58.3068 38.6018 58.5504 38.7576 58.7117L39.1192 59.0857C39.4639 59.4422 40.0469 59.4166 40.351 59.025C40.5044 58.8274 40.6268 58.5612 40.653 58.2051Z" fill="white"/>
<path d="M42.0837 56.4555C42.0837 56.4555 41.6023 55.1872 41.04 55.3036C40.4777 55.4196 39.8623 55.8519 39.8623 55.8519L38.959 57.0745C38.959 57.0745 41.4949 58.074 42.3868 57.5013C42.3868 57.5013 44.9769 57.9494 48.2481 57.4122C47.7745 56.412 47.4923 55.4103 47.3268 54.6328C45.6702 55.5713 43.8858 56.2722 42.0837 56.4555Z" fill="white"/>
<path d="M55.8042 47.2568C55.8042 47.2568 52.0957 51.9311 47.3262 54.6325C47.492 55.41 47.7743 56.4114 48.2475 57.412C50.7216 57.0056 53.585 56.0363 56.0125 53.882L55.8039 47.2572L55.8042 47.2568Z" fill="#3B2C68"/>
<path d="M60.4293 67.9743C59.704 64.527 58.9788 62.5311 56.5502 55.9969C55.7858 53.9407 55.0921 51.8601 55.4275 49.6918L55.8041 47.257C55.8041 47.257 60.5237 45.6589 65.755 47.1898C65.755 47.1898 72.8924 50.2925 68.0446 65.6156C65.8594 68.062 63.302 68.7593 60.4293 67.9743Z" fill="#3B2C68"/>
<path d="M56.6078 44.1493L57.8314 47.0912C57.9086 47.2769 58.0759 47.4095 58.2741 47.4432C58.9796 47.5643 60.6861 47.7533 61.8067 47.0161C61.9403 46.928 61.9744 46.7466 61.8828 46.6155L59.6219 43.3672L56.6074 44.149L56.6078 44.1493Z" fill="white"/>
<path d="M57.8731 39.6482C57.8217 39.6967 55.7041 43.8579 55.7041 43.8579L58.1043 45.0173L60.6969 41.3717C60.6969 41.3717 58.7333 38.8377 57.8731 39.6482Z" fill="white"/>
<path d="M59.6065 41.8096L58.4094 43.8065C58.3911 43.8366 58.3695 43.8643 58.3437 43.8884C58.2012 44.0209 57.7136 44.4072 57.3366 43.8815C57.0152 43.4335 56.714 43.0265 56.3909 42.8583C56.2024 42.7602 55.9701 42.8385 55.8742 43.0286C55.6771 43.4199 55.2951 44.2171 55.0549 44.9734C54.9946 45.1627 55.0926 45.3665 55.2768 45.4412C55.7629 45.6381 56.7233 45.9945 57.5757 46.1123C57.7157 46.1317 57.8543 46.0725 57.9376 45.9582C58.3042 45.4556 59.3379 44.0504 59.6908 43.699C60.0186 43.3724 60.6233 43.4957 60.8961 43.574C60.9995 43.6038 61.1098 43.5895 61.202 43.5338C61.4785 43.3671 61.961 42.9521 61.5198 42.2493C61.4099 42.0747 61.4659 41.8419 61.6383 41.7284C61.947 41.525 62.282 41.1438 61.9628 40.5258C61.6397 39.9003 61.0627 39.8443 60.6696 39.8924C60.4958 39.9136 60.3191 39.8224 60.2524 39.6603C60.2226 39.5881 60.164 39.5267 60.0549 39.5048C59.8488 39.4631 59.7138 39.2745 59.754 39.0679C59.8233 38.714 59.7712 38.2541 59.2065 37.9437C58.171 37.3739 57.2637 38.3022 57.0332 39.0858C56.8023 39.8694 57.9606 40.4235 58.6887 40.5158C59.2237 40.5837 59.517 41.1679 59.6352 41.4733C59.6779 41.5839 59.6675 41.7079 59.6065 41.8099V41.8096Z" fill="#3B2C68"/>
<path d="M59.1869 44.2957C59.1869 44.2957 59.7021 43.0828 60.2913 43.1323C60.8808 43.1819 61.3447 43.7693 60.6141 44.4301C59.7053 45.2517 59.1865 44.2957 59.1865 44.2957H59.1869Z" fill="white"/>
<path d="M59.9645 98.3564C61.1045 98.4549 63.0828 98.6151 64.6421 98.6837C65.5796 98.7251 66.1192 98.6331 66.4301 98.5088C66.4298 98.544 66.4287 98.577 66.4273 98.6076C66.4197 98.7718 66.2865 98.9033 66.1206 98.9126C63.1736 99.0772 60.8302 98.9697 59.9957 98.9187C59.823 98.9083 59.7204 98.7208 59.8087 98.5735C59.8528 98.4998 59.9063 98.4276 59.9645 98.3564Z" fill="#3B2C68"/>
<path d="M64.6424 98.684C63.0828 98.6154 61.1044 98.4552 59.9648 98.3567C61.0854 96.981 64.6424 96.0537 64.6424 96.0537H65.647C66.3378 97.0504 66.438 97.9992 66.4305 98.5091C66.1195 98.6337 65.5799 98.7253 64.6424 98.684Z" fill="#3B2C68"/>
<path d="M65.8166 94.4121L65.7225 96.2736C65.7125 96.4751 65.5617 96.6447 65.3599 96.6734C65.1592 96.7022 64.8903 96.7058 64.6052 96.6109C64.43 96.5524 64.2996 96.4047 64.2673 96.2243L63.9424 94.4121H65.8166Z" fill="white"/>
<path d="M78.8653 98.6701C79.3597 98.6011 79.5834 98.3442 79.6771 98.0693C79.6778 98.0719 79.6785 98.0744 79.6789 98.0769C79.7514 98.3668 79.583 98.6668 79.2459 98.8098C78.8384 98.9823 78.3932 99.0117 78.0471 98.9977C77.6762 98.9823 77.3354 98.8289 77.1484 98.5828L77.1455 98.5792C77.5178 98.7635 78.0406 98.7854 78.865 98.6701H78.8653Z" fill="#3B2C68"/>
<path d="M76.5343 94.3996H77.3626C78.6246 94.3737 79.4171 97.0375 79.6763 98.0686C79.5826 98.3435 79.3589 98.6003 78.8645 98.6693C78.0401 98.7843 77.5174 98.7627 77.145 98.5784C76.4632 97.6806 76.1254 96.366 75.9627 95.5985C75.7778 94.7258 76.534 94.4 76.534 94.4L76.5343 94.3996Z" fill="#3B2C68"/>
<path d="M77.2563 92.6722L77.7162 94.5031C77.7726 94.7277 77.6652 94.9598 77.4577 95.0665C77.2002 95.1987 76.838 95.3374 76.5051 95.2971C76.3486 95.2781 76.2183 95.1678 76.1666 95.0201L75.4912 93.0937L77.2563 92.6719V92.6722Z" fill="white"/>
<path d="M77.8058 93.2012C77.2335 93.7092 75.3719 93.7764 75.3719 93.7764C68.6657 77.6701 65.8698 73.2362 65.8698 73.2362C66.8382 79.3156 66.0784 94.92 66.0784 94.92C64.9719 95.4086 63.545 94.92 63.545 94.92C63.4553 84.9675 62.055 74.2731 60.249 67.4302C64.7816 67.3282 67.245 66.3394 68.032 65.7168C71.8102 71.812 77.8062 93.2016 77.8062 93.2016L77.8058 93.2012Z" fill="#3B2C68"/>
<path d="M59.1064 71.9309L59.9405 77.1218C60.0859 78.0269 60.9239 78.6549 61.8373 78.5432L74.3201 77.0194C74.9308 76.9451 75.394 76.4345 75.4062 75.822C75.4328 74.4808 75.3804 72.0937 74.8178 69.9189L59.1064 71.9306V71.9309Z" fill="#643480"/>
<path d="M62.2588 78.1955C62.2383 78.1955 62.2207 78.1801 62.2182 78.1596C62.2154 78.137 62.2315 78.1165 62.2541 78.114L62.5801 78.0741C62.6038 78.0716 62.6232 78.0874 62.6257 78.11C62.6286 78.1327 62.6125 78.1532 62.5902 78.1557L62.2642 78.1955C62.2642 78.1955 62.261 78.1955 62.2592 78.1955H62.2588ZM61.498 78.1812C61.4948 78.1812 61.4915 78.1808 61.4879 78.1797C61.3795 78.1528 61.2729 78.1147 61.1716 78.0666C61.1512 78.0569 61.1425 78.0321 61.1522 78.012C61.1623 77.9915 61.1871 77.9828 61.2068 77.9926C61.303 78.0385 61.4043 78.0745 61.5077 78.1003C61.5296 78.1057 61.5432 78.128 61.5375 78.1503C61.5328 78.169 61.5163 78.1815 61.4976 78.1815L61.498 78.1812ZM63.346 78.063C63.3255 78.063 63.3079 78.0475 63.3054 78.0267C63.3025 78.0044 63.3187 77.9836 63.341 77.9811L63.667 77.9412C63.6889 77.9379 63.7097 77.9545 63.7126 77.9771C63.7154 77.9994 63.6993 78.0202 63.6767 78.0227L63.3507 78.0626C63.3507 78.0626 63.3474 78.0626 63.3456 78.0626L63.346 78.063ZM64.4328 77.9304C64.4123 77.9304 64.3947 77.9149 64.3922 77.8945C64.3894 77.8718 64.4055 77.8514 64.4278 77.8488L64.7538 77.809C64.7775 77.8054 64.7969 77.8222 64.7994 77.8449C64.8023 77.8675 64.7861 77.888 64.7638 77.8905L64.4378 77.9304C64.4378 77.9304 64.4346 77.9304 64.4328 77.9304ZM65.5196 77.7978C65.4992 77.7978 65.4816 77.7824 65.479 77.7619C65.4762 77.7393 65.4923 77.7188 65.5146 77.7163L65.8406 77.6764C65.8643 77.6739 65.8837 77.6897 65.8862 77.7119C65.8891 77.7346 65.8729 77.7551 65.8507 77.7576L65.5246 77.7975C65.5246 77.7975 65.5214 77.7975 65.5196 77.7975V77.7978ZM66.6064 77.6652C66.586 77.6652 66.5684 77.6498 66.5659 77.6293C66.563 77.6067 66.5792 77.5862 66.6018 77.5837L66.9278 77.5438C66.9515 77.5406 66.9709 77.5571 66.9734 77.5797C66.9763 77.6024 66.9601 77.6228 66.9378 77.6254L66.6118 77.6652C66.6118 77.6652 66.6086 77.6652 66.6068 77.6652H66.6064ZM60.5982 77.5941C60.586 77.5941 60.5738 77.5887 60.5659 77.5779C60.4973 77.4892 60.4377 77.3929 60.3886 77.2919C60.3785 77.2715 60.3871 77.247 60.4076 77.237C60.428 77.2273 60.4525 77.2355 60.4625 77.256C60.5092 77.3519 60.5659 77.4436 60.6309 77.5276C60.6449 77.5456 60.6417 77.5715 60.6237 77.5851C60.6162 77.5909 60.6072 77.5937 60.5986 77.5937L60.5982 77.5941ZM67.6933 77.5323C67.6728 77.5323 67.6552 77.5169 67.6527 77.4964C67.6498 77.4737 67.666 77.4533 67.6882 77.4507L68.0142 77.4109C68.0379 77.4073 68.0573 77.4242 68.0598 77.4464C68.0627 77.4691 68.0466 77.4896 68.0243 77.4921L67.6983 77.5319C67.6983 77.5319 67.6951 77.5319 67.6933 77.5319V77.5323ZM68.7801 77.3997C68.7596 77.3997 68.742 77.3843 68.7395 77.3638C68.7366 77.3412 68.7528 77.3207 68.7751 77.3182L69.1011 77.2783C69.123 77.2758 69.1438 77.2916 69.1467 77.3139C69.1495 77.3365 69.1334 77.357 69.1108 77.3595L68.7847 77.3994C68.7847 77.3994 68.7815 77.3994 68.7797 77.3994L68.7801 77.3997ZM69.8669 77.2672C69.8464 77.2672 69.8288 77.2517 69.8263 77.2312C69.8235 77.2086 69.8396 77.1881 69.8622 77.1856L70.1882 77.1457C70.2119 77.1428 70.2313 77.159 70.2338 77.1813C70.2367 77.2039 70.2206 77.2244 70.1983 77.2269L69.8723 77.2668C69.8723 77.2668 69.8691 77.2668 69.8673 77.2668L69.8669 77.2672ZM70.9537 77.1346C70.9332 77.1346 70.9157 77.1191 70.9131 77.0987C70.9103 77.076 70.9264 77.0555 70.9487 77.053L71.2747 77.0131C71.2984 77.0096 71.3178 77.0264 71.3203 77.0491C71.3232 77.0717 71.307 77.0922 71.2848 77.0947L70.9587 77.1346C70.9587 77.1346 70.9555 77.1346 70.9537 77.1346ZM72.0405 77.002C72.0201 77.002 72.0025 76.9866 72 76.9661C71.9971 76.9434 72.0132 76.923 72.0359 76.9204L72.3619 76.8806C72.3856 76.8781 72.405 76.8939 72.4075 76.9165C72.4103 76.9391 72.3942 76.9596 72.3719 76.9621L72.0459 77.002C72.0459 77.002 72.0427 77.002 72.0409 77.002H72.0405ZM73.1274 76.8694C73.1069 76.8694 73.0893 76.854 73.0868 76.8335C73.0839 76.8109 73.1001 76.7904 73.1227 76.7879L73.4487 76.748C73.4724 76.7451 73.4918 76.7613 73.4943 76.7836C73.4972 76.8062 73.481 76.8267 73.4587 76.8292L73.1327 76.8691C73.1327 76.8691 73.1295 76.8691 73.1277 76.8691L73.1274 76.8694ZM74.2095 76.7114C74.1926 76.7114 74.1765 76.7006 74.1707 76.6837C74.1635 76.6621 74.1747 76.6388 74.1962 76.6316C74.296 76.5971 74.3908 76.5489 74.4777 76.4882C74.496 76.4753 74.5219 76.4796 74.5348 76.4983C74.5477 76.517 74.5434 76.5425 74.5247 76.5554C74.4314 76.6204 74.3298 76.6722 74.2228 76.7092C74.2185 76.7106 74.2138 76.7114 74.2095 76.7114ZM60.2363 76.5759C60.2166 76.5759 60.199 76.5615 60.1958 76.5414L60.1437 76.217C60.1401 76.1947 60.1552 76.1735 60.1778 76.1699C60.2004 76.1663 60.2212 76.1814 60.2248 76.204L60.2769 76.5285C60.2805 76.5507 60.2654 76.5719 60.2428 76.5755C60.2406 76.5755 60.2385 76.5763 60.2363 76.5763V76.5759ZM74.947 75.9558C74.943 75.9558 74.9387 75.9551 74.9348 75.9536C74.9132 75.9468 74.901 75.9238 74.9082 75.9022C74.9398 75.8016 74.9574 75.6967 74.9599 75.5904C74.9606 75.5681 74.9789 75.5501 75.0008 75.5501H75.0019C75.0245 75.5509 75.0425 75.5695 75.0421 75.5922C75.0393 75.7061 75.0206 75.8189 74.9865 75.9267C74.9811 75.9443 74.9649 75.9554 74.9473 75.9554L74.947 75.9558ZM60.0625 75.4941C60.0428 75.4941 60.0252 75.4797 60.022 75.4596L59.9699 75.1352C59.9663 75.1129 59.9814 75.0917 60.004 75.0881C60.0274 75.0842 60.0475 75.1 60.0511 75.1222L60.1031 75.4467C60.1067 75.4689 60.0916 75.4901 60.069 75.4937C60.0669 75.4937 60.0647 75.4945 60.0625 75.4945V75.4941ZM75.0051 74.8657C74.9825 74.8657 74.9642 74.8474 74.9642 74.8251C74.9631 74.7191 74.9617 74.6095 74.9592 74.4967C74.9588 74.4741 74.9768 74.4554 74.9994 74.4547C75.0238 74.4507 75.0407 74.4723 75.0414 74.4949C75.0436 74.6081 75.0454 74.718 75.0464 74.8244C75.0464 74.847 75.0285 74.8657 75.0059 74.8657H75.0051ZM59.8888 74.4119C59.869 74.4119 59.8514 74.3976 59.8482 74.3774L59.7961 74.053C59.7925 74.0307 59.8076 74.0095 59.8302 74.0059C59.8529 74.0027 59.8737 74.0174 59.8773 74.0401L59.9293 74.3645C59.9329 74.3868 59.9179 74.408 59.8952 74.4116C59.8931 74.4116 59.8909 74.4123 59.8888 74.4123V74.4119ZM74.9728 73.7703C74.9513 73.7703 74.933 73.7534 74.9319 73.7311C74.9265 73.6237 74.92 73.5145 74.9132 73.4034C74.9118 73.3808 74.929 73.361 74.9516 73.3596C74.9789 73.3614 74.994 73.3754 74.9954 73.398C75.0026 73.5094 75.0087 73.619 75.0141 73.7268C75.0152 73.7494 74.998 73.7688 74.9753 73.7699C74.9746 73.7699 74.9739 73.7699 74.9732 73.7699L74.9728 73.7703ZM59.7146 73.3301C59.6949 73.3301 59.6773 73.3158 59.6741 73.2956L59.622 72.9712C59.6184 72.9489 59.6335 72.9277 59.6561 72.9241C59.6795 72.9206 59.6996 72.936 59.7031 72.9583L59.7552 73.2827C59.7588 73.305 59.7437 73.3262 59.7211 73.3298C59.7189 73.3298 59.7168 73.3305 59.7146 73.3305V73.3301ZM74.8928 72.677C74.8719 72.677 74.854 72.6612 74.8518 72.64C74.8414 72.5322 74.8299 72.4233 74.8177 72.3137C74.8152 72.2911 74.8314 72.271 74.854 72.2685C74.8762 72.2656 74.8967 72.2821 74.8992 72.3047C74.9118 72.4147 74.9229 72.5239 74.9337 72.6324C74.9358 72.655 74.9193 72.6752 74.8967 72.6773C74.8953 72.6773 74.8942 72.6773 74.8928 72.6773V72.677ZM59.5409 72.2483C59.5211 72.2483 59.5035 72.234 59.5003 72.2138L59.4414 71.8474L59.7423 71.8089C59.7656 71.8053 59.7854 71.8222 59.7882 71.8445C59.7911 71.8671 59.7753 71.8876 59.7527 71.8905L59.5362 71.9182L59.5814 72.2009C59.585 72.2232 59.5699 72.2444 59.5473 72.248C59.5452 72.248 59.543 72.2487 59.5409 72.2487V72.2483ZM60.5078 71.7935C60.4873 71.7935 60.4697 71.7784 60.4672 71.7576C60.4643 71.7349 60.4801 71.7144 60.5027 71.7116L60.8287 71.6699C60.8549 71.6667 60.8718 71.6832 60.8747 71.7055C60.8776 71.7281 60.8618 71.7486 60.8392 71.7515L60.5131 71.7931C60.5113 71.7931 60.5096 71.7931 60.5078 71.7931V71.7935ZM61.5939 71.6544C61.5734 71.6544 61.5558 71.6394 61.5533 71.6185C61.5504 71.5959 61.5662 71.5754 61.5888 71.5725L61.9148 71.5309C61.9407 71.5276 61.9579 71.5438 61.9608 71.5664C61.9637 71.5891 61.9479 71.6095 61.9253 71.6124L61.5992 71.6541C61.5975 71.6541 61.5957 71.6541 61.5939 71.6541V71.6544ZM74.7588 71.5898C74.7387 71.5898 74.7215 71.575 74.7183 71.5549C74.7021 71.4471 74.6845 71.339 74.6662 71.2308C74.6626 71.2086 74.6777 71.1874 74.7 71.1834C74.7233 71.1798 74.7438 71.1949 74.7474 71.2172C74.7657 71.3257 74.7833 71.4342 74.7994 71.5427C74.8026 71.565 74.7876 71.5862 74.7649 71.5894C74.7628 71.5894 74.7606 71.5898 74.7588 71.5898ZM62.68 71.5154C62.6595 71.5154 62.6419 71.5003 62.6394 71.4795C62.6365 71.4568 62.6523 71.4364 62.6749 71.4335L63.0009 71.3918C63.0268 71.3889 63.044 71.4051 63.0469 71.4274C63.0498 71.45 63.034 71.4705 63.0114 71.4734L62.6853 71.515C62.6836 71.515 62.6818 71.515 62.68 71.515V71.5154ZM63.7661 71.3764C63.7456 71.3764 63.728 71.3613 63.7255 71.3404C63.7226 71.3178 63.7384 71.2973 63.761 71.2944L64.087 71.2528C64.1125 71.2503 64.1301 71.2661 64.133 71.2883C64.1359 71.311 64.1201 71.3314 64.0975 71.3343L63.7714 71.376C63.7697 71.376 63.7679 71.376 63.7661 71.376V71.3764ZM64.8522 71.2373C64.8317 71.2373 64.8141 71.2222 64.8116 71.2014C64.8087 71.1788 64.8245 71.1583 64.8471 71.1554L65.1731 71.1137C65.1986 71.1116 65.2162 71.127 65.2191 71.1493C65.222 71.1719 65.2062 71.1924 65.1836 71.1953L64.8575 71.237C64.8558 71.237 64.854 71.237 64.8522 71.237V71.2373ZM65.9383 71.0983C65.9178 71.0983 65.9002 71.0832 65.8977 71.0623C65.8948 71.0397 65.9106 71.0192 65.9332 71.0164L66.2592 70.9747C66.2844 70.9711 66.3023 70.988 66.3052 71.0103C66.3081 71.0329 66.2923 71.0534 66.2697 71.0562L65.9436 71.0979C65.9419 71.0979 65.9401 71.0979 65.9383 71.0979V71.0983ZM67.0244 70.9592C67.0039 70.9592 66.9863 70.9441 66.9838 70.9233C66.9809 70.9007 66.9967 70.8802 67.0193 70.8773L67.3453 70.8356C67.3687 70.8324 67.3884 70.8486 67.3913 70.8712C67.3942 70.8938 67.3784 70.9143 67.3558 70.9172L67.0298 70.9589C67.0298 70.9589 67.0262 70.9589 67.0244 70.9589V70.9592ZM68.1105 70.8202C68.09 70.8202 68.0724 70.8051 68.0699 70.7843C68.067 70.7616 68.0828 70.7411 68.1054 70.7383L68.4314 70.6966C68.4562 70.6937 68.4745 70.7099 68.4774 70.7322C68.4803 70.7548 68.4645 70.7753 68.4419 70.7782L68.1159 70.8198C68.1141 70.8198 68.1123 70.8198 68.1105 70.8198V70.8202ZM69.1966 70.6811C69.1761 70.6811 69.1585 70.6661 69.156 70.6452C69.1531 70.6226 69.1689 70.6021 69.1915 70.5992L69.5175 70.5576C69.5438 70.555 69.5606 70.5708 69.5635 70.5931C69.5664 70.6158 69.5506 70.6362 69.528 70.6391L69.202 70.6808C69.2002 70.6808 69.1984 70.6808 69.1966 70.6808V70.6811ZM70.2827 70.5421C70.2622 70.5421 70.2446 70.527 70.2421 70.5062C70.2392 70.4835 70.255 70.4631 70.2776 70.4602L70.6036 70.4185C70.6295 70.416 70.6467 70.4318 70.6496 70.4541C70.6525 70.4767 70.6367 70.4972 70.6141 70.5001L70.2881 70.5417C70.2863 70.5417 70.2845 70.5417 70.2827 70.5417V70.5421ZM74.5606 70.5126C74.5416 70.5126 74.5247 70.4997 74.5204 70.4803C74.4971 70.3736 74.4723 70.2669 74.4468 70.1609C74.4414 70.139 74.4551 70.1167 74.477 70.1113C74.4996 70.1056 74.5215 70.1196 74.5265 70.1415C74.5524 70.2482 74.5772 70.3553 74.6009 70.4627C74.6055 70.4846 74.5915 70.5069 74.5696 70.5116C74.5667 70.5123 74.5639 70.5126 74.561 70.5126H74.5606ZM71.3688 70.4031C71.3483 70.4031 71.3307 70.388 71.3282 70.3671C71.3253 70.3445 71.3411 70.324 71.3637 70.3211L71.6897 70.2795C71.7156 70.2759 71.7328 70.2928 71.7357 70.315C71.7386 70.3377 71.7228 70.3581 71.7002 70.361L71.3742 70.4027C71.3724 70.4027 71.3706 70.4027 71.3688 70.4027V70.4031ZM72.4549 70.264C72.4344 70.264 72.4168 70.2489 72.4143 70.2281C72.4114 70.2055 72.4272 70.185 72.4498 70.1821L72.7759 70.1404C72.8013 70.1372 72.8189 70.1537 72.8218 70.176C72.8247 70.1986 72.8089 70.2191 72.7863 70.222L72.4603 70.2637C72.4585 70.2637 72.4567 70.2637 72.4549 70.2637V70.264ZM73.541 70.125C73.5205 70.125 73.5029 70.1099 73.5004 70.089C73.4975 70.0664 73.5133 70.0459 73.5359 70.0431L73.862 70.0014C73.8874 69.9981 73.905 70.0147 73.9079 70.037C73.9108 70.0596 73.895 70.0801 73.8724 70.0829L73.5464 70.1246C73.5446 70.1246 73.5428 70.1246 73.541 70.1246V70.125Z" fill="white"/>
<path d="M62.2786 67.6792L62.2646 67.2725C62.2948 67.1711 62.3742 67.0917 62.4758 67.0619C62.8563 66.9502 63.8064 66.7181 64.3148 67.0055L64.4437 67.4636L62.2783 67.6788L62.2786 67.6792Z" fill="#7B4C97"/>
<path d="M63.443 67.1371C63.3565 67.1705 63.2668 67.1817 63.1741 67.1712C63.0621 67.1583 62.9731 67.071 62.9587 66.9596L62.7979 65.7011L63.438 65.6191L63.5989 66.877C63.6132 66.9891 63.549 67.0969 63.443 67.1375V67.1371Z" fill="#7B4C97"/>
<path d="M68.4788 66.8852L68.4648 66.4785C68.495 66.3772 68.5744 66.2978 68.676 66.268C69.0565 66.1562 70.0066 65.9241 70.515 66.2116L70.6439 66.6696L68.4785 66.8849L68.4788 66.8852Z" fill="#7B4C97"/>
<path d="M69.6425 66.3433C69.556 66.3767 69.4663 66.3878 69.3736 66.3774C69.2616 66.3645 69.1726 66.2772 69.1582 66.1658L68.9805 64.7743L69.6206 64.6924L69.7984 66.0828C69.8127 66.1949 69.7485 66.3027 69.6425 66.3433Z" fill="#7B4C97"/>
<path d="M62.7716 66.0178L69.6268 64.9084C69.783 64.8832 69.9018 64.7528 69.909 64.5951C69.919 64.3745 69.9111 64.0475 69.8189 63.7191C69.7137 63.3458 69.3507 63.1048 68.9633 63.145C67.675 63.279 64.4056 63.6983 62.6951 64.6425C62.5142 64.7424 62.3935 64.9234 62.3709 65.1282C62.349 65.3233 62.3508 65.5802 62.4438 65.8299C62.4933 65.9625 62.6316 66.0405 62.772 66.0178H62.7716Z" fill="#7B4C97"/>
<path d="M62.6032 65.7535C62.5533 65.7535 62.5084 65.7194 62.4966 65.6687C62.4941 65.6572 62.4327 65.3878 62.47 65.1158C62.5009 64.8927 62.6488 64.6976 62.8567 64.6067C63.2294 64.4432 63.945 64.1554 64.5503 64.0606C64.6106 64.0527 64.6659 64.0922 64.6756 64.1518C64.6849 64.2115 64.644 64.2675 64.5844 64.2772C63.9819 64.3717 63.2369 64.6796 62.9447 64.8075C62.8061 64.8682 62.7077 64.9979 62.6872 65.146C62.6556 65.377 62.7095 65.6173 62.7102 65.6199C62.7239 65.6788 62.6869 65.7377 62.628 65.751C62.6197 65.7532 62.6115 65.7539 62.6032 65.7539V65.7535Z" fill="white"/>
<path d="M59.0646 67.9314C61.2849 67.6181 70.8936 66.2848 73.7314 66.2647C73.9759 66.2629 74.1946 66.4138 74.2768 66.643C74.5375 67.3691 75.0918 69.062 75.2724 70.7873C75.2968 71.0223 75.1507 71.2415 74.9252 71.3151L68.7002 73.3397L66.4339 73.63L59.4635 73.1482C59.2179 73.1313 59.015 72.9509 58.9716 72.7091C58.8168 71.8494 58.4879 69.8273 58.5547 68.4901C58.5691 68.2059 58.7816 67.9713 59.0642 67.9314H59.0646Z" fill="#643480"/>
<path d="M66.4225 73.1131L66.0868 73.0909C66.0642 73.0891 66.047 73.0697 66.0488 73.047C66.0505 73.0244 66.0717 73.009 66.0926 73.009L66.4204 73.0316L66.5959 73.0082C66.6221 73.0061 66.639 73.0215 66.6419 73.0438C66.6448 73.0664 66.629 73.0869 66.6063 73.0898L66.4229 73.1131H66.4225ZM65.3249 73.0381C65.3249 73.0381 65.3231 73.0381 65.3221 73.0381L64.9942 73.0154C64.9716 73.0136 64.9544 72.9942 64.9562 72.9716C64.958 72.949 64.9788 72.9331 65 72.9335L65.3278 72.9561C65.3504 72.9579 65.3677 72.9773 65.3659 73C65.3644 73.0215 65.3465 73.0384 65.3249 73.0384V73.0381ZM67.3611 72.9928C67.3406 72.9928 67.323 72.9777 67.3205 72.9569C67.3176 72.9342 67.3334 72.9137 67.356 72.9109L67.682 72.8692C67.7079 72.866 67.7251 72.8825 67.728 72.9048C67.7309 72.9274 67.7151 72.9479 67.6924 72.9507L67.3664 72.9924C67.3646 72.9924 67.3628 72.9924 67.3611 72.9924V72.9928ZM64.2324 72.9626C64.2324 72.9626 64.2306 72.9626 64.2295 72.9626L63.9017 72.94C63.8791 72.9382 63.8618 72.9188 63.8636 72.8961C63.8654 72.8735 63.8859 72.8573 63.9074 72.8581L64.2352 72.8807C64.2579 72.8825 64.2751 72.9019 64.2733 72.9245C64.2719 72.9461 64.2539 72.963 64.2324 72.963V72.9626ZM63.1402 72.8872C63.1402 72.8872 63.1384 72.8872 63.1373 72.8872L62.8095 72.8645C62.7869 72.8627 62.7696 72.8433 62.7714 72.8207C62.7732 72.7981 62.793 72.7819 62.8152 72.7826L63.143 72.8052C63.1656 72.807 63.1829 72.8264 63.1811 72.8491C63.1797 72.8706 63.1617 72.8875 63.1402 72.8875V72.8872ZM68.4472 72.8537C68.4267 72.8537 68.4091 72.8387 68.4066 72.8178C68.4037 72.7952 68.4195 72.7747 68.4421 72.7718L68.5728 72.7549L68.7527 72.6957C68.7742 72.6892 68.7976 72.7007 68.8044 72.7219C68.8116 72.7434 68.7994 72.7668 68.7782 72.7736L68.5908 72.8343L68.4529 72.8527C68.4511 72.8527 68.4493 72.8527 68.4475 72.8527L68.4472 72.8537ZM62.0476 72.8117C62.0476 72.8117 62.0458 72.8117 62.0447 72.8117L61.7169 72.7891C61.6943 72.7873 61.6771 72.7679 61.6789 72.7452C61.6807 72.7226 61.7004 72.709 61.7227 72.7072L62.0505 72.7298C62.0731 72.7316 62.0903 72.751 62.0885 72.7736C62.0871 72.7952 62.0691 72.8121 62.0476 72.8121V72.8117ZM60.955 72.7363C60.955 72.7363 60.9532 72.7363 60.9522 72.7363L60.6244 72.7136C60.6017 72.7118 60.5845 72.6924 60.5863 72.6698C60.5881 72.6472 60.6075 72.6331 60.6301 72.6317L60.9579 72.6543C60.9805 72.6561 60.9978 72.6755 60.996 72.6982C60.9945 72.7197 60.9766 72.7366 60.955 72.7366V72.7363ZM59.8625 72.6608C59.8625 72.6608 59.8607 72.6608 59.8596 72.6608L59.5318 72.6382C59.5092 72.6364 59.4919 72.617 59.4937 72.5943C59.4955 72.5717 59.5171 72.5577 59.5375 72.5563L59.8653 72.5789C59.888 72.5807 59.9052 72.6001 59.9034 72.6227C59.902 72.6443 59.884 72.6612 59.8625 72.6612V72.6608ZM69.4934 72.539C69.4762 72.539 69.46 72.5279 69.4543 72.5106C69.4471 72.4891 69.4593 72.4657 69.4805 72.4589L69.7928 72.3572C69.8144 72.3508 69.8377 72.3622 69.8445 72.3834C69.8517 72.405 69.8395 72.4284 69.8183 72.4352L69.506 72.5369C69.5017 72.5383 69.4973 72.539 69.4934 72.539ZM70.5346 72.2002C70.5174 72.2002 70.5012 72.1891 70.4955 72.1718C70.4883 72.1503 70.5005 72.1269 70.5217 72.1201L70.8341 72.0184C70.8552 72.0119 70.8789 72.0234 70.8858 72.0446C70.8929 72.0662 70.8807 72.0896 70.8596 72.0964L70.5472 72.1981C70.5429 72.1995 70.5386 72.2002 70.5346 72.2002ZM59.3892 71.9006C59.3691 71.9006 59.3519 71.8862 59.3487 71.8657C59.3322 71.7619 59.3156 71.653 59.2988 71.5398C59.2955 71.5176 59.311 71.4964 59.3336 71.4931C59.3551 71.4895 59.377 71.5054 59.3803 71.528C59.3968 71.6404 59.4137 71.7493 59.4298 71.8528C59.4334 71.8751 59.418 71.8963 59.3957 71.8998C59.3936 71.8998 59.3914 71.9006 59.3892 71.9006ZM71.5758 71.8614C71.5586 71.8614 71.5425 71.8503 71.5367 71.833C71.5295 71.8115 71.5417 71.7881 71.5629 71.7813L71.8753 71.6796C71.8972 71.6731 71.9202 71.6846 71.927 71.7058C71.9342 71.7274 71.922 71.7507 71.9008 71.7576L71.5884 71.8592C71.5841 71.8607 71.5798 71.8614 71.5758 71.8614ZM72.6171 71.5226C72.5998 71.5226 72.5837 71.5115 72.5779 71.4942C72.5707 71.4727 72.583 71.4493 72.6041 71.4425L72.9165 71.3408C72.938 71.3343 72.9614 71.3458 72.9682 71.367C72.9754 71.3886 72.9632 71.4119 72.942 71.4188L72.6296 71.5204C72.6253 71.5219 72.621 71.5226 72.6171 71.5226ZM73.6583 71.1838C73.641 71.1838 73.6249 71.1727 73.6191 71.1554C73.612 71.1339 73.6242 71.1105 73.6454 71.1037L73.9577 71.002C73.9793 70.9955 74.0026 71.007 74.0094 71.0282C74.0166 71.0498 74.0044 71.0731 73.9832 71.08L73.6709 71.1816C73.6665 71.1831 73.6622 71.1838 73.6583 71.1838ZM74.6995 70.845C74.6823 70.845 74.6661 70.8339 74.6604 70.8166C74.6553 70.8012 74.6604 70.7854 74.6708 70.7746C74.6604 70.6808 74.6489 70.5874 74.6363 70.494C74.6334 70.4713 74.6492 70.4509 74.6715 70.4476C74.6945 70.444 74.7146 70.4606 74.7178 70.4828C74.7318 70.5863 74.7444 70.6905 74.7559 70.7943L74.7595 70.8277L74.7124 70.8428C74.7081 70.8443 74.7042 70.845 74.6999 70.845H74.6995ZM59.2359 70.8145C59.2155 70.8145 59.1979 70.799 59.1954 70.7785C59.1821 70.6704 59.1695 70.5612 59.1577 70.4512C59.1552 70.4286 59.1717 70.4085 59.1939 70.406C59.218 70.4045 59.2367 70.42 59.2392 70.4422C59.251 70.5518 59.2636 70.6607 59.2769 70.7685C59.2797 70.7911 59.2636 70.8116 59.2413 70.8141C59.2395 70.8141 59.2381 70.8141 59.2363 70.8141L59.2359 70.8145ZM74.553 69.7725C74.5336 69.7725 74.5164 69.7589 74.5128 69.7391C74.492 69.631 74.4704 69.5236 74.4482 69.4176C74.4435 69.3953 74.4575 69.3734 74.4798 69.3687C74.5031 69.3644 74.5239 69.3784 74.5286 69.4003C74.5512 69.507 74.5728 69.6148 74.5936 69.7233C74.5979 69.7456 74.5832 69.7671 74.5609 69.7715C74.5584 69.7722 74.5555 69.7722 74.5534 69.7722L74.553 69.7725ZM59.1293 69.7237C59.1078 69.7237 59.0898 69.7071 59.0884 69.6852C59.0808 69.5742 59.0744 69.4643 59.0693 69.3558C59.0683 69.3331 59.0859 69.3137 59.1085 69.313C59.1333 69.3087 59.1505 69.3295 59.1512 69.3522C59.1562 69.4596 59.1627 69.5692 59.1702 69.6795C59.1717 69.7021 59.1548 69.7215 59.1322 69.7233C59.1311 69.7233 59.1304 69.7233 59.1293 69.7233V69.7237ZM74.3139 68.703C74.2956 68.703 74.2787 68.6907 74.274 68.6721C74.2464 68.5635 74.218 68.4576 74.19 68.3548C74.1839 68.3329 74.1968 68.3103 74.2187 68.3045C74.2414 68.298 74.2633 68.3117 74.269 68.3333C74.2974 68.4367 74.3254 68.5431 74.3534 68.6516C74.3591 68.6735 74.3458 68.6961 74.3239 68.7015C74.3204 68.7022 74.3171 68.703 74.3135 68.703H74.3139ZM59.1038 68.6282C59.1038 68.6282 59.1027 68.6282 59.102 68.6282C59.0794 68.6275 59.0618 68.6081 59.0625 68.5855L59.0654 68.5154C59.0672 68.4766 59.0963 68.4446 59.134 68.4392L59.3365 68.4109C59.3591 68.4058 59.3799 68.4231 59.3828 68.4457C59.386 68.4683 59.3702 68.4888 59.348 68.4921L59.1458 68.5204L59.1444 68.5887C59.1437 68.6106 59.1254 68.6282 59.1035 68.6282H59.1038ZM60.1023 68.3864C60.0822 68.3864 60.0646 68.3713 60.0617 68.3509C60.0585 68.3286 60.0743 68.3077 60.0969 68.3045L60.4226 68.2596C60.447 68.2556 60.4657 68.2722 60.4689 68.2948C60.4721 68.3174 60.4563 68.3379 60.4337 68.3412L60.1081 68.3861C60.1063 68.3861 60.1045 68.3864 60.1023 68.3864ZM61.1873 68.2373C61.1669 68.2373 61.1496 68.2222 61.1468 68.2018C61.1435 68.1791 61.1593 68.1586 61.1819 68.1554L61.5076 68.1109C61.5309 68.108 61.5507 68.1238 61.5539 68.1461C61.5568 68.1683 61.5413 68.1892 61.5187 68.1924L61.1931 68.2366C61.1909 68.2366 61.1891 68.237 61.1873 68.237V68.2373ZM62.2731 68.0907C62.2526 68.0907 62.235 68.0756 62.2325 68.0552C62.2296 68.0325 62.2454 68.0121 62.2677 68.0088L62.5937 67.9653C62.6152 67.9625 62.6368 67.9783 62.6397 68.0009C62.6425 68.0232 62.6267 68.044 62.6041 68.0469L62.2785 68.0904C62.2767 68.0904 62.2749 68.0904 62.2731 68.0904V68.0907ZM63.3588 67.9463C63.3383 67.9463 63.3208 67.9312 63.3182 67.9104C63.3154 67.8877 63.3312 67.8673 63.3538 67.8644L63.6798 67.8216C63.7024 67.818 63.7229 67.8346 63.7258 67.8572C63.7286 67.8798 63.7128 67.9003 63.6902 67.9032L63.3642 67.9459C63.3624 67.9459 63.3606 67.9459 63.3588 67.9459V67.9463ZM64.4453 67.8051C64.4248 67.8051 64.4072 67.79 64.4047 67.7692C64.4018 67.7465 64.4176 67.7261 64.4402 67.7232L64.7663 67.6812C64.79 67.6779 64.8093 67.6944 64.8122 67.7167C64.8151 67.739 64.7993 67.7598 64.7767 67.7627L64.451 67.8047C64.451 67.8047 64.4474 67.8047 64.4456 67.8047L64.4453 67.8051ZM65.5386 67.6661L65.5281 67.5845L65.852 67.5439C65.8753 67.541 65.8951 67.5572 65.898 67.5795C65.9008 67.6021 65.8847 67.6226 65.8624 67.6255L65.5386 67.6661ZM74.0144 67.6488C73.9969 67.6488 73.9807 67.6373 73.9753 67.6201C73.9405 67.5083 73.9067 67.4041 73.8751 67.3075C73.868 67.2859 73.8798 67.2626 73.9014 67.2558C73.9229 67.2486 73.9462 67.2604 73.9531 67.282C73.985 67.379 74.0188 67.4839 74.0539 67.5956C74.0608 67.6172 74.0486 67.6406 74.027 67.647C74.0231 67.6485 74.0188 67.6488 74.0148 67.6488H74.0144ZM66.6182 67.532C66.5977 67.532 66.5801 67.5166 66.5776 67.4961C66.5748 67.4735 66.5909 67.453 66.6132 67.4505L66.9395 67.4106C66.9614 67.4081 66.9823 67.4239 66.9851 67.4465C66.988 67.4688 66.9719 67.4897 66.9492 67.4922L66.6232 67.532C66.6232 67.532 66.62 67.532 66.6182 67.532ZM67.7054 67.4013C67.6849 67.4013 67.667 67.3858 67.6648 67.365C67.6623 67.3423 67.6781 67.3219 67.7007 67.3194L68.0271 67.2813C68.0511 67.2784 68.0702 67.2949 68.0727 67.3172C68.0752 67.3398 68.0594 67.3603 68.0368 67.3628L67.7104 67.4009C67.7104 67.4009 67.7072 67.4009 67.7057 67.4009L67.7054 67.4013ZM68.7933 67.2759C68.7724 67.2759 68.7549 67.2604 68.7523 67.2392C68.7498 67.2166 68.766 67.1965 68.7886 67.194L69.115 67.1577C69.1376 67.1559 69.1581 67.1713 69.1602 67.194C69.1627 67.2166 69.1466 67.2367 69.1239 67.2392L68.7976 67.2755C68.7976 67.2755 68.7947 67.2755 68.7929 67.2755L68.7933 67.2759ZM69.8819 67.157C69.8611 67.157 69.8431 67.1412 69.8409 67.1203C69.8384 67.0977 69.855 67.0776 69.8776 67.075L70.2043 67.0409C70.2266 67.0388 70.247 67.0549 70.2495 67.0776C70.2521 67.1002 70.2355 67.1203 70.2129 67.1228L69.8865 67.157C69.8865 67.157 69.8837 67.157 69.8822 67.157H69.8819ZM70.9716 67.047C70.9504 67.047 70.9328 67.0308 70.9306 67.0097C70.9285 66.987 70.945 66.9669 70.9676 66.9647C71.0793 66.954 71.1884 66.9439 71.2947 66.9342C71.3184 66.9313 71.3374 66.9489 71.3392 66.9712C71.3414 66.9938 71.3245 67.014 71.3023 67.0158C71.1956 67.0255 71.0868 67.0359 70.9752 67.0463C70.9737 67.0463 70.9727 67.0463 70.9712 67.0463L70.9716 67.047ZM72.0623 66.95C72.0412 66.95 72.0232 66.9335 72.0214 66.9123C72.0196 66.8897 72.0365 66.8699 72.0591 66.8681C72.1722 66.8591 72.2814 66.8505 72.3869 66.8429C72.4131 66.8447 72.4293 66.8584 72.4311 66.881C72.4329 66.9037 72.4156 66.9234 72.393 66.9252C72.2875 66.9328 72.1787 66.9414 72.0656 66.9504C72.0645 66.9504 72.0634 66.9504 72.0623 66.9504V66.95ZM73.1549 66.8774C73.133 66.8774 73.1151 66.8602 73.114 66.8383C73.1129 66.8156 73.1305 66.7962 73.1531 66.7952C73.2705 66.7894 73.3804 66.7851 73.482 66.7822H73.4834C73.5057 66.7822 73.524 66.7998 73.5244 66.8221C73.5251 66.8447 73.5071 66.8638 73.4845 66.8645C73.3829 66.8674 73.2738 66.8717 73.1571 66.8774C73.1563 66.8774 73.1556 66.8774 73.1549 66.8774Z" fill="white"/>
<path d="M68.6082 74.3193L66.6227 74.5736C66.3624 74.607 66.1186 74.4414 66.0551 74.1881L65.5811 72.3058C65.5057 72.0058 65.71 71.7076 66.0181 71.6681L68.4032 71.3627C68.7048 71.3239 68.9744 71.5513 68.9863 71.8542L69.0606 73.7879C69.071 74.0548 68.8746 74.2858 68.6086 74.32L68.6082 74.3193Z" fill="#7B4C97"/>
<path d="M68.3189 73.998L66.8077 74.1916C66.6095 74.2171 66.4238 74.091 66.3754 73.8981L66.0149 72.4653C65.9574 72.2371 66.1133 72.01 66.3474 71.9799L68.1627 71.7474C68.3921 71.718 68.5975 71.8911 68.6064 72.1214L68.6628 73.5931C68.6707 73.7964 68.5214 73.9721 68.3189 73.998Z" fill="#643480"/>
<path d="M67.1374 58.7641C67.6056 60.7003 67.6182 62.5948 67.5467 63.2842C67.5198 63.5444 67.3108 63.7474 67.0505 63.7657C66.7543 63.7865 66.3515 63.8135 65.9914 63.8343C65.5957 63.8573 65.1562 63.6069 64.8625 63.3978C64.7125 63.2911 64.5186 63.4574 64.6022 63.6212C64.7466 63.9036 64.9972 64.1264 65.246 64.3154C65.3957 64.4293 65.893 64.6312 65.8585 64.8554C65.8474 64.9262 65.805 64.9876 65.7591 65.0426C65.4826 65.3745 65.0643 65.5517 64.6518 65.6785C64.6001 65.6943 64.5452 65.7112 64.5089 65.7514C64.4985 66.0184 65.3196 66.3151 65.5318 66.3856C65.8492 66.4912 66.186 66.5357 66.5195 66.5005C67.3457 66.4136 68.1086 65.8427 68.5539 65.1547C69.7434 63.3151 70.3584 61.094 70.5832 59.3954C69.4766 58.2884 67.806 58.569 67.1374 58.7637V58.7641Z" fill="white"/>
<path d="M70.5834 59.5705C71.4659 52.8994 66.3284 47.7695 66.3284 47.7695L63.2715 51.3354C65.5923 54.2302 66.6953 56.8824 67.1994 58.9659C67.8676 58.7711 69.4768 58.4636 70.5834 59.5705Z" fill="#3B2C68"/>
<path d="M67.1265 58.933C67.0411 58.933 66.9635 58.8748 66.9427 58.7882C66.3216 56.22 65.0121 53.6777 63.0514 51.2317C62.9861 51.1502 62.999 51.0309 63.0805 50.9655C63.162 50.9001 63.2812 50.913 63.3465 50.9946C65.3425 53.4844 66.6763 56.0763 67.3107 58.6991C67.3351 58.8007 67.2727 58.9031 67.1714 58.9276C67.1563 58.9312 67.1416 58.933 67.1265 58.933Z" fill="#3B2C68"/>
<path d="M25.728 98.4819C25.7284 98.4492 25.7262 98.4165 25.718 98.3831C25.2264 96.4329 22.7864 95.2178 22.7864 95.2178L21.8195 95.2936C21.2637 97.0128 21.3351 98.0669 21.4242 98.5365C21.4267 98.5498 21.4306 98.562 21.4342 98.5749C22.2317 98.6464 23.8736 98.6928 25.728 98.4815V98.4819Z" fill="#3B2C68"/>
<path d="M21.4346 98.5749C21.4777 98.7319 21.5933 98.8537 21.7416 98.8849C22.8761 99.1238 24.6796 98.9316 25.4365 98.8325C25.6034 98.8105 25.7255 98.6561 25.7284 98.4814C23.8739 98.6927 22.2324 98.646 21.4346 98.5749Z" fill="#3B2C68"/>
<path d="M21.4307 93.8525L21.8403 95.8254C21.8705 95.9698 21.9814 96.0783 22.1157 96.0909C22.2802 96.1063 22.5146 96.1153 22.7501 96.0808C22.9613 96.0499 23.1085 95.8351 23.0711 95.6044L22.7864 93.8529H21.4307V93.8525Z" fill="white"/>
<path d="M29.9158 98.55C28.848 98.5202 28.2955 98.3941 28.01 98.2773C28.0093 98.3837 28.01 98.4918 28.0133 98.6036C28.0168 98.7232 28.1055 98.8188 28.2143 98.8181L34.0775 98.7803C34.2645 98.7793 34.374 98.5619 34.2929 98.3902C33.5242 98.4538 31.5663 98.596 29.9155 98.5497L29.9158 98.55Z" fill="#3B2C68"/>
<path d="M34.293 98.3912C34.2858 98.3761 34.2797 98.361 34.2697 98.347C33.7519 97.6231 32.4332 96.1813 29.8272 95.5561L28.5771 95.5166C28.5771 95.5166 28.0205 96.4849 28.0098 98.2784C28.2952 98.3952 28.8478 98.5209 29.9156 98.5511C31.5664 98.5974 33.5243 98.4552 34.293 98.3916V98.3912Z" fill="#3B2C68"/>
<path d="M28.29 93.6783C28.3098 93.7707 28.5697 95.174 28.6706 95.7183C28.6947 95.8477 28.7952 95.9425 28.9151 95.9494C29.1291 95.9612 29.4745 95.9627 29.7714 95.8822C29.9316 95.8387 30.0393 95.6752 30.0278 95.4938L29.8878 93.2734L28.29 93.6783Z" fill="white"/>
<path d="M27.3424 67.7617C27.3424 67.7617 29.0622 79.5868 30.303 93.6588C30.326 93.9207 30.1174 94.1488 29.8603 94.2031C29.4812 94.2829 28.924 94.3777 28.4626 94.3648C28.2163 94.358 28.0106 94.1751 27.9689 93.9322C27.546 91.451 24.5293 78.1356 23.7372 75.2049C23.7372 75.2049 22.8278 87.6537 23.1186 94.1122C23.1258 94.2728 23.0084 94.4122 22.8486 94.4305C22.6066 94.4586 22.2192 94.4797 21.7262 94.4273C21.5392 94.4075 21.3884 94.266 21.3615 94.0795C21.0602 91.9799 19.3268 79.4808 19.4007 70.4771C19.405 69.9695 19.996 65.7979 19.996 65.7979L27.342 67.7621L27.3424 67.7617Z" fill="#3B2C68"/>
<path d="M19.7378 68.4433C19.5612 68.3804 19.4377 68.2202 19.4186 68.0333C19.1899 65.813 18.0826 52.0471 25.0732 46.384C25.0732 46.384 25.4742 45.3346 28.7692 47.9146C32.0644 50.4946 30.3001 53.1989 29.5113 56.929C28.5566 61.4427 26.8817 65.1321 27.6227 67.9097C27.6737 68.1012 27.5732 68.3028 27.3872 68.3714C24.8276 69.3156 22.2777 69.3469 19.7378 68.4436V68.4433Z" fill="#643480"/>
<path d="M27.7996 42.2588C27.7974 42.4546 25.0059 46.4222 25.0059 46.4222C25.0059 46.4222 25.5067 47.4095 27.899 48.2114L29.9639 43.9632L27.7996 42.2588Z" fill="white"/>
<path d="M29.9974 39.9854C29.9974 39.9854 30.9905 42.2686 31.0573 43.4668C31.1241 44.665 31.3819 45.4429 29.9974 45.6839C28.6126 45.9254 27.4461 45.2348 26.8142 44.0413C26.8142 44.0413 25.8239 42.2018 26.0462 41.4487C26.2684 40.6953 29.9974 39.9854 29.9974 39.9854Z" fill="white"/>
<path d="M27.2879 43.1836L27.3669 43.1487C27.4671 43.1045 27.5102 42.9849 27.4599 42.8875C27.2646 42.5099 26.884 41.6448 27.3759 41.4432C28.0096 41.1831 30.52 40.6708 31.0615 39.7794C31.5821 38.9228 31.1207 37.817 30.4278 37.5022C30.3814 37.481 30.3265 37.4979 30.3028 37.5428L30.245 37.6521C30.2055 37.7268 30.0949 37.7157 30.0716 37.6341C30.049 37.5561 29.9452 37.541 29.9021 37.6097C29.7355 37.8763 29.286 38.3088 28.0843 38.5305C26.376 38.846 25.2468 39.5379 25.2184 40.7189C25.2166 40.794 25.1369 40.8357 25.0726 40.7965C24.9466 40.7196 24.7448 40.6833 24.4748 40.9104C24.0056 41.3053 24.1977 42.3292 25.226 43.1714C25.2748 43.2112 25.2744 43.2878 25.2217 43.3223C25.0353 43.4437 24.7574 43.7326 25.4773 44.1181C26.2223 44.5165 26.7785 44.4838 26.9928 44.4486C27.0459 44.44 27.0804 44.3883 27.0689 44.3354L26.8402 43.2971C26.8273 43.2382 26.8718 43.1829 26.9321 43.1829H27.2883L27.2879 43.1836Z" fill="#3B2C68"/>
<path d="M27.3307 43.402C27.3307 43.402 26.9519 41.9437 26.2984 42.3526C25.645 42.7615 26.6374 43.9866 27.163 44.0412L27.331 43.402H27.3307Z" fill="white"/>
<path d="M29.8295 49.1113L30.0219 54.2836C30.5687 54.4718 31.089 54.6181 31.5845 54.7276C31.8943 53.7288 32.5772 52.5033 33.1359 51.5918C31.0822 50.8653 29.8291 49.1113 29.8291 49.1113H29.8295Z" fill="#643480"/>
<path d="M40.0824 49.0234C37.2654 52.0669 34.9854 52.2462 33.1364 51.5919C32.5774 52.5034 31.8948 53.729 31.585 54.7278C39.1076 56.3873 40.8791 49.4672 40.8791 49.4672L40.0824 49.0234Z" fill="white"/>
<path d="M40.6533 48.6999C40.6533 48.6999 40.9779 48.3511 41.5782 48.4607C42.1789 48.5702 42.7135 48.779 43.0876 48.4607C43.4617 48.1423 43.5935 48.5695 43.5935 48.5695L42.4729 49.4217L40.6533 48.6996V48.6999Z" fill="white"/>
<path d="M39.9828 49.2961C39.9828 49.2961 40.205 48.3659 40.875 48.4935C41.545 48.621 43.0662 49.4488 43.4583 49.2961C43.8504 49.1438 44.3516 48.7787 44.6087 48.9077L44.1556 49.4714C44.1556 49.4714 45.3203 48.7992 45.5206 49.2124L43.5829 50.3035C43.5829 50.3035 40.7479 50.0193 39.9824 49.2965L39.9828 49.2961Z" fill="white"/>
<path d="M26.7021 55.8806C26.7021 55.8806 31.9984 60.3192 37.7172 58.3823C38.0719 58.2623 38.4597 58.2881 38.7907 58.4631L40.4348 59.3322C41.1249 59.6969 41.9794 59.4576 42.3801 58.7872C42.6084 58.4049 42.8034 57.968 42.8421 57.5498L39.6251 56.2467L39.8625 55.8519C39.8625 55.8519 38.2917 55.7186 37.8806 56.8453C37.8806 56.8453 34.8887 58.0905 29.8434 52.5371C29.8434 52.5371 27.5538 54.4851 26.7025 55.8806H26.7021Z" fill="white"/>
<path d="M26.4172 55.835C26.3997 55.835 26.3821 55.83 26.3666 55.8196C24.1366 54.312 23.0875 51.8786 23.0774 51.8538C23.058 51.8074 23.0796 51.7543 23.1255 51.7349C23.1719 51.7151 23.2246 51.7367 23.2444 51.783C23.2544 51.8071 24.2842 54.1924 26.4682 55.6694C26.5099 55.6974 26.5206 55.7538 26.4926 55.7955C26.475 55.8214 26.4467 55.8354 26.4176 55.8354L26.4172 55.835Z" fill="#7B4C97"/>
<path d="M29.7388 52.4622C29.709 52.4622 29.68 52.4475 29.6624 52.4206C29.6555 52.4102 28.9744 51.3488 27.6769 49.0239C27.278 48.3089 26.7534 47.8562 26.1183 47.6784C25.0663 47.3841 24.0527 47.9486 24.0426 47.9543C23.9988 47.9784 23.9439 47.964 23.9191 47.9202C23.8944 47.8767 23.9094 47.8214 23.9532 47.7966C23.997 47.7718 25.0397 47.188 26.1657 47.5034C26.85 47.6946 27.4115 48.1764 27.8356 48.9355C29.1299 51.2547 29.8085 52.3121 29.8153 52.3225C29.8422 52.3645 29.8304 52.4206 29.7884 52.4479C29.7733 52.4579 29.7561 52.4622 29.7392 52.4622H29.7388Z" fill="#7B4C97"/>
</g>
<defs>
<clipPath id="clip0_873_3335">
<rect width="99" height="99" fill="white"/>
</clipPath>
</defs>
</svg>
