<svg width="95" height="94" viewBox="0 0 95 94" fill="none" xmlns="http://www.w3.org/2000/svg">
<g clip-path="url(#clip0_873_3756)">
<path d="M24.4907 37.2573C24.8364 40.9467 25.6484 45.8249 26.6243 50.0282H27.2373C25.9756 44.9557 24.8142 38.0089 25.1562 30.0009C25.501 21.9257 27.4464 12.1208 23.819 7.43694C20.7998 3.53904 7.98928 2.95613 3.7769 2.87026C3.25065 2.85948 2.94907 3.47607 3.27696 3.89499C4.89182 5.96096 8.27366 10.7459 8.56816 14.9239C8.95644 20.4308 13.1661 24.7533 17.3492 26.5526C21.5322 28.3519 23.7846 29.7248 24.4907 37.2573Z" fill="#643480"/>
<g style="mix-blend-mode:soft-light">
<path d="M9.04374 6.27431C11.6349 6.94276 14.0856 8.14462 16.2298 9.79066C17.3039 10.6103 18.2774 11.5738 19.1167 12.6493C19.9473 13.731 20.6446 14.9288 21.1287 16.2155L21.3078 16.6988C21.3665 16.8601 21.4103 17.0268 21.4619 17.1904C21.5098 17.3548 21.5638 17.5204 21.6063 17.6838L21.7342 18.1731C21.9062 18.8254 22.0752 19.4783 22.2378 20.133C22.5647 21.4419 22.8707 22.7566 23.1567 24.0753C23.7302 26.7131 24.2234 29.3684 24.5564 32.0533C24.5645 32.1176 24.5196 32.1765 24.4562 32.1846C24.3951 32.1923 24.3391 32.1503 24.328 32.0893L24.3273 32.0856C24.0908 30.7642 23.8291 29.4421 23.543 28.1284C23.2627 26.8127 22.9668 25.5008 22.6568 24.1922L22.1855 22.2309L21.6927 20.2751C21.5287 19.6231 21.3584 18.9725 21.185 18.3233L21.0558 17.836C21.0129 17.6733 20.9617 17.5191 20.9148 17.3605C20.8659 17.2032 20.825 17.0433 20.7694 16.8884L20.6 16.4243C20.1453 15.1864 19.4747 14.0405 18.693 12.9844C18.2906 12.4648 17.8699 11.957 17.4027 11.4933L17.231 11.3161L17.0526 11.1457C16.9331 11.0326 16.8164 10.9164 16.6943 10.806C16.4474 10.5884 16.2031 10.3672 15.9444 10.1628C14.9253 9.32594 13.806 8.61574 12.6428 7.99308C11.4793 7.37178 10.2555 6.84712 8.99921 6.45817L8.99348 6.45649C8.94456 6.44134 8.9169 6.3888 8.93174 6.33863C8.94625 6.29013 8.99584 6.26218 9.04374 6.27431Z" fill="#643480"/>
</g>
<path d="M24.6116 42.2551C26.8027 45.5252 26.5213 47.3552 26.5885 48.9052C26.6003 49.1803 26.6154 49.5693 26.6465 50.029H27.2446C27.1225 49.3979 27.0358 48.7621 27.0047 48.1381C26.7915 43.8577 25.8419 36.5518 22.2111 32.1815C18.5803 27.8111 14.6047 27.4124 9.5949 31.3854C5.41996 34.6963 2.81602 36.367 1.28854 36.6778C0.910383 36.7546 0.717424 37.1886 0.901612 37.5335C1.88125 39.3674 4.65049 43.5805 9.3004 43.2838C15.2319 42.9057 22.4203 38.9852 24.611 42.2557L24.6116 42.2551Z" fill="#8F66A7"/>
<path d="M11.2923 36.6489C11.6205 36.3313 11.968 36.0451 12.3266 35.7689C12.6852 35.4938 13.0546 35.2315 13.4395 34.9924C14.2063 34.5108 15.0247 34.1 15.896 33.8171C16.3319 33.6774 16.7809 33.5693 17.24 33.51C17.6991 33.4534 18.1683 33.4457 18.6339 33.5046C18.7496 33.5238 18.8666 33.5349 18.9813 33.5612C19.0953 33.5885 19.2131 33.6107 19.3237 33.643L19.9775 33.8491L20.6171 34.102L21.2371 34.4051C22.0498 34.8405 22.7852 35.4292 23.3971 36.1222C24.0138 36.8135 24.4962 37.61 24.8932 38.435L25.0423 38.7451C25.0936 38.8479 25.1307 38.9563 25.1753 39.0617C25.2596 39.2745 25.3503 39.4847 25.4289 39.6992L25.6489 40.3477C25.7268 40.5626 25.7764 40.7855 25.8395 41.0047C26.0881 41.882 26.2591 42.7764 26.4072 43.6718C26.4153 43.7217 26.3823 43.7691 26.3333 43.7776C26.2865 43.7856 26.2419 43.7553 26.2308 43.7089L26.2301 43.7058C26.0213 42.8286 25.8202 41.9497 25.5328 41.0997C25.4026 40.6704 25.2373 40.2548 25.0835 39.8355C25.0008 39.6284 24.9064 39.4267 24.8183 39.2223C24.7718 39.1213 24.733 39.0166 24.6804 38.9189L24.5276 38.6232C24.1231 37.8349 23.6319 37.0957 23.0456 36.4495C22.4586 35.8033 21.762 35.2702 20.9993 34.8617L20.4144 34.5799L19.8085 34.3441L19.1861 34.1515C19.0829 34.1216 18.9813 34.102 18.8791 34.0764C18.7769 34.0522 18.6716 34.0421 18.5681 34.0236C18.1505 33.968 17.723 33.9714 17.2983 34.0205C16.8733 34.0667 16.4503 34.1576 16.0347 34.2812C15.2024 34.5277 14.3999 34.8954 13.6287 35.3234C13.2448 35.5406 12.8643 35.7673 12.4949 36.0131C12.1269 36.2589 11.7629 36.5189 11.4161 36.7917L11.4138 36.7933C11.3729 36.8257 11.3139 36.8179 11.2822 36.7762C11.2525 36.7371 11.2576 36.6819 11.2916 36.6485L11.2923 36.6489Z" fill="#81589F"/>
<path d="M22.0254 16.6994C22.0254 13.4828 24.6374 10.875 27.86 10.875H77.4769C80.214 10.875 82.4712 13.0164 82.6105 15.7454L86.273 87.5549C86.382 89.6906 84.698 91.4918 82.5562 91.5306L25.6889 92.5624C23.6767 92.5987 22.0254 90.9803 22.0254 88.9713V16.6994Z" fill="#3B2C68"/>
<path d="M33.9998 91.342H33.9981L27.6349 91.2598C25.5073 91.2322 23.7764 89.4818 23.7764 87.3579V77.7675C23.7764 77.6925 23.8371 77.6318 23.9123 77.6318C23.9875 77.6318 24.0483 77.6925 24.0483 77.7675V87.3579C24.0483 89.3343 25.6591 90.9631 27.6389 90.9887L34.0019 91.0709C34.0767 91.0719 34.1368 91.1335 34.1361 91.2083C34.1351 91.2827 34.0744 91.3423 34.0005 91.3423L33.9998 91.342Z" fill="#A737D5"/>
<path d="M23.9123 74.9319C23.8374 74.9319 23.7764 74.8713 23.7764 74.7962V73.2431C23.7764 73.168 23.8371 73.1074 23.9123 73.1074C23.9875 73.1074 24.0483 73.168 24.0483 73.2431V74.7962C24.0483 74.8713 23.9875 74.9319 23.9123 74.9319Z" fill="#A737D5"/>
<path d="M26.0899 11.9804C26.0838 10.9513 26.9906 10.1549 28.012 10.2929C34.7875 11.2102 58.0874 14.047 77.3512 12.5707C78.2297 12.5034 78.9921 13.1678 79.039 14.046L82.8792 86.1754C82.9319 87.1644 82.1752 88.01 81.1851 88.0686C73.0832 88.5471 39.7164 90.3976 27.815 89.153C27.0908 89.0772 26.5409 88.4683 26.5365 87.7413L26.0902 11.9797L26.0899 11.9804Z" fill="#7B4C97"/>
<path d="M26.8887 13.7883C26.883 12.7979 27.7553 12.0314 28.7387 12.1645C35.2591 13.0471 57.6815 15.7771 76.2198 14.3567C77.0652 14.292 77.7989 14.9312 77.8438 15.7764L81.5393 85.1899C81.5899 86.1416 80.8619 86.9555 79.909 87.0117C72.112 87.4724 40.0018 89.2528 28.5488 88.0553C27.8518 87.9826 27.3225 87.3966 27.3185 86.6969L26.8887 13.7883Z" fill="#F3F1F4"/>
<path opacity="0.58" d="M31.5761 18.1885H75.1589C75.3529 18.1885 75.5104 18.3457 75.5104 18.5394V23.7886C75.5104 23.9823 75.3529 24.1395 75.1589 24.1395H31.5761C31.3821 24.1395 31.2246 23.9823 31.2246 23.7886V18.5394C31.2246 18.3457 31.3821 18.1885 31.5761 18.1885Z" fill="#857CA1"/>
<path opacity="0.58" d="M76.0406 49.0205H31.3246C31.2155 49.0205 31.127 49.1089 31.127 49.2178V51.7987C31.127 51.9077 31.2155 51.996 31.3246 51.996H76.0406C76.1497 51.996 76.2382 51.9077 76.2382 51.7987V49.2178C76.2382 49.1089 76.1497 49.0205 76.0406 49.0205Z" fill="#857CA1"/>
<path opacity="0.58" d="M76.0939 53.6123H31.2713C31.1916 53.6123 31.127 53.6768 31.127 53.7564V56.4437C31.127 56.5233 31.1916 56.5878 31.2713 56.5878H76.0939C76.1736 56.5878 76.2382 56.5233 76.2382 56.4437V53.7564C76.2382 53.6768 76.1736 53.6123 76.0939 53.6123Z" fill="#857CA1"/>
<path opacity="0.58" d="M77.0438 79.8252H31.3381C31.242 79.8252 31.1641 79.903 31.1641 79.999V82.627C31.1641 82.7229 31.242 82.8007 31.3381 82.8007H77.0438C77.14 82.8007 77.2179 82.7229 77.2179 82.627V79.999C77.2179 79.903 77.14 79.8252 77.0438 79.8252Z" fill="#857CA1"/>
<path opacity="0.25" d="M75.1068 45.9036H32.2085C31.611 45.9036 31.127 45.4204 31.127 44.824V28.7896C31.127 28.1932 31.611 27.71 32.2085 27.71H74.3792C74.9574 27.71 75.4333 28.1639 75.4597 28.7408L76.187 44.7752C76.215 45.3901 75.7231 45.9036 75.1065 45.9036H75.1068Z" fill="#857CA1"/>
<path d="M75.1316 46.0738H32.2333C31.5431 46.0738 30.9814 45.5131 30.9814 44.8241V28.7897C30.9814 28.1007 31.5431 27.54 32.2333 27.54H74.4043C75.0753 27.54 75.6245 28.064 75.6549 28.7331L76.3822 44.7675C76.3977 45.1117 76.2749 45.4387 76.0367 45.6875C75.7982 45.9367 75.4771 46.0738 75.1316 46.0738ZM32.2333 27.8802C31.731 27.8802 31.3222 28.2883 31.3222 28.7897V44.8241C31.3222 45.3255 31.731 45.7337 32.2333 45.7337H75.1316C75.383 45.7337 75.6167 45.634 75.7901 45.4525C75.9635 45.2713 76.0529 45.0332 76.0418 44.7827L75.3145 28.7483C75.2922 28.2614 74.8925 27.8798 74.4043 27.8798H32.2333V27.8802Z" fill="#857CA1"/>
<path opacity="0.25" d="M75.7916 78.0107H32.5357C31.778 78.0107 31.1641 77.3975 31.1641 76.6415V61.1866C31.1641 60.4303 31.7784 59.8174 32.5357 59.8174H75.1918C75.9286 59.8174 76.5341 60.3986 76.5624 61.1337L77.1626 76.5886C77.1926 77.3651 76.5702 78.011 75.7919 78.011L75.7916 78.0107Z" fill="#857CA1"/>
<path d="M75.792 78.1809H32.5361C31.6857 78.1809 30.9941 77.4902 30.9941 76.6416V61.1867C30.9941 60.3381 31.686 59.6475 32.5361 59.6475H75.1919C76.0238 59.6475 76.7008 60.2974 76.7329 61.1271L77.333 76.582C77.3495 77.0043 77.1967 77.4043 76.9032 77.7088C76.6098 78.0132 76.2151 78.1809 75.792 78.1809ZM32.5358 59.9876C31.8733 59.9876 31.3342 60.5257 31.3342 61.1867V76.6416C31.3342 77.303 31.8733 77.8408 32.5358 77.8408H75.792C76.1216 77.8408 76.4293 77.7101 76.6577 77.473C76.8864 77.236 77.0051 76.9241 76.9923 76.5951L76.3922 61.1403C76.3672 60.4937 75.8399 59.9876 75.1916 59.9876H32.5361H32.5358Z" fill="#857CA1"/>
<path d="M44.6571 27.7092L44.3164 27.7148L44.6186 45.9083L44.9593 45.9027L44.6571 27.7092Z" fill="#857CA1"/>
<path d="M61.1638 27.7017L60.8232 27.7109L61.3164 45.9043L61.657 45.8951L61.1638 27.7017Z" fill="#857CA1"/>
<path d="M75.6757 32.8427L44.6367 33.2861L44.6416 33.6262L75.6805 33.1827L75.6757 32.8427Z" fill="#857CA1"/>
<path d="M75.9435 40.1484H44.7148V40.4886H75.9435V40.1484Z" fill="#857CA1"/>
<path d="M44.5452 59.8162L44.3193 78.0098L44.66 78.014L44.8859 59.8204L44.5452 59.8162Z" fill="#857CA1"/>
<path d="M76.7382 64.0674H44.8281V64.4075H76.7382V64.0674Z" fill="#857CA1"/>
<path d="M76.8524 68.2627H44.6016V68.6028H76.8524V68.2627Z" fill="#857CA1"/>
<path d="M44.637 72.9333L44.6328 73.2734L77.037 73.6743L77.0412 73.3342L44.637 72.9333Z" fill="#857CA1"/>
<path d="M55.7452 1.08486C53.953 -0.159775 52.3948 -0.135192 51.2977 0.188089C50.2969 0.482746 49.6485 1.4472 49.7436 2.48439L50.2166 7.63904L55.8461 8.13777C55.8461 8.13777 59.26 3.52563 55.7452 1.08452V1.08486ZM53.2695 5.24339C52.4943 5.24339 51.8658 4.61603 51.8658 3.84217C51.8658 3.06832 52.4943 2.44095 53.2695 2.44095C54.0447 2.44095 54.6732 3.06832 54.6732 3.84217C54.6732 4.61603 54.0447 5.24339 53.2695 5.24339Z" fill="#3B2C68"/>
<path d="M50.7788 5.47078C50.7093 5.47078 50.6503 5.41791 50.6435 5.34753L50.5683 4.52653C50.5616 4.45211 50.6166 4.3861 50.6911 4.37903C50.7674 4.37196 50.8321 4.42719 50.8389 4.50195L50.9141 5.32295C50.9208 5.39737 50.8659 5.46337 50.7913 5.47044C50.7869 5.47078 50.7829 5.47112 50.7788 5.47112V5.47078ZM50.6311 3.86212C50.5616 3.86212 50.5025 3.80925 50.4958 3.73887L50.4384 3.11554C50.3477 2.12751 50.9704 1.20751 51.9194 0.928008C52.5914 0.729998 53.2836 0.701711 53.9768 0.84382C54.0504 0.858637 54.0976 0.930702 54.0827 1.00378C54.0676 1.07685 53.9964 1.124 53.9225 1.10918C53.2731 0.9765 52.6251 1.00277 51.9963 1.18798C51.1715 1.43111 50.6301 2.23123 50.709 3.09096L50.7663 3.71429C50.7731 3.78871 50.7181 3.85471 50.6435 3.86178C50.6392 3.86212 50.6351 3.86246 50.6311 3.86246V3.86212Z" fill="#F3F1F4"/>
<path d="M42.5335 10.9701V8.37851C42.5335 7.48376 43.2764 6.76749 44.172 6.7978L62.0717 7.41002C62.8661 7.43729 63.5094 8.06298 63.557 8.85501L63.7064 11.3453L42.5332 10.9698L42.5335 10.9701Z" fill="#3B2C68"/>
<path d="M49.2075 7.77435H48.4377C48.3628 7.77435 48.3018 7.71374 48.3018 7.63864C48.3018 7.56354 48.3625 7.50293 48.4377 7.50293H49.2075C49.2824 7.50293 49.3435 7.56354 49.3435 7.63864C49.3435 7.71374 49.2827 7.77435 49.2075 7.77435Z" fill="#F3F1F4"/>
<path d="M43.5022 10.1568C43.4273 10.1568 43.3662 10.0962 43.3662 10.0211V8.97281C43.3662 8.16259 44.0264 7.50391 44.838 7.50391H47.668C47.7429 7.50391 47.8039 7.56452 47.8039 7.63962C47.8039 7.71471 47.7432 7.77533 47.668 7.77533H44.838C44.1765 7.77533 43.6381 8.31278 43.6381 8.97315V10.0215C43.6381 10.0966 43.5774 10.1572 43.5022 10.1572V10.1568Z" fill="#F3F1F4"/>
<path d="M35.2403 11.6245C35.2834 10.727 36.0249 10.0215 36.9249 10.0215L68.2258 10.0205C69.3512 10.0205 70.3136 10.829 70.5056 11.9359L70.5322 12.0888C70.7424 13.3015 69.8073 14.4104 68.5746 14.4104H36.4618C35.724 14.4104 35.136 13.7945 35.1714 13.059L35.2406 11.6241L35.2403 11.6245Z" fill="#643480"/>
<path d="M25.6874 35.7073C26.6497 33.4475 25.5947 30.8368 23.3309 29.8762C21.0671 28.9155 18.4518 29.9687 17.4895 32.2285C16.5272 34.4884 17.5822 37.0991 19.846 38.0597C22.1098 39.0203 24.7251 37.9671 25.6874 35.7073Z" fill="#665B89"/>
<path d="M24.6331 37.0071C26.3146 35.3285 26.3146 32.607 24.6331 30.9284C22.9515 29.2498 20.2252 29.2498 18.5437 30.9284C16.8622 32.607 16.8622 35.3285 18.5437 37.0071C20.2252 38.6857 22.9515 38.6857 24.6331 37.0071Z" fill="#665B89"/>
<path opacity="0.58" d="M17.7303 33.3113C17.7094 33.317 17.6865 33.318 17.6639 33.3133C17.5859 33.2975 17.5357 33.2214 17.5519 33.1436C17.8666 31.613 19.0001 30.4081 20.5097 29.9997C20.7505 29.9343 20.9978 29.8909 21.2441 29.8697C21.3233 29.8629 21.3928 29.9215 21.3996 30.0007C21.4063 30.0798 21.348 30.1498 21.2683 30.1559C21.0393 30.1754 20.8092 30.2162 20.5849 30.2768C19.1809 30.657 18.1267 31.7777 17.8339 33.2011C17.8227 33.256 17.7813 33.2971 17.7303 33.3109V33.3113Z" fill="#857CA1"/>
<path opacity="0.78" d="M24.2803 36.6058C25.7036 35.185 25.7036 32.8814 24.2803 31.4606C22.8569 30.0397 20.5493 30.0397 19.126 31.4606C17.7027 32.8814 17.7027 35.185 19.126 36.6058C20.5493 38.0267 22.8569 38.0267 24.2803 36.6058Z" fill="#857CA1"/>
<path d="M22.0673 36.7365L21.9634 36.3546C21.5602 36.4466 21.1399 36.4597 20.8265 36.4129C20.7145 36.3964 20.6332 36.2981 20.6332 36.1849L20.6339 35.8027C20.6339 35.6626 20.758 35.5565 20.897 35.5751C21.2067 35.6161 21.5747 35.6151 21.9451 35.5151C22.3294 35.4111 22.5807 35.2033 22.5082 34.9369C22.4427 34.6965 22.1826 34.6133 21.6095 34.615C20.7911 34.6133 20.1539 34.4298 19.972 33.7603C19.8077 33.1558 20.1252 32.5743 20.8599 32.2426L20.756 31.8607C20.7226 31.7378 20.7955 31.6112 20.9186 31.5778L21.1436 31.5169C21.2667 31.4835 21.3936 31.5563 21.427 31.6792L21.5201 32.0223C21.8932 31.9371 22.1789 31.9274 22.4127 31.9446C22.5325 31.9533 22.6239 32.0547 22.6239 32.1746V32.5278C22.6239 32.6642 22.5068 32.7703 22.3712 32.7571C22.1546 32.7363 21.8561 32.7342 21.4955 32.8319C21.0397 32.9555 20.9604 33.1791 21.0067 33.3481C21.0633 33.5562 21.3757 33.6249 22.0177 33.6468C22.9332 33.6711 23.3802 33.927 23.5516 34.5574C23.7088 35.1359 23.4203 35.7724 22.6222 36.1283L22.7382 36.556C22.7716 36.6789 22.6988 36.8056 22.5756 36.8389L22.3506 36.8998C22.2275 36.9332 22.1007 36.8604 22.0673 36.7375V36.7365Z" fill="#665B89"/>
<path d="M35.4522 26.5079C38.2909 23.6742 38.2909 19.0797 35.4522 16.246C32.6134 13.4122 28.0109 13.4122 25.1722 16.246C22.3335 19.0797 22.3335 23.6742 25.1722 26.5079C28.0109 29.3417 32.6134 29.3417 35.4522 26.5079Z" fill="#665B89"/>
<path d="M35.2816 26.3374C38.026 23.5978 38.026 19.1561 35.2816 16.4165C32.5372 13.6769 28.0876 13.6769 25.3432 16.4165C22.5988 19.1561 22.5988 23.5978 25.3432 26.3374C28.0876 29.0771 32.5372 29.0771 35.2816 26.3374Z" fill="#665B89"/>
<path opacity="0.58" d="M23.9905 20.2089C23.9709 20.2143 23.9497 20.2153 23.9281 20.211C23.8549 20.1961 23.808 20.1247 23.8232 20.052C24.3295 17.5914 26.1515 15.6544 28.5783 14.997C28.9656 14.8923 29.363 14.8219 29.7594 14.7886C29.8336 14.7822 29.899 14.8371 29.9054 14.9115C29.9118 14.9856 29.8568 15.0516 29.7823 15.057C29.4021 15.0893 29.0209 15.1567 28.6492 15.2573C26.3212 15.8877 24.5734 17.7459 24.0876 20.1062C24.0772 20.1578 24.0384 20.1965 23.9908 20.2093L23.9905 20.2089Z" fill="#857CA1"/>
<path opacity="0.78" d="M34.7058 25.6826C37.0285 23.364 37.0285 19.6047 34.7058 17.2861C32.3831 14.9675 28.6172 14.9675 26.2945 17.2861C23.9718 19.6047 23.9718 23.364 26.2945 25.6826C28.6172 28.0013 32.3831 28.0013 34.7058 25.6826Z" fill="#857CA1"/>
<path d="M31.0949 25.897L30.9255 25.2736C30.2674 25.4238 29.5819 25.445 29.0701 25.3689C28.8873 25.3417 28.7544 25.1814 28.7547 24.9968L28.7554 24.3732C28.7554 24.1445 28.9578 23.9714 29.1852 24.0014C29.6905 24.0684 30.2913 24.0667 30.8955 23.9034C31.5226 23.7337 31.9325 23.3946 31.8144 22.9598C31.7078 22.5672 31.2831 22.4318 30.348 22.4345C29.0121 22.4318 27.9724 22.1324 27.6756 21.0397C27.4074 20.053 27.9255 19.104 29.1248 18.5629L28.9554 17.9395C28.9008 17.7388 29.0195 17.5321 29.2206 17.4779L29.5876 17.3785C29.7887 17.324 29.9958 17.4425 30.0501 17.6432L30.2023 18.2029C30.8112 18.0638 31.2777 18.048 31.6589 18.0756C31.8542 18.0897 32.0037 18.2551 32.0037 18.4507V19.0272C32.0037 19.2495 31.8127 19.4229 31.5911 19.4017C31.2379 19.3674 30.7504 19.3643 30.1618 19.5236C29.4179 19.725 29.2887 20.0904 29.364 20.3662C29.4564 20.7056 29.9661 20.8181 31.0139 20.8534C32.508 20.8932 33.2377 21.3104 33.5173 22.3395C33.774 23.2838 33.3031 24.3227 32.0003 24.9032L32.1899 25.601C32.2445 25.8017 32.1258 26.0084 31.9247 26.0626L31.5577 26.162C31.3566 26.2165 31.1495 26.098 31.0952 25.8973L31.0949 25.897Z" fill="#665B89"/>
<path d="M44.6904 40.9888C47.6115 38.0728 47.6115 33.3451 44.6904 30.4292C41.7694 27.5132 37.0334 27.5132 34.1123 30.4292C31.1912 33.3451 31.1912 38.0728 34.1123 40.9888C37.0334 43.9048 41.7694 43.9048 44.6904 40.9888Z" fill="#665B89"/>
<path d="M44.5139 40.8131C47.3377 37.9942 47.3377 33.4238 44.5139 30.6049C41.69 27.786 37.1117 27.786 34.2878 30.6049C31.464 33.4238 31.464 37.9942 34.2878 40.8131C37.1117 43.632 41.69 43.632 44.5139 40.8131Z" fill="#665B89"/>
<path opacity="0.58" d="M32.8958 34.504C32.8762 34.5093 32.8549 34.5104 32.8334 34.506C32.7601 34.4912 32.7133 34.4198 32.7284 34.347C33.249 31.8164 35.1229 29.8245 37.6189 29.1486C38.0173 29.0409 38.4258 28.9684 38.8333 28.9341C38.9075 28.9277 38.973 28.9826 38.9794 29.057C38.9858 29.1311 38.9311 29.1968 38.8562 29.2025C38.4646 29.2358 38.0723 29.3052 37.6897 29.4086C35.2929 30.0578 33.4932 31.9706 32.9933 34.4009C32.9828 34.4524 32.944 34.4912 32.8964 34.504H32.8958Z" fill="#857CA1"/>
<path opacity="0.78" d="M45.7147 35.8844C45.7507 32.5105 43.04 29.7463 39.6602 29.7103C36.2803 29.6744 33.5113 32.3804 33.4753 35.7543C33.4393 39.1282 36.15 41.8924 39.5299 41.9283C42.9097 41.9642 45.6787 39.2583 45.7147 35.8844Z" fill="#857CA1"/>
<path d="M40.2062 40.3596L40.0318 39.7181C39.3547 39.8727 38.649 39.8943 38.1224 39.8161C37.9345 39.7882 37.7975 39.6232 37.7979 39.4332L37.7989 38.7914C37.7989 38.556 38.0074 38.3779 38.2408 38.4088C38.7606 38.4779 39.3793 38.4762 40.0007 38.3078C40.646 38.133 41.0677 37.7845 40.9463 37.3366C40.8366 36.9329 40.3995 36.7931 39.4374 36.7958C38.063 36.7931 36.993 36.485 36.6874 35.3606C36.4114 34.3453 36.9444 33.3687 38.1787 32.8117L38.0043 32.1702C37.9483 31.9638 38.0705 31.7509 38.2772 31.695L38.6547 31.5927C38.8615 31.5368 39.0747 31.6587 39.1307 31.8651L39.2872 32.4413C39.914 32.2982 40.3937 32.2817 40.786 32.3103C40.9871 32.3251 41.1409 32.4952 41.1409 32.6962V33.2896C41.1409 33.5182 40.9446 33.6967 40.7166 33.6748C40.3529 33.6398 39.8516 33.6364 39.2457 33.8004C38.4803 34.0078 38.3474 34.3837 38.4247 34.6675C38.5195 35.0168 39.044 35.1326 40.1225 35.169C41.6601 35.2097 42.4107 35.6394 42.6984 36.6982C42.9626 37.6697 42.4781 38.7385 41.1376 39.3359L41.3325 40.0539C41.3885 40.2603 41.2664 40.4731 41.0596 40.529L40.6821 40.6314C40.4754 40.6873 40.2622 40.5654 40.2062 40.359V40.3596Z" fill="#665B89"/>
<path d="M46.2205 27.1462C49.4713 26.5582 51.6292 23.4508 51.0402 20.2056C50.4511 16.9604 47.3383 14.8063 44.0874 15.3943C40.8365 15.9823 38.6787 19.0897 39.2677 22.3349C39.8567 25.5801 42.9696 27.7342 46.2205 27.1462Z" fill="#665B89"/>
<path d="M45.1551 27.04C48.349 27.04 50.9381 24.4554 50.9381 21.2671C50.9381 18.0788 48.349 15.4941 45.1551 15.4941C41.9612 15.4941 39.3721 18.0788 39.3721 21.2671C39.3721 24.4554 41.9612 27.04 45.1551 27.04Z" fill="#665B89"/>
<path opacity="0.58" d="M39.9623 20.3412C39.9407 20.3469 39.9174 20.3479 39.8941 20.3432C39.8145 20.3267 39.7629 20.2489 39.7795 20.1694C40.1988 18.1307 41.7084 16.5264 43.7189 15.9819C44.0394 15.895 44.3683 15.8371 44.6972 15.8092C44.7782 15.8021 44.8497 15.8624 44.8564 15.9432C44.8632 16.024 44.8041 16.0961 44.7222 16.1021C44.4111 16.1287 44.0994 16.1836 43.7962 16.2658C41.8936 16.781 40.4653 18.2994 40.0682 20.2283C40.0567 20.2846 40.0142 20.3267 39.9623 20.3408V20.3412Z" fill="#857CA1"/>
<path opacity="0.78" d="M48.7712 24.8106C50.6827 22.9024 50.6827 19.8086 48.7712 17.9004C46.8596 15.9922 43.7604 15.9922 41.8489 17.9004C39.9373 19.8086 39.9373 22.9024 41.8489 24.8106C43.7604 26.7188 46.8596 26.7188 48.7712 24.8106Z" fill="#857CA1"/>
<path d="M45.7987 24.9865L45.6594 24.4737C45.1179 24.5973 44.5536 24.6148 44.1326 24.5521C43.9821 24.5299 43.8728 24.3979 43.8732 24.246L43.8738 23.7328C43.8738 23.5446 44.0405 23.4021 44.2274 23.427C44.6433 23.4823 45.1378 23.4809 45.6347 23.3462C46.1509 23.2065 46.4882 22.9276 46.3907 22.5697C46.303 22.2467 45.9535 22.1349 45.1841 22.1373C44.0847 22.1349 43.2292 21.8888 42.9846 20.9893C42.764 20.1774 43.1904 19.3965 44.1771 18.9509L44.0378 18.4377C43.9929 18.2727 44.0907 18.1023 44.256 18.0575L44.558 17.9757C44.7232 17.9309 44.8939 18.0286 44.9388 18.1936L45.064 18.6543C45.5653 18.5398 45.9488 18.5266 46.2625 18.5495C46.4231 18.5613 46.5462 18.6974 46.5462 18.8583V19.3328C46.5462 19.5157 46.389 19.6585 46.2069 19.641C45.9161 19.6127 45.5153 19.6103 45.0306 19.7413C44.4183 19.907 44.3124 20.2077 44.3738 20.4347C44.4497 20.7142 44.8693 20.8068 45.7316 20.8357C46.9612 20.8684 47.5616 21.2119 47.7917 22.0588C48.0029 22.836 47.6156 23.6907 46.5432 24.1686L46.6994 24.7427C46.7443 24.9077 46.6464 25.0781 46.4811 25.1229L46.1792 25.2048C46.0139 25.2495 45.8432 25.1519 45.7984 24.9869L45.7987 24.9865Z" fill="#665B89"/>
<path d="M0.667384 48.2693C0.452498 55.9263 -0.244112 82.338 0.0885064 91.6977C0.12359 92.6891 1.02328 93.4852 2.14494 93.5175C7.69386 93.6781 28.0359 94.0846 37.112 93.7482C39.0025 93.6781 40.5057 92.3247 40.5452 90.6528C40.7337 82.6159 41.15 60.0108 40.1609 49.6553C40.0425 48.4148 38.9404 47.4267 37.5388 47.3025C31.4956 46.768 11.0663 45.4621 3.22477 45.912C1.81063 45.9932 0.702467 47.0169 0.667384 48.2689V48.2693Z" fill="#665B89"/>
<path d="M4.51789 49.3916H35.5752C36.821 49.3916 37.8324 50.4012 37.8324 51.6448V58.1337C37.8324 59.3773 36.821 60.3869 35.5752 60.3869H4.51789C3.27209 60.3869 2.26074 59.3773 2.26074 58.1337V51.6448C2.26074 50.4012 3.27209 49.3916 4.51789 49.3916Z" fill="#F3F1F4"/>
<path opacity="0.2" d="M36.2487 51.6078C35.9741 51.3243 35.598 51.1616 35.2029 51.1555L6.14199 50.6945C5.3651 50.6821 4.70964 51.2687 4.63711 52.0409L4.03327 58.4768C3.98368 59.0039 4.85234 59.4474 5.95949 59.4608L34.5303 59.8063C35.6357 59.8198 36.5496 59.3989 36.559 58.8722L36.6666 52.6659C36.6734 52.2715 36.5229 51.891 36.2483 51.6075L36.2487 51.6078Z" fill="#857CA1"/>
<path d="M10.0251 66.9666C10.0251 68.1115 9.09542 69.0396 7.94846 69.0396H5.42042C4.27346 69.0396 3.34375 68.1115 3.34375 66.9666C3.34375 65.8216 4.27346 64.8936 5.42042 64.8936H7.94846C9.09542 64.8936 10.0251 65.8216 10.0251 66.9666Z" fill="#3B2C68"/>
<path d="M19.4148 66.9666C19.4148 68.1115 18.4851 69.0396 17.3381 69.0396H14.8101C13.6631 69.0396 12.7334 68.1115 12.7334 66.9666C12.7334 65.8216 13.6631 64.8936 14.8101 64.8936H17.3381C18.4851 64.8936 19.4148 65.8216 19.4148 66.9666Z" fill="#3B2C68"/>
<path d="M28.4431 66.9666C28.4431 68.1115 27.5134 69.0396 26.3664 69.0396H23.8384C22.6914 69.0396 21.7617 68.1115 21.7617 66.9666C21.7617 65.8216 22.6914 64.8936 23.8384 64.8936H26.3664C27.5134 64.8936 28.4431 65.8216 28.4431 66.9666Z" fill="#3B2C68"/>
<path d="M37.5951 67.2704C37.5951 68.4339 36.6502 69.3768 35.4851 69.3768H33.0417C31.8762 69.3768 30.9316 68.4336 30.9316 67.2704C30.9316 66.107 31.8765 65.1641 33.0417 65.1641H35.4851C36.6506 65.1641 37.5951 66.1073 37.5951 67.2704Z" fill="#643480"/>
<path d="M10.0251 73.4559C10.0251 74.6008 9.09542 75.5286 7.94846 75.5286H5.42042C4.27346 75.5286 3.34375 74.6005 3.34375 73.4559C3.34375 72.3109 4.27346 71.3828 5.42042 71.3828H7.94846C9.09542 71.3828 10.0251 72.3109 10.0251 73.4559Z" fill="#3B2C68"/>
<path d="M19.4148 73.4559C19.4148 74.6008 18.4851 75.5286 17.3381 75.5286H14.8101C13.6631 75.5286 12.7334 74.6005 12.7334 73.4559C12.7334 72.3109 13.6631 71.3828 14.8101 71.3828H17.3381C18.4851 71.3828 19.4148 72.3109 19.4148 73.4559Z" fill="#3B2C68"/>
<path d="M28.4431 73.4559C28.4431 74.6008 27.5134 75.5286 26.3664 75.5286H23.8384C22.6914 75.5286 21.7617 74.6005 21.7617 73.4559C21.7617 72.3109 22.6914 71.3828 23.8384 71.3828H26.3664C27.5134 71.3828 28.4431 72.3109 28.4431 73.4559Z" fill="#3B2C68"/>
<path d="M37.8327 73.4559C37.8327 74.6008 36.903 75.5286 35.7561 75.5286H33.228C32.0811 75.5286 31.1514 74.6005 31.1514 73.4559C31.1514 72.3109 32.0811 71.3828 33.228 71.3828H35.7561C36.903 71.3828 37.8327 72.3109 37.8327 73.4559Z" fill="#3B2C68"/>
<path opacity="0.63" d="M10.0251 79.2019C10.0251 80.3469 9.09542 81.275 7.94846 81.275H5.42042C4.27346 81.275 3.34375 80.3469 3.34375 79.2019C3.34375 78.057 4.27346 77.1289 5.42042 77.1289H7.94846C9.09542 77.1289 10.0251 78.057 10.0251 79.2019Z" fill="#3B2C68"/>
<path opacity="0.63" d="M19.4148 79.2019C19.4148 80.3469 18.4851 81.275 17.3381 81.275H14.8101C13.6631 81.275 12.7334 80.3469 12.7334 79.2019C12.7334 78.057 13.6631 77.1289 14.8101 77.1289H17.3381C18.4851 77.1289 19.4148 78.057 19.4148 79.2019Z" fill="#3B2C68"/>
<path opacity="0.63" d="M28.4431 79.2019C28.4431 80.3469 27.5134 81.275 26.3664 81.275H23.8384C22.6914 81.275 21.7617 80.3469 21.7617 79.2019C21.7617 78.057 22.6914 77.1289 23.8384 77.1289H26.3664C27.5134 77.1289 28.4431 78.057 28.4431 79.2019Z" fill="#3B2C68"/>
<path opacity="0.63" d="M10.0251 85.5105C10.0251 86.6555 9.09542 87.5836 7.94846 87.5836H5.42042C4.27346 87.5836 3.34375 86.6555 3.34375 85.5105C3.34375 84.3656 4.27346 83.4375 5.42042 83.4375H7.94846C9.09542 83.4375 10.0251 84.3656 10.0251 85.5105Z" fill="#3B2C68"/>
<path opacity="0.63" d="M19.4148 85.5105C19.4148 86.6555 18.4851 87.5836 17.3381 87.5836H14.8101C13.6631 87.5836 12.7334 86.6555 12.7334 85.5105C12.7334 84.3656 13.6631 83.4375 14.8101 83.4375H17.3381C18.4851 83.4375 19.4148 84.3656 19.4148 85.5105Z" fill="#3B2C68"/>
<path opacity="0.63" d="M28.4431 85.5105C28.4431 86.6555 27.5134 87.5836 26.3664 87.5836H23.8384C22.6914 87.5836 21.7617 86.6555 21.7617 85.5105C21.7617 84.3656 22.6914 83.4375 23.8384 83.4375H26.3664C27.5134 83.4375 28.4431 84.3656 28.4431 85.5105Z" fill="#3B2C68"/>
<path d="M34.1413 77.6914H34.3015C35.7521 77.6914 36.9301 78.867 36.9301 80.3154V85.3421C36.9301 86.7901 35.7524 87.966 34.3015 87.966H34.1413C32.6907 87.966 31.5127 86.7904 31.5127 85.3421V80.3154C31.5127 78.8673 32.6904 77.6914 34.1413 77.6914Z" fill="#3B2C68"/>
<g opacity="0.7">
<path d="M33.3191 52.5463C33.3191 52.7951 33.117 52.9968 32.8677 52.9968H31.6037C31.3544 52.9968 31.1523 52.7951 31.1523 52.5463C31.1523 52.2974 31.3544 52.0957 31.6037 52.0957H32.8677C33.117 52.0957 33.3191 52.2974 33.3191 52.5463Z" fill="#857CA1"/>
<path d="M33.3191 58.6752C33.3191 58.924 33.117 59.1258 32.8677 59.1258H31.6037C31.3544 59.1258 31.1523 58.924 31.1523 58.6752C31.1523 58.4263 31.3544 58.2246 31.6037 58.2246H32.8677C33.117 58.2246 33.3191 58.4263 33.3191 58.6752Z" fill="#857CA1"/>
<path d="M31.3324 55.0698C31.3324 55.3187 31.1303 55.5204 30.8811 55.5204C30.6318 55.5204 30.4297 55.3187 30.4297 55.0698V53.808C30.4297 53.5591 30.6318 53.3574 30.8811 53.3574C31.1303 53.3574 31.3324 53.5591 31.3324 53.808V55.0698Z" fill="#857CA1"/>
<path d="M31.3324 57.5932C31.3324 57.8421 31.1303 58.0438 30.8811 58.0438C30.6318 58.0438 30.4297 57.8421 30.4297 57.5932V56.3314C30.4297 56.0826 30.6318 55.8809 30.8811 55.8809C31.1303 55.8809 31.3324 56.0826 31.3324 56.3314V57.5932Z" fill="#857CA1"/>
<path d="M34.4017 55.0698C34.4017 55.3187 34.1997 55.5204 33.9504 55.5204C33.7011 55.5204 33.499 55.3187 33.499 55.0698V53.808C33.499 53.5591 33.7011 53.3574 33.9504 53.3574C34.1997 53.3574 34.4017 53.5591 34.4017 53.808V55.0698Z" fill="#857CA1"/>
<path d="M34.4017 57.5932C34.4017 57.8421 34.1997 58.0438 33.9504 58.0438C33.7011 58.0438 33.499 57.8421 33.499 57.5932V56.3314C33.499 56.0826 33.7011 55.8809 33.9504 55.8809C34.1997 55.8809 34.4017 56.0826 34.4017 56.3314V57.5932Z" fill="#857CA1"/>
</g>
<path d="M75.8989 93.5498C76.6971 93.6188 78.0825 93.7306 79.1748 93.7785C79.8313 93.8074 80.2095 93.7431 80.427 93.6562C80.4267 93.6808 80.426 93.7037 80.425 93.7253C80.42 93.8401 80.3265 93.9317 80.2105 93.9381C78.1466 94.0529 76.5055 93.9778 75.9212 93.9425C75.8004 93.935 75.7282 93.8041 75.7903 93.7013C75.8213 93.6498 75.8588 93.5996 75.8993 93.5498H75.8989Z" fill="#643480"/>
<path d="M79.1744 93.7791C78.0821 93.7312 76.6966 93.6191 75.8984 93.5504C76.6831 92.5893 79.1744 91.9414 79.1744 91.9414H79.8781C80.3618 92.6378 80.432 93.3005 80.4266 93.6568C80.209 93.7437 79.8308 93.808 79.1744 93.7791Z" fill="#3B2C68"/>
<path d="M79.9962 90.7939L79.9304 92.0945C79.9233 92.2352 79.8177 92.3538 79.6764 92.374C79.5357 92.3942 79.3475 92.3965 79.1478 92.3302C79.025 92.2895 78.9339 92.1861 78.911 92.0601L78.6836 90.7939H79.9962Z" fill="white"/>
<path d="M89.134 93.7692C89.4801 93.721 89.6366 93.5416 89.7024 93.3496C89.7028 93.3513 89.7034 93.353 89.7038 93.3547C89.7547 93.557 89.6366 93.7668 89.4005 93.8669C89.1151 93.9874 88.8034 94.008 88.5612 93.9982C88.3014 93.9874 88.0629 93.8803 87.9317 93.7082L87.9297 93.7055C88.1905 93.8345 88.5565 93.8497 89.134 93.7692Z" fill="#643480"/>
<path d="M87.5025 90.7863H88.0828C88.9666 90.7681 89.5215 92.629 89.703 93.3496C89.6372 93.5416 89.4807 93.7211 89.1346 93.7692C88.5574 93.8497 88.191 93.8345 87.9303 93.7056C87.4529 93.0782 87.2161 92.1599 87.1024 91.6238C86.9729 91.0139 87.5025 90.7863 87.5025 90.7863Z" fill="#3B2C68"/>
<path d="M88.0085 89.5791L88.3306 90.8584C88.3701 91.0153 88.2949 91.1773 88.1498 91.2517C87.9697 91.344 87.716 91.441 87.4826 91.413C87.3729 91.3999 87.2818 91.3228 87.2454 91.2198L86.7725 89.8741L88.0085 89.5794V89.5791Z" fill="white"/>
<path d="M88.392 89.9483C87.9912 90.3033 86.6874 90.3501 86.6874 90.3501C81.9909 79.0979 80.0698 77.4993 80.0698 77.4993C80.7478 81.7464 80.1791 91.1488 80.1791 91.1488C79.4042 91.4903 78.405 91.1488 78.405 91.1488C78.3419 84.1959 77.2715 78.1321 76.0068 73.3516C79.1812 73.2802 80.8689 72.1962 81.4201 71.7607C84.0659 76.019 88.392 89.948 88.392 89.948V89.9483Z" fill="#643480"/>
<path d="M80.6147 58.821C81.2155 61.8127 81.0003 67.167 80.8586 69.6095C80.8188 70.2958 81.2988 71.2474 81.6868 71.8967C81.7475 71.9984 81.7101 72.129 81.6045 72.1832C80.9548 72.5166 78.7543 73.5494 76.2036 73.6781C76.0336 73.6865 75.8818 73.571 75.8376 73.4067C73.9455 66.3548 71.748 61.8483 71.748 61.8483C74.1742 57.9808 80.6144 58.8213 80.6144 58.8213L80.6147 58.821Z" fill="#3B2C68"/>
<path d="M79.7501 77.2334C79.7767 77.2334 79.8037 77.2264 79.8283 77.2116C79.8992 77.1685 79.9218 77.0762 79.8786 77.0055C79.8533 76.964 79.2457 75.9838 78.0165 75.3918C77.9419 75.3561 77.8519 75.387 77.8158 75.4618C77.7797 75.5366 77.811 75.6265 77.8859 75.6622C79.0319 76.2141 79.6162 77.1523 79.6219 77.1617C79.6502 77.2082 79.6998 77.2338 79.7504 77.2338L79.7501 77.2334Z" fill="#643480"/>
<path d="M84.3833 67.407C84.1904 68.8009 83.6203 70.3209 82.4794 71.9357L82.0459 71.5828C82.0459 71.5828 82.5465 69.5555 82.2618 67.2548C82.9655 67.1178 83.7964 67.2592 84.3833 67.4074V67.407Z" fill="white"/>
<path d="M79.9437 62.5124L80.6147 58.8213C80.6147 58.8213 85.0983 62.2427 84.3831 67.4071C83.7965 67.2589 82.9653 67.1178 82.2616 67.2545C82.0565 65.5971 81.4442 63.7978 79.9434 62.5124H79.9437Z" fill="#665B89"/>
<path d="M71.7483 61.8486L73.4789 65.5694C73.1989 67.8159 71.9902 68.7871 70.6867 69.1595C70.6054 68.1358 70.346 67.3087 70.1055 66.7366C71.7709 65.0202 71.748 61.8486 71.748 61.8486H71.7483Z" fill="#665B89"/>
<path d="M70.1054 66.7363C70.3459 67.3085 70.6053 68.1355 70.6866 69.1593C67.209 70.5063 66.2891 67.8941 66.2891 67.8941L66.9317 67.7809C68.3829 67.9335 69.397 67.4664 70.1054 66.7363Z" fill="white"/>
<path d="M73.3428 57.2545L74.1784 60.3206C74.2721 60.6651 74.6456 60.8499 74.9775 60.7176C75.3358 60.5745 75.7905 60.3795 76.1818 60.1684C76.5995 59.9431 76.7304 59.407 76.4659 59.0133L74.7289 56.4277L73.3431 57.2545H73.3428Z" fill="white"/>
<path d="M71.5147 54.9251C71.507 54.9776 72.2117 58.4239 72.2117 58.4239L74.1743 57.9804L73.9928 54.6149C73.9928 54.6149 71.6422 54.0431 71.5147 54.9248V54.9251Z" fill="white"/>
<path d="M73.5505 55.3651L73.785 57.1294C73.788 57.1519 73.788 57.1745 73.785 57.197C73.7651 57.3354 73.6622 57.8062 73.1862 57.6715C72.7541 57.5493 72.358 57.4442 72.0844 57.5277C71.9616 57.5651 71.8874 57.6894 71.9131 57.815C71.9772 58.1282 72.1347 58.831 72.3648 59.4209C72.4113 59.5405 72.5429 59.6035 72.6664 59.5674C73.0384 59.459 73.8174 59.2088 74.3962 58.8609C74.4748 58.8138 74.5214 58.7286 74.5177 58.6373C74.4988 58.1921 74.4468 56.8381 74.4907 56.4585C74.5318 56.1023 74.9697 55.8891 75.16 55.8123C75.2224 55.7871 75.2713 55.7382 75.2963 55.6759C75.3843 55.4554 75.5057 54.9455 74.8621 54.7364C74.7275 54.6926 74.6563 54.5475 74.7042 54.4145C74.7997 54.1494 74.8398 53.745 74.3416 53.5221C73.8352 53.2954 73.4571 53.5648 73.253 53.7841C73.1703 53.8726 73.0381 53.8861 72.9356 53.8215C72.8772 53.7847 72.802 53.7726 72.7112 53.8292C72.5888 53.9053 72.4268 53.8534 72.3638 53.7241C72.2426 53.4756 71.9954 53.2096 71.4998 53.2944C70.6204 53.445 70.5209 54.4178 70.7526 54.988C70.9847 55.5581 71.9289 55.3409 72.4026 55.0536C72.7628 54.8351 73.2301 55.0641 73.4331 55.1866C73.4976 55.2254 73.5401 55.2914 73.5502 55.3658L73.5505 55.3651Z" fill="#3B2C68"/>
<path d="M74.57 57.1017C74.57 57.1017 74.2083 56.0911 74.5798 55.8436C74.9512 55.5961 75.5014 55.7247 75.3803 56.4568C75.2295 57.3677 74.57 57.102 74.57 57.102V57.1017Z" fill="white"/>
<path d="M66.5469 68.3725C66.3718 68.5088 65.772 68.2239 65.4054 68.0269C65.2266 67.931 65.1399 67.7222 65.2013 67.5289C65.2896 67.2507 65.4367 66.8921 65.6179 66.8466C65.9188 66.7715 67.2682 67.8097 66.5469 68.3721V68.3725Z" fill="white"/>
<path d="M94.0708 76.4215L59.1003 64.0059L57.25 69.1363L92.2083 81.8988C92.9508 82.1699 93.7793 81.8692 94.1774 81.1872C94.5859 80.4868 94.9766 79.392 95.0002 77.7527C95.0086 77.1567 94.6335 76.6212 94.0708 76.4215Z" fill="#665B89"/>
<path d="M48.281 62.6798L53.1117 63.2718C53.1067 63.9355 52.8891 64.7943 52.152 65.7793L48.1177 63.1226C47.9035 62.9815 48.0263 62.6485 48.281 62.6798Z" fill="#3B2C68"/>
<path d="M59.0996 64.0056C59.3209 67.2209 57.2493 69.136 57.2493 69.136L52.1514 65.7789C52.8885 64.7939 53.106 63.9352 53.1111 63.2715L59.0992 64.0053L59.0996 64.0056Z" fill="white"/>
<path d="M93.6367 77.995C93.6792 77.995 93.7187 77.9688 93.7335 77.9267C93.7524 77.8731 93.7244 77.8145 93.6708 77.7957L60.2133 65.9922C60.1597 65.9734 60.101 66.0013 60.0821 66.0548C60.0632 66.1084 60.0912 66.167 60.1448 66.1858L93.6023 77.9893C93.6138 77.9933 93.6256 77.995 93.6367 77.995Z" fill="#3B2C68"/>
<path d="M93.0596 80.0077C93.1021 80.0077 93.1416 79.9815 93.1564 79.9394C93.1753 79.8858 93.1473 79.8272 93.0936 79.8084L59.6361 68.0049C59.5825 67.986 59.5238 68.014 59.5049 68.0675C59.486 68.1211 59.514 68.1797 59.5677 68.1985L93.0252 80.002C93.0366 80.006 93.0481 80.0081 93.0592 80.0081L93.0596 80.0077Z" fill="#3B2C68"/>
<path d="M82.2247 71.5211L80.2006 71.3564L79.3242 72.163C79.3242 72.163 79.5317 72.4492 80.1801 72.2845C80.8284 72.1202 81.7163 72.0798 81.7163 72.0798C81.7163 72.0798 82.6113 72.4825 82.6221 71.7289L82.2247 71.5211Z" fill="white"/>
</g>
<defs>
<clipPath id="clip0_873_3756">
<rect width="95" height="94" fill="white"/>
</clipPath>
</defs>
</svg>
