<svg width="113" height="104" viewBox="0 0 113 104" fill="none" xmlns="http://www.w3.org/2000/svg">
<path d="M80.0307 54.6766C77.4512 42.8566 66.9575 8.03262 88.7599 10.2797C103.432 11.7912 93.5318 23.6385 102.898 27.5117C112.264 31.385 113.566 42.6779 101.038 57.1562C88.511 71.6344 72.375 77.0167 72.375 77.0167C72.375 77.0167 82.6108 66.4966 80.0307 54.6766Z" fill="#71548E"/>
<path d="M83.9217 51.034C87.5767 47.9266 87.8842 46.3175 92.8827 41.9153C98.5218 36.9492 101.904 34.0731 106.14 35.3521C109.028 36.2238 111.926 38.9112 112.746 41.5396C114.117 45.938 109.563 49.8398 108.006 51.1727C105.397 53.4071 103.329 53.7137 102.652 56.3206C102.081 58.5208 103.245 59.4901 102.789 61.1277C101.495 65.7764 90.2402 64.6614 88.4185 64.4809C81.2798 63.7739 75.0116 60.9947 70.3945 58.2984C76.9525 56.2148 81.2085 53.3393 83.9211 51.0334L83.9217 51.034Z" fill="#3B2C68"/>
<path d="M18.8069 80.1067C16.1198 81.0367 13.5346 80.4906 11.1334 79.3725C10.8749 79.2521 10.6196 79.126 10.3655 78.993C9.26582 78.4184 8.20754 77.7399 7.2002 77.0494C4.41122 75.1387 1.26756 72.4926 2.5156 68.6402C3.11415 66.7935 5.09063 66.7802 5.7605 65.2167C6.58764 63.2896 3.85151 60.9241 2.69007 59.7369C0.859406 57.8687 -0.715922 56.4724 0.340452 53.5703C1.09437 51.4987 2.94159 50.6251 4.48253 49.2403C6.60356 47.3321 6.03175 45.0426 5.78979 42.5542C5.48224 39.3879 8.40302 36.7424 11.1914 35.8644C11.5174 35.7617 11.888 35.6654 12.284 35.585C14.4968 35.1339 17.5576 35.1523 18.7522 37.0921C21.0954 40.8995 15.9142 43.8111 14.3758 46.5092C12.9373 49.0325 14.442 51.4632 15.9995 53.5374C19.9104 58.7505 25.8208 63.4632 25.0821 70.6548C24.6823 74.5629 22.7459 78.7428 18.8057 80.1067H18.8069Z" fill="#8F66A7"/>
<path style="mix-blend-mode:multiply" opacity="0.2" d="M18.8069 80.1067C16.1198 81.0367 13.5345 80.4906 11.1333 79.3725C13.0296 78.421 18.6579 74.9297 16.0854 68.001C15.1634 65.5195 13.3219 63.6817 11.1352 62.2475C9.82099 61.3859 8.26285 60.2462 8.02471 58.5795C7.75345 56.6783 9.14539 55.0039 10.0127 53.4417C10.9742 51.7078 11.7045 49.8465 11.241 47.8408C10.4164 44.2666 9.52426 38.4263 12.284 35.585C14.4967 35.1339 17.5575 35.1523 18.7521 37.0921C21.0953 40.8995 15.9141 43.8111 14.3757 46.5092C12.9373 49.0325 14.4419 51.4632 15.9994 53.5374C19.9103 58.7505 25.8207 63.4632 25.0821 70.6548C24.6822 74.5629 22.7458 78.7428 18.8056 80.1067H18.8069Z" fill="#71548E"/>
<path d="M28.4348 78.0832C27.7426 78.1833 26.925 78.1903 26.0998 78.1149C25.6547 78.0744 25.2071 78.0104 24.776 77.9249C24.1953 77.8108 23.6445 77.6569 23.1675 77.4694C20.7186 76.5052 11.6111 72.4412 16.3358 69.0773C16.786 68.7574 17.7227 68.5312 17.8997 67.9433C18.2104 66.91 16.4441 65.4574 15.8283 64.8714C10.2981 59.6019 20.8962 57.4834 18.9911 53.7666C17.0865 50.0486 17.0401 46.2513 21.2375 42.3305C23.5744 40.1481 26.8556 40.8165 28.6519 42.2634C30.0827 43.4157 30.5704 45.0616 28.8875 46.1531C25.0918 48.6162 25.8266 52.0327 26.4112 56.2316C26.9944 60.4299 36.0873 65.4897 33.9223 73.1134C33.2162 75.5999 30.9862 77.712 28.4348 78.0826V78.0832Z" fill="#D9C0E8"/>
<path style="mix-blend-mode:multiply" opacity="0.2" d="M28.4347 78.0832C27.7425 78.1833 26.9249 78.1902 26.0997 78.1149C28.7307 75.7265 28.5696 73.5732 24.0742 69.6461C19.1209 65.3193 20.6535 62.758 22.9223 59.0874C25.1904 55.4169 20.6688 54.2164 21.948 47.7451C22.8115 43.3764 26.4072 42.4217 28.6524 42.2627C30.0832 43.415 30.571 45.0609 28.888 46.1524C25.0923 48.6155 25.8272 52.032 26.4117 56.2309C26.995 60.4292 36.0878 65.489 33.9228 73.1127C33.2167 75.5992 30.9868 77.7113 28.4353 78.0819L28.4347 78.0832Z" fill="#71548E"/>
<path d="M104.162 90.025V78.8575L10.3984 78.7295V89.8013L30.7561 94.5881L104.162 90.025Z" fill="#6C5087"/>
<path d="M103.951 53.2969V54.6931L110.195 54.7501L108.813 53.3159L103.951 53.2969Z" fill="#665B89"/>
<path d="M30.5549 83.3048L10.3984 78.9906V53.3291L30.5549 53.5223V83.3048Z" fill="#D8DEE8"/>
<path d="M108.813 53.2455L104.161 53.3348V79.1243L57.4451 81.7774L38.0935 82.8766L30.5537 83.3048V53.5223L62.988 44.3288L82.3224 25.7588L108.814 53.2455H108.813ZM95.5586 76.8557V51.305L67.0843 51.2569V78.3103L95.5586 76.8551V76.8557Z" fill="#8F66A7"/>
<g opacity="0.2">
<path d="M109.28 53.3453L83.0625 26.0113L82.2589 25.1738L81.4617 25.9353L62.2394 44.3191L30.0464 53.3403L25.6318 54.5775V55.2535H30.5546V54.8163L62.8762 45.7578L82.3233 27.189L107.442 53.3453H109.28Z" fill="#D8DEE8"/>
</g>
<path d="M82.2589 23.7432L83.0625 24.5807L109.599 52.2175L110.284 52.9302V54.7414L110.196 54.7496L108.822 53.3223L82.3233 25.7584L62.8762 44.3271L30.8328 53.7785L25.6318 55.2134V53.1468L30.0464 51.9096L62.2394 42.8884L81.4617 24.5046L82.2589 23.7432Z" fill="#665B89"/>
<path d="M95.2716 51.661V76.5148L67.4072 77.9181V51.6338L95.2716 51.661ZM93.7924 74.1468V53.2822L87.0956 53.298V74.4502L93.7924 74.1468ZM85.2771 74.5326V53.3018L78.3428 53.3183V74.8468L85.2771 74.5326ZM76.458 74.9323V53.3227L69.2729 53.3398V75.258L76.458 74.9323Z" fill="#3B2C68"/>
<path d="M66.9453 78.4015V51.1758L95.7317 51.203V76.9514L66.9453 78.4008V78.4015ZM67.8673 52.0937V77.436L94.8096 76.079V52.1191L67.8673 52.0931V52.0937ZM68.8104 75.7382V52.8825L76.9175 52.8628V75.3701L68.8104 75.7376V75.7382ZM69.7324 53.7979V74.7784L75.9955 74.4946V53.7833L69.7324 53.7985V53.7979ZM77.8809 75.327V52.8609L85.7372 52.8419V74.971L77.8809 75.327ZM78.8029 53.7763V74.3673L84.8145 74.0949V53.7624L78.8029 53.777V53.7763ZM86.6337 74.9305V52.84L94.2525 52.8216V74.5846L86.6337 74.9298V74.9305ZM87.5558 53.7554V73.9701L93.3298 73.7084V53.7415L87.5558 53.7554Z" fill="#3B2C68"/>
<path d="M82 24L81.1904 24.7861L61.6709 43.748L38 45.5L55.8041 28.4075L56.547 27.7168L82 24Z" fill="#3B2C68"/>
<path d="M45.4453 66.64L55.315 66.5127L55.3093 88.2357L45.4453 88.7932V66.64Z" fill="#F4F7FA"/>
<path d="M43.624 87.7369V67.4228L54.5889 67.293V86.9089L43.624 87.7369Z" fill="#97A6B7"/>
<path d="M38.0947 89.3575V64.0558L57.4119 63.8613V88.1171L55.3094 88.2362V66.5575L45.4454 66.7077V88.9419L38.0947 89.3575Z" fill="#D8DEE8"/>
<path d="M93.6639 53.4404V73.9934L87.2295 74.2829V53.4582L93.6639 53.4404Z" fill="#E5CEF2"/>
<path d="M76.3194 53.4863V74.7729L69.415 75.0833V53.5053L76.3194 53.4863Z" fill="#E5CEF2"/>
<path d="M85.1425 53.4639V74.3766L78.4795 74.6763V53.4816L85.1425 53.4639Z" fill="#E5CEF2"/>
<path d="M38.0947 89.3337L57.4119 87.9824L61.9233 93.0087L38.0947 94.0914V89.3337Z" fill="#F4F7FA"/>
<path d="M80.8561 59.9806L76.8172 60.1149L74.6917 56.6971L70.6534 56.8308L68.5318 53.4086L64.489 53.5429L62.3635 50.1251L58.3571 50.2366L58.345 50.2106L58.3233 50.2132L58.31 50.2119L56.1845 46.6902L52.2353 46.6655L52.2054 46.6693L52.0965 46.746L52.0997 46.8055L50.0239 43.503L46.1632 43.6538L46.1123 43.6335L44.0078 40.2443L40.0873 40.376L39.904 40.2816L37.8447 36.9646L34.0063 37.0907L33.6956 36.9247L31.6803 33.6811L27.9387 33.8034L27.4828 33.5639L25.5165 30.3976L21.8577 30.518L21.5234 30.3375L21.8469 30.0175L31.7694 20.0841L34.8793 16.9717L83.8794 52.9487L83.1656 54.6148L80.8561 59.9806Z" fill="#D3C5CB"/>
<g style="mix-blend-mode:soft-light">
<path d="M83.1657 54.6148L31.7695 20.0841L34.8794 16.9717L83.8795 52.9486L83.1657 54.6148Z" fill="white"/>
</g>
<path d="M35.3668 15.6531L19.8217 3.91548C19.2289 3.46823 18.4145 3.44922 17.802 3.86734L16.5877 4.6985C16.5476 4.72447 16.5113 4.75298 16.4737 4.78339C15.914 5.23572 15.6924 5.99529 15.9375 6.68328L16.5195 8.3228C16.7328 8.92844 16.5902 9.60249 16.1496 10.07L8.36718 18.2993C6.65368 20.1118 6.73836 22.9645 8.55884 24.6737L15.1123 30.825C15.8338 31.5042 16.7819 31.8931 17.7746 31.9197L23.8046 32.0788C24.2223 32.0895 24.6286 31.973 24.9718 31.7512C25.1539 31.6347 25.3176 31.4883 25.457 31.3141L35.7278 18.5489C36.0742 18.1207 36.2296 17.5714 36.1608 17.0253C36.0946 16.4799 35.8081 15.9857 35.3668 15.6531ZM27.7799 17.3668L20.7992 26.5368C20.5916 26.8073 20.2821 26.9809 19.9427 27.0157C19.604 27.0525 19.2652 26.9454 19.0067 26.7224L13.1307 21.6582C12.8824 21.4453 12.7309 21.1419 12.7073 20.8162C12.685 20.49 12.792 20.1688 13.0091 19.9223L20.6928 11.1571C20.9112 10.9075 21.2213 10.758 21.5505 10.739C21.8816 10.7194 22.2064 10.8321 22.4522 11.0545L27.6239 15.7152C28.0989 16.1422 28.1658 16.8587 27.7799 17.3661V17.3668Z" fill="#71548E"/>
<path style="mix-blend-mode:multiply" opacity="0.25" d="M17.9802 6.29159C18.5667 8.12116 19.6396 10.2003 17.2391 11.7119C14.8379 13.226 7.72979 20.3124 9.06697 22.2826C10.4061 24.2522 16.7354 30.899 18.1617 30.6209C18.1617 30.6209 24.3255 30.975 24.9718 31.751C24.6286 31.9728 24.223 32.0893 23.8046 32.0786L17.7746 31.9196C16.7819 31.8929 15.8337 31.5046 15.1123 30.8248L8.55884 24.6735C6.73836 22.9643 6.65368 20.1116 8.36718 18.2991L16.1496 10.0698C16.5902 9.6023 16.7328 8.92825 16.5195 8.32262L15.9375 6.6831C15.6924 5.9951 15.914 5.23553 16.4737 4.7832C17.0843 5.02077 17.7147 5.46359 17.9796 6.29222L17.9802 6.29159Z" fill="#96888E"/>
<g filter="url(#filter0_d_873_3647)">
<mask id="mask0_873_3647" style="mask-type:luminance" maskUnits="userSpaceOnUse" x="2" y="42" width="63" height="57">
<path d="M37.4138 44.0816L62.1498 42.8779L62.663 44.3223L64.4797 48.7373V96.839L30.3777 98.2092L2.19629 91.0373V47.9764L37.4138 44.0816Z" fill="white"/>
</mask>
<g mask="url(#mask0_873_3647)">
<path d="M103.154 91.2818V80.1143L9.3916 79.9863V91.0582L29.7492 95.845L103.154 91.2818Z" fill="#71548E"/>
<path d="M29.5474 84.5617L9.3916 80.2475V54.5859L29.5474 54.7792V84.5617Z" fill="#7F5898"/>
<path d="M107.808 54.5013L103.156 54.5907V80.3802L56.4402 83.0333L37.0886 84.1324L29.5488 84.5607V54.7782L61.9831 45.5847L81.3175 27.0146L107.809 54.5013H107.808ZM94.5537 78.1116V52.5609L66.0794 52.5127V79.5661L94.5537 78.1109V78.1116Z" fill="#8F66A7"/>
<g opacity="0.2">
<path d="M108.273 54.6022L82.0551 27.2682L81.2515 26.4307L80.4543 27.1921L61.2326 45.5759L29.0396 54.5971L24.625 55.8343V56.5103H29.5471V56.0732L61.8693 47.0146L81.3158 28.4459L106.435 54.6022H108.273Z" fill="#D8DEE8"/>
</g>
<path d="M81.2515 25L82.0551 25.8375L108.592 53.4743L109.277 54.187V55.9982L109.189 56.0065L107.816 54.5792L81.3158 27.0152L61.8693 45.584L29.8254 55.0353L24.625 56.4702V54.4037L29.0396 53.1664L61.2326 44.1453L80.4543 25.7615L81.2515 25Z" fill="#71548E"/>
<path d="M44.4385 67.8969L54.3082 67.7695L54.3018 89.4925L44.4385 90.05V67.8969Z" fill="#746C8D"/>
<path d="M42.6172 88.9938V68.6797L53.5827 68.5498V88.1658L42.6172 88.9938Z" fill="#3B2C68"/>
<path d="M37.0869 90.6144V65.3127L56.4047 65.1182V89.374L54.3015 89.4931V67.8144L44.4382 67.9645V90.1988L37.0869 90.6144Z" fill="#665B89"/>
<path d="M61.233 44.1455L29.0394 53.1673L24.6247 54.4033L5 54.2614L8.93832 53.1971L37.9233 45.3593L61.233 44.1455Z" fill="#3B2C68"/>
<path d="M24.6254 56.4708L5 56.04V54.2617L24.6254 54.4043V56.4708Z" fill="#71548E"/>
<path d="M37.0869 89.5905L56.4047 88.2393L60.9161 93.2655L37.0869 94.3482V89.5905Z" fill="#3C3062"/>
</g>
</g>
<path d="M109.052 40.2107C109.052 44.8625 105.396 48.5223 100.723 48.3791C95.8594 48.2303 91.7695 44.0516 91.7695 39.0514C91.7695 34.0511 95.8594 30.4204 100.723 30.9247C105.396 31.4087 109.052 35.5588 109.052 40.2107Z" fill="#643480"/>
<path d="M110.314 39.8093C110.314 44.4612 106.658 48.1209 101.985 47.9778C97.1211 47.8289 93.0312 43.6503 93.0312 38.65C93.0312 33.6497 97.1211 30.0191 101.985 30.5233C106.658 31.0073 110.314 35.1575 110.314 39.8093Z" fill="#775E93"/>
<path d="M109.948 39.7846C109.948 44.2318 106.45 47.7243 101.985 47.5805C97.3478 47.431 93.4541 43.4431 93.4541 38.6785C93.4541 33.9139 97.3478 30.4479 101.985 30.9212C106.45 31.376 109.948 35.338 109.948 39.7852V39.7846Z" fill="#643480"/>
<path d="M109.685 39.7663C109.685 44.0666 106.3 47.44 101.985 47.2956C97.5085 47.1461 93.7549 43.2943 93.7549 38.6976C93.7549 34.1008 97.5085 30.7527 101.985 31.2038C106.3 31.6384 109.685 35.4654 109.685 39.7663Z" fill="#865B9E"/>
<path d="M101.941 32.6678C102.171 32.6893 102.356 32.8952 102.356 33.1271V33.919C102.815 33.9703 103.275 34.0495 103.735 34.1572C104.075 34.2364 104.412 34.3308 104.747 34.4404C104.948 34.5062 105.085 34.7077 105.064 34.9155L104.966 35.9082C104.94 36.1717 104.678 36.3263 104.432 36.2167C104.212 36.1185 103.985 36.0349 103.753 35.9652C103.349 35.8436 102.922 35.7638 102.473 35.727L102.356 35.7175V37.9848C103.554 38.3181 104.433 38.7666 105.002 39.331C105.567 39.8923 105.849 40.5924 105.849 41.4324C105.849 42.3408 105.538 43.0681 104.912 43.6167C104.283 44.1685 103.401 44.4783 102.261 44.5455V45.4191C102.261 45.6509 102.075 45.8321 101.845 45.8226H101.837C101.607 45.8131 101.42 45.6167 101.42 45.3842V44.522L101.235 44.5138C100.7 44.4897 100.188 44.4352 99.699 44.351C99.3367 44.2882 98.9826 44.2072 98.6375 44.1083C98.4287 44.0481 98.2854 43.8505 98.3045 43.6376L98.4197 42.3611C98.4446 42.0849 98.7235 41.9246 98.9871 42.0279C99.2946 42.1483 99.6054 42.2502 99.9206 42.3326C100.412 42.4612 100.909 42.5442 101.413 42.5809L101.421 40.0583C100.271 39.7751 99.4105 39.3557 98.8445 38.8008C98.2765 38.2427 97.9912 37.5287 97.9912 36.6608C97.9912 35.7929 98.3 35.0688 98.9164 34.5823C99.529 34.0983 100.4 33.8569 101.524 33.8575V33.0479C101.524 32.8154 101.71 32.6444 101.941 32.6659V32.6678ZM101.524 35.6947C101.169 35.7207 100.892 35.8176 100.693 35.9861C100.494 36.1553 100.395 36.3821 100.395 36.6665C100.395 36.9364 100.487 37.1619 100.671 37.3431C100.854 37.5236 101.139 37.6681 101.524 37.7758V35.6941V35.6947ZM102.261 40.2623V42.5752C102.647 42.5759 102.943 42.484 103.15 42.3003C103.356 42.1166 103.46 41.8568 103.46 41.5217C103.46 41.2157 103.364 40.9623 103.172 40.7602C102.98 40.5581 102.676 40.3922 102.261 40.2623Z" fill="#643480"/>
<path style="mix-blend-mode:multiply" opacity="0.5" d="M100.592 40.8202C100.852 38.264 103.213 37.1819 102.905 34.8304C102.715 33.3809 101.611 32.1595 100.38 31.2061C96.6438 31.5957 93.7549 34.6732 93.7549 38.6986C93.7549 43.2953 97.5085 47.147 101.985 47.2965C102.42 47.3111 102.844 47.2883 103.257 47.2345C101.479 45.4746 100.368 43.0159 100.591 40.8202H100.592Z" fill="#665B89" fill-opacity="0.5"/>
<path d="M99.9254 15.2593C99.9254 22.4839 94.2475 28.1677 86.9897 27.946C79.4372 27.7154 73.085 21.2257 73.085 13.4595C73.085 5.69335 79.4372 0.0557535 86.9897 0.838137C94.2475 1.59011 99.9254 8.0348 99.9254 15.26V15.2593Z" fill="#643480"/>
<path d="M101.886 14.6359C101.886 21.8605 96.2078 27.5437 88.9507 27.322C81.3982 27.0914 75.0459 20.6017 75.0459 12.8355C75.0459 5.06933 81.3982 -0.56827 88.9507 0.214113C96.2084 0.966088 101.886 7.41077 101.886 14.6359Z" fill="#775E93"/>
<path d="M101.317 14.5978C101.317 21.5043 95.884 26.9284 88.9511 26.7048C81.7488 26.4729 75.7021 20.2791 75.7021 12.8797C75.7021 5.48035 81.7488 0.0974232 88.9511 0.83166C95.884 1.53866 101.317 7.69129 101.317 14.5978Z" fill="#643480"/>
<path d="M100.908 14.5712C100.908 21.2496 95.6507 26.4888 88.9495 26.2645C81.9975 26.032 76.168 20.0504 76.168 12.9114C76.168 5.7724 81.9975 0.572556 88.9495 1.27322C95.6507 1.94854 100.908 7.89212 100.908 14.5706V14.5712Z" fill="#865B9E"/>
<path d="M88.8819 3.54554C89.2385 3.57912 89.5269 3.89841 89.5269 4.25887V5.48851C90.2401 5.5677 90.9539 5.69124 91.669 5.85848C92.1962 5.98202 92.7196 6.12836 93.2398 6.29877C93.5512 6.40077 93.7639 6.71372 93.732 7.03681L93.5805 8.57877C93.5404 8.98802 93.1335 9.22812 92.7508 9.05834C92.4082 8.90629 92.0567 8.77579 91.697 8.66746C91.0685 8.47804 90.4063 8.35514 89.709 8.29813L89.5269 8.28292V11.8046C91.3869 12.3222 92.7534 13.019 93.6359 13.8952C94.5146 14.7669 94.9521 15.854 94.9521 17.1584C94.9521 18.5692 94.4681 19.6988 93.4964 20.5508C92.5197 21.4073 91.15 21.8888 89.3786 21.9933V23.3503C89.3786 23.7108 89.0895 23.9914 88.7329 23.9775H88.7214C88.3636 23.9629 88.0732 23.6582 88.0732 23.2964V21.9578L87.786 21.9452C86.9557 21.9078 86.1604 21.8235 85.4001 21.6924C84.8372 21.5948 84.2877 21.4694 83.7516 21.3155C83.4275 21.2223 83.2046 20.9151 83.2345 20.5844L83.4135 18.6021C83.4523 18.1739 83.8847 17.9243 84.2941 18.0852C84.7717 18.2727 85.2549 18.4305 85.744 18.5584C86.5062 18.7586 87.2792 18.8866 88.0624 18.9436L88.0739 15.0266C86.2884 14.587 84.9512 13.9357 84.0731 13.0735C83.1906 12.2069 82.748 11.0982 82.748 9.75013C82.748 8.40202 83.2282 7.27818 84.1846 6.5224C85.1365 5.77043 86.489 5.39602 88.2343 5.39729V4.14041C88.2343 3.77867 88.5247 3.51323 88.8819 3.54681V3.54554ZM88.2343 8.24618C87.6822 8.28609 87.2524 8.43686 86.9443 8.6985C86.6361 8.96078 86.4813 9.31301 86.4813 9.75583C86.4813 10.1746 86.624 10.5249 86.9099 10.8062C87.1951 11.0868 87.637 11.3111 88.2349 11.4783V8.24554L88.2343 8.24618ZM89.3786 15.3396V18.9316C89.9784 18.9328 90.4388 18.7903 90.7597 18.5046C91.08 18.2195 91.2404 17.8166 91.2404 17.2952C91.2404 16.8201 91.0914 16.426 90.7941 16.1131C90.4954 15.7995 90.0242 15.5417 89.3792 15.3396H89.3786Z" fill="#643480"/>
<path style="mix-blend-mode:multiply" opacity="0.5" d="M86.7858 16.2066C87.1895 12.2364 90.8572 10.5557 90.3784 6.90412C90.0836 4.65326 88.3688 2.75653 86.456 1.27539C80.6545 1.88103 76.168 6.66021 76.168 12.9117C76.168 20.0507 81.9975 26.0323 88.9495 26.2648C89.6245 26.2876 90.2835 26.2521 90.9247 26.1691C88.1638 23.4355 86.4382 19.6174 86.7858 16.2066Z" fill="#8F66A7" fill-opacity="0.5"/>
<defs>
<filter id="filter0_d_873_3647" x="1" y="42.8779" width="67.4795" height="60.9668" filterUnits="userSpaceOnUse" color-interpolation-filters="sRGB">
<feFlood flood-opacity="0" result="BackgroundImageFix"/>
<feColorMatrix in="SourceAlpha" type="matrix" values="0 0 0 0 0 0 0 0 0 0 0 0 0 0 0 0 0 0 127 0" result="hardAlpha"/>
<feOffset dy="4"/>
<feGaussianBlur stdDeviation="2"/>
<feComposite in2="hardAlpha" operator="out"/>
<feColorMatrix type="matrix" values="0 0 0 0 0 0 0 0 0 0 0 0 0 0 0 0 0 0 0.25 0"/>
<feBlend mode="normal" in2="BackgroundImageFix" result="effect1_dropShadow_873_3647"/>
<feBlend mode="normal" in="SourceGraphic" in2="effect1_dropShadow_873_3647" result="shape"/>
</filter>
</defs>
</svg>
