<svg width="149" height="108" viewBox="0 0 149 108" fill="none" xmlns="http://www.w3.org/2000/svg">
<path d="M26.1469 62.1028C26.1469 62.1028 33.0737 48.536 30.9247 46.5155C28.7757 44.495 28.7376 50.3643 27.8679 49.5325C26.9982 48.7016 28.4164 43.8 28.0299 40.3948C27.6434 36.9896 26.8043 32.4337 25.721 37.0116C24.6376 41.5896 24.7723 46.1038 24.3035 43.7711C23.8339 41.4392 22.2157 29.2814 20.1334 32.9092C18.0518 36.5369 17.6149 41.2592 19.7129 44.0112C21.8115 46.7631 24.6288 49.8356 21.165 47.8068C17.7013 45.7787 15.3407 46.6834 19.0453 50.3582C19.0453 50.3582 24.6158 55.5044 22.1974 55.2628C19.7789 55.0213 15.9286 57.8712 19.8966 59.9297C19.8966 59.9297 25.5338 60.8434 26.1463 62.1021L26.1469 62.1028Z" fill="#643480"/>
<path d="M23.2684 74.4751C23.2684 74.4751 9.76737 73.7603 10.3648 70.2708C10.9623 66.7813 15.3685 69.1178 17.329 69.3396C19.2895 69.5613 18.1395 68.065 14.1457 64.9264C10.1518 61.7886 7.95657 57.1924 12.1852 59.3351C16.4138 61.4779 18.1041 65.5029 17.8176 62.6644C17.5311 59.8258 12.0953 51.8343 16.6935 55.1066C21.2909 58.3788 20.9765 61.4065 21.1153 63.7954C21.2541 66.1843 21.8666 59.1718 23.3038 60.217C24.741 61.2614 23.9251 62.3347 23.4106 65.1117C22.8962 67.8888 24.3368 65.6503 24.8131 64.7388C25.2895 63.8273 26.4592 66.0134 25.3133 69.0296C24.1673 72.0459 23.2684 74.4751 23.2684 74.4751Z" fill="#643480"/>
<path d="M25.9584 90.3614C25.9495 90.3698 25.9434 90.3804 25.9407 90.3918C25.9393 90.3918 25.9393 90.4131 25.94 90.3971L25.942 90.3546L25.9495 90.1829L25.9624 89.8327L25.9835 89.1256L26.0162 87.7052L26.0604 84.8598C26.0822 82.9623 26.0897 81.0642 26.0843 79.166C26.0741 75.3696 26.0128 71.574 25.8835 67.7822C25.8161 65.8862 25.7304 63.9919 25.6236 62.099C25.5113 60.2069 25.3745 58.317 25.2017 56.4325C25.0274 54.5488 24.8076 52.6703 24.515 50.8109C24.2163 48.956 23.855 47.1026 23.2575 45.3662L23.2541 45.3571C23.1956 45.1862 23.2718 44.9948 23.4249 44.9295C23.5766 44.8641 23.7461 44.9477 23.8066 45.1156C24.4538 46.9234 24.8396 48.7995 25.167 50.6764C25.4861 52.5564 25.7311 54.4477 25.9298 56.3421C26.1271 58.2373 26.2877 60.1347 26.4245 62.0344C26.5552 63.9341 26.6647 65.8354 26.7559 67.7373C26.9328 71.5413 27.041 75.3476 27.0975 79.1546C27.1261 81.0581 27.1418 82.9616 27.1438 84.8666L27.1343 87.7241L27.1193 89.1544L27.107 89.8722L27.0982 90.2346L27.0921 90.4191L27.0907 90.4655C27.0907 90.4791 27.0866 90.5293 27.0839 90.5597C27.0771 90.6295 27.0669 90.6994 27.0533 90.767C26.9526 91.1035 26.6266 91.2858 26.3252 91.1734C26.0237 91.061 25.8604 90.6971 25.9611 90.3606L25.9584 90.3614Z" fill="#71548E"/>
<path d="M25.8829 91.0922C25.8781 91.1089 25.8754 91.1271 25.8761 91.1446C25.8761 91.1491 25.8788 91.1712 25.8775 91.1613L25.8741 91.1347L25.8604 91.0268L25.8305 90.8058L25.7665 90.3576L25.6332 89.4575L25.3535 87.6566C25.1629 86.4557 24.9642 85.2563 24.758 84.0585C24.3463 81.6627 23.9061 79.2731 23.4277 76.8941C22.9466 74.5159 22.4287 72.1475 21.8305 69.808C21.5304 68.639 21.2065 67.4784 20.8431 66.3375C20.4764 65.2004 20.0749 64.0709 19.5516 63.0417L19.5475 63.0333C19.4665 62.8746 19.5169 62.6725 19.6591 62.5821C19.7993 62.4932 19.9776 62.5464 20.0599 62.7006C20.6397 63.786 21.0684 64.93 21.4651 66.0807C21.8578 67.2338 22.2075 68.4005 22.5328 69.574C23.182 71.9211 23.7475 74.2918 24.2769 76.67C24.803 79.0498 25.2909 81.4387 25.7502 83.8336C25.9802 85.0315 26.2021 86.2309 26.4171 87.4325L26.7322 89.2373L26.8839 90.1427L26.9574 90.5984L26.9935 90.8294L27.0112 90.9486L27.0152 90.9782L27.0234 91.0519C27.0282 91.1074 27.0295 91.1636 27.0289 91.2183C26.9976 91.5715 26.7165 91.8297 26.4001 91.7948C26.0836 91.7598 25.8523 91.4454 25.8836 91.0929L25.8829 91.0922Z" fill="#71548E"/>
<path d="M28.7778 64.8413C28.7778 64.8413 42.4646 62.4068 41.1588 59.1672C39.8529 55.9276 36.0516 59.3404 34.1905 60.0635C32.3293 60.7866 32.0619 60.4258 35.2949 56.3401C38.528 52.2543 38.8301 48.0143 35.1616 51.1939C31.493 54.3727 32.7628 57.3214 32.4518 54.4859C32.1408 51.6504 37.0445 40.8249 33.2514 45.197C29.4583 49.5699 28.9949 53.2911 29.3562 55.6511C29.7176 58.0111 27.6652 51.3481 26.4839 52.7359C25.3025 54.1236 26.3192 54.9569 27.3964 57.525C28.4736 60.0931 26.6077 58.2884 25.9551 57.525C25.3025 56.7616 24.6186 59.1908 26.36 61.828C28.1007 64.4653 28.7778 64.8428 28.7778 64.8428V64.8413Z" fill="#643480"/>
<path d="M27.7461 90.7672C27.7332 90.7072 27.7236 90.6442 27.7168 90.5819C27.7141 90.5553 27.7107 90.509 27.7107 90.4991L27.7093 90.4642L27.7053 90.3244L27.6991 90.0517L27.691 89.5139L27.6814 88.4429L27.6787 86.3047C27.6828 84.8797 27.6978 83.4555 27.7216 82.0313C27.7699 79.1829 27.8563 76.3352 27.9945 73.4891C28.136 70.6437 28.3265 67.7983 28.63 64.9621C28.7818 63.5439 28.9683 62.1281 29.2098 60.7198C29.4582 59.3131 29.7501 57.9078 30.2401 56.5467C30.3013 56.3773 30.4742 56.2945 30.6259 56.3629C30.7763 56.4305 30.8498 56.6196 30.7927 56.7875L30.7893 56.7973C30.349 58.0863 30.0822 59.4695 29.8617 60.8542C29.6467 62.2428 29.4854 63.6449 29.3582 65.0524C29.1037 67.8682 28.9608 70.6999 28.8662 73.5331C28.775 76.3671 28.7348 79.2042 28.7335 82.042C28.7321 83.4608 28.741 84.879 28.76 86.2971L28.7974 88.4232L28.824 89.4843L28.841 90.0122L28.8512 90.2727L28.8573 90.3988L28.8587 90.4307C28.8587 90.4429 28.8587 90.4186 28.8573 90.414C28.8546 90.3958 28.8478 90.3776 28.8383 90.3616C28.939 90.6981 28.7757 91.062 28.4742 91.1744C28.1728 91.2868 27.8468 91.1045 27.7461 90.768V90.7672Z" fill="#71548E"/>
<path d="M21.1937 87.8223H32.5266C33.2697 87.8223 33.8189 88.5932 33.6522 89.4014C32.9275 92.9077 32.0578 96.4655 30.2803 100.077C29.9516 100.743 29.3263 101.162 28.6444 101.162H24.9466C24.275 101.162 23.6591 100.75 23.3406 100.09C21.9164 97.1355 20.5458 93.6133 19.8687 89.6156C19.7115 88.6852 20.3458 87.8223 21.1943 87.8223H21.1937Z" fill="#3B2C68"/>
<path d="M127.57 61.7031C126.944 60.2485 126.497 58.7263 126.392 57.0689C126.13 52.8928 128.305 49.0463 129.902 45.4512C131.371 42.1462 132.462 37.2219 127.507 37.6602C123.559 38.0096 118.918 42.4007 118.388 46.9802C117.762 52.3998 120.126 59.2345 117.323 64.1573C113.402 71.0444 110.574 69.466 110.574 81.0884C110.574 86.0545 113.038 88.7935 115.861 90.3028C120.316 92.6841 125.629 91.7217 129.178 87.8873C132.314 84.4996 134.179 79.63 133.548 74.7405C132.911 69.8025 129.442 66.0578 127.569 61.7031H127.57Z" fill="#D9C0E8"/>
<path d="M124.257 99.1608C124.159 99.1608 124.07 99.0864 124.044 98.9747C121.587 88.0261 120.249 78.1 120.068 69.4727C119.923 62.5605 120.517 56.4595 121.831 51.3392C123.005 46.7696 124.549 43.8407 125.637 42.1871C126.827 40.3808 127.732 39.669 127.77 39.6402C127.87 39.5635 128.007 39.5908 128.076 39.7017C128.146 39.8126 128.121 39.966 128.021 40.0428C128.012 40.0496 127.119 40.756 125.965 42.5175C124.9 44.1453 123.388 47.0309 122.238 51.539C120.943 56.6122 120.362 62.6615 120.509 69.5182C120.694 78.0954 122.027 87.9654 124.471 98.8547C124.5 98.9861 124.429 99.1198 124.311 99.1525C124.293 99.1578 124.275 99.16 124.257 99.16V99.1608Z" fill="#CEB3E2"/>
<path d="M131.503 49.4502C131.312 49.3925 131.102 49.3743 130.879 49.4031C129.644 49.5619 129.137 51.0157 128.774 52.1521C128.463 53.1251 128.097 54.307 128.281 55.3613C128.479 56.5014 129.564 57.4311 130.351 56.2735C131.246 54.9579 132.588 52.9375 132.596 51.1942C132.6 50.3275 132.164 49.65 131.503 49.4502Z" fill="#3B2C68"/>
<path d="M141.569 81.1604C142.074 77.446 140.864 73.181 140.261 69.2532C139.942 67.1765 139.794 65.115 140.093 63.0231C140.39 60.9426 141.266 58.6928 140.458 56.6199C138.831 52.4445 134.963 54.3442 132.748 57.4881C130.177 61.1356 129.474 67.0968 128.498 71.6869C127.909 74.454 127.022 77.2926 126.711 80.1121C126.197 84.7835 127.143 88.0262 129.145 90.2168C131.065 92.3178 133.989 92.7531 136.338 91.2931C138.46 89.9738 140.753 87.1534 141.569 81.1611V81.1604Z" fill="#8F66A7"/>
<path d="M132.72 98.4979C132.615 98.4979 132.521 98.4129 132.504 98.2936C132.495 98.2374 131.653 92.5649 131.631 84.7389C131.611 77.5131 132.305 66.9154 135.729 57.4678C135.774 57.3417 135.902 57.2817 136.015 57.3326C136.127 57.3834 136.182 57.5262 136.136 57.6523C134.261 62.8266 132.034 71.7258 132.071 84.7382C132.093 92.5238 132.929 98.1569 132.937 98.2123C132.958 98.346 132.877 98.4729 132.757 98.4949C132.745 98.4972 132.732 98.4979 132.72 98.4979Z" fill="#71548E"/>
<path d="M95.268 82.3115H93.792V100.126H95.268V82.3115Z" fill="#09005D"/>
<path d="M93.3405 81.9834V86.9435C93.3405 87.2761 93.5637 87.5466 93.8618 87.5466H95.1268C95.4249 87.5466 95.6855 87.2769 95.6855 86.9435V81.9834H93.3398H93.3405Z" fill="#3B2C68"/>
<path d="M88.3253 99.3965H100.716C100.869 99.3965 100.993 99.5355 100.993 99.7064V100.469H88.0674V99.6844C88.0674 99.5256 88.1831 99.3972 88.3246 99.3972L88.3253 99.3965Z" fill="#3B2C68"/>
<path d="M100.212 71.1913L97.7275 78.0127L99.6289 78.8753L102.113 72.0539L100.212 71.1913Z" fill="#09005D"/>
<path d="M112.543 57.9169C108.937 53.9025 99.9672 51.3853 96.7417 57.3852C96.7417 57.3852 92.5968 64.687 93.4093 71.2665C93.8645 73.0849 94.9894 75.4563 97.7644 75.4503C102.263 75.4389 104.665 72.5798 104.665 72.5798C106.71 70.2578 116.149 61.932 112.543 57.9177V57.9169Z" fill="#4E196F"/>
<path d="M92.6164 75.4092C91.825 75.4737 91.0791 75.5603 90.8981 75.571C89.4085 75.6614 87.7971 75.8156 86.4293 76.5364C86.0911 76.7149 85.7236 77.0028 85.3684 77.3598C83.7863 78.9511 82.4647 81.9135 85.2099 82.6267C87.9985 83.3506 91.0608 83.0194 93.8909 82.9548C95.6568 82.9146 97.4077 82.8333 99.1621 82.5933C100.395 82.4246 102.08 82.8652 103.12 82.1147C111.974 75.7252 92.6164 75.4099 92.6164 75.4099V75.4092Z" fill="#4E196F"/>
<path d="M111.206 58.9661C111.206 58.9661 110.305 54.5818 107.53 52.4656C109.545 50.2401 109.368 51.3855 109.368 51.3855C109.368 51.3855 114.834 54.6578 115.072 56.5127C113.161 58.5856 111.206 58.9669 111.206 58.9669V58.9661Z" fill="white"/>
<path d="M105.088 58.654C105.088 58.654 108.922 61.6383 110.943 58.9661L115.016 56.2939C115.016 56.2939 118.814 68.2793 105.088 65.7029C105.341 61.6938 105.088 58.6547 105.088 58.6547V58.654Z" fill="#71548E"/>
<path d="M97.1409 50.1688C97.1409 50.1688 100.777 48.2304 103.987 49.3401C108.726 49.1221 103.603 47.0621 103.603 47.0621C103.603 47.0621 97.9085 44.3185 96.459 45.2635C96.1936 48.2235 97.1409 50.1696 97.1409 50.1696V50.1688Z" fill="white"/>
<path d="M101.163 55.322C101.163 55.322 95.6997 52.9119 97.4588 50.0148L96.6462 45.1748C96.6462 45.1748 85.8747 49.3069 96.2182 59.704C98.8735 56.9901 101.164 55.3213 101.164 55.3213L101.163 55.322Z" fill="#71548E"/>
<path d="M66.5541 71.5914C66.5541 71.5914 62.0295 68.7422 60.4834 70.4384C60.4834 70.4384 64.2227 74.1801 65.8784 74.0114C67.5347 73.8428 67.8899 72.8592 67.8899 72.8592L66.5534 71.5914H66.5541Z" fill="#09005D"/>
<path d="M69.1301 71.0407L67.6105 72.6708C67.3812 72.9169 67.0267 72.9716 66.7599 72.7787C66.6265 72.6822 66.4775 72.5326 66.3203 72.3039C66.0985 71.9819 66.0937 71.5337 66.3142 71.2101L67.3778 69.6484L69.1301 71.04V71.0407Z" fill="white"/>
<path d="M88.2202 69.4479C88.2202 69.4479 83.2301 61.3781 78.5592 59.2202C73.889 57.0622 66.9404 69.3985 66.9404 69.3985C66.9404 69.3985 67.4358 70.5774 69.1289 71.4433C69.1289 71.4433 74.8301 63.3143 78.534 65.8794C82.698 68.7628 85.226 73.2564 85.226 73.2564L88.0154 69.6575L88.2202 69.4487V69.4479Z" fill="#71548E"/>
<path d="M61.8149 70.6511C62.5927 71.3894 65.3602 73.1896 65.6195 73.5998C65.8788 74.0099 65.7284 75.0308 65.7284 75.0308C65.7284 75.0308 65.5018 75.3772 64.8866 75.4486C63.9516 75.1729 62.0884 74.452 60.8377 72.8364C59.917 71.6484 59.8503 70.5197 59.9891 69.7236C60.5729 69.8209 61.297 70.1589 61.8155 70.6503L61.8149 70.6511Z" fill="#09005D"/>
<path d="M67.2353 75.2214C66.9992 75.3301 65.9853 75.2116 65.4109 75.1318C65.138 75.0938 64.9019 74.9032 64.7862 74.6252C64.7127 74.449 64.6426 74.2385 64.6134 74.0297C64.5698 73.716 64.7699 73.4243 65.0509 73.3779L67.1489 73.0293L67.2347 75.2207L67.2353 75.2214Z" fill="white"/>
<path d="M94.0722 76.6753C94.0722 76.6753 90.2111 81.0285 87.9865 79.8116C85.7613 78.5948 82.2418 74.7711 78.9856 75.1896C75.7294 75.6081 69.5077 76.6776 66.5863 75.3225C66.5863 75.3225 66.0446 73.5922 66.3801 72.667C66.3801 72.667 75.1367 69.7837 77.6069 69.5847C79.7464 69.4122 82.844 69.1866 85.2101 70.5949C85.8872 70.9982 86.5092 70.5463 87.0379 69.925L88.0001 68.7939L94.0722 76.6746V76.6753Z" fill="#71548E"/>
<path d="M107.53 63.5694C107.53 63.5694 107.269 57.9386 97.0703 52.4658C97.0703 52.4658 96.6151 53.5946 95.7291 55.0286C94.8431 56.4627 90.8581 66.0418 88 68.7945C88 68.7945 88.5607 74.0553 93.6753 77.159C93.6753 77.159 102.672 72.0159 107.531 63.5694H107.53Z" fill="#8F66A7"/>
<path d="M106.295 54.0615L104.234 59.1408C104.078 59.5031 103.748 59.7348 103.388 59.7256C102.661 59.7067 101.478 59.3816 100.891 57.611C100.716 57.0846 100.805 56.4929 101.124 56.0584L103.477 52.8613L106.295 54.0607V54.0615Z" fill="white"/>
<path d="M106.279 46.9659C106.215 46.994 102.892 50.1744 101.199 51.7968C100.683 52.2921 100.669 53.1785 101.169 53.695L101.552 54.0908C102.075 54.6316 103.324 55.4063 103.997 55.1428L108.528 52.5701C108.528 52.5701 107.729 46.3362 106.279 46.9667V46.9659Z" fill="white"/>
<path d="M109.794 51.8792C110.278 51.7865 110.928 51.466 110.839 50.4087C110.748 49.3339 110.014 48.9518 109.506 48.8166C109.301 48.7619 109.167 48.55 109.177 48.3145C109.183 48.1801 109.137 48.0418 108.973 47.9423C108.752 47.8079 108.692 47.4843 108.835 47.2534C109.108 46.8098 109.301 46.136 108.746 45.3772C107.763 44.032 106.198 44.7969 105.531 45.7372C104.863 46.6776 106.004 48.0684 106.848 48.5948C107.489 48.9951 107.542 50.0061 107.53 50.4679C107.527 50.6145 107.463 50.7497 107.358 50.8378L105.815 52.1382C105.967 52.6342 106.081 53.1401 106.19 53.649C106.314 53.5761 106.422 53.5176 106.503 53.4789C107.08 53.2069 107.781 53.744 108.06 53.9924C108.152 54.0736 108.269 54.1093 108.385 54.0919C108.795 54.0296 109.675 53.7455 109.44 52.4542C109.391 52.1838 109.551 51.9248 109.794 51.8777L109.794 51.8792Z" fill="#3B2C68"/>
<path d="M105.594 54.2309C105.594 54.2309 106.82 52.648 107.515 53.0399C108.21 53.4319 108.487 54.4869 107.27 54.9844C105.756 55.6035 105.594 54.2309 105.594 54.2309Z" fill="white"/>
<path d="M89.5097 100.583C89.5097 101.155 89.0939 101.619 88.5815 101.619C88.0691 101.619 87.6533 101.155 87.6533 100.583C87.6533 100.011 88.0691 99.5469 88.5815 99.5469C89.0939 99.5469 89.5097 100.011 89.5097 100.583Z" fill="#857CA1"/>
<path d="M89.0698 100.555C89.0698 100.841 88.8622 101.073 88.6057 101.073C88.3491 101.073 88.1416 100.841 88.1416 100.555C88.1416 100.269 88.3491 100.037 88.6057 100.037C88.8622 100.037 89.0698 100.269 89.0698 100.555Z" fill="#3B2C68"/>
<path d="M100.504 100.555C100.504 100.841 100.297 101.073 100.04 101.073C99.7837 101.073 99.5762 100.841 99.5762 100.555C99.5762 100.269 99.7837 100.037 100.04 100.037C100.297 100.037 100.504 100.269 100.504 100.555Z" fill="#3B2C68"/>
<path d="M75.1476 73.6266C75.1374 73.6266 75.1265 73.6273 75.1163 73.6273L61.4002 73.6106C61.0613 73.6106 60.7864 73.303 60.7871 72.9247C60.7871 72.5465 61.0634 72.2335 61.4016 72.2403L75.1177 72.2571C75.4566 72.2571 75.7315 72.5647 75.7308 72.943C75.7308 73.3098 75.4722 73.6091 75.1476 73.6266Z" fill="#3B2C68"/>
<path d="M49.0696 59.7256H60.4924C61.3349 59.7256 62.1018 60.2687 62.4618 61.1194L67.7424 73.6183H53.5466C53.0036 73.6183 52.5156 73.2476 52.3163 72.684L48.221 61.1179C47.9842 60.4495 48.4259 59.7256 49.0696 59.7256Z" fill="#71548E"/>
<path d="M52.423 103.347C52.3542 103.347 52.2841 103.331 52.2168 103.3C51.9514 103.177 51.8289 102.844 51.9432 102.557L62.9148 74.9945C63.0292 74.7081 63.3368 74.5752 63.6021 74.6982C63.8675 74.8213 63.99 75.154 63.8757 75.4411L52.9041 103.004C52.819 103.218 52.6257 103.346 52.423 103.346V103.347Z" fill="#643480"/>
<path d="M64.7836 103.346C64.5809 103.346 64.3883 103.218 64.3025 103.004L53.3309 75.4412C53.2166 75.1541 53.3391 74.8222 53.6045 74.6984C53.8699 74.5753 54.1774 74.7075 54.2918 74.9946L65.2634 102.557C65.3777 102.845 65.2552 103.176 64.9898 103.3C64.9225 103.331 64.8524 103.347 64.7836 103.347V103.346Z" fill="#643480"/>
<path d="M86.3858 103.347C86.3171 103.347 86.247 103.331 86.1797 103.3C85.9143 103.177 85.7918 102.844 85.9061 102.557L96.8777 74.9945C96.9921 74.7081 97.299 74.5752 97.565 74.6982C97.8304 74.8213 97.9529 75.154 97.8386 75.4411L86.867 103.004C86.7819 103.218 86.5886 103.346 86.3858 103.346V103.347Z" fill="#643480"/>
<path d="M98.7465 103.346C98.5437 103.346 98.3512 103.218 98.2654 103.004L87.2938 75.4412C87.1795 75.1541 87.302 74.8222 87.5674 74.6984C87.8327 74.5753 88.1403 74.7075 88.2547 74.9946L99.2263 102.557C99.3406 102.845 99.2181 103.176 98.9527 103.3C98.8854 103.331 98.8153 103.347 98.7465 103.347V103.346Z" fill="#643480"/>
<path d="M100.034 74.1429C100.062 73.9622 100.024 73.7753 99.9297 73.6333C99.8358 73.4912 99.6963 73.4092 99.5486 73.4092H49.6343C49.4403 73.4092 49.26 73.5322 49.1559 73.7366C49.0518 73.9409 49.0375 74.1969 49.1185 74.4171L49.6595 75.8801C49.7833 76.2151 50.0514 76.4293 50.3468 76.4293H99.2057C99.4806 76.4293 99.7167 76.1862 99.7684 75.8489L100.032 74.1437L100.034 74.1429Z" fill="#643480"/>
<path d="M114.267 92.0781L114.808 101.15C114.902 102.733 116.105 103.948 117.532 103.903L137.021 103.285C137.974 103.255 138.763 102.45 138.87 101.397C139.104 99.092 139.366 94.9728 138.811 91.1377L114.267 92.0781H114.267Z" fill="#71548E"/>
<path d="M118.081 103.366C118.051 103.366 118.027 103.34 118.026 103.307C118.025 103.273 118.049 103.245 118.079 103.244L118.519 103.231C118.555 103.226 118.574 103.256 118.575 103.29C118.576 103.324 118.552 103.352 118.522 103.353L118.082 103.366H118.081ZM119.546 103.32C119.516 103.32 119.492 103.294 119.491 103.261C119.49 103.227 119.514 103.199 119.544 103.198L119.984 103.184C120.016 103.181 120.039 103.21 120.04 103.243C120.041 103.278 120.017 103.306 119.987 103.306L119.547 103.32H119.546ZM121.011 103.274C120.981 103.274 120.957 103.247 120.956 103.215C120.955 103.18 120.979 103.152 121.009 103.152L121.449 103.138C121.481 103.14 121.505 103.164 121.505 103.197C121.506 103.231 121.482 103.259 121.452 103.26L121.013 103.274H121.011ZM122.476 103.227C122.446 103.227 122.422 103.201 122.421 103.168C122.42 103.134 122.444 103.106 122.474 103.105L122.914 103.091C122.945 103.091 122.97 103.117 122.97 103.15C122.971 103.184 122.947 103.212 122.917 103.213L122.478 103.227H122.476ZM117.07 103.217C117.064 103.217 117.058 103.216 117.052 103.214C116.911 103.159 116.773 103.091 116.642 103.009C116.616 102.993 116.606 102.956 116.621 102.926C116.636 102.896 116.67 102.886 116.696 102.902C116.821 102.979 116.953 103.045 117.088 103.097C117.117 103.108 117.132 103.143 117.122 103.175C117.114 103.2 117.093 103.216 117.07 103.216L117.07 103.217ZM123.941 103.181C123.911 103.181 123.887 103.155 123.886 103.122C123.886 103.088 123.909 103.06 123.939 103.059L124.379 103.044C124.408 103.043 124.435 103.07 124.435 103.104C124.436 103.138 124.412 103.166 124.382 103.167L123.943 103.181H123.941ZM125.407 103.135C125.377 103.135 125.352 103.108 125.351 103.076C125.351 103.041 125.375 103.013 125.404 103.013L125.844 102.999C125.876 102.996 125.9 103.025 125.901 103.058C125.901 103.092 125.877 103.12 125.847 103.121L125.408 103.135H125.407ZM126.872 103.088C126.842 103.088 126.817 103.062 126.816 103.029C126.816 102.995 126.84 102.967 126.87 102.966L127.309 102.953C127.344 102.948 127.365 102.978 127.366 103.012C127.366 103.045 127.343 103.074 127.313 103.075L126.873 103.088H126.872ZM128.337 103.042C128.307 103.042 128.282 103.016 128.282 102.983C128.281 102.949 128.305 102.921 128.335 102.92L128.774 102.906C128.809 102.903 128.83 102.932 128.831 102.965C128.831 103 128.808 103.028 128.778 103.028L128.338 103.042H128.337ZM129.802 102.996C129.772 102.996 129.747 102.969 129.747 102.937C129.746 102.902 129.77 102.874 129.8 102.874L130.239 102.86C130.275 102.862 130.295 102.886 130.296 102.919C130.297 102.953 130.273 102.981 130.243 102.982L129.803 102.996H129.802ZM131.267 102.949C131.237 102.949 131.213 102.923 131.212 102.89C131.211 102.856 131.235 102.828 131.265 102.827L131.705 102.814C131.739 102.817 131.76 102.839 131.761 102.873C131.762 102.906 131.738 102.935 131.708 102.936L131.268 102.949H131.267ZM132.732 102.903C132.702 102.903 132.678 102.877 132.677 102.844C132.676 102.81 132.7 102.782 132.73 102.781L133.17 102.767C133.206 102.769 133.225 102.793 133.226 102.826C133.227 102.861 133.203 102.889 133.173 102.889L132.733 102.903H132.732ZM134.197 102.857C134.167 102.857 134.143 102.83 134.142 102.798C134.141 102.763 134.165 102.735 134.195 102.735L134.635 102.721C134.67 102.719 134.691 102.747 134.691 102.78C134.692 102.814 134.668 102.842 134.638 102.843L134.199 102.857H134.197ZM135.662 102.81C135.632 102.81 135.608 102.784 135.607 102.751C135.606 102.717 135.63 102.689 135.66 102.688L136.1 102.674C136.129 102.67 136.156 102.7 136.156 102.733C136.157 102.766 136.133 102.795 136.103 102.796L135.664 102.81H135.662ZM137.114 102.652C137.091 102.652 137.071 102.637 137.062 102.612C137.051 102.58 137.065 102.545 137.094 102.533C137.227 102.477 137.354 102.403 137.471 102.313C137.496 102.294 137.53 102.301 137.547 102.329C137.564 102.357 137.558 102.395 137.533 102.414C137.408 102.51 137.274 102.589 137.133 102.648C137.127 102.651 137.12 102.652 137.113 102.652H137.114ZM115.895 102.277C115.878 102.277 115.862 102.269 115.851 102.254C115.759 102.122 115.677 101.98 115.609 101.832C115.594 101.803 115.605 101.765 115.632 101.749C115.659 101.733 115.692 101.746 115.706 101.775C115.772 101.916 115.85 102.052 115.938 102.179C115.956 102.205 115.952 102.244 115.928 102.264C115.918 102.273 115.906 102.277 115.895 102.277ZM138.143 101.55C138.136 101.55 138.129 101.549 138.122 101.545C138.094 101.532 138.081 101.496 138.092 101.465C138.148 101.319 138.188 101.165 138.21 101.008C138.215 100.975 138.243 100.953 138.273 100.957C138.303 100.962 138.323 100.994 138.318 101.028C138.294 101.194 138.252 101.357 138.193 101.512C138.184 101.536 138.164 101.55 138.143 101.55L138.143 101.55ZM115.378 100.771C115.349 100.771 115.326 100.747 115.324 100.714L115.294 100.223C115.292 100.19 115.315 100.16 115.345 100.158C115.375 100.154 115.402 100.182 115.404 100.215L115.433 100.704C115.435 100.738 115.413 100.767 115.383 100.77C115.381 100.77 115.38 100.77 115.379 100.77L115.378 100.771ZM138.371 99.9408C138.371 99.9408 138.368 99.9408 138.367 99.9408C138.337 99.9377 138.314 99.9081 138.317 99.8739C138.33 99.716 138.342 99.5534 138.354 99.3855C138.357 99.3521 138.384 99.3263 138.414 99.3293C138.443 99.3324 138.467 99.3612 138.464 99.3954C138.452 99.5633 138.439 99.7266 138.426 99.8853C138.424 99.9172 138.4 99.9415 138.372 99.9415L138.371 99.9408ZM115.28 99.1387C115.251 99.1387 115.227 99.1136 115.226 99.0809L115.196 98.591C115.194 98.5568 115.217 98.528 115.247 98.5257C115.278 98.5219 115.304 98.5492 115.306 98.5827L115.335 99.0726C115.337 99.106 115.314 99.1356 115.284 99.1379C115.283 99.1379 115.281 99.1379 115.281 99.1379L115.28 99.1387ZM138.477 98.3085C138.477 98.3085 138.475 98.3085 138.473 98.3085C138.443 98.3069 138.42 98.2781 138.422 98.2439C138.429 98.0836 138.437 97.9203 138.443 97.7547C138.444 97.7205 138.472 97.6939 138.5 97.6962C138.531 97.6977 138.554 97.7266 138.552 97.76C138.546 97.9264 138.539 98.0897 138.531 98.2507C138.53 98.2834 138.505 98.3085 138.476 98.3085H138.477ZM115.183 97.5056C115.154 97.5056 115.13 97.4805 115.128 97.4486L115.099 96.9587C115.097 96.9245 115.12 96.8956 115.15 96.8934C115.179 96.8896 115.207 96.9169 115.209 96.9503L115.238 97.4402C115.24 97.4737 115.217 97.5033 115.187 97.5056C115.185 97.5056 115.184 97.5056 115.183 97.5056H115.183ZM138.529 96.6731C138.498 96.6731 138.474 96.645 138.474 96.6108C138.476 96.449 138.478 96.2857 138.479 96.1201C138.479 96.0867 138.509 96.0563 138.534 96.0593C138.565 96.0593 138.589 96.0874 138.588 96.1209C138.588 96.2864 138.586 96.4505 138.584 96.6123C138.584 96.6457 138.558 96.6731 138.529 96.6731ZM115.085 95.8732C115.057 95.8732 115.032 95.8482 115.031 95.8163L115.002 95.3263C115 95.2922 115.023 95.2633 115.053 95.261C115.083 95.2572 115.109 95.2846 115.111 95.318L115.141 95.8079C115.143 95.8421 115.119 95.871 115.09 95.8732C115.088 95.8732 115.087 95.8732 115.086 95.8732H115.085ZM138.522 95.0369C138.492 95.0369 138.468 95.0104 138.467 94.9769C138.463 94.8144 138.458 94.6511 138.452 94.4878C138.451 94.4536 138.475 94.4255 138.505 94.424C138.532 94.424 138.56 94.449 138.562 94.4825C138.568 94.6473 138.573 94.8106 138.577 94.9739C138.578 95.0081 138.554 95.0362 138.523 95.0369H138.522H138.522ZM114.988 94.2401C114.96 94.2401 114.935 94.2151 114.934 94.1832L114.904 93.6932C114.902 93.6598 114.926 93.6302 114.955 93.6279C114.986 93.6249 115.012 93.6515 115.014 93.6849L115.043 94.1748C115.045 94.209 115.022 94.2379 114.992 94.2401C114.991 94.2401 114.989 94.2401 114.989 94.2401H114.988ZM138.448 93.4031C138.419 93.4031 138.395 93.3788 138.393 93.3461C138.382 93.1836 138.37 93.021 138.356 92.8585C138.353 92.8251 138.375 92.7947 138.405 92.7916C138.436 92.7886 138.463 92.8129 138.465 92.8471C138.479 93.0104 138.491 93.1737 138.503 93.337C138.505 93.3704 138.482 93.4001 138.452 93.4031C138.451 93.4031 138.45 93.4031 138.448 93.4031H138.448ZM114.891 92.6078C114.862 92.6078 114.838 92.5827 114.836 92.5501L114.804 91.9971L115.278 91.9789C115.313 91.9796 115.334 92.0039 115.335 92.0381C115.336 92.0723 115.313 92.1004 115.282 92.1019L114.921 92.1156L114.947 92.5417C114.949 92.5759 114.926 92.6048 114.896 92.607C114.894 92.607 114.893 92.607 114.892 92.607L114.891 92.6078ZM116.305 92.0624C116.276 92.0624 116.251 92.0366 116.25 92.0032C116.249 91.969 116.272 91.9409 116.303 91.9394L116.742 91.9227C116.777 91.9212 116.798 91.9477 116.8 91.9819C116.8 92.0161 116.777 92.0442 116.747 92.0457L116.307 92.0624H116.305ZM117.77 92.0062C117.741 92.0062 117.716 91.9804 117.715 91.947C117.714 91.9128 117.737 91.8847 117.768 91.8832L118.208 91.8665C118.24 91.8665 118.263 91.8915 118.265 91.9257C118.265 91.9599 118.242 91.988 118.212 91.9895L117.772 92.0062H117.77ZM119.235 91.95C119.206 91.95 119.181 91.9242 119.18 91.8908C119.179 91.8566 119.202 91.8285 119.233 91.827L119.673 91.8102C119.705 91.811 119.728 91.8353 119.73 91.8695C119.73 91.9037 119.707 91.9318 119.677 91.9333L119.237 91.95H119.235ZM120.7 91.8938C120.671 91.8938 120.646 91.868 120.645 91.8346C120.644 91.8004 120.668 91.7723 120.698 91.7708L121.138 91.754C121.171 91.7525 121.194 91.7791 121.195 91.8133C121.196 91.8475 121.172 91.8756 121.142 91.8771L120.702 91.8938H120.7ZM122.165 91.8376C122.136 91.8376 122.112 91.8118 122.11 91.7784C122.11 91.7442 122.133 91.7161 122.163 91.7145L122.603 91.6978C122.637 91.7016 122.659 91.7229 122.66 91.7571C122.661 91.7913 122.638 91.8194 122.607 91.8209L122.167 91.8376H122.165ZM123.63 91.7814C123.601 91.7814 123.577 91.7556 123.575 91.7221C123.575 91.688 123.598 91.6599 123.628 91.6583L124.068 91.6416C124.102 91.6431 124.124 91.6667 124.125 91.7009C124.126 91.7351 124.103 91.7632 124.072 91.7647L123.632 91.7814H123.63ZM138.294 91.7753C138.267 91.7753 138.243 91.7533 138.239 91.7221C138.22 91.5604 138.198 91.3993 138.175 91.2375C138.171 91.2041 138.191 91.173 138.221 91.1676C138.25 91.1631 138.279 91.1851 138.284 91.2185C138.307 91.3803 138.328 91.5429 138.348 91.7054C138.352 91.7388 138.331 91.77 138.301 91.7746C138.299 91.7746 138.296 91.7746 138.294 91.7746V91.7753ZM125.096 91.7252C125.066 91.7252 125.042 91.6994 125.04 91.6659C125.04 91.6318 125.063 91.6036 125.093 91.6021L125.533 91.5854C125.566 91.5839 125.589 91.6105 125.59 91.6447C125.591 91.6788 125.568 91.7069 125.537 91.7085L125.098 91.7252H125.096ZM126.561 91.669C126.531 91.669 126.507 91.6431 126.506 91.6097C126.505 91.5755 126.528 91.5474 126.559 91.5459L126.998 91.5292C127.034 91.5254 127.054 91.5543 127.055 91.5885C127.056 91.6226 127.033 91.6507 127.002 91.6523L126.563 91.669H126.561ZM128.026 91.6128C127.996 91.6128 127.972 91.5869 127.971 91.5535C127.97 91.5193 127.993 91.4912 128.024 91.4897L128.463 91.473C128.495 91.4753 128.519 91.4981 128.52 91.5322C128.521 91.5664 128.498 91.5945 128.467 91.5961L128.028 91.6128H128.026ZM129.491 91.5566C129.462 91.5566 129.437 91.5307 129.436 91.4973C129.435 91.4631 129.458 91.435 129.489 91.4335L129.928 91.4168C129.962 91.416 129.984 91.4419 129.986 91.476C129.986 91.5102 129.963 91.5383 129.932 91.5398L129.493 91.5566H129.491ZM130.956 91.5003C130.927 91.5003 130.902 91.4745 130.901 91.4411C130.9 91.4069 130.923 91.3788 130.954 91.3773L131.394 91.3606C131.427 91.3568 131.449 91.3857 131.451 91.4198C131.451 91.454 131.428 91.4821 131.398 91.4836L130.958 91.5003H130.956ZM132.421 91.4441C132.392 91.4441 132.367 91.4183 132.366 91.3849C132.365 91.3507 132.388 91.3226 132.419 91.3211L132.859 91.3044C132.889 91.3044 132.914 91.3294 132.916 91.3636C132.916 91.3978 132.893 91.4259 132.863 91.4274L132.423 91.4441H132.421ZM133.886 91.3879C133.857 91.3879 133.832 91.3621 133.831 91.3287C133.83 91.2945 133.854 91.2664 133.884 91.2649L134.324 91.2482C134.358 91.2474 134.38 91.2732 134.381 91.3074C134.382 91.3416 134.358 91.3697 134.328 91.3712L133.888 91.3879H133.886ZM135.351 91.3317C135.322 91.3317 135.298 91.3059 135.296 91.2725C135.295 91.2383 135.319 91.2102 135.349 91.2087L135.789 91.192C135.824 91.1889 135.845 91.217 135.846 91.2512C135.847 91.2854 135.824 91.3135 135.793 91.315L135.353 91.3317H135.351ZM136.816 91.2755C136.787 91.2755 136.763 91.2497 136.761 91.2163C136.761 91.1821 136.784 91.154 136.814 91.1525L137.254 91.1357C137.289 91.1388 137.31 91.1608 137.311 91.195C137.312 91.2292 137.289 91.2573 137.258 91.2588L136.818 91.2755H136.816Z" fill="white"/>
<path d="M119.775 85.2658L119.812 84.5632C119.873 84.393 120.006 84.27 120.168 84.235C120.771 84.1036 122.271 83.8567 123.015 84.4333L123.148 85.243L119.774 85.2658H119.775Z" fill="#4E196F"/>
<path d="M121.65 84.5193C121.511 84.5626 121.371 84.5679 121.23 84.5345C121.058 84.4942 120.934 84.3294 120.928 84.135L120.86 81.9413L121.861 81.9033L121.928 84.0955C121.934 84.2907 121.819 84.4661 121.65 84.5193H121.65Z" fill="#4E196F"/>
<path d="M129.46 84.8947L129.497 84.1921C129.558 84.0219 129.691 83.8989 129.853 83.8639C130.457 83.7325 131.957 83.4857 132.7 84.0622L132.834 84.8719L129.46 84.8947Z" fill="#4E196F"/>
<path d="M131.336 84.1487C131.197 84.192 131.058 84.1973 130.916 84.1639C130.745 84.1236 130.62 83.9588 130.614 83.7643L130.54 81.3397L131.54 81.3018L131.615 83.7248C131.621 83.92 131.506 84.0955 131.337 84.1487H131.336Z" fill="#4E196F"/>
<path d="M120.776 82.4836L131.518 81.6747C131.763 81.6565 131.965 81.4506 131.998 81.181C132.046 80.8027 132.081 80.2383 131.985 79.658C131.877 78.9979 131.35 78.5247 130.746 78.5323C128.738 78.5559 123.631 78.7533 120.854 80.1039C120.56 80.2467 120.348 80.5391 120.284 80.8878C120.222 81.2205 120.188 81.6625 120.295 82.1077C120.352 82.3439 120.555 82.5004 120.775 82.4844L120.776 82.4836Z" fill="#4E196F"/>
<path opacity="0.69" d="M120.568 81.9774C120.496 81.9774 120.434 81.9182 120.423 81.8361C120.421 81.8164 120.366 81.347 120.462 80.8889C120.539 80.5183 120.79 80.2137 121.116 80.0929C121.714 79.8719 122.859 79.4913 123.804 79.426C123.884 79.4214 123.954 79.489 123.959 79.5794C123.963 79.6698 123.902 79.7473 123.821 79.7526C122.909 79.8164 121.793 80.1879 121.208 80.4036C120.978 80.4886 120.801 80.7029 120.747 80.9634C120.663 81.3614 120.713 81.7883 120.713 81.7921C120.724 81.8817 120.668 81.9637 120.587 81.9759C120.581 81.9767 120.574 81.9774 120.568 81.9774H120.568Z" fill="white"/>
<path d="M114.776 85.1839C118.25 85.0016 133.274 84.2496 137.658 84.6697C138.036 84.7061 138.351 85.0008 138.446 85.4087C138.744 86.7008 139.356 89.7049 139.387 92.7053C139.391 93.1131 139.133 93.4679 138.775 93.5583L128.874 96.0444L125.334 96.1803L114.642 94.2312C114.265 94.1629 113.979 93.8196 113.946 93.3965C113.83 91.891 113.614 88.3567 113.909 86.0643C113.972 85.5774 114.334 85.2074 114.776 85.1839Z" fill="#71548E"/>
<path d="M125.388 95.2801C125.388 95.2801 125.382 95.2801 125.38 95.2794L124.945 95.2004C124.915 95.195 124.895 95.1632 124.9 95.1297C124.905 95.0963 124.932 95.0743 124.963 95.0788L125.397 95.1578C125.427 95.1632 125.448 95.195 125.443 95.2285C125.438 95.2589 125.415 95.2801 125.388 95.2801ZM126.021 95.2558C125.991 95.2558 125.967 95.23 125.965 95.1966C125.965 95.1624 125.988 95.1343 126.019 95.1328L126.458 95.1161C126.489 95.1161 126.514 95.1411 126.515 95.1753C126.516 95.2095 126.493 95.2376 126.462 95.2391L126.023 95.2558H126.021ZM127.486 95.1996C127.456 95.1996 127.432 95.1738 127.431 95.1404C127.43 95.1062 127.453 95.0781 127.484 95.0766L127.923 95.0598C127.956 95.0568 127.979 95.0849 127.98 95.1191C127.981 95.1533 127.958 95.1814 127.927 95.1829L127.488 95.1996H127.486ZM128.946 95.1047C128.921 95.1047 128.898 95.0857 128.892 95.0568C128.885 95.0234 128.905 94.9907 128.934 94.9831L129.363 94.8753C129.392 94.8684 129.422 94.8882 129.429 94.9216C129.435 94.955 129.416 94.9877 129.387 94.9953L128.958 95.1031C128.954 95.1039 128.95 95.1047 128.946 95.1047ZM123.942 95.0158C123.942 95.0158 123.936 95.0158 123.933 95.015L123.499 94.936C123.469 94.9307 123.448 94.8988 123.453 94.8654C123.458 94.832 123.486 94.8099 123.516 94.8145L123.951 94.8935C123.98 94.8988 124.001 94.9307 123.996 94.9641C123.991 94.9945 123.968 95.0158 123.942 95.0158ZM122.495 94.7522C122.495 94.7522 122.489 94.7522 122.486 94.7515L122.052 94.6725C122.022 94.6671 122.002 94.6352 122.006 94.6018C122.011 94.5684 122.039 94.5456 122.07 94.5509L122.504 94.6299C122.534 94.6352 122.554 94.6671 122.549 94.7006C122.545 94.7309 122.521 94.7522 122.495 94.7522ZM130.376 94.7454C130.351 94.7454 130.329 94.7264 130.323 94.6975C130.316 94.6641 130.334 94.6314 130.364 94.6238L130.793 94.516C130.822 94.5091 130.852 94.5297 130.859 94.5623C130.866 94.5957 130.847 94.6284 130.817 94.636L130.389 94.7439C130.385 94.7446 130.381 94.7454 130.376 94.7454ZM121.048 94.4886C121.048 94.4886 121.042 94.4886 121.039 94.4879L120.605 94.4089C120.575 94.4036 120.555 94.3717 120.56 94.3382C120.564 94.3048 120.593 94.2828 120.623 94.2874L121.057 94.3664C121.087 94.3717 121.107 94.4036 121.103 94.437C121.098 94.4674 121.075 94.4886 121.048 94.4886ZM131.806 94.3869C131.781 94.3869 131.759 94.3679 131.752 94.339C131.746 94.3056 131.765 94.2729 131.794 94.2653L132.223 94.1575C132.253 94.1506 132.282 94.1704 132.289 94.2038C132.295 94.2372 132.276 94.2699 132.247 94.2775L131.818 94.3853C131.814 94.3861 131.81 94.3869 131.806 94.3869ZM119.601 94.2251C119.601 94.2251 119.595 94.2251 119.593 94.2243L119.158 94.1453C119.129 94.14 119.108 94.1081 119.113 94.0747C119.118 94.0413 119.146 94.0192 119.176 94.0238L119.61 94.1028C119.64 94.1081 119.661 94.14 119.656 94.1734C119.651 94.2038 119.628 94.2251 119.601 94.2251ZM133.237 94.0276C133.211 94.0276 133.189 94.0086 133.183 93.9797C133.176 93.9463 133.194 93.9136 133.224 93.906L133.653 93.7982C133.683 93.7914 133.712 93.8119 133.719 93.8445C133.726 93.8779 133.707 93.9106 133.678 93.9182L133.249 94.0261C133.245 94.0268 133.241 94.0276 133.237 94.0276ZM118.155 93.9607C118.155 93.9607 118.149 93.9607 118.146 93.96L117.712 93.881C117.682 93.8757 117.661 93.8438 117.666 93.8103C117.671 93.7769 117.699 93.7541 117.729 93.7594L118.164 93.8384C118.194 93.8438 118.214 93.8757 118.209 93.9091C118.204 93.9395 118.181 93.9607 118.155 93.9607ZM116.708 93.6972C116.708 93.6972 116.702 93.6972 116.699 93.6964L116.265 93.6174C116.235 93.6121 116.215 93.5802 116.219 93.5468C116.224 93.5133 116.252 93.4913 116.283 93.4959L116.717 93.5749C116.747 93.5802 116.767 93.6121 116.762 93.6455C116.758 93.6759 116.735 93.6972 116.708 93.6972ZM134.667 93.6683C134.642 93.6683 134.619 93.6493 134.613 93.6204C134.606 93.587 134.625 93.5544 134.655 93.5468L135.084 93.4389C135.113 93.4321 135.143 93.4518 135.149 93.4852C135.156 93.5187 135.137 93.5513 135.108 93.5589L134.679 93.6668C134.674 93.6675 134.67 93.6683 134.666 93.6683H134.667ZM115.261 93.4336C115.261 93.4336 115.255 93.4336 115.252 93.4328L114.818 93.3538C114.788 93.3485 114.768 93.3166 114.773 93.2832C114.777 93.2498 114.805 93.227 114.836 93.2323L115.27 93.3113C115.3 93.3166 115.32 93.3485 115.316 93.3819C115.311 93.4123 115.288 93.4336 115.261 93.4336ZM136.097 93.3098C136.072 93.3098 136.049 93.2908 136.043 93.2619C136.036 93.2285 136.055 93.1958 136.084 93.1882L136.513 93.0804C136.543 93.0736 136.572 93.0941 136.579 93.1267C136.586 93.1601 136.567 93.1928 136.538 93.2004L136.108 93.3083C136.104 93.309 136.1 93.3098 136.096 93.3098H136.097ZM137.527 92.9505C137.502 92.9505 137.479 92.9315 137.473 92.9026C137.467 92.8692 137.486 92.8366 137.515 92.829L137.944 92.7211C137.973 92.7143 138.003 92.734 138.01 92.7674C138.016 92.8009 137.997 92.8335 137.968 92.8411L137.539 92.949C137.535 92.9497 137.531 92.9505 137.527 92.9505ZM114.724 92.238C114.696 92.238 114.671 92.2129 114.67 92.1803C114.66 92.0238 114.652 91.8597 114.643 91.6896C114.641 91.6562 114.664 91.6266 114.694 91.625C114.726 91.6197 114.751 91.6486 114.752 91.6828C114.761 91.8529 114.77 92.0162 114.779 92.1727C114.782 92.2061 114.758 92.2357 114.728 92.238C114.727 92.238 114.726 92.238 114.725 92.238H114.724ZM138.514 92.2069C138.485 92.2069 138.46 92.181 138.459 92.1476C138.453 91.9843 138.446 91.821 138.437 91.6584C138.435 91.625 138.458 91.5954 138.489 91.5939C138.517 91.5901 138.545 91.6174 138.547 91.6516C138.556 91.8149 138.563 91.979 138.569 92.1431C138.57 92.1772 138.546 92.2054 138.516 92.2069H138.514ZM114.647 90.6034C114.618 90.6034 114.594 90.5776 114.592 90.5442C114.587 90.3824 114.582 90.2183 114.578 90.0527C114.577 90.0185 114.601 89.9904 114.632 89.9897C114.662 89.9935 114.688 90.0155 114.688 90.0497C114.692 90.2145 114.697 90.3786 114.703 90.5396C114.704 90.5738 114.68 90.6019 114.65 90.6034H114.647ZM138.407 90.5753C138.379 90.5753 138.355 90.5517 138.353 90.5206C138.337 90.3565 138.321 90.194 138.303 90.0337C138.299 90.0003 138.321 89.9692 138.35 89.9654C138.38 89.9608 138.408 89.9851 138.412 90.0185C138.429 90.1796 138.446 90.3429 138.461 90.5077C138.465 90.5411 138.442 90.5715 138.412 90.5753C138.41 90.5753 138.408 90.5753 138.406 90.5753H138.407ZM114.62 88.9673C114.589 88.9673 114.564 88.9399 114.564 88.9057C114.564 88.7409 114.566 88.5768 114.569 88.4143C114.569 88.3801 114.589 88.3497 114.624 88.3535C114.655 88.3535 114.679 88.3816 114.678 88.4158C114.675 88.5784 114.675 88.7417 114.674 88.9057C114.674 88.9392 114.65 88.9673 114.619 88.9673H114.62ZM138.214 88.9528C138.188 88.9528 138.165 88.9316 138.16 88.9012C138.137 88.7364 138.112 88.5753 138.088 88.4173C138.082 88.3839 138.103 88.352 138.133 88.3467C138.162 88.3406 138.191 88.3634 138.196 88.3968C138.221 88.5548 138.245 88.7174 138.268 88.8822C138.273 88.9156 138.253 88.9468 138.223 88.9521C138.22 88.9521 138.216 88.9528 138.214 88.9528H138.214ZM137.951 87.3425C137.926 87.3425 137.903 87.3228 137.897 87.2939C137.866 87.126 137.835 86.9658 137.805 86.8139C137.799 86.7804 137.818 86.7478 137.848 86.7409C137.878 86.7333 137.907 86.7546 137.913 86.788C137.943 86.9399 137.974 87.101 138.005 87.2688C138.011 87.3023 137.992 87.3342 137.962 87.3418C137.959 87.3425 137.954 87.3433 137.951 87.3433V87.3425ZM114.664 87.3326C114.664 87.3326 114.661 87.3326 114.66 87.3326C114.63 87.3304 114.607 87.3015 114.609 87.2673C114.619 87.1002 114.63 86.9354 114.644 86.7759C114.647 86.7425 114.673 86.7181 114.704 86.7204C114.734 86.7235 114.756 86.7538 114.754 86.7873C114.74 86.946 114.728 87.1086 114.719 87.2749C114.717 87.3076 114.693 87.3326 114.664 87.3326H114.664ZM115.236 86.1834C115.207 86.1834 115.182 86.1576 115.181 86.1249C115.18 86.0907 115.203 86.0626 115.233 86.0604L115.673 86.0376C115.702 86.0376 115.729 86.0619 115.73 86.0961C115.732 86.1302 115.708 86.1583 115.678 86.1606L115.238 86.1834H115.235H115.236ZM116.701 86.1097C116.672 86.1097 116.647 86.0839 116.646 86.0512C116.645 86.0171 116.668 85.989 116.698 85.9874L117.138 85.9662C117.165 85.9662 117.194 85.9912 117.195 86.0247C117.197 86.0588 117.173 86.0869 117.143 86.0885L116.703 86.1097H116.701H116.701ZM118.166 86.0391C118.137 86.0391 118.113 86.0133 118.111 85.9806C118.11 85.9464 118.134 85.9183 118.164 85.9168L118.603 85.8963C118.634 85.8963 118.659 85.9213 118.66 85.9548C118.662 85.989 118.638 86.0171 118.608 86.0186L118.168 86.0391H118.166ZM119.631 85.9715C119.602 85.9715 119.578 85.9457 119.576 85.913C119.575 85.8788 119.599 85.8507 119.629 85.8492L120.068 85.8294C120.097 85.831 120.124 85.8545 120.125 85.8887C120.127 85.9229 120.103 85.951 120.072 85.9525L119.633 85.9722H119.631L119.631 85.9715ZM121.097 85.9069C121.067 85.9069 121.043 85.8811 121.041 85.8477C121.04 85.8135 121.064 85.7854 121.094 85.7839L121.534 85.7649C121.568 85.7672 121.59 85.7899 121.591 85.8241C121.593 85.8583 121.569 85.8864 121.538 85.8879L121.099 85.9069H121.097ZM122.562 85.8462C122.532 85.8462 122.508 85.8203 122.507 85.7869C122.505 85.7527 122.529 85.7246 122.56 85.7231L122.999 85.7056C123.029 85.7079 123.055 85.7307 123.056 85.7649C123.057 85.7991 123.034 85.8272 123.003 85.8287L122.564 85.8462H122.562ZM124.027 85.7892C123.997 85.7892 123.973 85.7634 123.972 85.7299C123.971 85.6958 123.994 85.6677 124.025 85.6661L124.464 85.6502C124.497 85.6487 124.52 85.676 124.521 85.7094C124.521 85.7436 124.498 85.7717 124.468 85.7725L124.028 85.7884H124.026L124.027 85.7892ZM137.621 85.7474C137.597 85.7474 137.574 85.7292 137.568 85.7011L137.565 85.6874C137.455 85.6768 137.337 85.6669 137.212 85.6585C137.181 85.6563 137.159 85.6274 137.161 85.5932C137.163 85.5598 137.191 85.5317 137.22 85.5362C137.351 85.5454 137.474 85.556 137.588 85.5666C137.626 85.5697 137.657 85.5978 137.666 85.635L137.674 85.6714C137.682 85.7041 137.664 85.7375 137.635 85.7459C137.63 85.7474 137.626 85.7482 137.621 85.7482V85.7474ZM125.492 85.7368C125.462 85.7368 125.438 85.7102 125.437 85.6775C125.436 85.6433 125.46 85.6152 125.49 85.6145L125.929 85.5993C125.963 85.6023 125.985 85.6251 125.986 85.6585C125.987 85.6927 125.963 85.7208 125.933 85.7216L125.493 85.7368H125.491H125.492ZM126.957 85.6889C126.927 85.6889 126.903 85.6623 126.902 85.6289C126.901 85.5947 126.925 85.5666 126.956 85.5659L127.395 85.553C127.425 85.5545 127.451 85.5788 127.452 85.613C127.452 85.6471 127.429 85.6752 127.398 85.676L126.958 85.6889H126.957ZM128.423 85.6464C128.393 85.6464 128.368 85.6198 128.368 85.5864C128.367 85.5522 128.391 85.5241 128.421 85.5233L128.861 85.5119H128.862C128.892 85.5119 128.917 85.5385 128.917 85.5719C128.917 85.6061 128.894 85.6335 128.864 85.6342L128.424 85.6456H128.423V85.6464ZM129.889 85.6114C129.859 85.6114 129.834 85.5849 129.833 85.5514C129.833 85.5173 129.857 85.4899 129.887 85.4891L130.327 85.48C130.362 85.4846 130.382 85.5066 130.383 85.5408C130.383 85.575 130.359 85.6023 130.329 85.6031L129.889 85.6122H129.888L129.889 85.6114ZM136.191 85.6054H136.189C136.048 85.6 135.902 85.5955 135.75 85.5917C135.72 85.5909 135.696 85.5628 135.697 85.5286C135.697 85.4945 135.721 85.4664 135.753 85.4686C135.905 85.4724 136.052 85.4778 136.193 85.4823C136.223 85.4831 136.247 85.5119 136.246 85.5454C136.245 85.5788 136.221 85.6046 136.191 85.6046L136.191 85.6054ZM131.354 85.5849C131.324 85.5849 131.3 85.5575 131.299 85.5241C131.299 85.4899 131.323 85.4626 131.354 85.4618C131.503 85.4595 131.649 85.4573 131.793 85.4557C131.823 85.4557 131.848 85.4831 131.848 85.5165C131.848 85.5507 131.825 85.578 131.794 85.5788C131.65 85.5803 131.503 85.5826 131.354 85.5849ZM134.726 85.5727C134.583 85.5712 134.437 85.5697 134.287 85.5689C134.256 85.5689 134.231 85.5408 134.232 85.5074C134.232 85.4732 134.257 85.4466 134.287 85.4466C134.438 85.4474 134.585 85.4489 134.728 85.4504C134.758 85.4504 134.782 85.4785 134.782 85.5127C134.782 85.5461 134.757 85.5735 134.727 85.5735L134.726 85.5727ZM132.821 85.5689C132.791 85.5689 132.766 85.5416 132.766 85.5081C132.766 85.474 132.79 85.4466 132.82 85.4466C132.97 85.4459 133.116 85.4451 133.26 85.4443C133.29 85.4443 133.315 85.4717 133.315 85.5059C133.315 85.54 133.29 85.5674 133.26 85.5674C133.116 85.5674 132.969 85.5681 132.82 85.5697L132.821 85.5689Z" fill="white"/>
<path d="M128.592 97.7172L125.49 97.8357C125.084 97.8509 124.731 97.5266 124.669 97.0807L124.208 93.7629C124.134 93.2342 124.493 92.7534 124.974 92.7352L128.7 92.5923C129.171 92.5741 129.554 93.0094 129.529 93.5319L129.365 96.8733C129.343 97.3352 129.007 97.7013 128.591 97.7165L128.592 97.7172Z" fill="#4E196F"/>
<path d="M128.191 97.1186L125.83 97.209C125.52 97.2212 125.252 96.9743 125.205 96.634L124.855 94.1092C124.799 93.7066 125.072 93.3405 125.438 93.3268L128.274 93.2182C128.632 93.2045 128.924 93.5357 128.905 93.9337L128.78 96.4768C128.763 96.8277 128.507 97.1065 128.191 97.1186Z" fill="#71548E"/>
<path d="M37.1274 85.8835L48.0337 84.9971L47.6029 85.4202V85.9108H46.1188L46.4604 86.5656H48.3175L47.6336 87.7923L47.4866 93.2742H46.4121L47.3893 94.6923L47.4866 102.437L48.3175 102.655L47.5846 102.982L47.6336 104.565L37.4697 106.528L35.222 98.8921L34.9287 87.929L37.1274 85.8835Z" fill="#CEB3E2"/>
<path d="M29.7837 84.0293L37.1963 85.8561V90.0011L35.3297 89.2377L35.4229 89.7831L37.18 90.7652L37.4324 95.4556L35.2902 94.4196V94.9103L37.4896 96.3284V99.8187L35.4767 98.6193L35.5788 99.328L37.4896 100.473V106.528L30.9323 102.437L30.7323 99.928L29.2638 99.0553L30.3376 98.1825L30.2879 94.4735L29.2617 92.7827L29.9946 92.2373L29.9456 87.1109L29.2617 85.9655L29.8524 84.7653L29.7837 84.0293Z" fill="white"/>
<path d="M29.9941 84.029L38.7528 83.0059L48.0246 84.9967L37.1768 85.8558L29.9941 84.029Z" fill="#71548E"/>
<g opacity="0.5">
<path d="M39.0098 89.6747L47.601 89.0215L47.5881 89.5122L39.0098 89.6747Z" fill="#7E759C"/>
<path d="M40.4023 95.7631C40.5487 95.6469 47.3972 95.2793 47.3972 95.2793L47.4074 96.0981L40.4023 95.7631Z" fill="#7E759C"/>
</g>
<path d="M29.2614 83.006L37.4702 84.9969C37.4702 84.9969 47.1938 84.7105 48.0247 82.6376C46.6079 83.1283 38.6427 81.5469 38.6427 81.5469L29.2607 83.006H29.2614Z" fill="#CEB3E2"/>
<path d="M29.4567 80.7292C29.4567 80.7292 36.3951 83.7288 38.6427 83.7288C40.8904 83.7288 47.4069 80.4565 47.4069 80.4565C47.4069 80.4565 38.1052 80.2051 37.03 78.8857C34.636 79.7479 29.4561 80.7292 29.4561 80.7292H29.4567Z" fill="#D9C0E8"/>
<path d="M30.4831 79.9105C30.4831 79.9105 37.7814 82.31 38.432 82.3647C39.4248 82.4194 47.194 78.0556 47.194 78.0556L38.6429 76.8008C38.6429 76.8008 32.8281 80.4004 30.4824 79.9097L30.4831 79.9105Z" fill="white"/>
<path d="M30.1775 88.5694C30.0653 88.2026 35.3813 90.8193 35.3813 90.8193L34.5749 91.1877C34.5749 91.1877 30.4021 89.3047 30.1769 88.5694H30.1775Z" fill="#D9C0E8"/>
<path d="M36.3703 96.9559C36.5166 96.9628 30.7998 94.7061 30.7998 94.7061C30.7998 94.7061 33.6218 96.8329 36.3703 96.9559Z" fill="#D9C0E8"/>
<path d="M112.818 94.0916L112.133 95.3191L111.987 100.8H110.912L111.89 102.219L111.936 105.899C111.927 105.889 111.917 105.881 111.908 105.873L101.971 106.474L99.6924 105.267L99.4297 95.4558L101.628 93.4103L112.534 92.5254L112.104 92.9477V93.4384H110.619L110.961 94.0932H112.818V94.0916Z" fill="#CEB3E2"/>
<path d="M101.989 103.856V106.473L94.8083 102.955L94.792 102L93.7638 100.31L94.4953 99.7644L94.4463 94.6365L93.7617 93.4911L94.3476 92.2917L94.2837 91.5557L101.696 93.3832V97.5282L99.829 96.7641L99.9229 97.3102L101.679 98.2924L101.932 102.981L99.7902 101.946V102.437L101.989 103.856Z" fill="white"/>
<path d="M94.4941 91.5564L103.253 90.5332L112.525 92.5241L101.677 93.3831L94.4941 91.5564Z" fill="#71548E"/>
<g opacity="0.5">
<path d="M103.51 97.2011L112.101 96.5479L112.088 97.0385L103.51 97.2011Z" fill="#7E759C"/>
<path d="M104.902 103.29C105.049 103.173 111.897 102.806 111.897 102.806L111.907 103.624L104.902 103.29Z" fill="#7E759C"/>
</g>
<path d="M93.7607 90.8605L101.97 92.8514C101.97 92.8514 111.693 92.565 112.524 90.4921C111.107 90.9828 103.142 89.4014 103.142 89.4014L93.7607 90.8605Z" fill="#CEB3E2"/>
<path d="M92.9307 89.8923C92.9307 89.8923 99.869 92.8919 102.117 92.8919C104.366 92.8919 110.881 89.6196 110.881 89.6196C110.881 89.6196 101.58 89.3682 100.505 88.0488C98.1106 88.911 92.9307 89.8923 92.9307 89.8923Z" fill="white"/>
<path d="M55.123 105.055L66.9405 101.619L75.7924 103.905L65.3073 108C65.3073 108 57.3415 107.106 55.123 105.055V105.055Z" fill="#71548E"/>
<path d="M64.6514 105.055L76.4689 101.619L85.3207 103.905L74.8357 108C74.8357 108 66.8698 107.106 64.6514 105.055V105.055Z" fill="#CEB3E2"/>
<path d="M75.8213 102.596C75.8213 102.596 84.614 104.003 87.7511 102.315C91.404 104.483 92.7969 105.219 92.7969 105.219C92.7969 105.219 81.4361 108.655 78.0649 106.691C76.3793 104.81 75.822 102.596 75.822 102.596H75.8213Z" fill="#D9C0E8"/>
<path d="M50.9014 103.513C50.9014 103.513 57.656 104.594 60.0656 103.298C62.872 104.963 63.9417 105.528 63.9417 105.528C63.9417 105.528 55.2144 108.168 52.6244 106.659C51.3294 105.214 50.9014 103.513 50.9014 103.513Z" fill="white"/>
<path d="M37.2885 52.3662C37.2885 52.3662 26.1468 55.204 25.4629 54.4399C27.4663 56.4581 29.7629 57.8762 29.7629 57.8762C29.7629 57.8762 39.1449 56.1998 41.0013 53.956C39.2912 52.9124 37.2885 52.3662 37.2885 52.3662Z" fill="#CEB3E2"/>
<path d="M29.3956 51.7518L32.1809 55.1213C32.1809 55.1213 23.4093 58.2021 19.9156 55.1213C17.2283 52.7765 17.082 50.4043 17.082 50.4043C17.082 50.4043 23.3855 55.7183 29.3956 51.7526V51.7518Z" fill="#D9C0E8"/>
<g opacity="0.78">
<path d="M49.2667 46.0388C49.4978 45.991 49.7102 46.1259 49.7403 46.3396C49.7704 46.5534 49.607 46.766 49.3758 46.8138L47.3657 47.2294C47.1345 47.2772 46.9222 47.1423 46.8921 46.9285C46.862 46.7148 47.0254 46.5022 47.2565 46.4543L49.2667 46.0388Z" fill="white"/>
<path d="M53.6332 38.9632C53.7205 39.1582 53.6162 39.3972 53.3999 39.4973C53.1836 39.5974 52.9377 39.5208 52.8504 39.3257L52.0914 37.631C52.0042 37.436 52.1084 37.1969 52.3247 37.0969C52.541 36.9968 52.7869 37.0734 52.8742 37.2685L53.6332 38.9632Z" fill="white"/>
<path d="M50.1105 41.3802C50.316 41.466 50.3929 41.6998 50.2815 41.9012C50.1712 42.1029 49.9145 42.1966 49.7094 42.1099L47.9259 41.361C47.7204 41.2752 47.6435 41.0415 47.7549 40.84C47.8652 40.6384 48.1219 40.5446 48.327 40.6314L50.1105 41.3802Z" fill="white"/>
<path d="M56.9789 38.9118C56.8641 39.1117 56.6064 39.2003 56.4035 39.1108C56.2002 39.0206 56.129 38.7855 56.2431 38.5859L57.2398 36.849C57.3546 36.649 57.6123 36.5604 57.8152 36.6499C58.0184 36.7401 58.0897 36.9752 57.9756 37.1748L56.9789 38.9118Z" fill="white"/>
</g>
<path d="M58.8589 52.2812L58.9834 52.746L58.9847 52.7506C59.0079 52.8379 58.9637 52.9306 58.8854 52.9564C58.8071 52.9823 58.7241 52.9329 58.701 52.8455L58.5771 52.3685C58.5547 52.2819 58.5989 52.1908 58.6772 52.1657C58.7547 52.1406 58.8357 52.19 58.8582 52.2758L58.8595 52.2812H58.8589Z" fill="white"/>
<path d="M59.3225 53.8144L59.4885 54.2634L59.4905 54.2679C59.5232 54.3553 59.4858 54.4555 59.4068 54.492C59.3279 54.5284 59.2388 54.4867 59.2061 54.3986V54.397L59.0394 53.9375C59.0081 53.8509 59.0455 53.7514 59.1231 53.7165C59.2007 53.6815 59.2884 53.7233 59.3204 53.8091L59.3225 53.8137V53.8144Z" fill="white"/>
<path d="M59.9212 55.2898L60.1247 55.7197L60.1267 55.7243C60.1676 55.8109 60.1383 55.918 60.0607 55.9643C59.9832 56.0099 59.8872 55.9772 59.8457 55.8906L59.6409 55.4493C59.6007 55.3635 59.6307 55.2571 59.7082 55.2123C59.7851 55.1675 59.8797 55.2009 59.9199 55.286L59.9219 55.2905L59.9212 55.2898Z" fill="white"/>
<path d="M60.6398 56.6976L60.8766 57.1054L60.8787 57.1092C60.9284 57.1943 60.9066 57.3083 60.8304 57.3629C60.7542 57.4184 60.6521 57.3941 60.6031 57.309V57.3075L60.3635 56.8897C60.3152 56.8054 60.337 56.693 60.4132 56.6391C60.4888 56.5851 60.5888 56.6094 60.6371 56.693L60.6391 56.6968L60.6398 56.6976Z" fill="white"/>
<path d="M61.4654 58.0296L61.7322 58.414L61.7349 58.4178C61.7921 58.5006 61.7791 58.6198 61.705 58.6837C61.6308 58.7475 61.524 58.733 61.4668 58.6502H61.4661L61.1966 58.2552C61.1402 58.1732 61.1545 58.0547 61.2286 57.9924C61.3021 57.9301 61.4069 57.9453 61.4634 58.0266L61.4661 58.0304L61.4654 58.0296Z" fill="white"/>
<path d="M62.3876 59.2828L62.6802 59.6428L62.6829 59.6458C62.7482 59.7256 62.7428 59.8494 62.6707 59.9223C62.5992 59.9945 62.4883 59.9892 62.423 59.9087H62.4223L62.1263 59.5387C62.0623 59.459 62.0684 59.3367 62.1399 59.2653C62.2113 59.1939 62.3202 59.2007 62.3842 59.2797L62.3869 59.2828H62.3876Z" fill="white"/>
<path d="M63.3898 60.4544L63.7055 60.7901L63.7082 60.7931C63.7804 60.8698 63.7831 60.9974 63.7144 61.078C63.6456 61.1585 63.5313 61.1615 63.4592 61.0848H63.4585L63.1393 60.74C63.0686 60.6632 63.0665 60.5371 63.1353 60.4574C63.204 60.3784 63.3163 60.3761 63.387 60.4513L63.3898 60.4544Z" fill="white"/>
<path d="M64.4659 61.5466L64.8007 61.8581L64.8034 61.8603C64.881 61.9325 64.8912 62.0609 64.8265 62.1475C64.7619 62.2341 64.6469 62.2454 64.5693 62.1733L64.2291 61.855C64.1522 61.7829 64.142 61.6553 64.2066 61.5687C64.2713 61.4828 64.3863 61.4714 64.4632 61.5436L64.4659 61.5459V61.5466Z" fill="white"/>
<path d="M65.6038 62.5553L65.9563 62.8417L65.959 62.8439C66.0414 62.9108 66.0597 63.0399 65.9998 63.1318C65.94 63.2237 65.8243 63.2442 65.7419 63.1774L65.384 62.885C65.3023 62.8181 65.284 62.6897 65.3438 62.5978C65.4037 62.5067 65.5187 62.4862 65.6011 62.553L65.6038 62.5553Z" fill="white"/>
<path d="M66.7985 63.48L67.1674 63.7405L67.1701 63.7428C67.2572 63.8043 67.283 63.9327 67.2279 64.0299C67.1728 64.1271 67.0578 64.156 66.9707 64.0945L66.5964 63.8286C66.51 63.7671 66.4848 63.6387 66.5399 63.5423C66.5951 63.4458 66.7101 63.4169 66.7965 63.4792L66.7992 63.4807L66.7985 63.48Z" fill="white"/>
<path d="M68.0432 64.323L68.4243 64.5608L68.427 64.5623C68.5175 64.6185 68.5502 64.7469 68.4999 64.8479C68.4495 64.9489 68.3345 64.9854 68.244 64.9292L67.8575 64.6869C67.767 64.6299 67.735 64.5023 67.786 64.402C67.8371 64.301 67.9514 64.2653 68.0412 64.3215L68.0432 64.323Z" fill="white"/>
<path d="M69.3273 65.0881L69.7193 65.3039L69.722 65.3054C69.8159 65.357 69.8547 65.4846 69.8084 65.5895C69.7621 65.6943 69.6478 65.7376 69.5539 65.6859L69.1572 65.4664C69.0633 65.4148 69.0252 65.2879 69.0714 65.1831C69.1177 65.0783 69.2313 65.0357 69.3252 65.0874H69.3273V65.0881Z" fill="white"/>
<path d="M70.6442 65.7837L71.045 65.9789H71.0471C71.1444 66.0275 71.1886 66.1536 71.1464 66.2622C71.1042 66.3709 70.9906 66.4202 70.894 66.3731L70.4884 66.1741C70.3918 66.127 70.3475 66.0009 70.3904 65.8923C70.4333 65.7845 70.5456 65.7351 70.6429 65.7829H70.6449L70.6442 65.7837Z" fill="white"/>
<path d="M71.9894 66.4121L72.397 66.5891H72.399C72.4991 66.6331 72.5481 66.7584 72.5093 66.8701C72.4705 66.9818 72.3582 67.0364 72.2589 66.9932L71.8465 66.8131C71.7471 66.7698 71.6981 66.6445 71.7369 66.5336C71.7757 66.4227 71.888 66.368 71.9873 66.4113H71.9887L71.9894 66.4121Z" fill="white"/>
<path d="M73.3551 66.9819L73.7681 67.1421H73.7702C73.8722 67.1824 73.926 67.307 73.8906 67.4209C73.8552 67.5348 73.7436 67.5949 73.6415 67.5554L73.2244 67.3928C73.123 67.3533 73.0692 67.2287 73.1046 67.1156C73.14 67.0024 73.2516 66.9424 73.353 66.9819H73.3544H73.3551Z" fill="white"/>
<path d="M74.738 67.4983L75.1565 67.6441H75.1578C75.262 67.6813 75.3198 67.8044 75.2871 67.9206C75.2545 68.0368 75.1435 68.1014 75.0394 68.0649L74.6182 67.9168C74.5148 67.8803 74.4569 67.7565 74.4896 67.6411C74.5223 67.5256 74.6332 67.461 74.7366 67.4975H74.738V67.4983Z" fill="white"/>
<path d="M76.1377 67.9697L76.5596 68.1034H76.561C76.6671 68.1376 76.7284 68.2607 76.6985 68.3784C76.6685 68.4969 76.5583 68.5653 76.4521 68.5318L76.0268 68.3959C75.9213 68.3624 75.8601 68.2394 75.8907 68.1217C75.9206 68.0039 76.0309 67.9356 76.1364 67.9697H76.137H76.1377Z" fill="white"/>
<path d="M77.5457 68.4023L77.971 68.5261H77.9724C78.0799 68.558 78.1445 68.6803 78.1166 68.8003C78.0887 68.9203 77.9792 68.9925 77.871 68.9614L77.4436 68.836C77.3368 68.8049 77.2721 68.6818 77.3007 68.5626C77.3286 68.4433 77.4389 68.3712 77.5457 68.4031V68.4023Z" fill="white"/>
<path d="M78.9647 68.8027L79.392 68.9174H79.3927C79.5016 68.947 79.5689 69.0693 79.5424 69.1908C79.5159 69.3124 79.4063 69.3876 79.2974 69.3579L78.8687 69.241C78.7598 69.2113 78.6932 69.0891 78.7197 68.9675C78.7462 68.846 78.8558 68.7723 78.9647 68.8012V68.8027Z" fill="white"/>
<path d="M80.3891 69.1777L80.8185 69.2855H80.8192C80.9295 69.3136 80.9989 69.4359 80.9744 69.559C80.9492 69.682 80.8396 69.7595 80.7294 69.7322L80.2986 69.6228C80.1884 69.5947 80.1197 69.4724 80.1448 69.3493C80.17 69.2263 80.2796 69.1496 80.3898 69.1777H80.3891Z" fill="white"/>
<path d="M81.8185 69.5278L82.2486 69.6273H82.2499C82.3615 69.6531 82.4337 69.7754 82.4105 69.9007C82.3874 70.0253 82.2778 70.1058 82.1662 70.08L81.7341 69.979C81.6225 69.9524 81.5511 69.8309 81.5749 69.7063C81.598 69.5817 81.7076 69.502 81.8192 69.5285L81.8185 69.5278Z" fill="white"/>
<path d="M83.2516 69.8487L83.6831 69.9391H83.6844C83.7974 69.9634 83.8722 70.085 83.8511 70.2111C83.83 70.3372 83.7205 70.4207 83.6075 70.3972L83.174 70.3045C83.0611 70.2802 82.9869 70.1587 83.0087 70.0326C83.0305 69.9065 83.1393 69.8237 83.2523 69.848L83.2516 69.8487Z" fill="white"/>
<path d="M84.6895 70.1388L85.123 70.2193H85.1243C85.2393 70.2405 85.3162 70.3621 85.2972 70.4897C85.2781 70.6173 85.1699 70.7039 85.0549 70.6826L84.6194 70.6006C84.5051 70.5793 84.4282 70.4578 84.4472 70.3302C84.4663 70.2026 84.5752 70.1167 84.6895 70.138V70.1388Z" fill="white"/>
<path d="M86.1338 70.3932L86.568 70.4623H86.5693C86.6857 70.4813 86.766 70.6013 86.7496 70.7304C86.7333 70.8603 86.6258 70.9499 86.5094 70.9317L86.0719 70.8611C85.9562 70.8421 85.8759 70.7221 85.8929 70.5929C85.9099 70.4638 86.0174 70.3742 86.1331 70.3932H86.1338Z" fill="white"/>
<path d="M87.5808 70.6086L88.0157 70.6648H88.017C88.1348 70.68 88.2184 70.7993 88.2048 70.9299C88.1912 71.0613 88.0851 71.1547 87.9673 71.1396L87.5284 71.0811C87.4114 71.0659 87.3277 70.9466 87.3413 70.816C87.3556 70.6853 87.4617 70.5919 87.5788 70.6071H87.5801L87.5808 70.6086Z" fill="white"/>
<path d="M89.0338 70.783L89.4707 70.8271H89.4728C89.5905 70.8392 89.6776 70.9555 89.6667 71.0869C89.6558 71.2183 89.5524 71.3155 89.4346 71.3033L88.9944 71.2593C88.8766 71.2479 88.7889 71.1309 88.7997 70.9995C88.8099 70.8681 88.9147 70.7701 89.0325 70.7823H89.0345L89.0338 70.783Z" fill="white"/>
<path d="M90.4894 70.9131L90.9269 70.9427H90.929C91.0467 70.9511 91.1358 71.0635 91.129 71.1949C91.1222 71.3263 91.0215 71.4258 90.9038 71.4182L90.4628 71.3893C90.3451 71.3817 90.2553 71.2686 90.2621 71.1379C90.2689 71.0065 90.3703 70.9063 90.488 70.9138H90.49L90.4894 70.9131Z" fill="white"/>
<path d="M91.9464 70.9932L92.384 71.0069H92.386C92.5031 71.0107 92.5949 71.1193 92.5922 71.25C92.5888 71.3806 92.4915 71.4832 92.3751 71.4801L91.9335 71.4672C91.8164 71.4634 91.7239 71.3548 91.7266 71.2241C91.73 71.0935 91.8273 70.9902 91.9444 70.9932H91.9471H91.9464Z" fill="white"/>
<path d="M93.4037 71.0187L93.8406 71.0156H93.8426C93.959 71.0149 94.0543 71.1197 94.055 71.2496C94.0556 71.3795 93.9624 71.485 93.846 71.4866L93.4044 71.4904C93.288 71.4911 93.1928 71.3871 93.1914 71.2564C93.1907 71.1265 93.284 71.0202 93.401 71.0187H93.4037Z" fill="white"/>
<path d="M94.8622 70.9883L95.2991 70.9671H95.3018C95.4175 70.961 95.5155 71.0612 95.5202 71.1904C95.525 71.3195 95.4359 71.4289 95.3202 71.4342L94.8785 71.4562C94.7628 71.4623 94.6649 71.362 94.6594 71.2329C94.654 71.1038 94.7438 70.9944 94.8595 70.9883H94.8622Z" fill="white"/>
<path d="M96.3164 70.8956L96.7519 70.8553H96.7546C96.8696 70.8447 96.9696 70.9396 96.9792 71.0672C96.9887 71.1956 96.9036 71.3073 96.7893 71.3179L96.349 71.3597C96.234 71.3703 96.1333 71.2753 96.1238 71.147C96.1142 71.0186 96.1993 70.9062 96.3143 70.8956H96.317H96.3164Z" fill="white"/>
<path d="M97.7667 70.7374L98.2002 70.6766H98.2029C98.3166 70.6607 98.42 70.7503 98.4343 70.8772C98.4486 71.004 98.3683 71.1195 98.2546 71.1354L97.8157 71.1977C97.7021 71.2137 97.598 71.124 97.5837 70.9972C97.5694 70.8703 97.6497 70.7541 97.7633 70.7382H97.7667V70.7374Z" fill="white"/>
<path d="M99.2088 70.5091L99.6396 70.4264H99.6423C99.7546 70.4043 99.8607 70.4886 99.8804 70.6132C99.8995 70.7385 99.8247 70.857 99.7124 70.8783L99.2762 70.9626C99.1639 70.9846 99.057 70.9003 99.0373 70.775C99.0176 70.6497 99.0931 70.5304 99.2054 70.5091H99.2088Z" fill="white"/>
<path d="M100.64 70.2082L101.066 70.1034H101.069C101.179 70.0753 101.289 70.1535 101.313 70.2766C101.338 70.3996 101.268 70.5219 101.158 70.5485L100.725 70.6556C100.615 70.6829 100.505 70.6047 100.48 70.4816C100.456 70.3578 100.526 70.2363 100.636 70.2082H100.64Z" fill="white"/>
<path d="M102.057 69.8333L102.479 69.7065H102.481C102.59 69.673 102.702 69.7444 102.731 69.866C102.76 69.9868 102.696 70.1121 102.588 70.1447L102.161 70.2746C102.052 70.3073 101.94 70.2359 101.91 70.1144C101.881 69.9928 101.945 69.8683 102.054 69.8348H102.057L102.057 69.8333Z" fill="white"/>
<path d="M103.456 69.3826L103.872 69.2322H103.874C103.981 69.1927 104.095 69.2581 104.13 69.3766C104.164 69.495 104.106 69.6227 104 69.6606L103.578 69.8133C103.472 69.8521 103.357 69.7867 103.323 69.6682C103.288 69.5497 103.346 69.4214 103.452 69.3834L103.456 69.3819V69.3826Z" fill="white"/>
<path d="M104.832 68.8555L105.241 68.6823L105.243 68.6808C105.347 68.6367 105.463 68.6945 105.503 68.8107C105.543 68.9269 105.491 69.056 105.387 69.1008L104.973 69.2778C104.869 69.3219 104.753 69.2641 104.712 69.1479C104.673 69.0317 104.725 68.9018 104.829 68.857L104.832 68.8555Z" fill="white"/>
<path d="M106.181 68.2486L106.58 68.0511L106.583 68.0496C106.684 67.9994 106.802 68.0503 106.847 68.1635C106.892 68.2767 106.847 68.4081 106.746 68.4582L106.341 68.6595C106.239 68.7096 106.121 68.6595 106.076 68.5463C106.031 68.4332 106.076 68.301 106.177 68.2509L106.181 68.2493L106.181 68.2486Z" fill="white"/>
<path d="M107.5 67.5624L107.888 67.3406L107.891 67.3391C107.989 67.2829 108.109 67.3262 108.159 67.4355C108.209 67.5449 108.17 67.6786 108.073 67.7341L107.679 67.9604C107.581 68.0166 107.461 67.9733 107.411 67.8639C107.36 67.7546 107.399 67.6209 107.496 67.5647L107.5 67.5624Z" fill="white"/>
<path d="M108.781 66.7932L109.157 66.5463L109.161 66.544C109.255 66.4825 109.376 66.5174 109.432 66.6223C109.487 66.7271 109.456 66.8623 109.362 66.9238L108.98 67.1752C108.886 67.2375 108.764 67.2026 108.708 67.097C108.653 66.9922 108.684 66.8562 108.778 66.7939L108.782 66.7917L108.781 66.7932Z" fill="white"/>
<path d="M110.018 65.9405L110.379 65.6686L110.382 65.6663C110.472 65.5987 110.595 65.6253 110.655 65.7256C110.716 65.8258 110.693 65.9618 110.602 66.0301L110.235 66.3074C110.145 66.3758 110.023 66.3492 109.962 66.2481C109.9 66.1479 109.924 66.0112 110.015 65.9428L110.018 65.9405H110.018Z" fill="white"/>
<path d="M111.204 65.005L111.549 64.708L111.552 64.7057C111.637 64.632 111.76 64.6495 111.826 64.7452C111.892 64.8409 111.876 64.9769 111.791 65.0506L111.44 65.3536C111.354 65.4273 111.232 65.4098 111.166 65.3149C111.1 65.22 111.116 65.0825 111.201 65.0088L111.204 65.0057V65.005Z" fill="white"/>
<path d="M112.334 63.9849L112.66 63.6636L112.662 63.6606C112.743 63.5816 112.865 63.59 112.937 63.6796C113.007 63.7692 113.001 63.9059 112.92 63.9849L112.589 64.3131C112.509 64.3928 112.385 64.3845 112.315 64.2949C112.243 64.2052 112.251 64.0677 112.331 63.9887L112.334 63.9857L112.334 63.9849Z" fill="white"/>
<path d="M113.398 62.8833L113.703 62.5369L113.707 62.5331C113.781 62.4481 113.903 62.4473 113.979 62.5308C114.056 62.6144 114.056 62.7504 113.981 62.8354L113.67 63.1894C113.596 63.2745 113.473 63.276 113.397 63.1924C113.321 63.1089 113.319 62.9722 113.394 62.8871L113.398 62.8833Z" fill="white"/>
<path d="M114.385 61.698L114.662 61.3251L114.666 61.3205C114.733 61.2294 114.854 61.2172 114.936 61.2924C115.018 61.3676 115.028 61.5028 114.961 61.5932L114.677 61.976C114.61 62.0672 114.489 62.0801 114.406 62.0049C114.325 61.9297 114.313 61.7945 114.381 61.7026L114.385 61.698Z" fill="white"/>
<path d="M115.272 60.4219L115.515 60.0208L115.518 60.0155C115.577 59.9183 115.696 59.8924 115.783 59.9585C115.87 60.0246 115.893 60.156 115.834 60.254L115.585 60.6665C115.526 60.7637 115.407 60.7895 115.319 60.7242C115.232 60.6581 115.209 60.5259 115.268 60.4279L115.271 60.4219H115.272Z" fill="white"/>
<path d="M116.034 59.0523L116.233 58.6239L116.237 58.6171C116.285 58.5138 116.399 58.4728 116.492 58.5267C116.584 58.5806 116.621 58.7075 116.573 58.8116L116.367 59.2544C116.319 59.3584 116.205 59.3987 116.111 59.3455C116.018 59.2916 115.982 59.164 116.03 59.0599L116.033 59.0523H116.034Z" fill="white"/>
<path d="M116.636 57.5932L116.78 57.1398L116.783 57.1307C116.817 57.0213 116.925 56.9636 117.023 57.0023C117.121 57.041 117.172 57.1603 117.138 57.2697L116.989 57.7421C116.955 57.8515 116.847 57.9092 116.749 57.8713C116.651 57.8325 116.599 57.7125 116.634 57.6031L116.636 57.594V57.5932Z" fill="white"/>
<path d="M117.037 56.057L117.112 55.5845L117.114 55.5731C117.131 55.4592 117.228 55.3832 117.33 55.4037C117.431 55.4235 117.5 55.5313 117.482 55.6453L117.405 56.1398C117.387 56.2537 117.291 56.3297 117.188 56.3099C117.086 56.2902 117.018 56.1823 117.036 56.0684L117.038 56.057H117.037Z" fill="white"/>
<path d="M117.192 54.4702C117.189 54.3107 117.191 54.1512 117.185 53.9917V53.9901C117.18 53.8754 117.26 53.779 117.362 53.7737C117.465 53.7683 117.552 53.8572 117.556 53.9719C117.563 54.1398 117.562 54.3076 117.564 54.4748C117.567 54.5895 117.485 54.6844 117.382 54.6867C117.279 54.689 117.194 54.5978 117.192 54.4831V54.4702H117.192Z" fill="white"/>
<path d="M117.07 52.8825L116.98 52.4138L116.978 52.4024C116.957 52.2908 117.02 52.1814 117.12 52.1578C117.22 52.1343 117.318 52.2049 117.339 52.3158L117.434 52.8065C117.455 52.9182 117.391 53.0276 117.291 53.0519C117.191 53.0762 117.093 53.0048 117.072 52.8931L117.07 52.8817V52.8825Z" fill="white"/>
<path d="M116.684 51.3431L116.524 50.8972L116.52 50.8881C116.482 50.7833 116.528 50.664 116.622 50.6215C116.716 50.5789 116.822 50.6298 116.861 50.7346L117.029 51.1988C117.067 51.3036 117.021 51.4236 116.927 51.4661C116.833 51.5087 116.726 51.4578 116.688 51.3529L116.684 51.3431Z" fill="white"/>
<path d="M116.076 49.8906L115.857 49.4759L115.852 49.4683C115.801 49.3718 115.83 49.2465 115.916 49.1896C116.003 49.1326 116.114 49.1637 116.166 49.261L116.395 49.6909C116.447 49.7873 116.418 49.9127 116.331 49.9704C116.244 50.0281 116.132 49.9962 116.08 49.899L116.076 49.8914V49.8906Z" fill="white"/>
<path d="M115.283 48.549L115.014 48.17L115.009 48.1639C114.947 48.0766 114.96 47.949 115.038 47.8798C115.116 47.8107 115.23 47.8244 115.293 47.9125L115.572 48.3029C115.634 48.3903 115.621 48.5179 115.543 48.5878C115.465 48.6577 115.35 48.6432 115.288 48.5559L115.283 48.549Z" fill="white"/>
<path d="M114.337 47.335L114.026 46.9993L114.021 46.994C113.95 46.9173 113.948 46.7912 114.017 46.7122C114.086 46.6332 114.198 46.6309 114.269 46.7069L114.591 47.0525C114.663 47.1292 114.665 47.256 114.597 47.3358C114.528 47.4155 114.415 47.4178 114.343 47.3419L114.338 47.3358L114.337 47.335Z" fill="white"/>
<path d="M113.256 46.2686L112.909 45.98L112.903 45.9754C112.826 45.9109 112.81 45.7886 112.867 45.702C112.925 45.6154 113.034 45.5971 113.112 45.6617L113.471 45.9572C113.549 46.0217 113.566 46.1448 113.508 46.2322C113.451 46.3195 113.34 46.3377 113.262 46.2739L113.256 46.2694V46.2686Z" fill="white"/>
<path d="M112.062 45.3645L111.685 45.126L111.68 45.1222C111.597 45.0697 111.569 44.9528 111.615 44.8609C111.662 44.769 111.766 44.7363 111.848 44.7887L112.238 45.0325C112.321 45.0849 112.351 45.2019 112.304 45.2946C112.257 45.3872 112.152 45.4207 112.069 45.3683L112.063 45.3645H112.062Z" fill="white"/>
<path d="M110.777 44.6273L110.376 44.4405L110.371 44.4382C110.285 44.3979 110.245 44.2885 110.28 44.1928C110.316 44.0971 110.414 44.0515 110.5 44.0918L110.912 44.2817C110.998 44.3212 111.039 44.4321 111.004 44.5278C110.968 44.6243 110.869 44.6698 110.783 44.6304L110.777 44.6273Z" fill="white"/>
<path d="M109.421 44.0676L109.004 43.9347L108.998 43.9331C108.911 43.905 108.86 43.804 108.885 43.706C108.911 43.608 109 43.5518 109.088 43.5792L109.518 43.7129C109.606 43.7402 109.657 43.8427 109.633 43.9407C109.608 44.0387 109.516 44.0964 109.428 44.0691L109.422 44.0668L109.421 44.0676Z" fill="white"/>
<path d="M108.015 43.6912L107.586 43.6152H107.58C107.493 43.5985 107.433 43.5066 107.446 43.4078C107.46 43.3098 107.542 43.2422 107.63 43.2582L108.07 43.3341C108.159 43.3493 108.219 43.442 108.206 43.5408C108.192 43.6395 108.109 43.7079 108.021 43.6919L108.014 43.6904L108.015 43.6912Z" fill="white"/>
<path d="M106.578 43.506L106.144 43.4893H106.138C106.051 43.4855 105.983 43.4042 105.985 43.307C105.988 43.2097 106.061 43.1338 106.148 43.1368L106.594 43.1512C106.682 43.1543 106.751 43.2356 106.748 43.3335C106.746 43.4315 106.673 43.5082 106.585 43.5052H106.578V43.506Z" fill="white"/>
<path d="M105.133 43.5231L104.701 43.5687H104.695C104.61 43.5785 104.535 43.5086 104.527 43.4137C104.519 43.3188 104.581 43.2352 104.665 43.2261L105.108 43.1767C105.194 43.1668 105.27 43.2367 105.278 43.3324C105.287 43.4274 105.225 43.5124 105.139 43.5223H105.132L105.133 43.5231Z" fill="white"/>
<path d="M103.705 43.751L103.283 43.8619L103.277 43.8634C103.196 43.8847 103.114 43.8285 103.095 43.7381C103.076 43.6477 103.126 43.5573 103.206 43.536L103.641 43.4198C103.722 43.3978 103.804 43.454 103.824 43.5452C103.843 43.6363 103.793 43.7274 103.711 43.7495L103.705 43.751Z" fill="white"/>
<path d="M102.317 44.1972L101.914 44.3734L101.908 44.3757C101.832 44.4091 101.746 44.3673 101.716 44.2822C101.687 44.1979 101.723 44.1022 101.799 44.0688L102.214 43.885C102.29 43.8508 102.377 43.8926 102.407 43.9777C102.438 44.0627 102.4 44.1592 102.324 44.1926L102.317 44.1957L102.317 44.1972Z" fill="white"/>
<path d="M112.735 73.574C112.735 73.574 102.109 68.8783 101.932 67.8164C102.561 70.7453 103.736 73.3651 103.736 73.3651C103.736 73.3651 112.321 77.9067 114.99 77.2299C114.108 75.2899 112.734 73.574 112.734 73.574H112.735Z" fill="#71548E"/>
<path d="M117.351 70.5692L120.136 73.9387C120.136 73.9387 111.364 77.0195 107.871 73.9387C105.183 71.5938 105.037 69.2217 105.037 69.2217C105.037 69.2217 111.341 74.5357 117.351 70.5699V70.5692Z" fill="#CEB3E2"/>
<path d="M69.9882 76.1512L70.4312 76.1262C70.5155 76.1216 70.5877 76.1938 70.5924 76.2887C70.5965 76.3829 70.5319 76.4634 70.4468 76.4687C70.4455 76.4687 70.4441 76.4687 70.4427 76.4687H70.438L70.0018 76.4786H69.9984C69.9174 76.4809 69.8507 76.4087 69.8487 76.3184C69.8473 76.2295 69.9092 76.1566 69.9875 76.152L69.9882 76.1512Z" fill="white"/>
<path d="M71.4668 76.1134L71.9105 76.1286C72.0078 76.1316 72.084 76.2227 72.0813 76.3306C72.0786 76.4392 71.9969 76.5243 71.9003 76.5213C71.8989 76.5213 71.8969 76.5213 71.8955 76.5213H71.8907L71.4559 76.4909H71.4518C71.3586 76.484 71.2878 76.3944 71.2933 76.2904C71.2987 76.1886 71.3763 76.1103 71.4675 76.1134H71.4668Z" fill="white"/>
<path d="M72.9434 76.2115L73.3844 76.267C73.4912 76.2807 73.5681 76.3878 73.5559 76.507C73.5436 76.6263 73.4477 76.7121 73.3408 76.6984C73.3395 76.6984 73.3388 76.6984 73.3374 76.6984H73.332L72.9012 76.6323H72.8971C72.7937 76.6156 72.7209 76.5093 72.7352 76.3938C72.7488 76.2799 72.842 76.1994 72.9441 76.2123L72.9434 76.2115Z" fill="white"/>
<path d="M74.4098 76.4392L74.846 76.5304C74.961 76.5547 75.0366 76.6777 75.0148 76.8061C74.993 76.9345 74.8828 77.0188 74.7678 76.9945C74.7664 76.9945 74.7651 76.9945 74.7637 76.9937L74.7582 76.9922L74.3329 76.8919H74.3289C74.2173 76.8646 74.1458 76.7423 74.1696 76.6177C74.1928 76.4954 74.2996 76.4157 74.4098 76.4385V76.4392Z" fill="white"/>
<path d="M75.8574 76.7803L76.2868 76.9033C76.4093 76.9383 76.4827 77.0773 76.4514 77.214C76.4201 77.3507 76.2956 77.4328 76.1731 77.3978C76.1718 77.3978 76.1704 77.3971 76.169 77.3963L76.1636 77.3948L75.7451 77.2634L75.741 77.2618C75.6219 77.2246 75.5532 77.0871 75.5865 76.9542C75.6192 76.8236 75.7396 76.7469 75.8567 76.7803H75.8574Z" fill="white"/>
<path d="M77.2822 77.2237L77.7041 77.3741C77.8334 77.4204 77.9042 77.5746 77.8633 77.7182C77.8218 77.8625 77.6837 77.9415 77.5551 77.8959C77.5537 77.8959 77.5523 77.8951 77.551 77.8944L77.5462 77.8929L77.1345 77.7341L77.1304 77.7326C77.0052 77.684 76.9385 77.5313 76.9821 77.3915C77.025 77.2533 77.1583 77.1796 77.2822 77.2237Z" fill="white"/>
<path d="M78.6811 77.7551L79.0956 77.9298C79.231 77.9868 79.299 78.1554 79.248 78.3066C79.197 78.4577 79.0459 78.5337 78.9105 78.4767C78.9091 78.4767 78.9077 78.4759 78.9064 78.4752L78.9016 78.4729L78.4974 78.2914L78.494 78.2898C78.362 78.2306 78.2987 78.0635 78.3518 77.9161C78.4042 77.7711 78.5505 77.6997 78.6811 77.7551Z" fill="white"/>
<path d="M80.0528 78.366L80.459 78.562C80.5971 78.6288 80.6604 78.8073 80.6005 78.9615C80.5407 79.1157 80.3808 79.1864 80.2426 79.1195C80.2419 79.1195 80.2412 79.1195 80.2406 79.1188L80.2365 79.1165L79.8384 78.9167L79.8357 78.9152C79.7002 78.8468 79.6397 78.6691 79.7002 78.5179C79.7608 78.3683 79.918 78.3007 80.0528 78.3653V78.366Z" fill="white"/>
<path d="M81.399 79.0398L81.7985 79.2525C81.9393 79.3277 81.9992 79.5153 81.9319 79.6726C81.8645 79.8298 81.6964 79.8966 81.5555 79.8214C81.5549 79.8214 81.5542 79.8214 81.5535 79.8199L81.5494 79.8176L81.1574 79.6019L81.1547 79.6004C81.0166 79.5244 80.9594 79.3368 81.0282 79.1826C81.0955 79.0292 81.2616 78.9661 81.399 79.0391V79.0398Z" fill="white"/>
<path d="M82.7232 79.763L83.1165 79.9879C83.2608 80.0699 83.3172 80.2674 83.2438 80.4277C83.1703 80.5887 82.9933 80.6517 82.8497 80.5697C82.8491 80.5697 82.8484 80.5689 82.8477 80.5682L82.8443 80.5659L82.4578 80.3373L82.4557 80.3358C82.3142 80.2522 82.2604 80.0562 82.336 79.8982C82.4101 79.7418 82.5837 79.6818 82.7239 79.7623L82.7232 79.763Z" fill="white"/>
<path d="M84.0275 80.5258L84.4153 80.7605C84.5623 80.8494 84.6175 81.0553 84.5372 81.2193C84.4575 81.3834 84.2731 81.4449 84.1261 81.3553C84.1255 81.3553 84.1248 81.3545 84.1241 81.3538L84.1214 81.3522L83.7396 81.113H83.7383C83.594 81.0218 83.5423 80.8175 83.6233 80.6557C83.7035 80.4954 83.8839 80.4377 84.0282 80.5251L84.0275 80.5258Z" fill="white"/>
<path d="M85.3175 81.318L85.702 81.5603C85.853 81.6553 85.9061 81.8687 85.8211 82.0373C85.736 82.206 85.5448 82.2652 85.3937 82.1703C85.393 82.1703 85.3923 82.1695 85.3917 82.1688L85.3889 82.1672L85.0099 81.9204H85.0085C84.8602 81.8231 84.8105 81.6112 84.8969 81.4456C84.9827 81.2816 85.1698 81.2254 85.3175 81.318Z" fill="white"/>
<path d="M86.5942 82.1302L86.9753 82.3763C87.1298 82.4766 87.1828 82.6976 87.093 82.87C87.0032 83.0424 86.8052 83.1017 86.6507 83.0022C86.65 83.0022 86.6493 83.0014 86.648 83.0007L86.6459 82.9991L86.2689 82.7477C86.1172 82.6459 86.0668 82.4257 86.1573 82.2563C86.2471 82.0884 86.4418 82.0322 86.5935 82.1302H86.5942Z" fill="white"/>
<path d="M87.8632 82.954L88.2429 83.2023C88.4021 83.3064 88.4559 83.535 88.362 83.7128C88.2687 83.8905 88.0639 83.9505 87.9047 83.8457C87.904 83.8457 87.9013 83.8434 87.9006 83.8427L87.5243 83.589C87.3678 83.4834 87.3174 83.2563 87.412 83.0816C87.5059 82.9084 87.7067 82.8522 87.8632 82.954Z" fill="white"/>
<path d="M89.1272 83.7834L89.5056 84.0333C89.6682 84.1404 89.7219 84.3743 89.626 84.5559C89.53 84.7374 89.3205 84.7974 89.1578 84.6903H89.1565L88.7788 84.4366C88.6175 84.3288 88.5651 84.0956 88.6617 83.9148C88.7584 83.7348 88.9666 83.6755 89.1279 83.7834H89.1272Z" fill="white"/>
<path d="M90.3879 84.6149L90.7662 84.8618C90.9309 84.9689 90.9867 85.2059 90.8908 85.3889C90.7948 85.5728 90.5832 85.6343 90.4185 85.5272H90.4171L90.0381 85.2758C89.8748 85.1679 89.8203 84.9324 89.917 84.7501C90.0136 84.5678 90.2246 84.5071 90.3879 84.6149Z" fill="white"/>
<path d="M91.6524 85.434L92.0328 85.6763H92.0342C92.2016 85.7834 92.2594 86.0212 92.1641 86.208C92.0689 86.3949 91.8559 86.4595 91.6885 86.3531H91.6871L91.3047 86.1062C91.1386 85.9991 91.0815 85.7622 91.1774 85.5768C91.2734 85.3915 91.4857 85.3277 91.6517 85.4348L91.6524 85.434Z" fill="white"/>
<path d="M92.9247 86.2339L93.3091 86.4694L93.3112 86.4709C93.4813 86.575 93.5439 86.8143 93.4507 87.0041C93.3575 87.194 93.1431 87.2639 92.973 87.1599H92.9716L92.5851 86.9198C92.4157 86.815 92.3544 86.5765 92.4483 86.3874C92.5422 86.1982 92.7559 86.1299 92.9254 86.2347L92.9247 86.2339Z" fill="white"/>
<path d="M94.2084 87.0055L94.5963 87.2304L94.599 87.2319C94.7732 87.3329 94.8412 87.5722 94.7507 87.7666C94.6602 87.9611 94.4459 88.037 94.2717 87.936H94.2703L93.8783 87.7059C93.7048 87.6041 93.6381 87.3656 93.7293 87.1719C93.8205 86.9782 94.0342 86.9037 94.2077 87.0055H94.2084Z" fill="white"/>
<path d="M95.5072 87.7404L95.9005 87.9516L95.9039 87.9538C96.0822 88.0496 96.1571 88.2896 96.0713 88.4886C95.9856 88.6876 95.7712 88.7712 95.5922 88.6754H95.5909L95.1921 88.4575C95.0145 88.361 94.941 88.1217 95.0274 87.9235C95.1138 87.7252 95.3282 87.6432 95.5058 87.7396H95.5079L95.5072 87.7404Z" fill="white"/>
<path d="M96.824 88.4262L97.2234 88.6214L97.2269 88.6229C97.4099 88.7125 97.4936 88.9503 97.4133 89.1554C97.333 89.3597 97.1193 89.4531 96.9363 89.3635H96.9349L96.5293 89.1622C96.347 89.0718 96.2646 88.8341 96.3456 88.6305C96.4266 88.4269 96.6396 88.335 96.822 88.4254H96.824V88.4262Z" fill="white"/>
<path d="M98.163 89.0561L98.5685 89.2339L98.5726 89.2354C98.7605 89.3182 98.853 89.5544 98.7788 89.7641C98.7046 89.9737 98.493 90.077 98.3045 89.9942H98.3032L97.8908 89.8104C97.7036 89.7268 97.6125 89.4906 97.6873 89.2817C97.7622 89.0728 97.9738 88.9711 98.1609 89.0546H98.163V89.0561Z" fill="white"/>
<path d="M99.5203 89.6293L99.9313 89.7896L99.9354 89.7911C100.128 89.8663 100.229 90.101 100.162 90.316C100.095 90.5309 99.8843 90.6441 99.6918 90.5689H99.6904L99.2719 90.4026C99.0807 90.3266 98.9806 90.0919 99.0487 89.8784C99.1167 89.665 99.327 89.5533 99.5182 89.6293H99.521H99.5203Z" fill="white"/>
<path d="M100.897 90.1443L101.313 90.2871L101.318 90.2886C101.514 90.3562 101.624 90.5886 101.565 90.8081C101.504 91.0276 101.296 91.1507 101.099 91.0839H101.098L100.674 90.9357C100.478 90.8674 100.369 90.6349 100.43 90.4169C100.491 90.1982 100.7 90.0767 100.895 90.145H100.898L100.897 90.1443Z" fill="white"/>
<path d="M102.29 90.5973L102.711 90.7211L102.715 90.7226C102.916 90.7818 103.035 91.0112 102.982 91.2353C102.929 91.4594 102.724 91.5931 102.523 91.5338H102.522L102.092 91.4047C101.892 91.3447 101.774 91.1153 101.827 90.892C101.881 90.6687 102.087 90.5365 102.287 90.5965H102.289L102.29 90.5973Z" fill="white"/>
<path d="M103.697 90.9918L104.121 91.0981L104.126 91.0996C104.327 91.1498 104.454 91.3731 104.409 91.5987C104.364 91.8235 104.165 91.9656 103.963 91.9147L103.529 91.8076C103.327 91.7574 103.2 91.5341 103.244 91.3085C103.289 91.0829 103.489 90.9409 103.691 90.9903H103.692L103.697 90.9918Z" fill="white"/>
<path d="M105.117 91.3237L105.545 91.4095H105.549C105.751 91.4513 105.886 91.667 105.849 91.8926C105.813 92.1182 105.621 92.2678 105.419 92.2276L104.981 92.141C104.778 92.1007 104.644 91.885 104.68 91.6594C104.716 91.4331 104.909 91.2827 105.111 91.3229H105.112L105.117 91.3244L105.117 91.3237Z" fill="white"/>
<path d="M106.546 91.5861L106.977 91.6515H106.982C107.184 91.6826 107.325 91.8907 107.298 92.1163C107.271 92.3419 107.086 92.5007 106.884 92.4695L106.443 92.4042C106.24 92.3746 106.098 92.1665 106.124 91.9401C106.151 91.7137 106.337 91.555 106.54 91.5846H106.541L106.546 91.5854V91.5861Z" fill="white"/>
<path d="M107.986 91.778L108.419 91.8212H108.424C108.626 91.8418 108.775 92.0408 108.758 92.2664C108.74 92.492 108.562 92.6583 108.36 92.6386L107.917 92.596C107.715 92.5763 107.565 92.3773 107.582 92.1517C107.6 91.9253 107.778 91.7582 107.981 91.778H107.982H107.987H107.986Z" fill="white"/>
<path d="M109.43 91.8949L109.864 91.9154H109.87C110.071 91.9252 110.228 92.1151 110.219 92.3392C110.211 92.5641 110.042 92.7388 109.84 92.7296L109.395 92.7107C109.193 92.7023 109.036 92.5124 109.044 92.2868C109.052 92.0612 109.222 91.8858 109.424 91.8949H109.425H109.431H109.43Z" fill="white"/>
<path d="M110.878 91.9345L111.313 91.9307H111.318C111.518 91.9292 111.682 92.1092 111.684 92.3325C111.685 92.5558 111.525 92.7389 111.325 92.7404L110.879 92.7457C110.678 92.748 110.514 92.5687 110.512 92.3446C110.51 92.1206 110.67 91.9367 110.871 91.9345H110.872H110.878Z" fill="white"/>
<path d="M112.325 91.8929L112.758 91.8641H112.763C112.962 91.8504 113.133 92.0198 113.144 92.2416C113.156 92.4634 113.005 92.654 112.807 92.6669L112.362 92.6981C112.163 92.7117 111.991 92.5431 111.979 92.3206C111.967 92.098 112.118 91.9066 112.317 91.8929H112.319H112.324H112.325Z" fill="white"/>
<path d="M113.767 91.7676L114.198 91.7137H114.204C114.401 91.6879 114.579 91.8459 114.6 92.0654C114.623 92.2849 114.482 92.4824 114.285 92.5075L113.843 92.5644C113.646 92.5903 113.468 92.4323 113.445 92.2127C113.422 91.9932 113.563 91.7942 113.76 91.7684H113.761L113.767 91.7676Z" fill="white"/>
<path d="M115.201 91.5563L115.629 91.4757H115.635C115.829 91.4378 116.013 91.5836 116.045 91.8001C116.078 92.0166 115.949 92.2216 115.755 92.2581L115.315 92.3424C115.121 92.3796 114.937 92.2346 114.903 92.0173C114.869 91.8008 114.999 91.595 115.194 91.557H115.195L115.201 91.5555L115.201 91.5563Z" fill="white"/>
<path d="M116.62 91.2561L117.043 91.1483L117.049 91.1467C117.24 91.0981 117.429 91.2311 117.473 91.4437C117.517 91.6564 117.398 91.8676 117.208 91.9162L116.773 92.0286C116.583 92.078 116.392 91.9451 116.348 91.7324C116.304 91.5197 116.423 91.307 116.613 91.2576H116.615L116.621 91.2561H116.62Z" fill="white"/>
<path d="M118.023 90.8652L118.439 90.73L118.445 90.7277C118.631 90.6669 118.827 90.787 118.88 90.9951C118.935 91.2032 118.829 91.4204 118.642 91.4812L118.215 91.6217C118.028 91.6833 117.832 91.564 117.777 91.3559C117.722 91.1478 117.829 90.929 118.015 90.8675H118.017L118.023 90.8652Z" fill="white"/>
<path d="M119.4 90.3827L119.807 90.2186L119.813 90.2156C119.995 90.1426 120.195 90.2475 120.261 90.4503C120.326 90.6531 120.233 90.8756 120.052 90.9493L119.632 91.1202C119.45 91.1939 119.249 91.0898 119.183 90.887C119.117 90.6842 119.211 90.4601 119.392 90.3865H119.393L119.4 90.3834V90.3827Z" fill="white"/>
<path d="M120.745 89.7995L121.141 89.6051L121.147 89.602C121.322 89.5162 121.527 89.6051 121.604 89.8011C121.681 89.997 121.602 90.2249 121.427 90.3115L121.019 90.5135C120.843 90.6001 120.638 90.512 120.56 90.3161C120.483 90.1201 120.561 89.8907 120.737 89.8041H120.738L120.744 89.8003L120.745 89.7995Z" fill="white"/>
<path d="M122.052 89.1183L122.436 88.895L122.442 88.8912C122.611 88.7932 122.819 88.8661 122.907 89.0552C122.995 89.2436 122.93 89.4761 122.761 89.574L122.366 89.8057C122.197 89.9045 121.988 89.8315 121.9 89.6432C121.811 89.4548 121.877 89.2216 122.045 89.1228H122.046L122.052 89.119L122.052 89.1183Z" fill="white"/>
<path d="M123.317 88.343L123.688 88.0924L123.693 88.0886C123.855 87.9792 124.065 88.0369 124.163 88.2177C124.261 88.3985 124.21 88.6332 124.048 88.7426L123.667 89.0016C123.505 89.1117 123.294 89.0547 123.196 88.874C123.097 88.6932 123.148 88.4577 123.31 88.3476H123.311L123.316 88.343H123.317Z" fill="white"/>
<path d="M124.534 87.4772L124.89 87.2007L124.895 87.1962C125.05 87.0762 125.261 87.1187 125.369 87.2904C125.476 87.4628 125.439 87.699 125.285 87.8183L124.92 88.1046C124.765 88.2254 124.553 88.1836 124.445 88.0112C124.336 87.8388 124.374 87.6018 124.528 87.481L124.534 87.4765V87.4772Z" fill="white"/>
<path d="M125.702 86.5285L126.042 86.2285L126.047 86.2239C126.192 86.0963 126.401 86.1237 126.516 86.2847C126.63 86.445 126.607 86.6781 126.464 86.8065L126.117 87.1195C125.972 87.2494 125.761 87.2243 125.644 87.0633C125.527 86.9022 125.55 86.666 125.694 86.5354L125.697 86.5331L125.702 86.5285H125.702Z" fill="white"/>
<path d="M126.814 85.5001L127.136 85.1757L127.141 85.1712C127.275 85.036 127.482 85.0481 127.603 85.1977C127.723 85.3466 127.713 85.576 127.581 85.7112L127.253 86.0485C127.118 86.186 126.91 86.1761 126.787 86.0265C126.664 85.8768 126.673 85.6444 126.807 85.5069L126.809 85.5046L126.814 85.5001H126.814Z" fill="white"/>
<path d="M127.864 84.3926L128.166 84.0455L128.171 84.0402C128.294 83.8982 128.498 83.8951 128.624 84.0334C128.75 84.1701 128.754 84.3949 128.632 84.537L128.324 84.897C128.201 85.0406 127.997 85.0459 127.868 84.9092C127.74 84.7717 127.735 84.5438 127.857 84.4002L127.859 84.398L127.864 84.3926Z" fill="white"/>
<path d="M128.847 83.2111L129.127 82.8427L129.131 82.8374C129.243 82.6901 129.441 82.6718 129.573 82.7972C129.705 82.9217 129.721 83.1413 129.611 83.2886L129.325 83.6707C129.214 83.8203 129.014 83.8401 128.88 83.7155C128.746 83.5909 128.728 83.3684 128.84 83.2187L128.842 83.2165L128.846 83.2111H128.847Z" fill="white"/>
<path d="M129.757 81.9579L130.014 81.569L130.018 81.5629C130.119 81.411 130.311 81.3783 130.447 81.4907C130.583 81.6024 130.612 81.8151 130.514 81.967L130.253 82.3703C130.153 82.5245 129.959 82.5595 129.821 82.4478C129.683 82.3362 129.652 82.1204 129.752 81.9662L129.753 81.964L129.757 81.9579H129.757Z" fill="white"/>
<path d="M130.585 80.638L130.817 80.2294L130.82 80.2233C130.909 80.0668 131.094 80.0205 131.234 80.1193C131.374 80.218 131.415 80.4231 131.329 80.5788L131.094 81.0019C131.006 81.1599 130.819 81.2092 130.677 81.1105C130.536 81.0125 130.491 80.8044 130.58 80.6456L130.581 80.6434L130.585 80.6373V80.638Z" fill="white"/>
<path d="M131.325 79.2543L131.529 78.8274L131.532 78.8206C131.609 78.661 131.786 78.601 131.93 78.6861C132.072 78.7704 132.126 78.9679 132.052 79.1267L131.845 79.5687C131.769 79.7305 131.591 79.7928 131.446 79.7085C131.301 79.6242 131.245 79.4252 131.321 79.2634L131.322 79.2604L131.326 79.2535L131.325 79.2543Z" fill="white"/>
<path d="M131.971 77.8132L132.145 77.3704L132.148 77.3635C132.211 77.2017 132.381 77.1281 132.526 77.1987C132.67 77.2693 132.736 77.4562 132.674 77.6172L132.498 78.0752C132.436 78.2386 132.266 78.3145 132.119 78.2446C131.973 78.1748 131.905 77.9849 131.968 77.8216L131.969 77.8185L131.972 77.8117L131.971 77.8132Z" fill="white"/>
<path d="M132.513 76.321L132.655 75.8645L132.657 75.8569C132.707 75.6936 132.867 75.607 133.012 75.664C133.157 75.7202 133.235 75.8964 133.186 76.059L133.044 76.5314C132.994 76.6963 132.834 76.7851 132.687 76.7297C132.539 76.6742 132.459 76.4957 132.509 76.3309V76.3279L132.512 76.3203L132.513 76.321Z" fill="white"/>
<path d="M132.946 74.7845L133.053 74.3166L133.055 74.309C133.092 74.1456 133.241 74.0469 133.387 74.0887C133.533 74.1297 133.62 74.2945 133.585 74.4571L133.479 74.9417C133.443 75.1065 133.294 75.2075 133.146 75.1665C132.998 75.1263 132.908 74.9599 132.945 74.7951V74.7921L132.947 74.7845H132.946Z" fill="white"/>
<path d="M133.261 73.2131L133.331 72.7368L133.333 72.7292C133.356 72.5674 133.494 72.4573 133.639 72.4846C133.783 72.5112 133.881 72.6631 133.859 72.8242L133.79 73.3171C133.767 73.4804 133.63 73.5929 133.483 73.567C133.337 73.5412 133.236 73.3885 133.259 73.2245V73.2214L133.261 73.2138V73.2131Z" fill="white"/>
<path d="M133.451 71.6175L133.485 71.136V71.1284C133.496 70.9696 133.621 70.8503 133.763 70.8633C133.904 70.8754 134.01 71.0121 134.001 71.1694L133.973 71.6669C133.963 71.8279 133.839 71.9502 133.695 71.9396C133.551 71.929 133.441 71.7907 133.451 71.6297C133.451 71.6289 133.451 71.6282 133.451 71.6274V71.6183L133.451 71.6175Z" fill="white"/>
<path d="M133.513 70.0131L133.501 69.5316V69.5225C133.497 69.3698 133.605 69.2429 133.741 69.2384C133.877 69.2346 133.99 69.3523 133.995 69.5027L134.014 70.0025C134.02 70.1567 133.913 70.2874 133.774 70.2942C133.636 70.301 133.519 70.181 133.513 70.0261C133.513 70.0253 133.513 70.0245 133.513 70.023V70.0124V70.0131Z" fill="white"/>
<path d="M133.419 68.4096L133.36 67.9319L133.359 67.9235C133.341 67.7792 133.431 67.6463 133.561 67.6265C133.689 67.6068 133.807 67.7063 133.826 67.8483L133.893 68.342C133.913 68.4879 133.823 68.6246 133.691 68.6466C133.561 68.6687 133.438 68.5684 133.419 68.4218C133.419 68.421 133.419 68.4203 133.419 68.4195L133.417 68.4096H133.419Z" fill="white"/>
<path d="M133.171 66.8263L133.067 66.3576L133.065 66.3493C133.035 66.2148 133.109 66.0781 133.23 66.0447C133.35 66.0112 133.471 66.0918 133.502 66.2247L133.616 66.707C133.648 66.8437 133.576 66.9828 133.454 67.0192C133.332 67.0549 133.207 66.9736 133.174 66.8377C133.174 66.8369 133.174 66.8362 133.174 66.8354L133.172 66.8263H133.171Z" fill="white"/>
<path d="M132.77 65.283L132.619 64.831L132.616 64.8227C132.575 64.6989 132.631 64.5614 132.742 64.515C132.852 64.4695 132.974 64.531 133.016 64.6518L133.179 65.1166C133.222 65.242 133.167 65.3825 133.056 65.4311C132.943 65.4797 132.818 65.4182 132.774 65.2936C132.774 65.2936 132.774 65.2921 132.773 65.2913L132.77 65.2822V65.283Z" fill="white"/>
<path d="M132.209 63.8035L132.009 63.3766L132.005 63.3682C131.952 63.2573 131.991 63.1198 132.091 63.0621C132.189 63.0044 132.31 63.0462 132.363 63.1548L132.577 63.5938C132.632 63.7055 132.595 63.846 132.494 63.9068C132.394 63.9675 132.268 63.9265 132.214 63.8141C132.214 63.8141 132.214 63.8126 132.213 63.8118L132.209 63.8027V63.8035Z" fill="white"/>
<path d="M131.481 62.4191L131.229 62.0286L131.224 62.0203C131.162 61.9238 131.181 61.7901 131.267 61.721C131.352 61.6527 131.471 61.6732 131.534 61.7673L131.801 62.1692C131.866 62.2656 131.848 62.4024 131.761 62.4745C131.675 62.5467 131.552 62.5262 131.488 62.4297C131.488 62.4297 131.487 62.4282 131.486 62.4282L131.481 62.4191Z" fill="white"/>
<path d="M130.58 61.1731L130.276 60.8335L130.269 60.8259C130.198 60.7469 130.198 60.6193 130.269 60.5411C130.338 60.4636 130.451 60.4629 130.522 60.5388L130.845 60.8875C130.919 60.9665 130.921 61.0971 130.85 61.1784C130.779 61.2604 130.662 61.2627 130.589 61.1837C130.589 61.1837 130.588 61.1829 130.588 61.1822L130.581 61.1738L130.58 61.1731Z" fill="white"/>
<path d="M129.506 60.1164L129.151 59.8445L129.143 59.8384C129.068 59.7807 129.049 59.6652 129.1 59.5809C129.151 59.4981 129.253 59.4761 129.328 59.5316L129.704 59.8073C129.782 59.865 129.804 59.9827 129.752 60.0709C129.701 60.1582 129.595 60.1825 129.516 60.1248C129.515 60.1248 129.515 60.124 129.514 60.1233L129.505 60.1164H129.506Z" fill="white"/>
<path d="M128.273 59.3039L127.877 59.1155L127.868 59.1117C127.791 59.0752 127.756 58.9765 127.789 58.8906C127.821 58.8063 127.908 58.7661 127.984 58.8003L128.4 58.9871C128.48 59.0228 128.519 59.1238 128.487 59.2127C128.455 59.3016 128.364 59.3449 128.285 59.3092C128.284 59.3092 128.283 59.3092 128.283 59.3084L128.273 59.3039Z" fill="white"/>
<path d="M56.8639 54.3676C56.7379 52.8349 55.3919 51.6961 53.8575 51.8241C52.3231 51.9521 51.1812 53.2984 51.3072 54.8312C51.4331 56.3639 52.7791 57.5027 54.3135 57.3747C55.848 57.2467 56.9898 55.9003 56.8639 54.3676Z" fill="#643480"/>
<path d="M56.6582 55.3959C57.1002 53.9754 56.3065 52.4676 54.8852 52.028C53.464 51.5884 51.9535 52.3835 51.5114 53.804C51.0693 55.2245 51.8631 56.7323 53.2843 57.1719C54.7056 57.6115 56.2161 56.8164 56.6582 55.3959Z" fill="#643480"/>
<path opacity="0.58" d="M51.7559 55.361C51.7459 55.3703 51.7335 55.3776 51.7196 55.3815C51.6718 55.3955 51.6218 55.368 51.6081 55.3202C51.3361 54.3804 51.6126 53.3822 52.3299 52.7156C52.4443 52.6091 52.5686 52.513 52.6989 52.4294C52.7408 52.4025 52.7964 52.4147 52.8233 52.4566C52.8501 52.4985 52.8382 52.5543 52.7958 52.5809C52.6746 52.6585 52.559 52.7482 52.4524 52.8472C51.7854 53.4673 51.5282 54.3957 51.7811 55.2698C51.791 55.3035 51.78 55.3383 51.7558 55.3608L51.7559 55.361Z" fill="#857CA1"/>
<path opacity="0.78" d="M56.3455 55.2759C56.7197 54.0736 56.0478 52.7972 54.8448 52.4251C53.6418 52.053 52.3633 52.7261 51.9891 53.9284C51.6149 55.1308 52.2867 56.4071 53.4897 56.7792C54.6927 57.1513 55.9713 56.4782 56.3455 55.2759Z" fill="#8F66A7"/>
<path d="M55.1583 55.9937L54.9893 55.8124C54.7928 55.9809 54.5637 56.1108 54.3765 56.1763C54.3096 56.1998 54.2359 56.169 54.2029 56.1064L54.0918 55.8944C54.0509 55.8168 54.0887 55.7218 54.1711 55.6915C54.3547 55.624 54.5583 55.5161 54.7344 55.3526C54.9169 55.1829 54.9956 54.9945 54.8777 54.868C54.7713 54.7539 54.6029 54.7837 54.2859 54.9518C53.832 55.1895 53.4254 55.2737 53.1294 54.9558C52.862 54.6688 52.8683 54.254 53.1786 53.856L53.0097 53.6747C52.9553 53.6163 52.9588 53.5249 53.0173 53.4705L53.1242 53.3711C53.1827 53.3167 53.2742 53.3201 53.3285 53.3784L53.4802 53.5414C53.662 53.3854 53.8175 53.2966 53.952 53.2379C54.0209 53.2079 54.1012 53.2374 54.1361 53.3038L54.2392 53.4995C54.2789 53.5751 54.245 53.668 54.166 53.7003C54.04 53.7519 53.874 53.8378 53.7026 53.9971C53.4862 54.1985 53.5075 54.3455 53.5824 54.4257C53.6745 54.5245 53.8676 54.4714 54.2297 54.2963C54.744 54.0427 55.0663 54.0542 55.3451 54.3534C55.6009 54.6281 55.6268 55.0649 55.2884 55.4949L55.4774 55.698C55.5317 55.7564 55.5283 55.8478 55.4698 55.9022L55.3629 56.0016C55.3044 56.0559 55.2129 56.0526 55.1586 55.9943L55.1583 55.9937Z" fill="#643480"/>
<path d="M59.5908 46.4226C60.3371 44.0246 58.9971 41.479 56.5978 40.7369C54.1985 39.9948 51.6484 41.3372 50.9021 43.7352C50.1558 46.1332 51.4958 48.6788 53.8951 49.4209C56.2944 50.163 58.8445 48.8206 59.5908 46.4226Z" fill="#643480"/>
<path d="M59.4466 46.378C60.1682 44.0597 58.8727 41.5987 56.5531 40.8812C54.2335 40.1637 51.7682 41.4615 51.0467 43.7798C50.3251 46.0982 51.6206 48.5592 53.9402 49.2766C56.2598 49.9941 58.7251 48.6963 59.4466 46.378Z" fill="#643480"/>
<path opacity="0.58" d="M51.4029 46.2761C51.3936 46.2848 51.3821 46.2915 51.3689 46.2954C51.324 46.3086 51.2772 46.2827 51.2644 46.2379C50.8273 44.7269 51.2718 43.1223 52.4247 42.0503C52.6087 41.8793 52.8084 41.7244 53.0183 41.5904C53.0575 41.5652 53.1098 41.5765 53.135 41.6159C53.1602 41.655 53.149 41.7076 53.1092 41.7324C52.908 41.8612 52.7165 42.0097 52.5399 42.1739C51.4339 43.2021 51.0075 44.7414 51.4267 46.1908C51.436 46.2224 51.4258 46.2552 51.4032 46.2762L51.4029 46.2761Z" fill="#857CA1"/>
<path opacity="0.78" d="M58.9366 46.1833C59.5473 44.2212 58.4508 42.1384 56.4877 41.5312C54.5245 40.924 52.438 42.0223 51.8274 43.9844C51.2167 45.9465 52.3131 48.0294 54.2763 48.6366C56.2395 49.2438 58.326 48.1454 58.9366 46.1833Z" fill="#8F66A7"/>
<path d="M56.9983 47.3551L56.7227 47.0592C56.4018 47.3343 56.0282 47.546 55.7225 47.6531C55.6132 47.6913 55.4928 47.6413 55.4392 47.5389L55.2577 47.1932C55.191 47.0665 55.2526 46.9116 55.3874 46.8619C55.6869 46.7516 56.0193 46.5754 56.3064 46.3087C56.6044 46.0318 56.7325 45.7244 56.5403 45.5179C56.3667 45.3315 56.0919 45.3803 55.5746 45.6546C54.8337 46.0427 54.1703 46.1801 53.6871 45.6612C53.2508 45.1927 53.2611 44.5158 53.7677 43.8662L53.4921 43.5703C53.4033 43.475 53.4087 43.3258 53.5043 43.2371L53.6787 43.075C53.7742 42.9862 53.9235 42.9914 54.0122 43.0868L54.2597 43.3525C54.5565 43.0979 54.8104 42.953 55.0296 42.8571C55.142 42.808 55.273 42.856 55.3301 42.9644L55.4982 43.2839C55.563 43.407 55.5078 43.5588 55.3788 43.6117C55.1731 43.6956 54.9022 43.8361 54.6225 44.0961C54.2691 44.4246 54.304 44.6647 54.4262 44.7956C54.5764 44.9567 54.8916 44.8704 55.4824 44.5844C56.3218 44.1706 56.8478 44.189 57.3029 44.6776C57.7205 45.1259 57.7626 45.8388 57.2101 46.5405L57.5187 46.8718C57.6075 46.967 57.602 47.1162 57.5064 47.2049L57.332 47.367C57.2365 47.4558 57.0872 47.4506 56.9986 47.3552L56.9983 47.3551Z" fill="#643480"/>
<path d="M68.9328 51.7516C69.7008 49.284 68.3219 46.6646 65.853 45.901C63.3841 45.1373 60.7601 46.5186 59.9921 48.9862C59.2241 51.4537 60.603 54.0732 63.0719 54.8368C65.5408 55.6004 68.1648 54.2191 68.9328 51.7516Z" fill="#643480"/>
<path d="M68.7833 51.7057C69.5257 49.3203 68.1927 46.788 65.806 46.0498C63.4192 45.3116 60.8826 46.6469 60.1401 49.0323C59.3977 51.4178 60.7307 53.95 63.1175 54.6882C65.5042 55.4265 68.0409 54.0911 68.7833 51.7057Z" fill="#643480"/>
<path opacity="0.58" d="M60.5061 51.5992C60.4968 51.6079 60.4853 51.6146 60.4721 51.6185C60.4272 51.6316 60.3804 51.6057 60.3676 51.561C59.9179 50.0071 60.3752 48.3569 61.561 47.2545C61.7503 47.0785 61.9555 46.9193 62.1713 46.7814C62.2105 46.7562 62.2628 46.7675 62.2881 46.8069C62.3132 46.8461 62.3021 46.8984 62.2623 46.9234C62.055 47.0561 61.8579 47.209 61.6761 47.3778C60.5374 48.4366 60.0982 50.0213 60.53 51.5136C60.5392 51.5452 60.529 51.578 60.5064 51.599L60.5061 51.5992Z" fill="#857CA1"/>
<path opacity="0.78" d="M68.0111 48.625C67.047 46.7451 64.7389 46.0042 62.8558 46.9701C60.9727 47.9359 60.2278 50.2428 61.1918 52.1226C62.1559 54.0025 64.464 54.7434 66.3471 53.7775C68.2302 52.8117 68.9752 50.5048 68.0111 48.625Z" fill="#8F66A7"/>
<path d="M66.2648 52.7114L65.9811 52.4069C65.651 52.69 65.2663 52.9077 64.9518 53.018C64.8395 53.0574 64.7155 53.0059 64.6603 52.9005L64.4737 52.5446C64.405 52.4142 64.4686 52.2547 64.6069 52.2038C64.9151 52.0904 65.2574 51.909 65.5526 51.6345C65.8591 51.3495 65.9911 51.0334 65.7932 50.8206C65.6147 50.6289 65.3317 50.679 64.7994 50.9611C64.0372 51.3604 63.3544 51.5018 62.8572 50.968C62.4082 50.4859 62.4186 49.7894 62.9401 49.1208L62.6563 48.8162C62.5651 48.7182 62.5707 48.5646 62.669 48.4733L62.8483 48.3065C62.9465 48.2152 63.1002 48.2206 63.1914 48.3186L63.4462 48.5922C63.7517 48.3301 64.0127 48.1811 64.2384 48.0825C64.3541 48.0321 64.489 48.0814 64.5476 48.1928L64.7207 48.5216C64.7874 48.6482 64.7306 48.8044 64.5979 48.8588C64.3862 48.9454 64.1075 49.0898 63.8196 49.3574C63.456 49.6955 63.492 49.9425 63.6176 50.0773C63.772 50.2431 64.0964 50.1543 64.7045 49.8599C65.5683 49.434 66.1095 49.4532 66.5778 49.9559C67.0075 50.4171 67.0508 51.1506 66.4823 51.8726L66.7997 52.2135C66.8909 52.3115 66.8854 52.4651 66.7871 52.5564L66.6078 52.7232C66.5095 52.8145 66.3559 52.8091 66.2646 52.7111L66.2648 52.7114Z" fill="#643480"/>
<path d="M65.7428 43.6361C67.3725 42.3622 67.6617 40.0111 66.3889 38.3849C65.116 36.7587 62.7631 36.4731 61.1334 37.747C59.5037 39.021 59.2145 41.372 60.4873 42.9982C61.7602 44.6245 64.1131 44.9101 65.7428 43.6361Z" fill="#643480"/>
<path d="M65.1214 43.8881C66.891 42.9566 67.5717 40.7694 66.6418 39.0029C65.7119 37.2364 63.5235 36.5595 61.7539 37.491C59.9843 38.4226 59.3036 40.6098 60.2335 42.3763C61.1634 44.1428 63.3518 44.8196 65.1214 43.8881Z" fill="#643480"/>
<path opacity="0.58" d="M60.2912 41.6905C60.2809 41.6999 60.2683 41.7073 60.254 41.7115C60.2051 41.7255 60.1538 41.6975 60.1398 41.6486C59.7775 40.3968 60.146 39.0676 61.1012 38.1795C61.2534 38.0379 61.4187 37.9099 61.5928 37.7985C61.6356 37.771 61.6928 37.7835 61.7201 37.8263C61.7474 37.8691 61.7357 37.9263 61.6921 37.9535C61.5275 38.059 61.3708 38.1803 61.2268 38.3143C60.3229 39.1547 59.9744 40.4125 60.317 41.5971C60.327 41.6316 60.3158 41.6673 60.2911 41.6903L60.2912 41.6905Z" fill="#857CA1"/>
<path opacity="0.78" d="M66.4746 41.5978C66.9772 39.983 66.0748 38.2689 64.4592 37.7691C62.8435 37.2694 61.1264 38.1733 60.6238 39.7881C60.1213 41.4029 61.0236 43.117 62.6393 43.6168C64.2549 44.1165 65.9721 43.2126 66.4746 41.5978Z" fill="#8F66A7"/>
<path d="M64.8798 42.5619L64.6531 42.3183C64.3891 42.5447 64.0815 42.719 63.83 42.8071C63.7402 42.8387 63.6411 42.7974 63.597 42.7132L63.4477 42.4286C63.3928 42.3243 63.4436 42.1968 63.5544 42.1561C63.8009 42.0654 64.0746 41.9204 64.3106 41.7008C64.5558 41.4729 64.6614 41.22 64.503 41.0501C64.3602 40.8968 64.1339 40.9367 63.7083 41.1625C63.0985 41.4818 62.5527 41.5949 62.1548 41.1679C61.7958 40.7824 61.8043 40.2254 62.221 39.6908L61.9942 39.447C61.9212 39.3687 61.9257 39.2458 62.0042 39.1727L62.1476 39.0393C62.2261 38.9663 62.3492 38.9706 62.4222 39.049L62.6259 39.2677C62.8702 39.0581 63.0789 38.9389 63.2594 38.8601C63.3518 38.8198 63.4597 38.8593 63.5067 38.9485L63.6451 39.2114C63.6984 39.3127 63.6529 39.4376 63.5469 39.4811C63.3775 39.5502 63.1548 39.6658 62.9244 39.8797C62.6335 40.1501 62.6625 40.3476 62.7627 40.4555C62.8863 40.5882 63.1458 40.5171 63.632 40.2817C64.3228 39.9411 64.7557 39.9563 65.1302 40.3585C65.4739 40.7275 65.5086 41.314 65.0538 41.8915L65.3078 42.1641C65.3808 42.2424 65.3762 42.3654 65.2977 42.4384L65.1543 42.5718C65.0758 42.6448 64.9527 42.6405 64.8797 42.5621L64.8798 42.5619Z" fill="#643480"/>
</svg>
