<svg width="99" height="100" viewBox="0 0 99 100" fill="none" xmlns="http://www.w3.org/2000/svg">
<path d="M71.1341 56.3501C71.1341 56.3501 70.8444 44.1802 76.4515 40.923C82.0582 37.6658 92.7192 35.6293 93.1187 18.1542C93.3526 7.92356 93.606 3.45063 93.7755 1.5002C93.8417 0.739236 93.1655 0.125071 92.4148 0.266469C87.1046 1.26669 69.854 5.38307 66.2371 17.154C61.9493 31.1089 71.1337 56.3501 71.1337 56.3501H71.1341Z" fill="#CEB3E2"/>
<path d="M88.3072 5.12801C82.4781 10.3252 75.7381 19.5233 72.1453 28.7214C71.6843 30.2372 70.3354 33.4609 69.7495 39.1888C69.2262 43.9658 69.4864 49.0136 70.1209 52.355C70.1609 52.5662 70.3649 52.7051 70.5762 52.6648C70.9397 52.5957 70.8911 52.2053 70.8879 52.2176C70.1634 46.5088 70.4639 39.4029 72.1241 32.9917C74.2449 25.1191 78.9757 17.4865 83.8687 11.0131L84.3722 10.3756C88.1633 5.50831 88.9612 5.47269 88.6067 5.13341C88.5228 5.05317 88.3918 5.05245 88.3069 5.12801H88.3072Z" fill="#8F66A7"/>
<path d="M64.127 78.6718C63.3684 79.0438 71.3086 69.0614 73.7958 53.3838C74.968 45.9962 74.9831 36.7398 79.1928 33.1729C82.6963 30.2042 94.618 32.0784 98.5188 32.7908C99.0061 32.8796 99.1702 33.4952 98.7909 33.814C96.9202 35.3845 92.9186 39.0893 91.876 42.8228C90.5016 47.7441 85.8216 50.8743 81.6321 51.7212C77.4422 52.5682 75.1116 53.3903 73.0707 60.0889C71.0297 66.7875 66.2828 77.6155 64.127 78.6718Z" fill="#8F66A7"/>
<path d="M93.033 34.8701C88.0561 35.0784 82.7138 37.348 80.0028 41.6054L79.7469 42.0116C79.156 42.9644 75.8065 49.736 73.9462 55.3495C73.9232 55.4193 73.961 55.4948 74.0311 55.5182C74.1499 55.5574 74.2096 55.4268 74.1981 55.4383C75.4941 52.2671 77.3558 48.2468 78.8382 45.24C80.4282 41.9591 81.5406 39.7374 85.1672 37.6092C89.2037 35.3173 93.0596 35.0813 93.0481 35.0838C93.1071 35.0777 93.1499 35.0252 93.1438 34.9665C93.1381 34.9101 93.0888 34.8683 93.033 34.8705V34.8701Z" fill="#81589F"/>
<path d="M19.084 23.6222C19.084 20.4787 21.6327 17.9307 24.7771 17.9307H73.1917C75.8628 17.9307 78.0649 20.0232 78.201 22.69L81.7747 92.8627C81.8808 94.9495 80.2376 96.71 78.1481 96.7478L22.6588 97.7559C20.6952 97.7915 19.084 96.2099 19.084 94.2465V23.6222Z" fill="#3B2C68"/>
<path d="M30.7688 96.5636H30.767L24.5581 96.4834C22.4819 96.4564 20.793 94.7459 20.793 92.6703V83.2984C20.793 83.225 20.8524 83.166 20.9254 83.166C20.9985 83.166 21.0578 83.2254 21.0578 83.2984V92.6703C21.0578 94.6016 22.6295 96.1934 24.5614 96.2182L30.7702 96.2984C30.8433 96.2991 30.9019 96.3596 30.9012 96.4326C30.9001 96.5053 30.8411 96.5636 30.7688 96.5636Z" fill="#CEB3E2"/>
<path d="M20.9254 80.5285C20.8524 80.5285 20.793 80.4691 20.793 80.3961V78.8785C20.793 78.8051 20.8524 78.7461 20.9254 78.7461C20.9985 78.7461 21.0578 78.8055 21.0578 78.8785V80.3961C21.0578 80.4695 20.9985 80.5285 20.9254 80.5285Z" fill="#7B4C97"/>
<path d="M23.0498 19.0109C23.0441 18.0053 23.9287 17.2267 24.9256 17.362C31.5371 18.2582 54.2721 21.0304 73.0691 19.588C73.9264 19.5222 74.6703 20.1716 74.716 21.0297L78.4632 91.5155C78.5146 92.4819 77.7765 93.3083 76.8098 93.3655C68.9041 93.8333 36.346 95.6412 24.733 94.4255C24.0262 94.3513 23.4896 93.7566 23.4857 93.046L23.0502 19.0109H23.0498Z" fill="#7B4C97"/>
<path d="M23.8295 20.7772C23.8237 19.8094 24.6752 19.0603 25.6343 19.1905C31.9968 20.053 53.8756 22.7208 71.9651 21.3327C72.79 21.2694 73.5058 21.8944 73.5497 22.7201L77.1558 90.5517C77.2051 91.4817 76.4947 92.2772 75.5647 92.3323C67.9567 92.7824 36.6246 94.5223 25.449 93.3523C24.7688 93.2811 24.2523 92.7086 24.2484 92.025L23.8291 20.7776L23.8295 20.7772Z" fill="white"/>
<path d="M30.0967 51.9332C31.0803 51.858 32.9222 51.8227 33.936 51.8087C34.3658 51.8026 34.7426 52.0936 34.8433 52.5114C35.0391 53.3223 35.309 54.7306 35.2748 56.2226C35.2648 56.6695 34.8984 57.026 34.4514 57.0214L30.71 56.9811C30.2501 56.976 29.8678 56.6245 29.825 56.1665L29.4961 52.6477C29.4619 52.2836 29.7322 51.9612 30.0967 51.9335V51.9332Z" fill="#7B4C97"/>
<path d="M50.4805 51.9332C51.4641 51.858 53.306 51.8227 54.3198 51.8087C54.7495 51.8026 55.1264 52.0936 55.2271 52.5114C55.4229 53.3223 55.6928 54.7306 55.6586 56.2226C55.6486 56.6695 55.2822 57.026 54.8352 57.0214L51.0938 56.9811C50.6338 56.976 50.2516 56.6245 50.2088 56.1665L49.8799 52.6477C49.8457 52.2836 50.116 51.9612 50.4805 51.9335V51.9332Z" fill="#3B2C68"/>
<path opacity="0.78" d="M29.7195 26.0071L30.3953 40.5495C30.4177 41.0331 30.8085 41.4177 31.2929 41.4313C33.987 41.5073 42.3815 41.712 47.1216 41.4648C47.6578 41.4367 48.0818 41.0032 48.0998 40.4667C48.1901 37.7395 48.388 29.8018 47.7662 26.4834C47.6657 25.9473 47.2047 25.5548 46.6599 25.5357L30.7365 24.9791C30.1625 24.959 29.6932 25.4332 29.7198 26.0071H29.7195Z" fill="#3B2C68"/>
<g opacity="0.6">
<path d="M69.5827 27.2731C69.8804 27.2731 70.1175 27.0536 70.11 26.7852C70.1021 26.5168 69.8523 26.293 69.5547 26.2876L52.0417 25.9757C51.7441 25.9703 51.5814 26.1959 51.6804 26.4765L51.7811 26.7625C51.8801 27.0432 52.2047 27.2731 52.5024 27.2731H69.5835H69.5827Z" fill="#3B2C68"/>
</g>
<g opacity="0.6">
<path d="M52.0407 28.6866C51.7431 28.6812 51.5804 28.9068 51.6794 29.1874L51.7802 29.4735C51.8791 29.7541 52.2037 29.984 52.5014 29.984H69.5825C69.8801 29.984 70.1173 29.7646 70.1097 29.4962C70.1018 29.2277 69.852 29.004 69.5544 28.9986L52.0414 28.6866H52.0407Z" fill="#3B2C68"/>
</g>
<g opacity="0.6">
<path d="M52.0407 31.4366C51.7431 31.4312 51.5804 31.6568 51.6794 31.9374L51.7802 32.2235C51.8791 32.5041 52.2037 32.734 52.5014 32.734H69.5825C69.8801 32.734 70.1173 32.5146 70.1097 32.2462C70.1018 31.9777 69.852 31.754 69.5544 31.7486L52.0414 31.4366H52.0407Z" fill="#3B2C68"/>
</g>
<g opacity="0.6">
<path d="M71.2785 45.9981C71.5761 45.9981 71.8053 45.7787 71.7877 45.5103C71.7701 45.2419 71.512 45.0206 71.2141 45.0181L30.255 44.6953C29.9573 44.6928 29.8656 44.8817 30.0509 45.1145L30.4176 45.5747C30.603 45.8075 30.9985 45.9981 31.2961 45.9981H71.2785Z" fill="#3B2C68"/>
</g>
<g opacity="0.6">
<path d="M30.255 47.4073C29.9573 47.4047 29.8656 47.5936 30.0509 47.8264L30.4176 48.2866C30.603 48.5194 30.9985 48.7101 31.2961 48.7101H71.2785C71.5761 48.7101 71.8053 48.4906 71.7877 48.2222C71.7701 47.9538 71.512 47.7325 71.2141 47.73L30.255 47.4073Z" fill="#3B2C68"/>
</g>
<g opacity="0.6">
<path d="M36.9897 53.3774C36.6921 53.3649 36.4851 53.5958 36.5294 53.8901L36.6277 54.5446C36.6719 54.8389 36.9516 55.0796 37.2495 55.0796H46.3882C46.6859 55.0796 46.9266 54.836 46.9227 54.5385L46.9201 54.333C46.9165 54.0355 46.67 53.7818 46.3724 53.7693L36.9897 53.3771V53.3774Z" fill="#3B2C68"/>
</g>
<g opacity="0.6">
<path d="M57.3725 53.3774C57.0749 53.3649 56.8679 53.5958 56.9122 53.8901L57.0105 54.5446C57.0547 54.8389 57.3344 55.0796 57.6324 55.0796H66.771C67.0687 55.0796 67.3094 54.836 67.3055 54.5385L67.303 54.333C67.2994 54.0355 67.0528 53.7818 66.7552 53.7693L57.3725 53.3771V53.3774Z" fill="#3B2C68"/>
</g>
<g opacity="0.6">
<path d="M28.9501 63.9717C29.0782 64.3505 29.5201 64.6135 30.0229 64.6099L71.0065 64.3376C71.47 64.3343 71.8411 64.0364 71.831 63.6752C71.8213 63.324 71.4542 63.043 71.0032 63.0412L30.0186 62.8955C29.2952 62.893 28.7655 63.4259 28.9501 63.9709V63.9717Z" fill="#3B2C68"/>
</g>
<g opacity="0.6">
<path d="M28.9501 71.3691C29.0782 71.748 29.5201 72.011 30.0229 72.0074L71.0065 71.735C71.47 71.7318 71.8411 71.4339 71.831 71.0726C71.8213 70.7215 71.4542 70.4405 71.0032 70.4387L30.0186 70.293C29.2952 70.2905 28.7655 70.8233 28.9501 71.3684V71.3691Z" fill="#3B2C68"/>
</g>
<g opacity="0.6">
<path d="M28.9501 78.7666C29.0782 79.1454 29.5201 79.4084 30.0229 79.4048L71.0065 79.1325C71.47 79.1292 71.8411 78.8313 71.831 78.4701C71.8213 78.1189 71.4542 77.838 71.0032 77.8362L30.0186 77.6904C29.2952 77.6879 28.7655 78.2208 28.9501 78.7659V78.7666Z" fill="#3B2C68"/>
</g>
<g opacity="0.6">
<path d="M28.9501 86.164C29.0782 86.5429 29.5201 86.8059 30.0229 86.8023L71.0065 86.5299C71.47 86.5267 71.8411 86.2288 71.831 85.8676C71.8213 85.5164 71.4542 85.2354 71.0032 85.2336L30.0186 85.0879C29.2952 85.0854 28.7655 85.6182 28.9501 86.1633V86.164Z" fill="#3B2C68"/>
</g>
<path d="M51.9866 8.36299C50.2379 7.14654 48.7174 7.17064 47.6467 7.48654C46.6703 7.77473 46.0373 8.71703 46.1301 9.73056L46.5918 14.768L52.0852 15.2555C52.0852 15.2555 55.4163 10.7484 51.9866 8.36299ZM49.571 12.4268C48.8145 12.4268 48.2013 11.8138 48.2013 11.0575C48.2013 10.3012 48.8145 9.68811 49.571 9.68811C50.3275 9.68811 50.9408 10.3012 50.9408 11.0575C50.9408 11.8138 50.3275 12.4268 49.571 12.4268Z" fill="#3B2C68"/>
<path d="M47.1408 12.6498C47.0731 12.6498 47.0152 12.598 47.0091 12.5292L46.9356 11.7269C46.9288 11.6539 46.9828 11.5895 47.0555 11.583C47.13 11.5762 47.193 11.6301 47.1994 11.7028L47.2729 12.5051C47.2797 12.5782 47.2257 12.6426 47.153 12.6491C47.1487 12.6494 47.1447 12.6494 47.1408 12.6494V12.6498ZM46.9968 11.0778C46.9292 11.0778 46.8712 11.026 46.8651 10.9573L46.8093 10.3482C46.7208 9.3825 47.3286 8.48374 48.2543 8.2103C48.91 8.01673 49.5855 7.98903 50.2621 8.12791C50.3337 8.14266 50.3801 8.21282 50.3654 8.28441C50.3506 8.35601 50.2812 8.40171 50.2088 8.38768C49.5751 8.25815 48.9428 8.2837 48.3295 8.46467C47.5248 8.70213 46.9965 9.48432 47.0735 10.3241L47.1293 10.9332C47.1361 11.0062 47.0821 11.0706 47.0094 11.0771C47.0051 11.0775 47.0011 11.0775 46.9972 11.0775L46.9968 11.0778Z" fill="#CEB3E2"/>
<path d="M39.0951 18.0234V15.4908C39.0951 14.6165 39.8199 13.9164 40.6937 13.9462L58.1595 14.5446C58.9347 14.5712 59.5624 15.1828 59.6088 15.9568L59.7549 18.3904L39.0947 18.0238L39.0951 18.0234Z" fill="#3B2C68"/>
<path d="M45.6072 14.9005H44.8561C44.783 14.9005 44.7236 14.8412 44.7236 14.7681C44.7236 14.6951 44.783 14.6357 44.8561 14.6357H45.6072C45.6802 14.6357 45.7396 14.6951 45.7396 14.7681C45.7396 14.8412 45.6802 14.9005 45.6072 14.9005Z" fill="#CEB3E2"/>
<path d="M40.0406 17.2284C39.9676 17.2284 39.9082 17.169 39.9082 17.096V16.0713C39.9082 15.2798 40.5524 14.6357 41.3442 14.6357H44.1056C44.1787 14.6357 44.238 14.6951 44.238 14.7681C44.238 14.8412 44.1787 14.9005 44.1056 14.9005H41.3442C40.6985 14.9005 40.1731 15.4258 40.1731 16.071V17.0956C40.1731 17.169 40.1137 17.228 40.0406 17.228V17.2284Z" fill="#CEB3E2"/>
<path d="M31.9789 18.663C32.021 17.7858 32.7448 17.0964 33.6229 17.0964L64.1653 17.0957C65.2637 17.0957 66.2023 17.8858 66.3898 18.9677L66.4157 19.117C66.6209 20.3018 65.7082 21.3859 64.5054 21.3859H33.1705C32.4508 21.3859 31.8771 20.7839 31.9116 20.0651L31.9789 18.663Z" fill="#643480"/>
<path d="M45.2362 87.8359H1.32812V98.0663H45.2362V87.8359Z" fill="#3B2C68"/>
<path d="M0.413086 93.4824H46.0086V97.225C46.0086 97.3275 45.9251 97.411 45.8226 97.411H0.691641C0.537968 97.411 0.413446 97.2861 0.413446 97.1329V93.4828L0.413086 93.4824Z" fill="#643480"/>
<path d="M0.413086 89.0225H46.0086V92.6751C46.0086 92.8273 45.8848 92.951 45.7326 92.951H0.757501C0.567479 92.951 0.413086 92.7967 0.413086 92.6067V89.0225Z" fill="#643480"/>
<path d="M0.697399 87.5492H45.7207C45.8798 87.5492 46.0086 87.678 46.0086 87.837V89.0222H0.413086V87.8331C0.413086 87.6762 0.540487 87.5488 0.697399 87.5488V87.5492Z" fill="#3B2C68"/>
<path d="M87.2459 96.8199C88.0805 95.1039 87.5593 93.1308 86.0819 92.4126C84.6046 91.6945 82.7304 92.5033 81.8958 94.2192C81.0613 95.9352 81.5824 97.9083 83.0598 98.6265C84.5372 99.3446 86.4114 98.5358 87.2459 96.8199Z" fill="#643480"/>
<path d="M81.3935 92.0522L79.8806 95.163C79.8263 95.2747 79.8728 95.4093 79.9845 95.4636L81.8782 96.3841C81.99 96.4384 82.1246 96.3919 82.1789 96.2802L83.6918 93.1694C83.7462 93.0577 83.6996 92.9231 83.5879 92.8688L81.6942 91.9483C81.5825 91.894 81.4479 91.9405 81.3935 92.0522Z" fill="#3B2C68"/>
<path d="M81.7539 91.6745C81.4825 93.0672 80.8639 94.311 79.9235 95.417C79.4153 96.0147 78.6002 96.2823 77.7893 96.1197C70.0384 94.564 53.794 84.5265 38.0186 75.7584C36.9731 75.1773 36.2505 74.5182 36.7432 73.505L37.8311 71.2682C38.3206 70.2615 39.4924 70.8281 40.5922 71.28C57.2792 78.1341 74.9782 84.1084 81.0543 89.6363C81.6373 90.1666 81.8971 90.9394 81.7539 91.6745Z" fill="#643480"/>
<path d="M40.3617 68.9823L36.6682 76.5757C36.616 76.6829 36.4868 76.7276 36.3795 76.6754L34.4311 75.728C34.3238 75.6759 34.2792 75.5467 34.3314 75.4395L38.0249 67.8461C38.0771 67.7389 38.2063 67.6943 38.3136 67.7464L40.262 68.6938C40.3693 68.7459 40.4139 68.8751 40.3617 68.9823Z" fill="#3B2C68"/>
<path d="M23.9437 61.4013L20.2502 68.9947C20.198 69.1019 20.0688 69.1465 19.9616 69.0943L18.0131 68.147C17.9059 68.0948 17.8612 67.9657 17.9134 67.8584L21.607 60.265C21.6592 60.1578 21.7884 60.1132 21.8956 60.1654L23.844 61.1127C23.9513 61.1649 23.9959 61.294 23.9437 61.4013Z" fill="#643480"/>
<path d="M25.7217 53.6576L14.0518 77.6523L30.3124 85.5565L41.9823 61.5617L25.7217 53.6576Z" fill="#643480"/>
<path d="M14.6669 76.3867L13.1992 79.4043L29.4599 87.3084L30.9275 84.2908L14.6669 76.3867Z" fill="#3B2C68"/>
<path d="M30.1217 85.9499L29.3922 87.4495C29.1691 87.9079 28.6469 88.1382 28.1578 87.9928C23.0891 86.4878 18.1834 84.143 13.4635 80.8409C13.0503 80.5516 12.9081 80.0044 13.1288 79.551L13.8611 78.0449L30.1213 85.9499H30.1217Z" fill="#643480"/>
<path d="M31.7634 83.6882L31.1552 84.9385C31.1008 85.0501 30.9662 85.0968 30.8547 85.0425L13.8308 76.7662C13.7192 76.7119 13.6724 76.5773 13.7268 76.4658L14.335 75.2155C14.3893 75.104 14.5239 75.0572 14.6355 75.1115L31.6594 83.3878C31.7709 83.4421 31.8177 83.5767 31.7634 83.6882Z" fill="#3B2C68"/>
<path d="M31.6664 83.8882L31.2529 84.7384C31.2036 84.8395 31.0816 84.8816 30.9804 84.8326L13.9184 76.538C13.8173 76.4887 13.7752 76.3667 13.8241 76.2656L14.2376 75.4154C14.2869 75.3143 14.4089 75.2722 14.5101 75.3212L31.5721 83.6158C31.6732 83.6651 31.7153 83.7871 31.6664 83.8882Z" fill="#643480"/>
<path d="M42.0773 61.375L43.5449 58.3574L27.2843 50.4533L25.8166 53.4709L42.0773 61.375Z" fill="#3B2C68"/>
<path d="M42.8819 59.7168L43.6114 58.2171C43.8345 57.7588 43.6927 57.2058 43.2767 56.9111C38.9627 53.8547 34.0884 51.4451 28.5759 49.7728C28.0933 49.6264 27.5751 49.8527 27.3544 50.3064L26.6221 51.8125L42.8823 59.7175L42.8819 59.7168Z" fill="#643480"/>
<path d="M42.1162 62.4044L42.7244 61.1541C42.7787 61.0426 42.7323 60.908 42.6204 60.8537L25.5965 52.5774C25.4849 52.5231 25.3503 52.5695 25.296 52.6814L24.6878 53.9317C24.6334 54.0432 24.6798 54.1778 24.7918 54.2321L41.8157 62.5084C41.9272 62.5627 42.0618 62.5163 42.1162 62.4044Z" fill="#3B2C68"/>
<path d="M42.213 62.2048L42.6266 61.3542C42.6759 61.2531 42.6338 61.1312 42.5323 61.0819L25.4702 52.7872C25.3691 52.7379 25.2471 52.78 25.1978 52.8815L24.7843 53.7317C24.735 53.8328 24.7771 53.9547 24.8786 54.004L41.9406 62.2987C42.0417 62.348 42.1637 62.3059 42.213 62.2044V62.2048Z" fill="#643480"/>
</svg>
