<svg width="82" height="82" viewBox="0 0 82 82" fill="none" xmlns="http://www.w3.org/2000/svg">
<path d="M35.309 61.2623C35.309 61.2623 29.3024 24.7973 12.4382 4.05839C11.3046 2.66433 8.99217 3.03054 8.36494 4.70891C4.1714 15.9313 -4.90112 50.199 35.309 61.2623Z" fill="#D9C0E8"/>
<path opacity="0.5" d="M31.7537 58.7144C31.8384 58.8059 31.7061 58.9337 31.609 58.8542C28.0318 55.921 14.4294 41.7548 11.1412 15.0059C11.1306 14.9199 11.2638 14.8956 11.2821 14.9804C12.6306 21.2174 18.3418 44.2613 31.7537 58.7144Z" fill="#C3A7DC"/>
<path d="M69.6649 24.8649C68.9621 23.4083 68.4593 21.8832 68.3419 20.2229C68.0464 16.0393 70.4912 12.1867 72.2876 8.58486C73.9384 5.27433 75.1652 0.341294 69.5952 0.780338C65.1576 1.13017 59.9405 5.5291 59.3453 10.1164C58.641 15.5455 61.2981 22.3918 58.1476 27.3234C53.7406 34.2226 50.5615 32.6414 50.5615 44.2838C50.5615 49.2584 53.3315 52.0026 56.5047 53.514C61.5128 55.8996 67.4845 54.9355 71.4745 51.0944C74.9997 47.7011 77.0957 42.8228 76.3867 37.9251C75.6707 32.9786 71.7704 29.2276 69.6652 24.8649H69.6649Z" fill="#643480"/>
<path d="M65.9417 62.2965C65.872 62.2965 65.8088 62.2497 65.7912 62.1795C63.0306 51.2183 61.5276 41.2821 61.3247 32.6465C61.1621 25.7318 61.8279 19.6296 63.3034 14.5094C65.8235 5.76419 69.7759 2.9553 69.9432 2.84005C70.0135 2.7915 70.1103 2.80875 70.1594 2.87895C70.2082 2.94886 70.1908 3.04509 70.1206 3.09394C70.0803 3.12173 66.0755 5.97713 63.5904 14.6355C61.2936 22.638 59.8633 37.3696 66.0929 62.1044C66.1137 62.1871 66.0632 62.2711 65.9799 62.2919C65.9673 62.2951 65.9547 62.2965 65.942 62.2965H65.9417Z" fill="#6A3E93"/>
<path d="M74.0868 12.591C73.8721 12.5331 73.6366 12.515 73.3855 12.5437C71.9972 12.7025 71.427 14.1586 71.0192 15.2973C70.6698 16.2722 70.2582 17.4559 70.4646 18.5121C70.6875 19.6541 71.9069 20.5857 72.7918 19.4262C73.7974 18.1082 75.3065 16.0847 75.3156 14.3379C75.3201 13.4697 74.8302 12.7914 74.0868 12.5907V12.591Z" fill="#3B2C68"/>
<path d="M81.8544 51.371C82.4646 47.3716 81.0034 42.7802 80.2741 38.5509C79.8886 36.3148 79.7101 34.0956 80.0712 31.8427C80.4303 29.6027 81.4883 27.1802 80.5126 24.9487C78.5468 20.453 73.874 22.499 71.1972 25.8836C68.0911 29.8113 67.2418 36.2291 66.0621 41.1712C65.3508 44.1506 64.2795 47.2064 63.9043 50.2422C63.2827 55.2715 64.426 58.7634 66.8446 61.1212C69.1644 63.3829 72.6975 63.852 75.5354 62.2798C78.099 60.8597 80.8699 57.8227 81.8544 51.371Z" fill="#8F66A7"/>
<path d="M71.1646 69.9203C71.0938 69.9203 71.0314 69.8694 71.0191 69.7977C71.0088 69.7372 69.9928 63.6391 69.9663 55.2233C69.9416 47.4536 70.7791 36.0603 74.908 25.9053C74.9385 25.8301 75.0247 25.7938 75.1003 25.8242C75.1758 25.8547 75.2123 25.9404 75.1817 26.0155C71.0717 36.1244 70.2375 47.4749 70.2616 55.2165C70.2877 63.6099 71.2999 69.6884 71.3102 69.7489C71.3237 69.8288 71.2693 69.9048 71.189 69.9183C71.1808 69.9197 71.1726 69.9203 71.1643 69.9203H71.1646Z" fill="#704787"/>
<path d="M76.1167 46.8936H60.2861V77.2625H76.1167V46.8936Z" fill="#7B4C97"/>
<g opacity="0.89">
<path d="M72.7387 55.1426H63.7585C63.7403 55.1426 63.7256 55.1572 63.7256 55.1753V68.982C63.7256 69.0001 63.7403 69.0148 63.7585 69.0148H72.7387C72.7569 69.0148 72.7716 69.0001 72.7716 68.982V55.1753C72.7716 55.1572 72.7569 55.1426 72.7387 55.1426Z" fill="#3B2C68"/>
<path d="M72.0946 55.8926H68.6188C68.6087 55.8926 68.6006 55.9007 68.6006 55.9107V68.247C68.6006 68.257 68.6087 68.2651 68.6188 68.2651H72.0946C72.1046 68.2651 72.1128 68.257 72.1128 68.247V55.9107C72.1128 55.9007 72.1046 55.8926 72.0946 55.8926Z" fill="#E5CEF2"/>
<path d="M67.8787 55.8926H64.403C64.3929 55.8926 64.3848 55.9007 64.3848 55.9107V68.247C64.3848 68.257 64.3929 68.2651 64.403 68.2651H67.8787C67.8888 68.2651 67.897 68.257 67.897 68.247V55.9107C67.897 55.9007 67.8888 55.8926 67.8787 55.8926Z" fill="#E5CEF2"/>
</g>
<path d="M79.0971 49.2922H59.5344L58.7363 35.2849L74.9088 34.9795L79.8681 48.0915C80.1292 48.6516 79.7181 49.2919 79.0974 49.2919L79.0971 49.2922Z" fill="#3B2C68"/>
<path d="M74.975 35.6231L59.4297 35.4502L59.5273 33.8848L74.0569 33.995C74.618 34.0296 75.0461 34.4826 75.0135 35.0068L74.975 35.6231Z" fill="#3B2C68"/>
<path d="M20.5376 46.7881H4.70703V77.1571H20.5376V46.7881Z" fill="#7B4C97"/>
<g opacity="0.89">
<path d="M8.08453 68.9092H17.0647C17.0829 68.9092 17.0977 68.8945 17.0977 68.8764V55.0698C17.0977 55.0517 17.0829 55.037 17.0647 55.037H8.08453C8.06634 55.037 8.0516 55.0517 8.0516 55.0698L8.0516 68.8764C8.0516 68.8945 8.06634 68.9092 8.08453 68.9092Z" fill="#3B2C68"/>
<path d="M8.72965 68.1592H12.2054C12.2155 68.1592 12.2236 68.1511 12.2236 68.141L12.2236 55.8048C12.2236 55.7948 12.2155 55.7867 12.2054 55.7867H8.72965C8.71959 55.7867 8.71142 55.7948 8.71142 55.8048L8.71142 68.141C8.71142 68.1511 8.71959 68.1592 8.72965 68.1592Z" fill="#E5CEF2"/>
<path d="M12.9455 68.1592H16.4212C16.4313 68.1592 16.4395 68.1511 16.4395 68.141V55.8048C16.4395 55.7948 16.4313 55.7867 16.4212 55.7867H12.9455C12.9354 55.7867 12.9272 55.7948 12.9272 55.8048L12.9272 68.141C12.9272 68.1511 12.9354 68.1592 12.9455 68.1592Z" fill="#E5CEF2"/>
</g>
<path d="M1.72587 49.1867H21.2886L22.0866 35.1794L5.91412 34.874L0.954858 47.986C0.693736 48.5461 1.10483 49.1864 1.72558 49.1864L1.72587 49.1867Z" fill="#3B2C68"/>
<path d="M5.84789 35.5176L21.3932 35.3448L21.2956 33.7793L6.76593 33.8896C6.20487 33.9241 5.77673 34.3772 5.80937 34.9013L5.84789 35.5176Z" fill="#3B2C68"/>
<path d="M18.3496 44.969V78.5166H61.5427C61.9811 78.5166 62.3366 78.163 62.3366 77.7266V44.9688H18.3496V44.969Z" fill="#8F66A7"/>
<path d="M44.5141 76.3151H35.5371V59.2442C35.5371 59.0517 35.6941 58.8955 35.8876 58.8955H44.1635C44.357 58.8955 44.5141 59.0517 44.5141 59.2442V76.3151Z" fill="#3B2C68"/>
<path d="M36.2728 59.6963H43.7177C43.7707 59.6963 43.814 59.7434 43.814 59.801V75.8953H36.1768V59.801C36.1768 59.7434 36.22 59.6963 36.2731 59.6963H36.2728Z" fill="#CDB0DD"/>
<path d="M43.8801 57.7234H36.1708C35.8209 57.7234 35.5371 57.4411 35.5371 57.0928V56.542C35.5371 56.2109 35.7947 55.9359 36.127 55.9131L43.836 55.3805C44.2024 55.355 44.5138 55.644 44.5138 56.0093V57.0928C44.5138 57.4408 44.23 57.7234 43.8798 57.7234H43.8801Z" fill="#3B2C68"/>
<path d="M44.4532 77.3942H35.703C35.3057 77.3942 34.9834 77.0739 34.9834 76.6784V76.0534C34.9834 75.6775 35.2713 74.6374 35.6483 74.6113L44.4029 74.7348C44.819 74.7061 45.1722 75.034 45.1722 75.4488V76.6784C45.1722 77.0736 44.8502 77.3942 44.4526 77.3942H44.4532Z" fill="#7B4C97"/>
<path d="M44.4766 78.7549H35.7264C35.3291 78.7549 35.0068 78.4346 35.0068 78.0392V77.4141C35.0068 77.0382 35.0895 76.3406 35.4667 76.3146L44.4266 76.0955C44.8427 76.0668 45.1959 76.3947 45.1959 76.8095V78.0392C45.1959 78.4343 44.8739 78.7549 44.4763 78.7549H44.4766Z" fill="#9A71B1"/>
<path d="M60.0005 54.3271H47.3775C47.3265 54.3271 47.2852 54.3683 47.2852 54.419V74.6238C47.2852 74.6746 47.3265 74.7157 47.3775 74.7157H60.0005C60.0514 74.7157 60.0928 74.6746 60.0928 74.6238V54.419C60.0928 54.3683 60.0514 54.3271 60.0005 54.3271Z" fill="#3B2C68"/>
<path d="M59.0684 55.1836H48.2839C48.1244 55.1836 47.9951 55.3122 47.9951 55.4708V73.6764C47.9951 73.8351 48.1244 73.9637 48.2839 73.9637H59.0684C59.2279 73.9637 59.3572 73.8351 59.3572 73.6764V55.4708C59.3572 55.3122 59.2279 55.1836 59.0684 55.1836Z" fill="#E5CEF2"/>
<path d="M53.7685 54.9248H53.1172V74.716H53.7685V54.9248Z" fill="#3B2C68"/>
<path d="M33.2534 54.3271H20.6304C20.5794 54.3271 20.5381 54.3683 20.5381 54.419V74.6238C20.5381 74.6746 20.5794 74.7157 20.6304 74.7157H33.2534C33.3044 74.7157 33.3457 74.6746 33.3457 74.6238V54.419C33.3457 54.3683 33.3044 54.3271 33.2534 54.3271Z" fill="#3B2C68"/>
<path d="M32.3204 55.1836H21.5358C21.3764 55.1836 21.2471 55.3122 21.2471 55.4708V73.6764C21.2471 73.8351 21.3764 73.9637 21.5358 73.9637H32.3204C32.4798 73.9637 32.6091 73.8351 32.6091 73.6764V55.4708C32.6091 55.3122 32.4798 55.1836 32.3204 55.1836Z" fill="#E5CEF2"/>
<path d="M27.0195 54.9248H26.3682V74.716H27.0195V54.9248Z" fill="#3B2C68"/>
<path d="M62.851 26.1862L62.4773 25.9054V25.5143H61.9574L40.3433 9.26465L18.4902 25.5143V44.9504H62.4773V28.1904L62.851 26.1862Z" fill="#8F66A7"/>
<path d="M53.6305 11.1543H49.9922V17.047H53.6305V11.1543Z" fill="#3B2C68"/>
<path d="M49.1283 10.2998H54.5572C54.7077 10.2998 54.8301 10.4215 54.8301 10.5712V12.1095H48.9492V10.4782C48.9492 10.38 49.0295 10.2998 49.1286 10.2998H49.1283Z" fill="#3B2C68"/>
<path d="M17.0188 28.6086L40.3608 10.802L62.5176 27.8975C63.323 28.5188 64.5043 28.0838 64.7083 27.0905L65.0192 25.5786L40.361 6.89355L16.4928 25.0281C16.0655 25.3527 15.9102 25.9222 16.1146 26.4172L17.0191 28.6086H17.0188Z" fill="#3B2C68"/>
<g opacity="0.89">
<path d="M35.6802 42.0703H44.6604C44.6786 42.0703 44.6934 42.0556 44.6934 42.0376V28.2309C44.6934 28.2128 44.6786 28.1981 44.6604 28.1981H35.6802C35.662 28.1981 35.6473 28.2128 35.6473 28.2309V42.0376C35.6473 42.0556 35.662 42.0703 35.6802 42.0703Z" fill="#3B2C68"/>
<path d="M36.3254 41.3203H39.8011C39.8112 41.3203 39.8193 41.3122 39.8193 41.3022V28.9659C39.8193 28.9559 39.8112 28.9478 39.8011 28.9478H36.3254C36.3153 28.9478 36.3071 28.9559 36.3071 28.9659V41.3022C36.3071 41.3122 36.3153 41.3203 36.3254 41.3203Z" fill="#E5CEF2"/>
<path d="M40.5402 41.3203H44.0159C44.026 41.3203 44.0342 41.3122 44.0342 41.3022V28.9659C44.0342 28.9559 44.026 28.9478 44.0159 28.9478H40.5402C40.5301 28.9478 40.522 28.9559 40.522 28.9659V41.3022C40.522 41.3122 40.5301 41.3203 40.5402 41.3203Z" fill="#E5CEF2"/>
</g>
<g opacity="0.89">
<path d="M22.9859 42.1689H31.9661C31.9843 42.1689 31.999 42.1543 31.999 42.1362V28.3295C31.999 28.3114 31.9843 28.2968 31.9661 28.2968H22.9859C22.9677 28.2968 22.953 28.3114 22.953 28.3295V42.1362C22.953 42.1543 22.9677 42.1689 22.9859 42.1689Z" fill="#3B2C68"/>
<path d="M23.631 41.4189H27.1068C27.1168 41.4189 27.125 41.4108 27.125 41.4008V29.0646C27.125 29.0545 27.1168 29.0464 27.1068 29.0464H23.631C23.621 29.0464 23.6128 29.0545 23.6128 29.0646V41.4008C23.6128 41.4108 23.621 41.4189 23.631 41.4189Z" fill="#E5CEF2"/>
<path d="M27.8459 41.4189H31.3216C31.3317 41.4189 31.3398 41.4108 31.3398 41.4008V29.0646C31.3398 29.0545 31.3317 29.0464 31.3216 29.0464H27.8459C27.8358 29.0464 27.8276 29.0545 27.8276 29.0646V41.4008C27.8276 41.4108 27.8358 41.4189 27.8459 41.4189Z" fill="#E5CEF2"/>
</g>
<g opacity="0.89">
<path d="M47.8257 42.2939H56.8059C56.8241 42.2939 56.8389 42.2793 56.8389 42.2612V28.4545C56.8389 28.4364 56.8241 28.4218 56.8059 28.4218H47.8257C47.8076 28.4218 47.7928 28.4364 47.7928 28.4545V42.2612C47.7928 42.2793 47.8076 42.2939 47.8257 42.2939Z" fill="#3B2C68"/>
<path d="M48.4709 41.5449H51.9466C51.9567 41.5449 51.9648 41.5368 51.9648 41.5268V29.1905C51.9648 29.1805 51.9567 29.1724 51.9466 29.1724H48.4709C48.4608 29.1724 48.4526 29.1805 48.4526 29.1905V41.5268C48.4526 41.5368 48.4608 41.5449 48.4709 41.5449Z" fill="#E5CEF2"/>
<path d="M52.6857 41.5449H56.1615C56.1715 41.5449 56.1797 41.5368 56.1797 41.5268V29.1905C56.1797 29.1805 56.1715 29.1724 56.1615 29.1724H52.6857C52.6756 29.1724 52.6675 29.1805 52.6675 29.1905V41.5268C52.6675 41.5368 52.6756 41.5449 52.6857 41.5449Z" fill="#E5CEF2"/>
</g>
<path d="M17.9543 44.5508H62.7333C63.2055 44.5508 63.589 44.9322 63.589 45.402V46.2055C63.589 46.6752 63.2055 47.0566 62.7333 47.0566H17.9543C17.4821 47.0566 17.0986 46.6752 17.0986 46.2055V45.402C17.0986 44.9322 17.4821 44.5508 17.9543 44.5508Z" fill="#7B4C97"/>
<path d="M37.2232 55.8232H9.84534C9.30242 55.8232 8.8623 56.261 8.8623 56.8011V72.5406C8.8623 73.0806 9.30242 73.5184 9.84534 73.5184H37.2232C37.7661 73.5184 38.2062 73.0806 38.2062 72.5406V56.8011C38.2062 56.261 37.7661 55.8232 37.2232 55.8232Z" fill="#643480"/>
<path d="M36.5732 56.6055H10.5592C10.0163 56.6055 9.57617 57.0433 9.57617 57.5833V72.039C9.57617 72.5791 10.0163 73.0169 10.5592 73.0169H36.5732C37.1161 73.0169 37.5562 72.5791 37.5562 72.039V57.5833C37.5562 57.0433 37.1161 56.6055 36.5732 56.6055Z" fill="white"/>
<path d="M14.678 61.064V62.1413H12.8728V64.1526H11.4287V58.9092H14.8224V60.0584H12.8728V61.064H14.678Z" fill="#643480"/>
<path d="M16.1771 59.5598C16.6656 59.0786 17.3239 58.8379 18.152 58.8379C18.9801 58.8379 19.6382 59.0786 20.1269 59.5598C20.6153 60.0409 20.8597 60.6982 20.8597 61.5315C20.8597 62.3649 20.6153 63.0218 20.1269 63.5033C19.6382 63.9845 18.9798 64.2252 18.152 64.2252C17.3242 64.2252 16.6656 63.9845 16.1771 63.5033C15.6884 63.0221 15.4443 62.3649 15.4443 61.5315C15.4443 60.6982 15.6887 60.0412 16.1771 59.5598ZM16.9246 61.5315C16.9246 62.5372 17.3336 63.04 18.1523 63.04C18.971 63.04 19.38 62.5372 19.38 61.5315C19.38 60.5259 18.9707 60.0231 18.1523 60.0231C17.3339 60.0231 16.9246 60.5259 16.9246 61.5315Z" fill="#643480"/>
<path d="M22.9968 62.3213V64.1529H21.5889V58.9455C22.2146 58.8736 22.8404 58.8379 23.4664 58.8379C24.9105 58.8379 25.6327 59.3767 25.6327 60.454C25.6327 60.7555 25.5389 61.0357 25.351 61.2943C25.1634 61.5529 24.9202 61.7372 24.6218 61.8474V61.8618C24.7661 61.9434 24.8864 62.0475 24.9829 62.1742C25.079 62.3011 25.1705 62.4819 25.2572 62.7165L25.7771 64.1529H24.2968L23.849 62.7881C23.7961 62.6205 23.7287 62.5009 23.6467 62.4289C23.5646 62.357 23.4564 62.3213 23.3217 62.3213H22.9968ZM22.9968 61.2797H23.3941C23.6396 61.2797 23.8334 61.2186 23.9754 61.0966C24.1175 60.9746 24.1883 60.8082 24.1883 60.5973C24.1883 60.1424 23.9237 59.9149 23.3941 59.9149C23.24 59.9149 23.1077 59.9269 22.9968 59.9509V61.2797Z" fill="#643480"/>
<path d="M18.5105 69.001V70.8326H17.1025V65.6252C17.7283 65.5533 18.354 65.5176 18.9801 65.5176C20.4242 65.5176 21.1464 66.0564 21.1464 67.1336C21.1464 67.4352 21.0526 67.7154 20.8647 67.974C20.6771 68.2326 20.4339 68.4169 20.1354 68.5271V68.5415C20.2798 68.6231 20.4001 68.7272 20.4965 68.8539C20.5927 68.9808 20.6841 69.1616 20.7709 69.3962L21.2908 70.8326H19.8105L19.3627 69.4678C19.3097 69.3002 19.2424 69.1806 19.1603 69.1086C19.0783 69.0367 18.9701 69.001 18.8354 69.001H18.5105ZM18.5105 67.9594H18.9078C19.1533 67.9594 19.3471 67.8983 19.4891 67.7763C19.6311 67.6543 19.702 67.4879 19.702 67.277C19.702 66.8221 19.4373 66.5946 18.9078 66.5946C18.7537 66.5946 18.6213 66.6066 18.5105 66.6305V67.9594Z" fill="#643480"/>
<path d="M25.3773 67.5991V68.6764H23.4998V69.682H25.5217V70.8313H22.0557V65.5879H25.5217V66.7371H23.4998V67.5991H25.3773Z" fill="#643480"/>
<path d="M29.4859 68.4611H29.5003V65.5879H30.9086V70.8313H29.5003L27.9263 67.958H27.9118V70.8313H26.5039V65.5879H27.9118L29.4859 68.4611Z" fill="#643480"/>
<path d="M36.1146 65.5879V66.7731H34.6849V70.8313H33.2119V66.7731H31.7822V65.5879H36.1149H36.1146Z" fill="#643480"/>
<path d="M34.4114 50.7881H33.618C33.5652 50.7881 33.5225 50.8306 33.5225 50.8831V56.9605C33.5225 57.013 33.5652 57.0555 33.618 57.0555H34.4114C34.4642 57.0555 34.507 57.013 34.507 56.9605V50.8831C34.507 50.8306 34.4642 50.7881 34.4114 50.7881Z" fill="#643480"/>
<path d="M13.5403 50.6895H12.7469C12.6942 50.6895 12.6514 50.732 12.6514 50.7845V56.8618C12.6514 56.9143 12.6942 56.9569 12.7469 56.9569H13.5403C13.5931 56.9569 13.6359 56.9143 13.6359 56.8618V50.7845C13.6359 50.732 13.5931 50.6895 13.5403 50.6895Z" fill="#643480"/>
<path d="M45.4842 48.4697L44.2042 50.433V49.0884L3.08452 49.0582L1.96946 48.535L1.93652 49.0574L3.11804 51.424L44.2042 51.5708L45.5827 48.9921L45.4842 48.4697Z" fill="#44326F"/>
<path d="M44.0077 51.1792L3.31503 51.0484L1.96973 48.535L45.4845 48.4697L44.0077 51.1792Z" fill="#643480"/>
<path d="M7.55293 78.9064H4.59973L4.59473 44.3242L7.55293 46.3808V78.9064Z" fill="#302061"/>
<path d="M7.97999 78.9391H5.02648L5.02148 44.6182L7.97999 46.4135V78.9391Z" fill="#643480"/>
<path d="M6.81132 49.6928C6.88417 49.3857 6.69299 49.0781 6.3843 49.0056C6.07561 48.9331 5.7663 49.1233 5.69344 49.4303C5.62059 49.7374 5.81177 50.0451 6.12046 50.1176C6.42915 50.19 6.73846 49.9999 6.81132 49.6928Z" fill="#3B2C68"/>
<path d="M6.63519 49.7489C6.68514 49.5384 6.55407 49.3275 6.34243 49.2778C6.13078 49.2281 5.91872 49.3585 5.86877 49.569C5.81881 49.7795 5.94989 49.9905 6.16153 50.0402C6.37318 50.0899 6.58524 49.9595 6.63519 49.7489Z" fill="#CEB3E2"/>
<path d="M10.1943 80.2584C10.1943 80.2584 5.3027 83.2896 2.6856 80.684C0.58221 78.59 4.03032 79.9566 7.23024 80.1529C7.48136 80.1684 7.51989 79.7992 7.27082 79.763C4.82486 79.4073 1.15562 78.6444 0.880384 77.2454C0.464882 75.1332 1.20826 75.9903 4.00209 77.0684C6.79621 78.1466 7.55047 77.5979 5.8026 76.6291C4.05443 75.6603 0.796578 75.7887 0.360492 74.6895C-0.075594 73.59 0.0570254 71.6902 0.000566603 70.8411C-0.0558922 69.9919 4.12412 69.9235 4.87573 71.2298C5.62734 72.5361 5.82671 75.0341 6.94412 75.7958C8.06124 76.5574 7.30375 74.1835 6.77945 72.9205C6.25515 71.6574 6.14929 70.7992 7.71573 71.508C9.28187 72.2167 9.57916 74.4479 9.32804 75.9797C9.07662 77.5116 9.41625 78.504 9.59975 77.7628C9.78324 77.0216 10.1587 74.6962 9.82882 73.8717C9.49918 73.0474 12.997 74.9285 10.1946 80.2582L10.1943 80.2584Z" fill="#E5CEF2"/>
<path opacity="0.53" d="M9.87959 80.212C9.86135 80.2135 9.84312 80.2056 9.83254 80.1892C7.43068 76.5034 2.64697 72.9653 2.59875 72.9302C2.57611 72.9135 2.5714 72.8819 2.58816 72.8594C2.60492 72.8369 2.63668 72.8322 2.65932 72.8489C2.70755 72.8842 7.50596 76.4329 9.91781 80.1345C9.9331 80.1579 9.92634 80.1892 9.90282 80.2044C9.89546 80.2091 9.88752 80.2117 9.87959 80.2123V80.212Z" fill="#9578B6"/>
<path d="M13.2046 81.4454C13.2046 81.4454 6.8986 81.6525 5.85353 77.7564C5.01341 74.6252 7.52877 77.7997 10.4535 79.7299C10.6831 79.8814 10.9228 79.5526 10.7066 79.3827C8.58443 77.7125 5.52683 74.9896 6.03672 73.5134C6.80627 71.2848 7.03887 72.5025 9.09315 75.0472C11.1474 77.592 12.1646 77.4832 11.0416 75.6121C9.91856 73.7412 6.75981 72.0871 6.95212 70.8074C7.14414 69.5277 8.31654 67.7994 8.73087 66.9637C9.1452 66.128 13.1447 68.3417 13.1373 69.9893C13.13 71.637 11.9431 74.1133 12.5824 75.4442C13.2217 76.7751 13.8113 74.1121 14.0101 72.6294C14.2088 71.1464 14.5814 70.2754 15.6753 71.8008C16.7692 73.3262 15.822 75.603 14.7402 76.9178C13.6584 78.2326 13.4331 79.3581 14.0154 78.7559C14.5976 78.1536 16.2343 76.1538 16.376 75.1929C16.5175 74.2318 18.7967 77.9214 13.2049 81.4454H13.2046Z" fill="#8F66A7"/>
<path opacity="0.53" d="M12.9322 81.2305C12.9142 81.222 12.9013 81.2045 12.9001 81.1831C12.654 76.3808 10.0689 70.4199 10.0428 70.3606C10.0304 70.3325 10.0434 70.3 10.0716 70.2877C10.0998 70.2757 10.1325 70.2883 10.1448 70.3164C10.171 70.3761 12.7643 76.3548 13.0113 81.1779C13.0127 81.2083 12.9892 81.2343 12.9583 81.2361C12.9489 81.2367 12.9398 81.2346 12.9319 81.2308L12.9322 81.2305Z" fill="#6A3E93"/>
</svg>
