<?xml version="1.0" encoding="utf-8"?>
<!-- Generator: Adobe Illustrator 25.2.1, SVG Export Plug-In . SVG Version: 6.00 Build 0)  -->
<svg version="1.1" id="Layer_1" xmlns="http://www.w3.org/2000/svg" xmlns:xlink="http://www.w3.org/1999/xlink" x="0px" y="0px"
	 viewBox="0 0 318 381" style="enable-background:new 0 0 318 381;" xml:space="preserve">
<style type="text/css">
	.st0{fill:#FFFFFF;}
	.st1{fill:#2B193B;}
	.st2{fill:#71548E;}
	.st3{fill:#976FAE;}
	.st4{fill:#643480;}
	.st5{clip-path:url(#SVGID_2_);}
	.st6{fill:#7B4C97;}
	.st7{fill:none;stroke:#7B4C97;stroke-width:0.91;stroke-linecap:round;stroke-linejoin:round;}
	.st8{fill:none;stroke:#7B4C97;stroke-width:0.76;stroke-linecap:round;stroke-linejoin:round;}
	.st9{fill:#4E196F;}
	.st10{fill:none;stroke:#4E196F;stroke-width:1.21;stroke-miterlimit:10;}
	.st11{fill:#8F66A7;}
	.st12{fill:none;stroke:#F8FDFF;stroke-width:1.21;stroke-miterlimit:10;}
</style>
<g>
	<rect x="8" y="4" class="st0" width="302" height="365"/>
</g>
<path class="st1" d="M35.7,243.1c0.4,0,0.7,0,1-0.1c0.3-0.1,0.5-0.2,0.6-0.3c0.2-0.1,0.3-0.3,0.3-0.4c0.1-0.2,0.1-0.3,0.1-0.5
	c0-0.4-0.2-0.7-0.6-1c-0.4-0.3-1-0.6-2-0.9c-0.4-0.1-0.8-0.3-1.2-0.5c-0.4-0.2-0.8-0.4-1.1-0.7c-0.3-0.3-0.6-0.6-0.8-1
	c-0.2-0.4-0.3-0.9-0.3-1.5c0-0.6,0.1-1.1,0.3-1.5c0.2-0.5,0.5-0.9,0.9-1.2c0.4-0.3,0.9-0.6,1.4-0.7c0.6-0.2,1.2-0.3,1.9-0.3
	c0.8,0,1.6,0.1,2.2,0.3c0.6,0.2,1.1,0.4,1.5,0.6l-0.8,2.2c-0.3-0.2-0.7-0.3-1.2-0.5c-0.4-0.1-0.9-0.2-1.5-0.2
	c-0.7,0-1.2,0.1-1.5,0.3c-0.3,0.2-0.4,0.5-0.4,0.8c0,0.2,0.1,0.4,0.2,0.6c0.1,0.2,0.3,0.3,0.5,0.4c0.2,0.1,0.4,0.2,0.7,0.3
	c0.3,0.1,0.6,0.2,0.9,0.3c0.6,0.2,1.2,0.5,1.7,0.7c0.5,0.2,0.9,0.5,1.2,0.8c0.3,0.3,0.6,0.7,0.7,1.1c0.2,0.4,0.2,0.9,0.2,1.5
	c0,1.2-0.4,2.1-1.2,2.7c-0.8,0.6-2,1-3.7,1c-0.6,0-1.1,0-1.5-0.1c-0.4-0.1-0.8-0.1-1.2-0.2c-0.3-0.1-0.6-0.2-0.9-0.3
	c-0.2-0.1-0.4-0.2-0.6-0.3l0.8-2.2c0.4,0.2,0.8,0.4,1.4,0.6C34.3,243,34.9,243.1,35.7,243.1z M42.5,233.4l2.7-0.4l0,2.8l3.2,0l0,2.2
	l-3.2,0l0,3.3c0,0.6,0.1,1,0.3,1.4c0.2,0.3,0.6,0.5,1.2,0.5c0.3,0,0.6,0,0.9-0.1c0.3-0.1,0.6-0.1,0.8-0.2l0.4,2.1
	c-0.3,0.1-0.7,0.2-1.1,0.3c-0.4,0.1-0.9,0.1-1.5,0.1c-0.7,0-1.3-0.1-1.8-0.3c-0.5-0.2-0.9-0.5-1.2-0.8c-0.3-0.4-0.5-0.8-0.6-1.3
	c-0.1-0.5-0.2-1.1-0.2-1.7L42.5,233.4z M56.3,238.1c-0.2-0.1-0.5-0.1-0.8-0.2c-0.3-0.1-0.7-0.1-1-0.1c-0.2,0-0.4,0-0.6,0.1
	c-0.2,0-0.4,0.1-0.5,0.1l0,7.2l-2.7,0l0-9c0.5-0.2,1-0.3,1.7-0.5c0.7-0.2,1.4-0.2,2.2-0.2c0.1,0,0.3,0,0.5,0c0.2,0,0.4,0,0.6,0.1
	c0.2,0,0.4,0.1,0.6,0.1c0.2,0,0.4,0.1,0.5,0.1L56.3,238.1z M57.6,240.5c0-0.8,0.1-1.6,0.4-2.2c0.3-0.6,0.6-1.2,1-1.6
	c0.4-0.4,0.9-0.7,1.4-1c0.6-0.2,1.1-0.3,1.7-0.3c1.3,0,2.4,0.4,3.2,1.2c0.8,0.8,1.2,2,1.2,3.6c0,0.2,0,0.3,0,0.5c0,0.2,0,0.3,0,0.5
	l-6.1,0c0.1,0.6,0.3,1,0.8,1.3c0.5,0.3,1.1,0.5,1.8,0.5c0.5,0,1,0,1.4-0.1c0.5-0.1,0.9-0.2,1.2-0.3l0.4,2.2
	c-0.1,0.1-0.3,0.1-0.6,0.2c-0.2,0.1-0.5,0.1-0.8,0.2c-0.3,0.1-0.6,0.1-0.9,0.1c-0.3,0-0.7,0.1-1,0.1c-0.9,0-1.6-0.1-2.2-0.4
	c-0.6-0.3-1.1-0.6-1.6-1c-0.4-0.4-0.7-1-0.9-1.6C57.7,241.9,57.6,241.2,57.6,240.5z M63.9,239.5c0-0.2-0.1-0.4-0.1-0.7
	c-0.1-0.2-0.2-0.4-0.3-0.6c-0.1-0.2-0.3-0.3-0.5-0.4c-0.2-0.1-0.5-0.2-0.8-0.2c-0.3,0-0.6,0.1-0.8,0.2c-0.2,0.1-0.4,0.2-0.5,0.4
	c-0.1,0.2-0.3,0.4-0.3,0.6c-0.1,0.2-0.1,0.4-0.2,0.7L63.9,239.5z M68.1,240.5c0-0.8,0.1-1.6,0.4-2.2c0.3-0.6,0.6-1.2,1-1.6
	c0.4-0.4,0.9-0.7,1.4-1c0.6-0.2,1.1-0.3,1.7-0.3c1.3,0,2.4,0.4,3.2,1.2c0.8,0.8,1.2,2,1.2,3.6c0,0.2,0,0.3,0,0.5c0,0.2,0,0.3,0,0.5
	l-6.1,0c0.1,0.6,0.3,1,0.8,1.3c0.5,0.3,1.1,0.5,1.8,0.5c0.5,0,1,0,1.4-0.1c0.5-0.1,0.9-0.2,1.2-0.3l0.4,2.2
	c-0.1,0.1-0.3,0.1-0.6,0.2c-0.2,0.1-0.5,0.1-0.8,0.2c-0.3,0.1-0.6,0.1-0.9,0.1c-0.3,0-0.7,0.1-1,0.1c-0.9,0-1.6-0.1-2.2-0.4
	c-0.6-0.3-1.1-0.6-1.6-1c-0.4-0.4-0.7-1-0.9-1.6C68.2,241.9,68.1,241.2,68.1,240.5z M74.4,239.5c0-0.2-0.1-0.4-0.1-0.7
	c-0.1-0.2-0.2-0.4-0.3-0.6c-0.1-0.2-0.3-0.3-0.5-0.4c-0.2-0.1-0.5-0.2-0.8-0.2c-0.3,0-0.6,0.1-0.8,0.2c-0.2,0.1-0.4,0.2-0.5,0.4
	c-0.1,0.2-0.3,0.4-0.3,0.6c-0.1,0.2-0.1,0.4-0.2,0.7L74.4,239.5z M78.9,233.3l2.7-0.4l0,2.8l3.2,0l0,2.2l-3.2,0l0,3.3
	c0,0.6,0.1,1,0.3,1.4c0.2,0.3,0.6,0.5,1.2,0.5c0.3,0,0.6,0,0.9-0.1c0.3-0.1,0.6-0.1,0.8-0.2l0.4,2.1c-0.3,0.1-0.7,0.2-1.1,0.3
	c-0.4,0.1-0.9,0.1-1.5,0.1c-0.7,0-1.3-0.1-1.8-0.3c-0.5-0.2-0.9-0.5-1.2-0.8c-0.3-0.4-0.5-0.8-0.6-1.3c-0.1-0.5-0.2-1.1-0.2-1.7
	L78.9,233.3z M99.9,245.1c-0.1-0.4-0.3-0.9-0.5-1.3c-0.2-0.5-0.3-0.9-0.5-1.4l-4.9,0c-0.2,0.5-0.3,0.9-0.5,1.4
	c-0.2,0.5-0.3,0.9-0.4,1.3l-2.9,0c0.5-1.3,0.9-2.6,1.3-3.7c0.4-1.1,0.8-2.2,1.2-3.2c0.4-1,0.8-2,1.2-2.9c0.4-0.9,0.8-1.8,1.2-2.7
	l2.7,0c0.4,0.9,0.8,1.8,1.2,2.7c0.4,0.9,0.8,1.9,1.2,2.9c0.4,1,0.8,2.1,1.3,3.2c0.4,1.1,0.9,2.4,1.3,3.7L99.9,245.1z M96.5,235.5
	c-0.1,0.2-0.1,0.4-0.3,0.7c-0.1,0.3-0.3,0.7-0.4,1.1c-0.2,0.4-0.3,0.9-0.5,1.4c-0.2,0.5-0.4,1-0.6,1.5l3.5,0
	c-0.2-0.5-0.4-1.1-0.6-1.5c-0.2-0.5-0.4-0.9-0.5-1.3c-0.2-0.4-0.3-0.8-0.4-1.1C96.7,235.9,96.6,235.7,96.5,235.5z M106.4,240.3
	c0,0.8,0.2,1.5,0.6,2c0.4,0.5,0.9,0.8,1.7,0.8c0.2,0,0.5,0,0.7,0c0.2,0,0.4,0,0.5-0.1l0-4.9c-0.2-0.1-0.4-0.2-0.7-0.3
	c-0.3-0.1-0.5-0.1-0.8-0.1C107.1,237.7,106.4,238.6,106.4,240.3z M112.5,244.8c-0.2,0.1-0.5,0.1-0.8,0.2c-0.3,0.1-0.6,0.1-1,0.2
	c-0.3,0-0.7,0.1-1,0.1c-0.3,0-0.7,0.1-1,0.1c-0.8,0-1.5-0.1-2.1-0.3c-0.6-0.2-1.1-0.6-1.6-1c-0.4-0.4-0.7-0.9-1-1.5
	c-0.2-0.6-0.3-1.3-0.3-2.1c0-0.8,0.1-1.5,0.3-2.1c0.2-0.6,0.5-1.2,0.8-1.6c0.4-0.4,0.8-0.8,1.3-1c0.5-0.2,1.1-0.3,1.8-0.3
	c0.4,0,0.7,0,1,0.1c0.3,0.1,0.6,0.2,0.9,0.3l0-4.3l2.7-0.4L112.5,244.8z M117.3,240.3c0,0.8,0.2,1.5,0.6,2c0.4,0.5,0.9,0.8,1.7,0.8
	c0.2,0,0.5,0,0.7,0c0.2,0,0.4,0,0.5-0.1l0-4.9c-0.2-0.1-0.4-0.2-0.7-0.3c-0.3-0.1-0.5-0.1-0.8-0.1
	C117.9,237.7,117.3,238.6,117.3,240.3z M123.4,244.8c-0.2,0.1-0.5,0.1-0.8,0.2c-0.3,0.1-0.6,0.1-1,0.2c-0.3,0-0.7,0.1-1,0.1
	c-0.3,0-0.7,0.1-1,0.1c-0.8,0-1.5-0.1-2.1-0.3c-0.6-0.2-1.1-0.6-1.6-1c-0.4-0.4-0.7-0.9-1-1.5c-0.2-0.6-0.3-1.3-0.3-2.1
	c0-0.8,0.1-1.5,0.3-2.1c0.2-0.6,0.5-1.2,0.8-1.6c0.4-0.4,0.8-0.8,1.3-1c0.5-0.2,1.1-0.3,1.8-0.3c0.4,0,0.7,0,1,0.1
	c0.3,0.1,0.6,0.2,0.9,0.3l0-4.3l2.7-0.4L123.4,244.8z M131.6,238c-0.2-0.1-0.5-0.1-0.8-0.2c-0.3-0.1-0.7-0.1-1-0.1
	c-0.2,0-0.4,0-0.6,0.1c-0.2,0-0.4,0.1-0.5,0.1l0,7.2l-2.7,0l0-9c0.5-0.2,1-0.3,1.7-0.5c0.7-0.2,1.4-0.2,2.2-0.2c0.1,0,0.3,0,0.5,0
	c0.2,0,0.4,0,0.6,0.1c0.2,0,0.4,0.1,0.6,0.1c0.2,0,0.4,0.1,0.5,0.1L131.6,238z M132.9,240.4c0-0.8,0.1-1.6,0.4-2.2
	c0.3-0.6,0.6-1.2,1-1.6c0.4-0.4,0.9-0.7,1.4-1c0.6-0.2,1.1-0.3,1.7-0.3c1.3,0,2.4,0.4,3.2,1.2c0.8,0.8,1.2,2,1.2,3.6
	c0,0.2,0,0.3,0,0.5c0,0.2,0,0.3,0,0.5l-6.1,0c0.1,0.6,0.3,1,0.8,1.3c0.5,0.3,1.1,0.5,1.8,0.5c0.5,0,1,0,1.4-0.1
	c0.5-0.1,0.9-0.2,1.2-0.3l0.4,2.2c-0.1,0.1-0.3,0.1-0.6,0.2c-0.2,0.1-0.5,0.1-0.8,0.2c-0.3,0.1-0.6,0.1-0.9,0.1
	c-0.3,0-0.7,0.1-1,0.1c-0.9,0-1.6-0.1-2.2-0.4c-0.6-0.3-1.1-0.6-1.6-1c-0.4-0.4-0.7-1-0.9-1.6C133,241.8,132.9,241.1,132.9,240.4z
	 M139.1,239.4c0-0.2-0.1-0.4-0.1-0.7c-0.1-0.2-0.2-0.4-0.3-0.6c-0.1-0.2-0.3-0.3-0.5-0.4c-0.2-0.1-0.5-0.2-0.8-0.2
	c-0.3,0-0.6,0.1-0.8,0.2c-0.2,0.1-0.4,0.2-0.5,0.4c-0.1,0.2-0.3,0.4-0.3,0.6c-0.1,0.2-0.1,0.4-0.2,0.7L139.1,239.4z M146.5,243.1
	c0.5,0,0.8,0,1-0.1c0.2-0.1,0.3-0.3,0.3-0.6c0-0.2-0.1-0.4-0.4-0.6c-0.3-0.2-0.7-0.4-1.2-0.6c-0.4-0.2-0.8-0.3-1.2-0.5
	c-0.3-0.2-0.6-0.4-0.9-0.6c-0.2-0.2-0.4-0.5-0.6-0.8c-0.1-0.3-0.2-0.7-0.2-1.2c0-0.9,0.3-1.6,1-2.1c0.7-0.5,1.6-0.8,2.7-0.8
	c0.6,0,1.1,0.1,1.7,0.2c0.5,0.1,0.9,0.2,1.3,0.3l-0.5,2.1c-0.3-0.1-0.7-0.2-1-0.3c-0.4-0.1-0.8-0.1-1.2-0.1c-0.8,0-1.3,0.2-1.3,0.7
	c0,0.1,0,0.2,0.1,0.3c0,0.1,0.1,0.2,0.2,0.3c0.1,0.1,0.3,0.2,0.4,0.3c0.2,0.1,0.4,0.2,0.7,0.3c0.6,0.2,1.1,0.4,1.5,0.6
	c0.4,0.2,0.7,0.4,0.9,0.7c0.2,0.2,0.4,0.5,0.5,0.8c0.1,0.3,0.1,0.6,0.1,1c0,0.9-0.3,1.6-1.1,2.1c-0.7,0.5-1.7,0.7-3,0.7
	c-0.8,0-1.5-0.1-2.1-0.2c-0.6-0.1-0.9-0.3-1.2-0.4l0.4-2.2c0.5,0.2,0.9,0.3,1.4,0.4C145.6,243.1,146.1,243.1,146.5,243.1z
	 M155.3,243.1c0.5,0,0.8,0,1-0.1c0.2-0.1,0.3-0.3,0.3-0.6c0-0.2-0.1-0.4-0.4-0.6c-0.3-0.2-0.7-0.4-1.2-0.6c-0.4-0.2-0.8-0.3-1.2-0.5
	c-0.3-0.2-0.6-0.4-0.9-0.6c-0.2-0.2-0.4-0.5-0.6-0.8c-0.1-0.3-0.2-0.7-0.2-1.2c0-0.9,0.3-1.6,1-2.1c0.7-0.5,1.6-0.8,2.7-0.8
	c0.6,0,1.1,0.1,1.7,0.2c0.5,0.1,0.9,0.2,1.3,0.3l-0.5,2.1c-0.3-0.1-0.7-0.2-1-0.3c-0.4-0.1-0.8-0.1-1.2-0.1c-0.8,0-1.3,0.2-1.3,0.7
	c0,0.1,0,0.2,0.1,0.3c0,0.1,0.1,0.2,0.2,0.3c0.1,0.1,0.3,0.2,0.4,0.3c0.2,0.1,0.4,0.2,0.7,0.3c0.6,0.2,1.1,0.4,1.5,0.6
	c0.4,0.2,0.7,0.4,0.9,0.7c0.2,0.2,0.4,0.5,0.5,0.8c0.1,0.3,0.1,0.6,0.1,1c0,0.9-0.3,1.6-1.1,2.1c-0.7,0.5-1.7,0.7-3,0.7
	c-0.8,0-1.5-0.1-2.1-0.2c-0.6-0.1-0.9-0.3-1.2-0.4l0.4-2.2c0.5,0.2,0.9,0.3,1.4,0.4C154.3,243.1,154.8,243.1,155.3,243.1z"/>
<path class="st1" d="M36.9,267.2c-0.7,0-1.4-0.1-2-0.4c-0.6-0.3-1.1-0.6-1.6-1.1c-0.4-0.5-0.8-1.1-1.1-1.8c-0.3-0.7-0.4-1.6-0.4-2.5
	c0-0.9,0.1-1.8,0.4-2.5c0.3-0.7,0.7-1.3,1.1-1.8c0.5-0.5,1-0.9,1.6-1.1c0.6-0.3,1.3-0.4,1.9-0.4c0.4,0,0.8,0,1.1,0.1
	s0.6,0.1,0.9,0.2c0.3,0.1,0.5,0.2,0.7,0.2c0.2,0.1,0.3,0.1,0.4,0.2l-0.3,0.9c-0.3-0.2-0.6-0.3-1-0.5c-0.4-0.2-0.9-0.2-1.5-0.2
	c-0.7,0-1.3,0.1-1.8,0.4c-0.5,0.2-0.9,0.6-1.3,1c-0.4,0.4-0.6,0.9-0.8,1.5c-0.2,0.6-0.3,1.2-0.2,2c0,0.7,0.1,1.4,0.3,2
	c0.2,0.6,0.4,1.1,0.8,1.5c0.3,0.4,0.8,0.7,1.3,1c0.5,0.2,1.1,0.3,1.7,0.3c0.7,0,1.3-0.1,1.8-0.2c0.5-0.1,0.8-0.3,1.1-0.4l0.3,0.9
	c-0.1,0.1-0.2,0.1-0.4,0.2c-0.2,0.1-0.4,0.1-0.7,0.2s-0.6,0.1-1,0.2C37.8,267.1,37.4,267.2,36.9,267.2z M43.1,266.9l-1,0l0-8.3l1,0
	L43.1,266.9z M43.3,256.2c0,0.2-0.1,0.4-0.2,0.6c-0.1,0.1-0.3,0.2-0.5,0.2c-0.2,0-0.4-0.1-0.5-0.2c-0.1-0.1-0.2-0.3-0.2-0.6
	c0-0.2,0.1-0.4,0.2-0.6c0.1-0.1,0.3-0.2,0.5-0.2c0.2,0,0.4,0.1,0.5,0.2C43.2,255.7,43.3,255.9,43.3,256.2z M46.8,258.6l3.3,0l0,0.9
	l-3.3,0l0,4.4c0,0.5,0,0.9,0.1,1.2c0.1,0.3,0.2,0.5,0.4,0.7c0.1,0.2,0.3,0.3,0.5,0.3c0.2,0.1,0.4,0.1,0.7,0.1c0.4,0,0.8,0,1.1-0.1
	c0.3-0.1,0.5-0.2,0.6-0.3l0.3,0.9c-0.1,0.1-0.4,0.2-0.8,0.3c-0.4,0.1-0.8,0.2-1.2,0.2c-0.5,0-0.9-0.1-1.3-0.2
	c-0.3-0.1-0.6-0.3-0.8-0.6c-0.2-0.3-0.3-0.6-0.4-1c-0.1-0.4-0.1-0.9-0.1-1.4l0-7.6l1-0.2L46.8,258.6z M54.3,267.1
	c-0.4-0.7-0.7-1.3-1-2c-0.3-0.7-0.6-1.4-0.9-2.1c-0.3-0.7-0.5-1.4-0.8-2.2c-0.2-0.7-0.4-1.4-0.6-2.1l1.1,0c0.1,0.5,0.3,1.1,0.5,1.7
	c0.2,0.6,0.4,1.2,0.6,1.8c0.2,0.6,0.5,1.3,0.8,1.9c0.3,0.7,0.6,1.3,0.9,1.9c0.2-0.7,0.4-1.3,0.6-1.9c0.2-0.6,0.3-1.2,0.5-1.7
	c0.2-0.6,0.3-1.2,0.4-1.8c0.1-0.6,0.3-1.3,0.5-2l1,0c-0.3,1.5-0.7,3.1-1.2,4.5c-0.4,1.5-0.9,2.8-1.4,4c-0.2,0.5-0.4,0.9-0.6,1.2
	c-0.2,0.4-0.5,0.6-0.7,0.9c-0.3,0.2-0.6,0.4-0.9,0.5c-0.3,0.1-0.7,0.2-1.2,0.2c-0.3,0-0.5,0-0.7-0.1c-0.2-0.1-0.3-0.1-0.4-0.1
	l0.2-0.9c0,0,0.2,0.1,0.4,0.1c0.2,0.1,0.4,0.1,0.6,0.1c0.3,0,0.6,0,0.8-0.1c0.2-0.1,0.5-0.2,0.7-0.3c0.2-0.1,0.4-0.3,0.5-0.6
	C54,267.8,54.1,267.5,54.3,267.1z M60.6,265.4c0,0.1,0,0.2,0,0.3c0,0.1,0,0.1,0,0.2c0,0.7-0.1,1.3-0.3,1.9c-0.2,0.6-0.4,1.2-0.8,1.7
	l-0.8-0.4c0.2-0.5,0.4-1,0.5-1.5c0.1-0.5,0.2-1,0.2-1.6c0-0.1,0-0.2,0-0.3c0-0.1,0-0.2,0-0.3L60.6,265.4z M69.4,266.2
	c0.9,0,1.5-0.2,2-0.5c0.5-0.3,0.7-0.8,0.7-1.5c0-0.4-0.1-0.7-0.2-1c-0.2-0.3-0.4-0.5-0.6-0.7c-0.3-0.2-0.6-0.4-0.9-0.5
	c-0.3-0.1-0.7-0.3-1-0.4c-0.5-0.2-0.9-0.4-1.2-0.6c-0.4-0.2-0.7-0.4-0.9-0.6c-0.3-0.2-0.5-0.5-0.6-0.8c-0.1-0.3-0.2-0.7-0.2-1.1
	c0-1,0.3-1.7,0.9-2.2c0.6-0.5,1.5-0.7,2.6-0.7c0.3,0,0.6,0,0.9,0.1c0.3,0,0.6,0.1,0.8,0.2c0.3,0.1,0.5,0.1,0.7,0.2
	c0.2,0.1,0.4,0.2,0.5,0.3l-0.4,0.9c-0.3-0.2-0.7-0.4-1.1-0.5c-0.4-0.1-0.9-0.2-1.4-0.2c-0.4,0-0.7,0-1,0.1c-0.3,0.1-0.5,0.2-0.8,0.3
	c-0.2,0.1-0.4,0.3-0.5,0.6c-0.1,0.2-0.2,0.5-0.2,0.8c0,0.3,0.1,0.6,0.2,0.9c0.1,0.2,0.3,0.4,0.5,0.6c0.2,0.2,0.5,0.3,0.8,0.5
	c0.3,0.1,0.6,0.3,1,0.4c0.4,0.2,0.8,0.4,1.2,0.5c0.4,0.2,0.7,0.4,1,0.6c0.3,0.2,0.5,0.5,0.7,0.9c0.2,0.4,0.3,0.8,0.3,1.3
	c0,1-0.3,1.8-1,2.3c-0.7,0.5-1.6,0.8-2.8,0.8c-0.4,0-0.8,0-1.2-0.1c-0.4-0.1-0.7-0.1-0.9-0.2c-0.3-0.1-0.5-0.2-0.7-0.3
	c-0.2-0.1-0.3-0.2-0.4-0.2l0.3-0.9c0.1,0.1,0.3,0.1,0.4,0.2c0.2,0.1,0.4,0.2,0.6,0.3c0.2,0.1,0.5,0.1,0.8,0.2
	C68.7,266.2,69.1,266.2,69.4,266.2z M76.2,258.6l3.3,0l0,0.9l-3.3,0l0,4.4c0,0.5,0,0.9,0.1,1.2c0.1,0.3,0.2,0.5,0.4,0.7
	c0.1,0.2,0.3,0.3,0.5,0.3c0.2,0.1,0.4,0.1,0.7,0.1c0.4,0,0.8,0,1.1-0.1c0.3-0.1,0.5-0.2,0.6-0.3l0.3,0.9c-0.1,0.1-0.4,0.2-0.8,0.3
	c-0.4,0.1-0.8,0.2-1.2,0.2c-0.5,0-0.9-0.1-1.3-0.2c-0.3-0.1-0.6-0.3-0.8-0.6c-0.2-0.3-0.3-0.6-0.4-1c-0.1-0.4-0.1-0.9-0.1-1.4l0-7.6
	l1-0.2L76.2,258.6z M84,266.1c0.4,0,0.8,0,1.1,0c0.3,0,0.6-0.1,0.8-0.1l0-2.9c-0.1-0.1-0.3-0.1-0.6-0.2c-0.3-0.1-0.6-0.1-1.1-0.1
	c-0.3,0-0.5,0-0.8,0.1c-0.3,0-0.5,0.1-0.8,0.2c-0.2,0.1-0.4,0.3-0.6,0.5c-0.1,0.2-0.2,0.5-0.2,0.8c0,0.3,0,0.6,0.1,0.8
	c0.1,0.2,0.3,0.4,0.4,0.5c0.2,0.1,0.4,0.2,0.7,0.3C83.4,266.1,83.7,266.1,84,266.1z M83.9,258.4c0.5,0,1,0.1,1.4,0.2
	c0.4,0.1,0.7,0.4,0.9,0.6c0.2,0.3,0.4,0.6,0.5,1c0.1,0.4,0.2,0.8,0.2,1.2l0,5.2c-0.1,0-0.3,0.1-0.5,0.1c-0.2,0-0.4,0.1-0.7,0.1
	c-0.3,0-0.6,0.1-0.9,0.1c-0.3,0-0.7,0-1,0c-0.4,0-0.8,0-1.2-0.1c-0.4-0.1-0.7-0.2-1-0.4c-0.3-0.2-0.5-0.5-0.6-0.8
	c-0.2-0.3-0.2-0.7-0.2-1.2c0-0.4,0.1-0.8,0.3-1.2c0.2-0.3,0.4-0.6,0.7-0.8c0.3-0.2,0.7-0.4,1.1-0.5c0.4-0.1,0.9-0.1,1.4-0.1
	c0.1,0,0.3,0,0.5,0c0.2,0,0.3,0,0.5,0.1c0.2,0,0.3,0,0.4,0.1c0.1,0,0.2,0,0.2,0.1l0-0.5c0-0.3,0-0.6-0.1-0.8c0-0.3-0.1-0.5-0.3-0.7
	c-0.1-0.2-0.3-0.4-0.6-0.5c-0.3-0.1-0.6-0.2-1-0.2c-0.6,0-1.1,0-1.4,0.1c-0.3,0.1-0.5,0.2-0.7,0.2l-0.1-0.9c0.2-0.1,0.5-0.2,0.8-0.2
	C82.9,258.4,83.4,258.4,83.9,258.4z M90.5,258.6l3.3,0l0,0.9l-3.3,0l0,4.4c0,0.5,0,0.9,0.1,1.2c0.1,0.3,0.2,0.5,0.4,0.7
	c0.1,0.2,0.3,0.3,0.5,0.3c0.2,0.1,0.4,0.1,0.7,0.1c0.4,0,0.8,0,1.1-0.1c0.3-0.1,0.5-0.2,0.6-0.3l0.3,0.9c-0.1,0.1-0.4,0.2-0.8,0.3
	c-0.4,0.1-0.8,0.2-1.2,0.2c-0.5,0-0.9-0.1-1.3-0.2c-0.3-0.1-0.6-0.3-0.8-0.6c-0.2-0.3-0.3-0.6-0.4-1c-0.1-0.4-0.1-0.9-0.1-1.4l0-7.6
	l1-0.2L90.5,258.6z M95.3,262.7c0-0.7,0.1-1.4,0.3-1.9c0.2-0.5,0.5-1,0.8-1.4c0.3-0.4,0.7-0.6,1.1-0.8c0.4-0.2,0.9-0.3,1.3-0.3
	c1,0,1.8,0.3,2.4,1c0.6,0.7,0.9,1.7,0.9,3.1c0,0.1,0,0.2,0,0.3c0,0.1,0,0.2,0,0.2l-5.8,0c0,1,0.3,1.8,0.8,2.3
	c0.5,0.5,1.2,0.8,2.2,0.8c0.6,0,1-0.1,1.3-0.2s0.6-0.2,0.7-0.3l0.2,0.9c-0.1,0.1-0.4,0.2-0.8,0.3c-0.4,0.1-0.9,0.2-1.4,0.2
	c-0.7,0-1.3-0.1-1.9-0.3c-0.5-0.2-0.9-0.5-1.3-0.9c-0.3-0.4-0.6-0.8-0.7-1.4C95.3,263.9,95.3,263.3,95.3,262.7z M101.1,262
	c0-0.9-0.2-1.5-0.6-2c-0.4-0.5-0.9-0.7-1.6-0.7c-0.4,0-0.7,0.1-1,0.2c-0.3,0.1-0.5,0.4-0.8,0.6c-0.2,0.2-0.4,0.5-0.5,0.9
	c-0.1,0.3-0.2,0.7-0.2,1L101.1,262z M114.9,256.7c-0.3,0.3-0.6,0.7-0.9,1.1c-0.3,0.4-0.7,0.9-1.1,1.4c-0.4,0.5-0.8,1-1.2,1.6
	c-0.4,0.6-0.8,1.1-1.2,1.7c-0.4,0.6-0.7,1.1-1.1,1.7c-0.3,0.6-0.6,1.1-0.9,1.6l6.5,0l0,0.9l-7.7,0l0-0.8c0.2-0.5,0.5-1,0.8-1.5
	c0.3-0.6,0.7-1.1,1.1-1.7c0.4-0.6,0.8-1.2,1.2-1.8c0.4-0.6,0.8-1.1,1.2-1.7c0.4-0.5,0.8-1,1.1-1.5c0.4-0.5,0.7-0.9,1-1.2l-6.1,0
	l0-0.9l7.2,0L114.9,256.7z M118.2,266.8l-1,0l0-8.3l1,0L118.2,266.8z M118.4,256c0,0.2-0.1,0.4-0.2,0.6c-0.1,0.1-0.3,0.2-0.5,0.2
	c-0.2,0-0.4-0.1-0.5-0.2c-0.1-0.1-0.2-0.3-0.2-0.6c0-0.2,0.1-0.4,0.2-0.6c0.1-0.1,0.3-0.2,0.5-0.2c0.2,0,0.4,0.1,0.5,0.2
	C118.3,255.6,118.4,255.8,118.4,256z M122,265.3c0.1,0.1,0.2,0.2,0.4,0.2c0.2,0.1,0.3,0.2,0.5,0.2s0.4,0.1,0.6,0.2
	c0.2,0,0.5,0.1,0.7,0.1c0.5,0,0.9-0.1,1.3-0.3c0.4-0.2,0.6-0.4,0.8-0.7c0.2-0.3,0.4-0.7,0.5-1.1c0.1-0.4,0.1-0.9,0.1-1.3
	c0-1.1-0.3-1.9-0.8-2.5c-0.5-0.6-1.3-0.9-2.2-0.9c-0.5,0-0.9,0-1.2,0.1c-0.3,0-0.5,0.1-0.7,0.1L122,265.3z M122,269.8l-1,0l0-10.9
	c0.3-0.1,0.7-0.2,1.2-0.3c0.5-0.1,1.1-0.1,1.8-0.1c0.6,0,1.2,0.1,1.6,0.3c0.5,0.2,0.9,0.5,1.3,0.8c0.4,0.4,0.6,0.8,0.8,1.4
	c0.2,0.5,0.3,1.1,0.3,1.8c0,0.6-0.1,1.2-0.2,1.7c-0.2,0.5-0.4,1-0.7,1.4c-0.3,0.4-0.7,0.7-1.2,0.9c-0.5,0.2-1,0.3-1.6,0.3
	c-0.5,0-1-0.1-1.4-0.2c-0.4-0.2-0.7-0.3-0.9-0.4L122,269.8z"/>
<path class="st1" d="M33.8,294.9c0.2,0.3,0.4,0.7,0.6,1.1c0.2,0.4,0.4,0.9,0.7,1.4c0.2,0.5,0.4,1,0.7,1.5c0.2,0.5,0.4,1,0.6,1.4
	c0.2-0.4,0.4-0.9,0.6-1.4c0.2-0.5,0.4-1,0.7-1.5c0.2-0.5,0.4-1,0.7-1.4c0.2-0.4,0.4-0.8,0.6-1.1l1.4,0c0.1,0.6,0.1,1.3,0.2,1.9
	c0.1,0.7,0.1,1.4,0.2,2.1c0.1,0.7,0.1,1.4,0.2,2.2c0.1,0.7,0.1,1.4,0.1,2.1l-1.5,0c0-1-0.1-2-0.1-3c0-1-0.1-2-0.2-3
	c-0.1,0.2-0.2,0.4-0.3,0.7c-0.1,0.3-0.2,0.5-0.4,0.8c-0.1,0.3-0.3,0.6-0.4,0.9c-0.1,0.3-0.3,0.6-0.4,0.9c-0.1,0.3-0.2,0.6-0.4,0.8
	c-0.1,0.3-0.2,0.5-0.3,0.7l-1.1,0c-0.1-0.2-0.2-0.4-0.3-0.7s-0.2-0.5-0.4-0.8c-0.1-0.3-0.3-0.6-0.4-0.9c-0.1-0.3-0.3-0.6-0.4-0.9
	c-0.1-0.3-0.3-0.6-0.4-0.8c-0.1-0.3-0.2-0.5-0.3-0.7c-0.1,1-0.2,2-0.2,3c0,1-0.1,2-0.1,3l-1.5,0c0-0.7,0.1-1.4,0.1-2.1
	c0-0.7,0.1-1.5,0.1-2.2c0.1-0.7,0.1-1.4,0.2-2.1s0.1-1.3,0.2-1.9L33.8,294.9z M42.2,300.1c0-0.6,0.1-1,0.2-1.5
	c0.2-0.4,0.4-0.8,0.7-1c0.3-0.3,0.6-0.5,0.9-0.6c0.4-0.1,0.7-0.2,1.1-0.2c0.9,0,1.5,0.3,2,0.8c0.5,0.5,0.7,1.3,0.7,2.4
	c0,0.1,0,0.2,0,0.3c0,0.1,0,0.2,0,0.3l-4.1,0c0,0.5,0.2,0.9,0.5,1.2c0.3,0.3,0.8,0.4,1.4,0.4c0.4,0,0.7,0,1-0.1
	c0.3-0.1,0.5-0.1,0.7-0.2l0.2,1.2c-0.1,0-0.2,0.1-0.3,0.1c-0.1,0-0.3,0.1-0.5,0.1c-0.2,0-0.4,0.1-0.6,0.1c-0.2,0-0.4,0-0.6,0
	c-0.6,0-1-0.1-1.4-0.2c-0.4-0.2-0.7-0.4-1-0.7c-0.3-0.3-0.5-0.6-0.6-1C42.3,301,42.2,300.5,42.2,300.1z M46.4,299.4
	c0-0.2,0-0.4-0.1-0.6c-0.1-0.2-0.1-0.3-0.3-0.5c-0.1-0.1-0.2-0.2-0.4-0.3c-0.2-0.1-0.3-0.1-0.6-0.1c-0.2,0-0.4,0-0.6,0.1
	c-0.2,0.1-0.3,0.2-0.4,0.3c-0.1,0.1-0.2,0.3-0.3,0.5c-0.1,0.2-0.1,0.4-0.1,0.5L46.4,299.4z M53,299.9c0-0.7-0.1-1.1-0.3-1.4
	c-0.2-0.3-0.5-0.4-0.9-0.4c-0.2,0-0.3,0-0.5,0c-0.2,0-0.3,0-0.4,0.1l0,5.1l-1.5,0l0-6.1c0.3-0.1,0.6-0.2,1.1-0.2
	c0.5-0.1,0.9-0.1,1.4-0.1c0.4,0,0.8,0.1,1.1,0.2c0.3,0.1,0.5,0.3,0.7,0.4c0.1-0.1,0.2-0.1,0.3-0.2c0.1-0.1,0.3-0.1,0.5-0.2
	c0.2-0.1,0.3-0.1,0.5-0.2c0.2,0,0.4-0.1,0.6-0.1c0.5,0,0.9,0.1,1.2,0.2c0.3,0.1,0.6,0.3,0.7,0.6c0.2,0.2,0.3,0.6,0.4,0.9
	c0.1,0.4,0.1,0.7,0.1,1.2l0,3.5l-1.5,0l0-3.3c0-0.7-0.1-1.1-0.2-1.4c-0.2-0.3-0.5-0.4-0.9-0.4c-0.2,0-0.5,0-0.7,0.1
	c-0.2,0.1-0.4,0.1-0.5,0.2c0.1,0.2,0.1,0.4,0.1,0.6c0,0.2,0,0.5,0,0.7l0,3.5l-1.5,0L53,299.9z M64,300c0-0.6-0.1-1.1-0.4-1.5
	c-0.2-0.4-0.6-0.5-1.2-0.5c-0.2,0-0.5,0-0.7,0.1c-0.2,0.1-0.4,0.2-0.5,0.2l0,3.6c0.1,0,0.2,0,0.4,0.1c0.2,0,0.4,0,0.6,0
	c0.5,0,1-0.2,1.3-0.5C63.8,301.1,64,300.6,64,300z M65.4,300c0,0.5-0.1,1-0.2,1.4c-0.1,0.4-0.4,0.7-0.6,1c-0.3,0.3-0.6,0.5-1,0.7
	c-0.4,0.2-0.8,0.2-1.3,0.2c-0.5,0-0.9,0-1.4-0.1c-0.4-0.1-0.8-0.2-1.1-0.2l0-8.9l1.5-0.2l0,3.3c0.2-0.1,0.4-0.2,0.6-0.2
	c0.2-0.1,0.5-0.1,0.8-0.1c0.4,0,0.8,0.1,1.2,0.2c0.4,0.2,0.6,0.4,0.9,0.7c0.2,0.3,0.4,0.6,0.5,1C65.4,299.1,65.4,299.5,65.4,300z
	 M66.6,300c0-0.6,0.1-1,0.2-1.5c0.2-0.4,0.4-0.8,0.7-1c0.3-0.3,0.6-0.5,0.9-0.6c0.4-0.1,0.7-0.2,1.1-0.2c0.9,0,1.5,0.3,2,0.8
	c0.5,0.5,0.7,1.3,0.7,2.4c0,0.1,0,0.2,0,0.3c0,0.1,0,0.2,0,0.3l-4.1,0c0,0.5,0.2,0.9,0.5,1.2c0.3,0.3,0.8,0.4,1.4,0.4
	c0.4,0,0.7,0,1-0.1c0.3-0.1,0.5-0.1,0.7-0.2l0.2,1.2c-0.1,0-0.2,0.1-0.3,0.1c-0.1,0-0.3,0.1-0.5,0.1c-0.2,0-0.4,0.1-0.6,0.1
	c-0.2,0-0.4,0-0.6,0c-0.6,0-1-0.1-1.4-0.2c-0.4-0.2-0.7-0.4-1-0.7c-0.3-0.3-0.5-0.6-0.6-1C66.7,300.9,66.6,300.5,66.6,300z
	 M70.8,299.4c0-0.2,0-0.4-0.1-0.6c-0.1-0.2-0.1-0.3-0.3-0.5c-0.1-0.1-0.2-0.2-0.4-0.3c-0.2-0.1-0.3-0.1-0.6-0.1
	c-0.2,0-0.4,0-0.6,0.1c-0.2,0.1-0.3,0.2-0.4,0.3c-0.1,0.1-0.2,0.3-0.3,0.5c-0.1,0.2-0.1,0.4-0.1,0.5L70.8,299.4z M77.4,298.2
	c-0.1,0-0.3-0.1-0.5-0.1c-0.2,0-0.5-0.1-0.7-0.1c-0.2,0-0.3,0-0.5,0c-0.2,0-0.3,0.1-0.4,0.1l0,5l-1.5,0l0-6c0.3-0.1,0.6-0.2,1-0.3
	c0.4-0.1,0.9-0.1,1.4-0.1c0.1,0,0.2,0,0.3,0c0.1,0,0.3,0,0.4,0c0.1,0,0.3,0,0.4,0.1c0.1,0,0.2,0,0.3,0.1L77.4,298.2z M80.2,302.1
	c0.4,0,0.7,0,0.8-0.1c0.2-0.1,0.3-0.3,0.3-0.5c0-0.2-0.1-0.4-0.3-0.5c-0.2-0.1-0.5-0.3-0.9-0.4c-0.3-0.1-0.5-0.2-0.7-0.3
	c-0.2-0.1-0.4-0.2-0.6-0.4c-0.2-0.1-0.3-0.3-0.4-0.5c-0.1-0.2-0.1-0.5-0.1-0.8c0-0.6,0.2-1,0.6-1.4c0.4-0.3,1-0.5,1.7-0.5
	c0.4,0,0.7,0,1.1,0.1c0.3,0.1,0.6,0.1,0.8,0.2l-0.3,1.2c-0.2-0.1-0.4-0.1-0.6-0.2c-0.2-0.1-0.5-0.1-0.9-0.1c-0.3,0-0.5,0.1-0.7,0.2
	c-0.2,0.1-0.3,0.2-0.3,0.5c0,0.1,0,0.2,0,0.3c0,0.1,0.1,0.2,0.2,0.2c0.1,0.1,0.2,0.1,0.3,0.2c0.1,0.1,0.3,0.1,0.5,0.2
	c0.3,0.1,0.6,0.3,0.9,0.4c0.2,0.1,0.4,0.3,0.6,0.4c0.2,0.2,0.3,0.3,0.3,0.5c0.1,0.2,0.1,0.4,0.1,0.7c0,0.6-0.2,1.1-0.7,1.4
	c-0.4,0.3-1.1,0.5-1.9,0.5c-0.6,0-1,0-1.3-0.1c-0.3-0.1-0.6-0.2-0.7-0.2l0.2-1.2c0.2,0.1,0.5,0.2,0.8,0.3
	C79.5,302,79.8,302.1,80.2,302.1z M84.1,303.1l0-9.1l1.5-0.2l0,3.1c0.2-0.1,0.3-0.1,0.6-0.1c0.2,0,0.4-0.1,0.6-0.1
	c0.5,0,0.9,0.1,1.2,0.2c0.3,0.1,0.6,0.3,0.8,0.6c0.2,0.2,0.3,0.5,0.4,0.9c0.1,0.4,0.1,0.7,0.1,1.2l0,3.5l-1.5,0l0-3.3
	c0-0.3,0-0.6-0.1-0.9c0-0.2-0.1-0.4-0.2-0.6c-0.1-0.2-0.2-0.3-0.4-0.3c-0.2-0.1-0.4-0.1-0.6-0.1c-0.2,0-0.4,0-0.6,0.1
	c-0.2,0-0.3,0.1-0.4,0.1l0,5L84.1,303.1z M92.6,303.1l-1.5,0l0-6.3l1.5,0L92.6,303.1z M92.7,295c0,0.3-0.1,0.5-0.3,0.6
	c-0.2,0.2-0.4,0.2-0.6,0.2c-0.2,0-0.5-0.1-0.6-0.2c-0.2-0.2-0.3-0.4-0.3-0.6c0-0.3,0.1-0.5,0.3-0.7c0.2-0.2,0.4-0.2,0.6-0.2
	c0.2,0,0.4,0.1,0.6,0.2C92.6,294.5,92.7,294.7,92.7,295z M98.6,300c0-0.6-0.2-1.2-0.4-1.5c-0.3-0.4-0.8-0.5-1.4-0.5
	c-0.1,0-0.3,0-0.4,0c-0.1,0-0.3,0-0.4,0.1l0,3.6c0.1,0.1,0.3,0.2,0.5,0.3c0.2,0.1,0.4,0.1,0.7,0.1c0.5,0,0.9-0.2,1.2-0.5
	C98.5,301.1,98.6,300.6,98.6,300z M100.1,300c0,0.5-0.1,0.9-0.2,1.3c-0.1,0.4-0.3,0.7-0.5,1c-0.2,0.3-0.5,0.5-0.9,0.7
	c-0.3,0.2-0.7,0.2-1.2,0.2c-0.3,0-0.6,0-0.8-0.1c-0.2-0.1-0.5-0.2-0.6-0.2l0,2.4l-1.5,0l0-8.3c0.3-0.1,0.7-0.2,1.1-0.2
	c0.4-0.1,0.9-0.1,1.4-0.1c0.5,0,0.9,0.1,1.3,0.2c0.4,0.2,0.7,0.4,1,0.7c0.3,0.3,0.5,0.6,0.6,1C100,299,100.1,299.5,100.1,300z
	 M106,301.8c0.1,0,0.2,0,0.3,0c0.1,0,0.3,0,0.6,0c1,0,1.8-0.3,2.3-0.8c0.5-0.5,0.8-1.2,0.8-2.2c0-0.9-0.2-1.7-0.7-2.2
	c-0.5-0.5-1.2-0.8-2.3-0.8c-0.4,0-0.8,0-1,0L106,301.8z M111.5,298.9c0,0.7-0.1,1.3-0.3,1.9c-0.2,0.5-0.5,1-1,1.3
	c-0.4,0.4-0.9,0.6-1.5,0.8c-0.6,0.2-1.2,0.3-1.9,0.3c-0.3,0-0.7,0-1.1,0c-0.4,0-0.8-0.1-1.2-0.2l0-8.1c0.4-0.1,0.8-0.1,1.2-0.2
	c0.4,0,0.8,0,1.2,0c0.7,0,1.3,0.1,1.9,0.2c0.6,0.2,1.1,0.4,1.5,0.8c0.4,0.3,0.7,0.8,1,1.3C111.4,297.5,111.5,298.2,111.5,298.9z
	 M112.7,300c0-0.6,0.1-1,0.2-1.5c0.2-0.4,0.4-0.8,0.7-1c0.3-0.3,0.6-0.5,0.9-0.6c0.4-0.1,0.7-0.2,1.1-0.2c0.9,0,1.5,0.3,2,0.8
	c0.5,0.5,0.7,1.3,0.7,2.4c0,0.1,0,0.2,0,0.3c0,0.1,0,0.2,0,0.3l-4.1,0c0,0.5,0.2,0.9,0.5,1.2c0.3,0.3,0.8,0.4,1.4,0.4
	c0.4,0,0.7,0,1-0.1c0.3-0.1,0.5-0.1,0.7-0.2l0.2,1.2c-0.1,0-0.2,0.1-0.3,0.1c-0.1,0-0.3,0.1-0.5,0.1c-0.2,0-0.4,0.1-0.6,0.1
	c-0.2,0-0.4,0-0.6,0c-0.6,0-1-0.1-1.4-0.2c-0.4-0.2-0.7-0.4-1-0.7c-0.3-0.3-0.5-0.6-0.6-1C112.8,300.9,112.7,300.4,112.7,300z
	 M116.9,299.3c0-0.2,0-0.4-0.1-0.6c-0.1-0.2-0.1-0.3-0.3-0.5c-0.1-0.1-0.2-0.2-0.4-0.3c-0.2-0.1-0.3-0.1-0.6-0.1
	c-0.2,0-0.4,0-0.6,0.1c-0.2,0.1-0.3,0.2-0.4,0.3c-0.1,0.1-0.2,0.3-0.3,0.5c-0.1,0.2-0.1,0.4-0.1,0.5L116.9,299.3z M119.8,295.1
	l1.5-0.2l0,1.9l2.2,0l0,1.2l-2.2,0l0,2.6c0,0.5,0.1,0.9,0.2,1.1c0.2,0.2,0.4,0.3,0.8,0.3c0.3,0,0.5,0,0.7-0.1
	c0.2-0.1,0.4-0.1,0.5-0.2l0.2,1.2c-0.2,0.1-0.4,0.1-0.7,0.2c-0.3,0.1-0.6,0.1-1,0.1c-0.4,0-0.8-0.1-1.1-0.2
	c-0.3-0.1-0.5-0.3-0.7-0.5c-0.2-0.2-0.3-0.5-0.4-0.8c-0.1-0.3-0.1-0.7-0.1-1.1L119.8,295.1z M127.2,302c0.4,0,0.8,0,1-0.1l0-1.6
	c-0.1,0-0.2,0-0.3-0.1c-0.2,0-0.3,0-0.5,0c-0.2,0-0.3,0-0.5,0c-0.2,0-0.3,0.1-0.4,0.1c-0.1,0.1-0.2,0.2-0.3,0.3
	c-0.1,0.1-0.1,0.3-0.1,0.4c0,0.3,0.1,0.6,0.3,0.7C126.5,302,126.8,302,127.2,302z M127,296.6c0.5,0,0.9,0.1,1.2,0.2
	c0.3,0.1,0.6,0.3,0.8,0.5c0.2,0.2,0.3,0.5,0.4,0.8c0.1,0.3,0.1,0.6,0.1,1l0,3.8c-0.2,0-0.6,0.1-1,0.2c-0.4,0.1-1,0.1-1.5,0.1
	c-0.4,0-0.7,0-1-0.1c-0.3-0.1-0.6-0.2-0.8-0.3c-0.2-0.2-0.4-0.4-0.5-0.6c-0.1-0.3-0.2-0.6-0.2-0.9c0-0.4,0.1-0.7,0.2-0.9
	c0.1-0.2,0.3-0.4,0.6-0.6c0.2-0.2,0.5-0.3,0.8-0.3c0.3-0.1,0.7-0.1,1-0.1c0.2,0,0.3,0,0.5,0c0.2,0,0.4,0,0.6,0.1v-0.2
	c0-0.2,0-0.3-0.1-0.5c0-0.2-0.1-0.3-0.2-0.4c-0.1-0.1-0.2-0.2-0.4-0.3c-0.2-0.1-0.4-0.1-0.6-0.1c-0.3,0-0.6,0-0.9,0.1
	c-0.3,0-0.5,0.1-0.7,0.2l-0.2-1.2c0.2-0.1,0.5-0.1,0.8-0.2C126.2,296.7,126.6,296.6,127,296.6z M132.8,303l-1.5,0l0-6.3l1.5,0
	L132.8,303z M133,294.9c0,0.3-0.1,0.5-0.3,0.6c-0.2,0.2-0.4,0.2-0.6,0.2c-0.2,0-0.5-0.1-0.6-0.2c-0.2-0.2-0.3-0.4-0.3-0.6
	c0-0.3,0.1-0.5,0.3-0.7c0.2-0.2,0.4-0.2,0.6-0.2c0.2,0,0.4,0.1,0.6,0.2C132.9,294.4,133,294.7,133,294.9z M136.9,303.2
	c-0.4,0-0.8-0.1-1.1-0.1c-0.3-0.1-0.5-0.2-0.7-0.4c-0.2-0.2-0.3-0.4-0.4-0.6c-0.1-0.2-0.1-0.5-0.1-0.8l0-7.2l1.5-0.2l0,7.2
	c0,0.2,0,0.3,0,0.4c0,0.1,0.1,0.2,0.2,0.3c0.1,0.1,0.2,0.1,0.3,0.2c0.1,0,0.3,0.1,0.5,0.1L136.9,303.2z M139.8,302
	c0.4,0,0.7,0,0.8-0.1c0.2-0.1,0.3-0.3,0.3-0.5c0-0.2-0.1-0.4-0.3-0.5c-0.2-0.1-0.5-0.3-0.9-0.4c-0.3-0.1-0.5-0.2-0.7-0.3
	c-0.2-0.1-0.4-0.2-0.6-0.4c-0.2-0.1-0.3-0.3-0.4-0.5c-0.1-0.2-0.1-0.5-0.1-0.8c0-0.6,0.2-1,0.6-1.4c0.4-0.3,1-0.5,1.7-0.5
	c0.4,0,0.7,0,1.1,0.1c0.3,0.1,0.6,0.1,0.8,0.2l-0.3,1.2c-0.2-0.1-0.4-0.1-0.6-0.2c-0.2-0.1-0.5-0.1-0.9-0.1c-0.3,0-0.5,0.1-0.7,0.2
	c-0.2,0.1-0.3,0.2-0.3,0.5c0,0.1,0,0.2,0,0.3c0,0.1,0.1,0.2,0.2,0.2c0.1,0.1,0.2,0.1,0.3,0.2c0.1,0.1,0.3,0.1,0.5,0.2
	c0.3,0.1,0.6,0.3,0.9,0.4c0.2,0.1,0.4,0.3,0.6,0.4c0.2,0.2,0.3,0.3,0.3,0.5c0.1,0.2,0.1,0.4,0.1,0.7c0,0.6-0.2,1.1-0.7,1.4
	c-0.4,0.3-1.1,0.5-1.9,0.5c-0.6,0-1,0-1.3-0.1c-0.3-0.1-0.6-0.2-0.7-0.2l0.2-1.2c0.2,0.1,0.5,0.2,0.8,0.2
	C139.1,302,139.4,302,139.8,302z"/>
<path class="st1" d="M39.6,323.4c0,0.7-0.1,1.3-0.3,1.9c-0.2,0.5-0.5,1-0.8,1.4c-0.4,0.4-0.8,0.6-1.2,0.8c-0.5,0.2-1,0.3-1.5,0.3
	c-0.5,0-1-0.1-1.5-0.3c-0.5-0.2-0.9-0.5-1.3-0.8c-0.4-0.4-0.6-0.8-0.8-1.4c-0.2-0.5-0.3-1.2-0.3-1.9c0-0.7,0.1-1.3,0.3-1.9
	c0.2-0.5,0.5-1,0.8-1.4c0.4-0.4,0.8-0.6,1.2-0.8c0.5-0.2,1-0.3,1.5-0.3c0.5,0,1,0.1,1.5,0.3c0.5,0.2,0.9,0.5,1.2,0.8
	c0.4,0.4,0.6,0.8,0.9,1.4C39.5,322,39.6,322.6,39.6,323.4z M38.7,323.4c0-0.6-0.1-1.1-0.2-1.5c-0.1-0.4-0.4-0.8-0.6-1.1
	c-0.3-0.3-0.6-0.5-1-0.7c-0.4-0.2-0.8-0.3-1.2-0.2c-0.5,0-0.9,0.1-1.3,0.3c-0.4,0.2-0.7,0.4-0.9,0.7c-0.3,0.3-0.5,0.7-0.6,1.1
	c-0.1,0.4-0.2,0.9-0.2,1.5c0,0.6,0.1,1.1,0.2,1.5c0.1,0.4,0.4,0.8,0.6,1.1c0.3,0.3,0.6,0.6,1,0.7c0.4,0.2,0.8,0.3,1.3,0.3
	c0.5,0,0.9-0.1,1.2-0.3c0.4-0.2,0.7-0.4,1-0.7c0.3-0.3,0.5-0.7,0.6-1.1C38.6,324.4,38.7,323.9,38.7,323.4z M43.6,318.2
	c0.3,0,0.6,0,0.8,0.1c0.2,0,0.4,0.1,0.4,0.1l-0.2,0.7c-0.1,0-0.2-0.1-0.4-0.1c-0.2,0-0.4-0.1-0.6-0.1c-0.6,0-0.9,0.1-1.2,0.4
	c-0.2,0.3-0.3,0.7-0.3,1.3l0,0.6l2.5,0l0,0.7l-2.5,0l0,5.5l-0.8,0l0-6.9c0-0.8,0.2-1.4,0.5-1.8C42.3,318.4,42.8,318.2,43.6,318.2z
	 M48.1,318.2c0.3,0,0.6,0,0.8,0.1c0.2,0,0.4,0.1,0.4,0.1l-0.2,0.7c-0.1,0-0.2-0.1-0.4-0.1c-0.2,0-0.4-0.1-0.6-0.1
	c-0.6,0-0.9,0.1-1.2,0.4c-0.2,0.3-0.3,0.7-0.3,1.3l0,0.6l2.5,0l0,0.7l-2.5,0l0,5.5l-0.8,0l0-6.9c0-0.8,0.2-1.4,0.5-1.8
	C46.8,318.4,47.3,318.2,48.1,318.2z M50,324.4c0-0.5,0.1-1,0.2-1.4c0.2-0.4,0.4-0.7,0.6-1c0.3-0.3,0.5-0.5,0.9-0.6
	c0.3-0.1,0.7-0.2,1-0.2c0.8,0,1.4,0.2,1.8,0.7c0.5,0.5,0.7,1.3,0.7,2.3c0,0.1,0,0.1,0,0.2c0,0.1,0,0.1,0,0.2l-4.4,0
	c0,0.8,0.2,1.3,0.6,1.8c0.4,0.4,0.9,0.6,1.7,0.6c0.4,0,0.8,0,1-0.1c0.2-0.1,0.4-0.1,0.5-0.2l0.1,0.7c-0.1,0.1-0.3,0.1-0.6,0.2
	c-0.3,0.1-0.7,0.1-1.1,0.1c-0.5,0-1-0.1-1.4-0.2c-0.4-0.2-0.7-0.4-0.9-0.7c-0.2-0.3-0.4-0.6-0.5-1C50.1,325.3,50,324.9,50,324.4z
	 M54.4,323.9c0-0.6-0.2-1.2-0.5-1.5c-0.3-0.4-0.7-0.5-1.2-0.5c-0.3,0-0.5,0.1-0.8,0.2c-0.2,0.1-0.4,0.3-0.6,0.5
	c-0.2,0.2-0.3,0.4-0.4,0.6c-0.1,0.2-0.1,0.5-0.2,0.8L54.4,323.9z M59,321.2c0.3,0,0.5,0,0.7,0.1c0.2,0,0.4,0.1,0.5,0.1l-0.2,0.7
	c-0.1,0-0.2-0.1-0.4-0.1c-0.2,0-0.4-0.1-0.8-0.1c-0.3,0-0.6,0-0.8,0.1c-0.2,0-0.3,0.1-0.4,0.1l0,5.4l-0.8,0l0-5.9
	c0.2-0.1,0.5-0.2,0.8-0.3C58.1,321.2,58.5,321.2,59,321.2z M62.2,327.5l-0.8,0l0-6.2l0.8,0L62.2,327.5z M62.4,319.4
	c0,0.2-0.1,0.3-0.2,0.4c-0.1,0.1-0.2,0.2-0.4,0.2s-0.3-0.1-0.4-0.2c-0.1-0.1-0.2-0.3-0.2-0.4c0-0.2,0.1-0.3,0.2-0.4
	c0.1-0.1,0.2-0.2,0.4-0.2c0.2,0,0.3,0.1,0.4,0.2C62.3,319.1,62.4,319.2,62.4,319.4z M64.3,321.5c0.2-0.1,0.5-0.1,0.9-0.2
	c0.4-0.1,0.9-0.1,1.4-0.1c0.5,0,0.9,0.1,1.2,0.2c0.3,0.1,0.6,0.3,0.8,0.6c0.2,0.2,0.3,0.5,0.4,0.9s0.1,0.7,0.1,1.2l0,3.5l-0.8,0
	l0-3.2c0-0.4,0-0.8-0.1-1.1c-0.1-0.3-0.2-0.6-0.3-0.7c-0.1-0.2-0.3-0.3-0.6-0.4c-0.2-0.1-0.5-0.1-0.9-0.1c-0.4,0-0.7,0-1,0.1
	c-0.3,0-0.4,0.1-0.5,0.1l0,5.4l-0.8,0L64.3,321.5z M75.2,326.7c0,0-0.1,0.1-0.2,0.1c-0.1,0-0.2,0.1-0.4,0.2
	c-0.1,0.1-0.3,0.1-0.5,0.1c-0.2,0-0.4,0-0.6,0c-0.4,0-0.7-0.1-1-0.2c-0.3-0.1-0.6-0.3-0.9-0.5c-0.2-0.2-0.4-0.5-0.6-0.9
	c-0.2-0.4-0.2-0.8-0.2-1.4c0-0.4,0.1-0.8,0.2-1.2c0.1-0.4,0.3-0.7,0.6-1c0.3-0.3,0.6-0.5,0.9-0.6c0.4-0.2,0.8-0.2,1.2-0.2
	c0.6,0,1,0,1.4,0.1c0.4,0.1,0.6,0.1,0.9,0.2l0,5.7c0,0.9-0.2,1.6-0.7,2c-0.5,0.4-1.2,0.6-2.2,0.6c-0.4,0-0.8,0-1.1-0.1
	c-0.3-0.1-0.6-0.1-0.8-0.2l0.2-0.7c0.2,0.1,0.5,0.2,0.8,0.2c0.3,0.1,0.7,0.1,1,0.1c0.7,0,1.3-0.1,1.6-0.4c0.3-0.3,0.5-0.8,0.5-1.5
	L75.2,326.7z M75.1,322c-0.1,0-0.3-0.1-0.5-0.1c-0.2,0-0.5-0.1-0.9-0.1c-0.3,0-0.6,0.1-0.9,0.2c-0.3,0.1-0.5,0.3-0.7,0.5
	c-0.2,0.2-0.3,0.5-0.4,0.8c-0.1,0.3-0.1,0.6-0.1,1c0,0.4,0.1,0.8,0.2,1.1c0.1,0.3,0.3,0.5,0.4,0.7c0.2,0.2,0.4,0.3,0.6,0.4
	c0.2,0.1,0.5,0.1,0.7,0.1c0.4,0,0.7-0.1,1-0.2c0.3-0.1,0.5-0.2,0.7-0.4L75.1,322z M86.4,327.5c-0.2-0.4-0.3-0.8-0.4-1.2
	c-0.1-0.4-0.3-0.7-0.4-1.1l-4,0c-0.1,0.4-0.3,0.7-0.4,1.1c-0.1,0.4-0.3,0.8-0.4,1.2l-0.9,0c0.3-0.9,0.6-1.7,0.9-2.4
	c0.3-0.8,0.5-1.5,0.8-2.1c0.3-0.7,0.5-1.3,0.8-1.9s0.5-1.2,0.8-1.8l0.7,0c0.3,0.6,0.6,1.2,0.8,1.8c0.3,0.6,0.5,1.3,0.8,1.9
	c0.3,0.7,0.6,1.4,0.8,2.1c0.3,0.7,0.6,1.5,0.9,2.4L86.4,327.5z M83.5,320.1c-0.3,0.7-0.6,1.4-0.9,2.1c-0.3,0.7-0.6,1.5-0.9,2.3
	l3.5,0c-0.3-0.8-0.6-1.6-0.9-2.3C84.1,321.5,83.8,320.8,83.5,320.1z M88.4,321.5c0.2-0.1,0.5-0.1,0.9-0.2c0.4-0.1,0.9-0.1,1.5-0.1
	c0.8,0,1.4,0.2,1.7,0.7c0,0,0.1-0.1,0.2-0.2c0.1-0.1,0.3-0.2,0.4-0.2c0.2-0.1,0.4-0.1,0.6-0.2c0.2-0.1,0.5-0.1,0.8-0.1
	c0.5,0,0.9,0.1,1.1,0.2c0.3,0.1,0.5,0.3,0.7,0.6c0.2,0.2,0.3,0.5,0.3,0.9c0.1,0.4,0.1,0.7,0.1,1.2l0,3.5l-0.8,0l0-3.2
	c0-0.4,0-0.8-0.1-1.1c0-0.3-0.1-0.6-0.2-0.7c-0.1-0.2-0.3-0.3-0.5-0.4c-0.2-0.1-0.5-0.2-0.8-0.2c-0.2,0-0.5,0-0.7,0.1
	c-0.2,0-0.4,0.1-0.5,0.2c-0.1,0.1-0.3,0.1-0.4,0.2c-0.1,0.1-0.2,0.1-0.2,0.1c0.1,0.2,0.1,0.4,0.2,0.7c0,0.3,0.1,0.5,0.1,0.8l0,3.5
	l-0.8,0l0-3.2c0-0.4,0-0.8-0.1-1.1c0-0.3-0.1-0.6-0.2-0.7c-0.1-0.2-0.3-0.3-0.5-0.4c-0.2-0.1-0.5-0.2-0.8-0.2c-0.4,0-0.7,0-1,0.1
	c-0.3,0-0.4,0.1-0.5,0.1l0,5.4l-0.8,0L88.4,321.5z M104.1,324.3c0,0.5-0.1,0.9-0.2,1.3c-0.1,0.4-0.3,0.7-0.6,1
	c-0.2,0.3-0.5,0.5-0.9,0.7c-0.3,0.2-0.7,0.2-1.1,0.2c-0.4,0-0.8-0.1-1.1-0.2c-0.3-0.2-0.6-0.4-0.9-0.7c-0.2-0.3-0.4-0.6-0.6-1
	c-0.1-0.4-0.2-0.8-0.2-1.3c0-0.5,0.1-0.9,0.2-1.3c0.1-0.4,0.3-0.7,0.6-1c0.3-0.3,0.6-0.5,0.9-0.7c0.3-0.2,0.7-0.2,1.1-0.2
	s0.8,0.1,1.1,0.2c0.3,0.2,0.6,0.4,0.9,0.7c0.3,0.3,0.5,0.6,0.6,1C104,323.4,104.1,323.8,104.1,324.3z M103.2,324.3
	c0-0.8-0.2-1.4-0.5-1.8c-0.4-0.5-0.9-0.7-1.5-0.7c-0.6,0-1.1,0.2-1.5,0.7c-0.4,0.5-0.5,1.1-0.5,1.8c0,0.8,0.2,1.4,0.5,1.8
	c0.4,0.5,0.9,0.7,1.5,0.7c0.6,0,1.1-0.2,1.5-0.7C103.1,325.7,103.2,325.1,103.2,324.3z M110.5,327.2c-0.2,0.1-0.5,0.1-0.9,0.2
	c-0.4,0.1-0.9,0.1-1.4,0.1c-0.5,0-0.9-0.1-1.2-0.2c-0.3-0.1-0.6-0.3-0.8-0.6c-0.2-0.2-0.3-0.5-0.4-0.9c-0.1-0.4-0.1-0.7-0.1-1.2
	l0-3.5l0.8,0l0,3.2c0,0.4,0,0.8,0.1,1.1c0.1,0.3,0.2,0.6,0.3,0.7c0.1,0.2,0.3,0.3,0.6,0.4c0.2,0.1,0.5,0.1,0.8,0.1
	c0.4,0,0.7,0,1-0.1c0.3,0,0.4-0.1,0.5-0.1l0-5.4l0.8,0L110.5,327.2z M112.6,321.4c0.2-0.1,0.5-0.1,0.9-0.2c0.4-0.1,0.9-0.1,1.4-0.1
	c0.5,0,0.9,0.1,1.2,0.2c0.3,0.1,0.6,0.3,0.8,0.6c0.2,0.2,0.3,0.5,0.4,0.9c0.1,0.4,0.1,0.7,0.1,1.2l0,3.5l-0.8,0l0-3.2
	c0-0.4,0-0.8-0.1-1.1c-0.1-0.3-0.2-0.6-0.3-0.7c-0.1-0.2-0.3-0.3-0.6-0.4c-0.2-0.1-0.5-0.1-0.9-0.1c-0.4,0-0.7,0-1,0.1
	c-0.3,0-0.4,0.1-0.5,0.1l0,5.4l-0.8,0L112.6,321.4z M120.1,321.2l2.5,0l0,0.7l-2.5,0l0,3.3c0,0.4,0,0.6,0.1,0.9
	c0.1,0.2,0.2,0.4,0.3,0.5c0.1,0.1,0.2,0.2,0.4,0.2c0.2,0,0.3,0.1,0.5,0.1c0.3,0,0.6,0,0.8-0.1c0.2-0.1,0.4-0.2,0.5-0.2l0.2,0.6
	c-0.1,0.1-0.3,0.2-0.6,0.3c-0.3,0.1-0.6,0.1-0.9,0.1c-0.4,0-0.7,0-1-0.1c-0.3-0.1-0.5-0.3-0.6-0.5c-0.2-0.2-0.3-0.5-0.3-0.8
	c-0.1-0.3-0.1-0.7-0.1-1.1l0-5.7l0.8-0.1L120.1,321.2z"/>
<path class="st1" d="M225.5,320.8c0.5-0.2,0.9-0.4,1.4-0.7c0.5-0.3,0.9-0.6,1.2-1l1,0l0,8.3l-1.5,0l0-6.4c-0.2,0.2-0.5,0.3-0.8,0.5
	c-0.3,0.2-0.6,0.3-0.9,0.4L225.5,320.8z M233.7,325.8c0,0.1,0,0.2,0,0.3s0,0.1,0,0.2c0,0.5-0.1,1-0.2,1.5c-0.1,0.5-0.4,1-0.6,1.5
	l-1.1-0.3c0.2-0.5,0.3-0.9,0.4-1.4c0.1-0.4,0.1-0.8,0.1-1.2c0-0.1,0-0.2,0-0.4c0-0.1,0-0.3,0-0.3L233.7,325.8z M240.2,321.2
	c0,0.3-0.1,0.6-0.2,0.9c-0.1,0.3-0.3,0.5-0.5,0.8c-0.2,0.3-0.4,0.5-0.6,0.8c-0.2,0.2-0.5,0.5-0.7,0.7c-0.1,0.1-0.3,0.3-0.4,0.4
	c-0.2,0.2-0.3,0.3-0.5,0.5c-0.1,0.2-0.3,0.3-0.4,0.5c-0.1,0.2-0.2,0.3-0.2,0.4l3.7,0l0,1.2l-5.3,0c0-0.1,0-0.1,0-0.2
	c0-0.1,0-0.2,0-0.2c0-0.4,0.1-0.7,0.2-1.1c0.1-0.3,0.3-0.6,0.5-0.9s0.4-0.5,0.7-0.8c0.2-0.2,0.5-0.5,0.7-0.7
	c0.2-0.2,0.4-0.4,0.6-0.5c0.2-0.2,0.3-0.3,0.5-0.5c0.1-0.2,0.2-0.4,0.3-0.5c0.1-0.2,0.1-0.4,0.1-0.6c0-0.4-0.1-0.7-0.4-0.9
	c-0.2-0.2-0.5-0.3-0.9-0.3c-0.2,0-0.4,0-0.6,0.1c-0.2,0.1-0.4,0.1-0.5,0.2c-0.1,0.1-0.3,0.2-0.4,0.3c-0.1,0.1-0.2,0.2-0.3,0.2
	l-0.7-1c0.3-0.3,0.7-0.6,1.2-0.8c0.5-0.2,0.9-0.3,1.5-0.3c0.9,0,1.5,0.2,2,0.6C240,319.9,240.2,320.5,240.2,321.2z M247.5,325.2
	c0,0.3-0.1,0.7-0.2,1c-0.1,0.3-0.3,0.6-0.5,0.8c-0.2,0.2-0.5,0.4-0.9,0.5c-0.4,0.1-0.8,0.2-1.2,0.2c-0.5,0-1-0.1-1.4-0.2
	c-0.4-0.2-0.6-0.3-0.9-0.6c-0.2-0.2-0.4-0.5-0.5-0.7c-0.1-0.3-0.1-0.5-0.1-0.8c0-0.2,0-0.5,0.1-0.7c0.1-0.2,0.2-0.4,0.3-0.6
	c0.1-0.2,0.3-0.3,0.4-0.5c0.2-0.1,0.3-0.3,0.5-0.4c-0.4-0.3-0.6-0.5-0.8-0.8c-0.2-0.3-0.3-0.7-0.3-1.1c0-0.3,0.1-0.6,0.2-0.9
	c0.1-0.3,0.3-0.5,0.5-0.8c0.2-0.2,0.5-0.4,0.8-0.5c0.3-0.1,0.7-0.2,1.1-0.2c0.5,0,0.9,0.1,1.2,0.2c0.3,0.1,0.6,0.3,0.8,0.5
	c0.2,0.2,0.4,0.5,0.5,0.7s0.1,0.5,0.1,0.8c0,0.4-0.1,0.8-0.4,1.2c-0.2,0.3-0.5,0.6-0.8,0.8c0.5,0.3,0.8,0.6,1,0.9
	C247.4,324.3,247.5,324.7,247.5,325.2z M243.3,325.2c0,0.1,0,0.2,0.1,0.4c0,0.1,0.1,0.3,0.2,0.4s0.3,0.2,0.4,0.3
	c0.2,0.1,0.4,0.1,0.7,0.1c0.2,0,0.4,0,0.6-0.1c0.2-0.1,0.3-0.1,0.4-0.3c0.1-0.1,0.2-0.2,0.3-0.4c0.1-0.1,0.1-0.3,0.1-0.4
	c0-0.2,0-0.4-0.1-0.6c-0.1-0.2-0.2-0.3-0.4-0.4c-0.2-0.1-0.4-0.2-0.6-0.3c-0.2-0.1-0.5-0.2-0.7-0.3c-0.3,0.2-0.5,0.4-0.7,0.7
	C243.4,324.6,243.3,324.9,243.3,325.2z M245.9,321.1c0-0.1,0-0.2-0.1-0.3c0-0.1-0.1-0.2-0.2-0.3c-0.1-0.1-0.2-0.2-0.4-0.3
	c-0.2-0.1-0.3-0.1-0.6-0.1c-0.2,0-0.4,0-0.6,0.1c-0.2,0.1-0.3,0.2-0.4,0.3c-0.1,0.1-0.2,0.2-0.2,0.3c0,0.1-0.1,0.2-0.1,0.4
	c0,0.3,0.1,0.6,0.3,0.9c0.2,0.3,0.6,0.5,1.2,0.6c0.3-0.2,0.5-0.4,0.7-0.6C245.8,321.8,245.9,321.5,245.9,321.1z M251.6,323.1
	c0.2,0,0.5,0,0.7-0.1c0.2,0,0.4-0.1,0.6-0.2c0-0.1,0-0.2,0-0.2c0-0.1,0-0.1,0-0.2c0-0.3,0-0.6-0.1-0.9c0-0.3-0.1-0.5-0.2-0.7
	c-0.1-0.2-0.3-0.4-0.4-0.5c-0.2-0.1-0.4-0.2-0.7-0.2c-0.2,0-0.4,0-0.6,0.1c-0.2,0.1-0.3,0.2-0.4,0.4c-0.1,0.2-0.2,0.3-0.2,0.5
	c0,0.2-0.1,0.3-0.1,0.5c0,0.5,0.1,0.9,0.4,1.1C250.7,322.9,251.1,323.1,251.6,323.1z M252.7,323.9c-0.2,0.1-0.4,0.2-0.6,0.2
	c-0.2,0-0.5,0.1-0.7,0.1c-0.5,0-0.9-0.1-1.3-0.2c-0.3-0.1-0.6-0.3-0.9-0.6c-0.2-0.2-0.4-0.5-0.5-0.8c-0.1-0.3-0.2-0.6-0.2-1
	c0-0.3,0.1-0.6,0.2-0.9c0.1-0.3,0.3-0.6,0.5-0.9c0.2-0.3,0.5-0.5,0.8-0.7c0.3-0.2,0.8-0.3,1.2-0.3c1,0,1.7,0.3,2.2,0.9
	c0.5,0.6,0.8,1.5,0.8,2.7c0,1.6-0.4,2.8-1.2,3.7c-0.8,0.8-2.1,1.3-3.8,1.3l-0.1-1.2c0.5,0,0.9,0,1.3-0.1c0.4-0.1,0.7-0.2,1-0.4
	c0.3-0.2,0.5-0.4,0.7-0.7C252.5,324.7,252.6,324.4,252.7,323.9z M257.4,325.8c0,0.1,0,0.2,0,0.3s0,0.1,0,0.2c0,0.5-0.1,1-0.2,1.5
	c-0.1,0.5-0.4,1-0.6,1.5l-1.1-0.3c0.2-0.5,0.3-0.9,0.4-1.4c0.1-0.4,0.1-0.8,0.1-1.2c0-0.1,0-0.2,0-0.4c0-0.1,0-0.3,0-0.3
	L257.4,325.8z M261.6,323.1c0.2,0,0.5,0,0.7-0.1c0.2,0,0.4-0.1,0.6-0.2c0-0.1,0-0.2,0-0.2s0-0.1,0-0.2c0-0.3,0-0.6-0.1-0.9
	c0-0.3-0.1-0.5-0.2-0.7c-0.1-0.2-0.3-0.4-0.4-0.5c-0.2-0.1-0.4-0.2-0.7-0.2c-0.2,0-0.4,0-0.6,0.1c-0.2,0.1-0.3,0.2-0.4,0.4
	c-0.1,0.2-0.2,0.3-0.2,0.5c0,0.2-0.1,0.3-0.1,0.5c0,0.5,0.1,0.9,0.4,1.1C260.7,322.9,261.1,323.1,261.6,323.1z M262.7,323.9
	c-0.2,0.1-0.4,0.2-0.6,0.2c-0.2,0-0.5,0.1-0.7,0.1c-0.5,0-0.9-0.1-1.3-0.2c-0.3-0.1-0.6-0.3-0.9-0.5c-0.2-0.2-0.4-0.5-0.5-0.8
	c-0.1-0.3-0.2-0.6-0.2-1c0-0.3,0.1-0.6,0.2-0.9c0.1-0.3,0.3-0.6,0.5-0.9c0.2-0.3,0.5-0.5,0.9-0.7c0.3-0.2,0.8-0.3,1.2-0.3
	c1,0,1.7,0.3,2.2,0.9c0.5,0.6,0.8,1.5,0.8,2.7c0,1.6-0.4,2.8-1.2,3.7c-0.8,0.8-2.1,1.3-3.8,1.3l-0.1-1.2c0.5,0,0.9,0,1.3-0.1
	c0.4-0.1,0.7-0.2,1-0.4c0.3-0.2,0.5-0.4,0.7-0.7C262.5,324.7,262.6,324.3,262.7,323.9z M268.4,323c0.2,0,0.5,0,0.7-0.1
	c0.2,0,0.4-0.1,0.6-0.2c0-0.1,0-0.2,0-0.2c0-0.1,0-0.1,0-0.2c0-0.3,0-0.6-0.1-0.9c0-0.3-0.1-0.5-0.2-0.7c-0.1-0.2-0.3-0.4-0.4-0.5
	c-0.2-0.1-0.4-0.2-0.7-0.2c-0.2,0-0.4,0-0.6,0.1c-0.2,0.1-0.3,0.2-0.4,0.4c-0.1,0.2-0.2,0.3-0.2,0.5c0,0.2-0.1,0.3-0.1,0.5
	c0,0.5,0.1,0.9,0.4,1.1C267.5,322.9,267.9,323,268.4,323z M269.6,323.9c-0.2,0.1-0.4,0.2-0.6,0.2s-0.5,0.1-0.7,0.1
	c-0.5,0-0.9-0.1-1.3-0.2c-0.3-0.1-0.6-0.3-0.9-0.6c-0.2-0.2-0.4-0.5-0.5-0.8c-0.1-0.3-0.2-0.6-0.2-1c0-0.3,0-0.6,0.2-0.9
	c0.1-0.3,0.3-0.6,0.5-0.9s0.5-0.5,0.9-0.7c0.3-0.2,0.8-0.3,1.2-0.3c1,0,1.7,0.3,2.2,0.9c0.5,0.6,0.8,1.5,0.8,2.7
	c0,1.6-0.4,2.8-1.2,3.7c-0.8,0.8-2.1,1.3-3.8,1.3l-0.1-1.2c0.5,0,0.9,0,1.3-0.1c0.4-0.1,0.7-0.2,1-0.4c0.3-0.2,0.5-0.4,0.7-0.7
	C269.3,324.7,269.5,324.3,269.6,323.9z M275.2,323c0.2,0,0.5,0,0.7-0.1c0.2,0,0.4-0.1,0.6-0.2c0-0.1,0-0.2,0-0.2s0-0.1,0-0.2
	c0-0.3,0-0.6-0.1-0.9c0-0.3-0.1-0.5-0.2-0.7c-0.1-0.2-0.3-0.4-0.4-0.5c-0.2-0.1-0.4-0.2-0.7-0.2c-0.2,0-0.4,0-0.6,0.1
	c-0.2,0.1-0.3,0.2-0.4,0.4c-0.1,0.2-0.2,0.3-0.2,0.5c0,0.2-0.1,0.3-0.1,0.5c0,0.5,0.1,0.9,0.4,1.1C274.4,322.9,274.7,323,275.2,323z
	 M276.4,323.9c-0.2,0.1-0.4,0.2-0.6,0.2c-0.2,0-0.5,0.1-0.7,0.1c-0.5,0-0.9-0.1-1.3-0.2c-0.3-0.1-0.6-0.3-0.9-0.6
	c-0.2-0.2-0.4-0.5-0.5-0.8c-0.1-0.3-0.2-0.6-0.2-1c0-0.3,0.1-0.6,0.2-0.9c0.1-0.3,0.3-0.6,0.5-0.9c0.2-0.3,0.5-0.5,0.8-0.7
	c0.3-0.2,0.8-0.3,1.2-0.3c1,0,1.7,0.3,2.2,0.9c0.5,0.6,0.8,1.5,0.8,2.7c0,1.6-0.4,2.8-1.2,3.7c-0.8,0.8-2.1,1.3-3.8,1.3l-0.1-1.2
	c0.5,0,0.9,0,1.3-0.1c0.4-0.1,0.7-0.2,1-0.4c0.3-0.2,0.5-0.4,0.7-0.7C276.1,324.7,276.3,324.3,276.4,323.9z"/>
<path class="st1" d="M34.2,343.3c1.2,0,2.1,0.2,2.6,0.7s0.9,1.1,0.9,1.9c0,0.5-0.1,0.9-0.2,1.2c-0.2,0.3-0.4,0.6-0.7,0.8
	c-0.3,0.2-0.7,0.3-1.2,0.4c-0.4,0.1-1,0.1-1.5,0.1l-1.1,0l0,3.2l-0.8,0l0-8.2c0.3-0.1,0.6-0.1,1-0.2
	C33.5,343.3,33.9,343.3,34.2,343.3z M34.2,344c-0.3,0-0.6,0-0.8,0c-0.2,0-0.4,0-0.5,0l0,3.7l1,0c0.4,0,0.8,0,1.2-0.1
	c0.4-0.1,0.7-0.2,0.9-0.3c0.3-0.1,0.5-0.3,0.6-0.6c0.1-0.2,0.2-0.6,0.2-0.9c0-0.4-0.1-0.7-0.2-0.9c-0.1-0.2-0.3-0.4-0.6-0.6
	c-0.2-0.1-0.5-0.2-0.8-0.3C34.9,344,34.6,344,34.2,344z M41.3,345.3c0.3,0,0.5,0,0.7,0.1c0.2,0,0.4,0.1,0.5,0.1l-0.2,0.7
	c-0.1,0-0.2-0.1-0.4-0.1c-0.2,0-0.4-0.1-0.8-0.1c-0.3,0-0.6,0-0.8,0.1c-0.2,0-0.3,0.1-0.4,0.1l0,5.4l-0.8,0l0-5.9
	c0.2-0.1,0.5-0.2,0.8-0.3C40.3,345.4,40.8,345.3,41.3,345.3z M44.4,351.6l-0.8,0l0-6.2l0.8,0L44.4,351.6z M44.6,343.6
	c0,0.2-0.1,0.3-0.2,0.4c-0.1,0.1-0.2,0.2-0.4,0.2c-0.2,0-0.3-0.1-0.4-0.2c-0.1-0.1-0.2-0.3-0.2-0.4c0-0.2,0.1-0.3,0.2-0.4
	c0.1-0.1,0.2-0.2,0.4-0.2c0.2,0,0.3,0.1,0.4,0.2C44.5,343.2,44.6,343.4,44.6,343.6z M49.1,351.8c-0.5,0-0.9-0.1-1.3-0.2
	c-0.4-0.2-0.7-0.4-0.9-0.6c-0.2-0.3-0.4-0.6-0.6-1c-0.1-0.4-0.2-0.8-0.2-1.3c0-0.5,0.1-0.9,0.2-1.3c0.1-0.4,0.3-0.7,0.6-1
	c0.2-0.3,0.5-0.5,0.9-0.7c0.4-0.2,0.7-0.2,1.2-0.2c0.3,0,0.6,0,0.9,0.1c0.3,0.1,0.5,0.1,0.7,0.2l-0.2,0.7c-0.2-0.1-0.3-0.1-0.5-0.2
	c-0.2,0-0.5-0.1-0.8-0.1c-0.7,0-1.2,0.2-1.6,0.7c-0.4,0.4-0.5,1.1-0.5,1.9c0,0.4,0,0.7,0.1,1c0.1,0.3,0.2,0.6,0.4,0.8
	c0.2,0.2,0.4,0.4,0.7,0.5c0.3,0.1,0.6,0.2,1,0.2c0.3,0,0.6,0,0.8-0.1c0.2-0.1,0.4-0.1,0.5-0.2l0.2,0.7c-0.1,0.1-0.4,0.2-0.7,0.2
	C49.7,351.7,49.4,351.8,49.1,351.8z M51.6,348.5c0-0.5,0.1-1,0.2-1.4c0.2-0.4,0.4-0.7,0.6-1c0.3-0.3,0.5-0.5,0.9-0.6
	c0.3-0.1,0.7-0.2,1-0.2c0.8,0,1.4,0.2,1.8,0.7c0.5,0.5,0.7,1.3,0.7,2.3c0,0.1,0,0.1,0,0.2c0,0.1,0,0.1,0,0.2l-4.4,0
	c0,0.8,0.2,1.3,0.6,1.8c0.4,0.4,0.9,0.6,1.7,0.6c0.4,0,0.8,0,1-0.1c0.2-0.1,0.4-0.1,0.5-0.2l0.1,0.7c-0.1,0.1-0.3,0.1-0.6,0.2
	c-0.3,0.1-0.7,0.1-1.1,0.1c-0.5,0-1-0.1-1.4-0.2c-0.4-0.2-0.7-0.4-1-0.7c-0.2-0.3-0.4-0.6-0.5-1C51.7,349.4,51.6,349,51.6,348.5z
	 M56,348c0-0.6-0.2-1.2-0.5-1.5c-0.3-0.4-0.7-0.5-1.2-0.5c-0.3,0-0.5,0.1-0.8,0.2c-0.2,0.1-0.4,0.3-0.6,0.5
	c-0.2,0.2-0.3,0.4-0.4,0.6c-0.1,0.2-0.1,0.5-0.2,0.8L56,348z M62.1,350.5c0.1,0.1,0.2,0.1,0.3,0.2c0.1,0.1,0.2,0.1,0.4,0.2
	c0.1,0.1,0.3,0.1,0.5,0.1c0.2,0,0.3,0,0.5,0c0.4,0,0.7-0.1,1-0.2c0.3-0.1,0.5-0.3,0.6-0.5c0.2-0.2,0.3-0.5,0.3-0.8
	c0.1-0.3,0.1-0.6,0.1-1c0-0.8-0.2-1.4-0.6-1.9c-0.4-0.4-1-0.7-1.6-0.7c-0.4,0-0.7,0-0.9,0.1c-0.2,0-0.4,0.1-0.5,0.1L62.1,350.5z
	 M62.1,353.8l-0.8,0l0-8.2c0.2-0.1,0.5-0.2,0.9-0.2c0.4-0.1,0.8-0.1,1.4-0.1c0.5,0,0.9,0.1,1.2,0.2c0.4,0.1,0.7,0.4,1,0.6
	c0.3,0.3,0.5,0.6,0.6,1c0.2,0.4,0.2,0.9,0.2,1.4c0,0.5-0.1,0.9-0.2,1.3c-0.1,0.4-0.3,0.7-0.5,1c-0.2,0.3-0.5,0.5-0.9,0.7
	c-0.3,0.2-0.7,0.2-1.2,0.2c-0.4,0-0.8-0.1-1.1-0.2c-0.3-0.1-0.5-0.2-0.6-0.3L62.1,353.8z M67.9,348.5c0-0.5,0.1-1,0.2-1.4
	c0.2-0.4,0.4-0.7,0.6-1c0.3-0.3,0.5-0.5,0.9-0.6c0.3-0.1,0.7-0.2,1-0.2c0.8,0,1.4,0.2,1.8,0.7c0.5,0.5,0.7,1.3,0.7,2.3
	c0,0.1,0,0.1,0,0.2c0,0.1,0,0.1,0,0.2l-4.4,0c0,0.8,0.2,1.3,0.6,1.8c0.4,0.4,0.9,0.6,1.7,0.6c0.4,0,0.8,0,1-0.1
	c0.2-0.1,0.4-0.1,0.5-0.2l0.1,0.7c-0.1,0.1-0.3,0.1-0.6,0.2c-0.3,0.1-0.7,0.1-1.1,0.1c-0.5,0-1-0.1-1.4-0.2
	c-0.4-0.2-0.7-0.4-0.9-0.7c-0.2-0.3-0.4-0.6-0.5-1C68,349.4,67.9,349,67.9,348.5z M72.3,348c0-0.6-0.2-1.2-0.5-1.5
	c-0.3-0.4-0.7-0.5-1.2-0.5c-0.3,0-0.5,0.1-0.8,0.2c-0.2,0.1-0.4,0.3-0.6,0.5c-0.2,0.2-0.3,0.4-0.4,0.6c-0.1,0.2-0.1,0.5-0.2,0.8
	L72.3,348z M77,345.3c0.3,0,0.5,0,0.7,0.1c0.2,0,0.4,0.1,0.5,0.1l-0.2,0.7c-0.1,0-0.2-0.1-0.4-0.1c-0.2,0-0.4-0.1-0.8-0.1
	c-0.3,0-0.6,0-0.8,0.1c-0.2,0-0.3,0.1-0.4,0.1l0,5.4l-0.8,0l0-5.9c0.2-0.1,0.5-0.2,0.8-0.3C76.1,345.3,76.5,345.3,77,345.3z
	 M83.4,351c0.4,0,0.8-0.1,1.1-0.2c0.3-0.2,0.4-0.4,0.4-0.8c0-0.2,0-0.3-0.1-0.4c0-0.1-0.1-0.2-0.3-0.3c-0.1-0.1-0.3-0.2-0.5-0.3
	c-0.2-0.1-0.4-0.2-0.7-0.3c-0.2-0.1-0.5-0.2-0.7-0.3c-0.2-0.1-0.4-0.2-0.6-0.3c-0.2-0.1-0.3-0.3-0.4-0.5c-0.1-0.2-0.1-0.4-0.1-0.7
	c0-0.5,0.2-0.9,0.6-1.2c0.4-0.3,0.9-0.5,1.6-0.5c0.4,0,0.8,0,1,0.1c0.3,0.1,0.5,0.1,0.6,0.2l-0.2,0.7c-0.1,0-0.3-0.1-0.5-0.2
	c-0.2-0.1-0.6-0.1-1-0.1c-0.2,0-0.3,0-0.5,0.1c-0.2,0-0.3,0.1-0.4,0.2c-0.1,0.1-0.2,0.2-0.3,0.3c-0.1,0.1-0.1,0.3-0.1,0.4
	c0,0.2,0,0.3,0.1,0.4c0.1,0.1,0.2,0.2,0.3,0.3c0.1,0.1,0.3,0.2,0.5,0.3c0.2,0.1,0.4,0.2,0.6,0.3c0.2,0.1,0.5,0.2,0.7,0.3
	c0.2,0.1,0.4,0.2,0.6,0.4c0.2,0.1,0.3,0.3,0.4,0.5c0.1,0.2,0.2,0.4,0.2,0.7c0,0.6-0.2,1-0.6,1.3c-0.4,0.3-1,0.4-1.7,0.4
	c-0.5,0-1,0-1.2-0.1c-0.3-0.1-0.5-0.2-0.6-0.2l0.2-0.7c0,0,0.1,0,0.2,0.1c0.1,0,0.2,0.1,0.3,0.1c0.1,0,0.3,0.1,0.5,0.1
	C82.9,351,83.1,351,83.4,351z M87.2,351.6l0-9.2l0.8-0.1l0,3.3c0.3-0.1,0.5-0.2,0.8-0.2c0.3-0.1,0.5-0.1,0.8-0.1
	c0.5,0,0.9,0.1,1.2,0.2c0.3,0.1,0.6,0.3,0.8,0.6c0.2,0.2,0.3,0.5,0.4,0.9c0.1,0.4,0.1,0.7,0.1,1.2l0,3.5l-0.8,0l0-3.2
	c0-0.4,0-0.8-0.1-1.1c-0.1-0.3-0.2-0.6-0.3-0.7c-0.1-0.2-0.3-0.3-0.6-0.4c-0.2-0.1-0.5-0.1-0.9-0.1c-0.1,0-0.3,0-0.4,0
	c-0.2,0-0.3,0.1-0.4,0.1c-0.1,0-0.3,0.1-0.4,0.1c-0.1,0-0.2,0.1-0.2,0.1l0,5.3L87.2,351.6z M96,351c0.3,0,0.6,0,0.8,0
	c0.2,0,0.4-0.1,0.6-0.1l0-2.2c-0.1,0-0.2-0.1-0.4-0.1c-0.2,0-0.5-0.1-0.8-0.1c-0.2,0-0.4,0-0.6,0c-0.2,0-0.4,0.1-0.6,0.2
	c-0.2,0.1-0.3,0.2-0.4,0.4c-0.1,0.2-0.2,0.4-0.2,0.6c0,0.2,0,0.4,0.1,0.6c0.1,0.2,0.2,0.3,0.3,0.4c0.1,0.1,0.3,0.2,0.5,0.2
	C95.6,351,95.8,351,96,351z M95.9,345.2c0.4,0,0.8,0.1,1,0.2c0.3,0.1,0.5,0.3,0.7,0.5c0.2,0.2,0.3,0.4,0.4,0.7
	c0.1,0.3,0.1,0.6,0.1,0.9l0,3.9c-0.1,0-0.2,0.1-0.3,0.1c-0.2,0-0.3,0.1-0.5,0.1c-0.2,0-0.4,0.1-0.7,0.1c-0.2,0-0.5,0-0.7,0
	c-0.3,0-0.6,0-0.9-0.1c-0.3-0.1-0.5-0.2-0.7-0.3c-0.2-0.2-0.4-0.4-0.5-0.6c-0.1-0.2-0.2-0.5-0.2-0.9c0-0.3,0.1-0.6,0.2-0.9
	c0.1-0.2,0.3-0.4,0.5-0.6c0.2-0.2,0.5-0.3,0.8-0.3c0.3-0.1,0.7-0.1,1-0.1c0.1,0,0.2,0,0.3,0c0.1,0,0.2,0,0.4,0c0.1,0,0.2,0,0.3,0.1
	c0.1,0,0.1,0,0.2,0l0-0.4c0-0.2,0-0.4,0-0.6c0-0.2-0.1-0.4-0.2-0.6c-0.1-0.2-0.3-0.3-0.5-0.4c-0.2-0.1-0.4-0.2-0.8-0.2
	c-0.5,0-0.8,0-1,0.1c-0.2,0.1-0.4,0.1-0.5,0.2l-0.1-0.7c0.1-0.1,0.3-0.1,0.6-0.2C95.2,345.2,95.5,345.2,95.9,345.2z M102.3,345.2
	c0.3,0,0.5,0,0.7,0.1c0.2,0,0.4,0.1,0.5,0.1l-0.2,0.7c-0.1,0-0.2-0.1-0.4-0.1c-0.2,0-0.4-0.1-0.8-0.1c-0.3,0-0.6,0-0.8,0.1
	c-0.2,0-0.3,0.1-0.4,0.1l0,5.4l-0.8,0l0-5.9c0.2-0.1,0.5-0.2,0.8-0.3C101.3,345.3,101.8,345.2,102.3,345.2z M104.3,348.4
	c0-0.5,0.1-1,0.2-1.4c0.2-0.4,0.4-0.7,0.6-1c0.3-0.3,0.5-0.5,0.9-0.6c0.3-0.1,0.7-0.2,1-0.2c0.8,0,1.4,0.2,1.8,0.7
	c0.5,0.5,0.7,1.3,0.7,2.3c0,0.1,0,0.1,0,0.2c0,0.1,0,0.1,0,0.2l-4.4,0c0,0.8,0.2,1.3,0.6,1.8c0.4,0.4,0.9,0.6,1.7,0.6
	c0.4,0,0.8,0,1-0.1c0.2-0.1,0.4-0.1,0.5-0.2l0.1,0.7c-0.1,0.1-0.3,0.1-0.6,0.2c-0.3,0.1-0.7,0.1-1.1,0.1c-0.5,0-1-0.1-1.4-0.2
	c-0.4-0.2-0.7-0.4-0.9-0.7c-0.2-0.3-0.4-0.6-0.5-1C104.4,349.4,104.3,348.9,104.3,348.4z M108.7,347.9c0-0.6-0.2-1.2-0.5-1.5
	c-0.3-0.4-0.7-0.5-1.2-0.5c-0.3,0-0.5,0.1-0.8,0.2c-0.2,0.1-0.4,0.3-0.6,0.5c-0.2,0.2-0.3,0.4-0.4,0.6c-0.1,0.2-0.1,0.5-0.2,0.8
	L108.7,347.9z"/>
<path class="st1" d="M254.2,351.3c-0.6,0-1-0.1-1.4-0.2c-0.4-0.1-0.6-0.2-0.8-0.3l0.4-1.1c0.3,0.1,0.6,0.2,0.9,0.3
	c0.4,0.1,0.8,0.2,1.2,0.2c0.6,0,0.9-0.1,1.1-0.2c0.2-0.2,0.3-0.4,0.3-0.7c0-0.2,0-0.3-0.1-0.5c-0.1-0.1-0.2-0.3-0.4-0.4
	c-0.2-0.1-0.4-0.2-0.6-0.3c-0.2-0.1-0.5-0.2-0.7-0.3c-0.2-0.1-0.5-0.2-0.7-0.3c-0.2-0.1-0.5-0.2-0.7-0.4c-0.2-0.2-0.3-0.4-0.5-0.6
	c-0.1-0.2-0.2-0.5-0.2-0.9c0-0.6,0.2-1,0.5-1.4c0.3-0.4,0.8-0.6,1.5-0.8l0-1.3l1.2,0l0,1.3c0.4,0,0.7,0.1,1,0.2
	c0.3,0.1,0.5,0.1,0.7,0.2l-0.3,1.2c-0.2-0.1-0.5-0.2-0.8-0.3c-0.3-0.1-0.7-0.1-1.1-0.1c-0.4,0-0.8,0.1-1,0.2
	c-0.2,0.2-0.3,0.4-0.3,0.6c0,0.2,0,0.3,0.1,0.4c0.1,0.1,0.2,0.2,0.3,0.3c0.1,0.1,0.3,0.2,0.5,0.2c0.2,0.1,0.4,0.1,0.6,0.2
	c0.3,0.1,0.6,0.3,0.9,0.4c0.3,0.1,0.6,0.3,0.8,0.5c0.2,0.2,0.4,0.4,0.5,0.7c0.1,0.3,0.2,0.6,0.2,0.9c0,0.5-0.2,1-0.5,1.4
	c-0.3,0.4-0.9,0.6-1.6,0.7l0,1.5l-1.2,0L254.2,351.3z M259.2,344.9c0.5-0.2,0.9-0.4,1.4-0.7c0.5-0.3,0.9-0.6,1.2-1l1,0l0,8.3l-1.5,0
	l0-6.4c-0.2,0.2-0.5,0.3-0.8,0.5c-0.3,0.2-0.6,0.3-0.9,0.4L259.2,344.9z M271.3,347.3c0,1.4-0.2,2.5-0.8,3.2
	c-0.5,0.7-1.2,1.1-2.1,1.1c-0.9,0-1.6-0.4-2.1-1.1c-0.5-0.8-0.8-1.8-0.8-3.2c0-0.7,0.1-1.3,0.2-1.8c0.1-0.5,0.3-1,0.6-1.4
	c0.3-0.4,0.6-0.6,0.9-0.8c0.4-0.2,0.8-0.3,1.2-0.3c0.9,0,1.6,0.4,2.1,1.1C271,344.8,271.3,345.9,271.3,347.3z M269.8,347.3
	c0-0.4,0-0.8-0.1-1.2c0-0.4-0.1-0.7-0.2-1c-0.1-0.3-0.2-0.5-0.4-0.7c-0.2-0.2-0.4-0.2-0.7-0.2c-0.3,0-0.5,0.1-0.7,0.2
	c-0.2,0.2-0.3,0.4-0.4,0.7c-0.1,0.3-0.2,0.6-0.2,1c0,0.4-0.1,0.8-0.1,1.2c0,0.4,0,0.8,0.1,1.2c0,0.4,0.1,0.7,0.2,1
	c0.1,0.3,0.3,0.5,0.4,0.6c0.2,0.2,0.4,0.2,0.7,0.2c0.3,0,0.5-0.1,0.7-0.2c0.2-0.2,0.3-0.4,0.4-0.6c0.1-0.3,0.2-0.6,0.2-1
	C269.8,348.1,269.8,347.7,269.8,347.3z M278.1,347.3c0,1.4-0.2,2.5-0.8,3.2c-0.5,0.7-1.2,1.1-2.1,1.1c-0.9,0-1.6-0.4-2.1-1.1
	c-0.5-0.8-0.8-1.8-0.8-3.2c0-0.7,0.1-1.3,0.2-1.8c0.1-0.5,0.3-1,0.6-1.4c0.3-0.4,0.6-0.6,0.9-0.8c0.4-0.2,0.8-0.3,1.2-0.3
	c0.9,0,1.6,0.4,2.1,1.1C277.8,344.8,278.1,345.9,278.1,347.3z M276.6,347.3c0-0.4,0-0.8-0.1-1.2s-0.1-0.7-0.2-1
	c-0.1-0.3-0.2-0.5-0.4-0.7c-0.2-0.2-0.4-0.2-0.7-0.2c-0.3,0-0.5,0.1-0.7,0.2c-0.2,0.2-0.3,0.4-0.4,0.7c-0.1,0.3-0.2,0.6-0.2,1
	c0,0.4-0.1,0.8-0.1,1.2c0,0.4,0,0.8,0.1,1.2c0,0.4,0.1,0.7,0.2,1c0.1,0.3,0.3,0.5,0.4,0.6c0.2,0.2,0.4,0.2,0.7,0.2
	c0.3,0,0.5-0.1,0.7-0.2c0.2-0.2,0.3-0.4,0.4-0.6c0.1-0.3,0.2-0.6,0.2-1C276.6,348.1,276.6,347.7,276.6,347.3z"/>
<path class="st0" d="M8,4h301v201H8V4z"/>
<path class="st2" d="M47.5,203c0,0-46.7-115.4,40.1-139c86.8-23.6,99.3,65.3,123.8,64.1c24.5-1.1,53.8-15.8,78.4,3.9
	c24.5,19.7-1.2,70.3-1.2,70.3H48.7"/>
<path class="st3" d="M207.4,181.8c16.9-1,32.5-11.4,42-25.4c14.3-21.1,20-55.3,2.9-76.5c-16.6-20.5-46.9-22.4-70.4-14.2
	c-16.5,5.8-30.9,18.1-37.6,34.3c-15.5,37.7,22.6,83,61.6,81.8C206.4,181.9,206.9,181.9,207.4,181.8L207.4,181.8z"/>
<path class="st4" d="M308.2,205H10.8c-1,0-1.8-1.3-1.8-3c0-1.7,0.8-3,1.8-3h297.4c1,0,1.8,1.3,1.8,3S309.2,205,308.2,205z"/>
<g>
	<defs>
		<rect id="SVGID_1_" x="67" y="38" width="183" height="167"/>
	</defs>
	<clipPath id="SVGID_2_">
		<use xlink:href="#SVGID_1_"  style="overflow:visible;"/>
	</clipPath>
	<g class="st5">
		<path class="st6" d="M236.3,68H81.9v131h154.5V68z"/>
		<path class="st7" d="M135.9,146.4h9c2.5,0,4.5,2,4.5,4.5v24.4h-18.1v-24.4C131.4,148.4,133.4,146.4,135.9,146.4z"/>
		<path class="st0" d="M136.3,147.4h8.3c2.3,0,4.1,1.9,4.1,4.1V174c0,0.2-0.2,0.4-0.4,0.4h-15.8c-0.2,0-0.4-0.2-0.4-0.4v-22.5
			C132.1,149.3,134,147.4,136.3,147.4L136.3,147.4z"/>
		<path class="st7" d="M149.5,175.3h-18.2c-0.6,0-1,0.5-1,1.1v0.6c0,0.6,0.5,1,1,1h18.2c0.6,0,1-0.5,1-1v-0.6
			C150.6,175.8,150.1,175.3,149.5,175.3z"/>
		<path class="st7" d="M140.4,173.9v-24.7"/>
		<path class="st7" d="M148.4,161.9h-16"/>
		<path class="st7" d="M217.3,133.8h9c2.5,0,4.5,2,4.5,4.5v24.4h-18.1v-24.4C212.8,135.9,214.8,133.8,217.3,133.8z"/>
		<path class="st0" d="M217.7,134.8h8.3c2.3,0,4.1,1.9,4.1,4.1v22.5c0,0.2-0.2,0.4-0.4,0.4h-15.8c-0.2,0-0.4-0.2-0.4-0.4V139
			C213.6,136.7,215.4,134.8,217.7,134.8L217.7,134.8z"/>
		<path class="st7" d="M230.9,162.8h-18.2c-0.6,0-1,0.5-1,1v0.6c0,0.6,0.5,1,1,1h18.2c0.6,0,1-0.5,1-1v-0.6
			C232,163.2,231.5,162.8,230.9,162.8z"/>
		<path class="st7" d="M221.9,161.3v-24.7"/>
		<path class="st7" d="M229.8,149.3h-16"/>
		<path class="st7" d="M99.5,146.4h9c2.5,0,4.5,2,4.5,4.5v24.4H95v-24.4C95,148.4,97,146.4,99.5,146.4z"/>
		<path class="st0" d="M99.9,147.4h8.3c2.3,0,4.1,1.9,4.1,4.1V174c0,0.2-0.2,0.4-0.4,0.4H96.1c-0.2,0-0.4-0.2-0.4-0.4v-22.5
			C95.7,149.3,97.6,147.4,99.9,147.4L99.9,147.4z"/>
		<path class="st7" d="M113.1,175.3H94.9c-0.6,0-1,0.5-1,1.1v0.6c0,0.6,0.5,1,1,1h18.2c0.6,0,1-0.5,1-1v-0.6
			C114.2,175.8,113.7,175.3,113.1,175.3z"/>
		<path class="st7" d="M104,173.9v-24.7"/>
		<path class="st7" d="M112,161.9H96"/>
		<path class="st8" d="M131.4,75.2h19V103c0,1.5-1.2,2.6-2.6,2.6h-13.8c-1.5,0-2.6-1.2-2.6-2.6V75.2z"/>
		<path class="st0" d="M148.5,76.3h-15c-0.7,0-1.2,0.6-1.2,1.2v25.9c0,0.7,0.6,1.2,1.2,1.2h15c0.7,0,1.2-0.6,1.2-1.2V77.5
			C149.7,76.9,149.1,76.3,148.5,76.3z"/>
		<path class="st8" d="M150.8,72.4h-19.6c-0.5,0-0.9,0.4-0.9,0.9v1c0,0.5,0.4,0.9,0.9,0.9h19.6c0.5,0,0.9-0.4,0.9-0.9v-1
			C151.6,72.8,151.2,72.4,150.8,72.4z"/>
		<path class="st8" d="M141,76.8v27.3"/>
		<path class="st8" d="M132.6,90.5h16.8"/>
		<path class="st8" d="M94.1,75.2h19V103c0,1.5-1.2,2.6-2.6,2.6H96.7c-1.5,0-2.6-1.2-2.6-2.6V75.2z"/>
		<path class="st0" d="M111.1,76.3h-15c-0.7,0-1.2,0.6-1.2,1.2v25.9c0,0.7,0.6,1.2,1.2,1.2h15c0.7,0,1.2-0.6,1.2-1.2V77.5
			C112.3,76.9,111.8,76.3,111.1,76.3z"/>
		<path class="st8" d="M113.4,72.4H93.8c-0.5,0-0.9,0.4-0.9,0.9v1c0,0.5,0.4,0.9,0.9,0.9h19.6c0.5,0,0.9-0.4,0.9-0.9v-1
			C114.3,72.8,113.9,72.4,113.4,72.4z"/>
		<path class="st8" d="M103.6,76.8v27.3"/>
		<path class="st8" d="M95.2,90.5H112"/>
		<path class="st9" d="M81,38h158.6L250,68H67L81,38z"/>
		<path class="st4" d="M124,68h-6.6v127.9h6.6V68z"/>
		<path class="st4" d="M88.4,68h-6.6v127.9h6.6V68z"/>
		<path class="st6" d="M238.7,119.8H79.5v3.1h159.3V119.8z"/>
		<path class="st9" d="M79.4,122.9h159.4l7.2,12h-174L79.4,122.9z"/>
		<path class="st9" d="M237.5,195.9H80.7v3.1h156.8V195.9z"/>
		<path class="st4" d="M159.6,101.1v18.7h-8.7v-14.1h-4.1v14.1h-5.6v-14.1h-4.1v14.1h-5.6v-14.1h-4.1v14.1h-13.6v-14.1h-4.1v14.1
			h-5.6v-14.1h-4.1v14.1h-5.6v-14.1h-4.1v14.1h-8.7v-18.7H159.6z"/>
		<path class="st4" d="M229.8,195.9h6.6V68h-6.6V195.9z"/>
		<path class="st4" d="M217.9,101.1v18.7h5.6v-14.1h4.1v14.1h8.7v-18.7H217.9z"/>
		<path class="st4" d="M219.4,205h-62V72.4l31-29.4l31,29.4V205z"/>
		<path class="st10" d="M210.9,129.4h-45.2V199h45.2V129.4z"/>
		<path class="st11" d="M168.1,131.3h40.5c0.2,0,0.4,0.2,0.4,0.4v65.5h-41.4v-65.5C167.7,131.5,167.9,131.3,168.1,131.3L168.1,131.3
			z"/>
		<path class="st10" d="M212.6,124.3h-48.5c-0.6,0-1,0.5-1,1v3c0,0.6,0.5,1.1,1,1.1h48.5c0.6,0,1-0.5,1-1.1v-3
			C213.7,124.8,213.2,124.3,212.6,124.3z"/>
		<path class="st7" d="M188.4,131.9v64.7"/>
		<path class="st7" d="M190.4,157.1h1.4v6h-1.4"/>
		<path class="st7" d="M186.3,163.1h-1.4v-6h1.4"/>
		<path class="st6" d="M211.7,198.5H163v3.8h48.7V198.5z"/>
		<path class="st6" d="M214.1,201.2h-53.5v3.8h53.5V201.2z"/>
		<path class="st0" d="M180.7,133.3h-9.6c-0.5,0-1,0.4-1,1v24.2c0,0.5,0.4,1,1,1h9.6c0.5,0,1-0.4,1-1v-24.2
			C181.6,133.8,181.2,133.3,180.7,133.3z"/>
		<path class="st0" d="M205.7,133.3H196c-0.5,0-1,0.4-1,1v24.2c0,0.5,0.4,1,1,1h9.6c0.5,0,1-0.4,1-1v-24.2
			C206.6,133.8,206.2,133.3,205.7,133.3z"/>
		<path class="st12" d="M202.1,72.1c0-7.6-6.2-13.8-13.7-13.8c-7.6,0-13.7,6.2-13.7,13.8v0.6c0,7.6,6.2,13.8,13.7,13.8
			c7.6,0,13.7-6.2,13.7-13.8V72.1z"/>
		<path class="st0" d="M188.4,84.4c-6.5,0-11.8-5.3-11.8-11.9c0-6.5,5.3-11.9,11.8-11.9s11.8,5.3,11.8,11.9
			C200.2,79,194.9,84.4,188.4,84.4z"/>
		<path class="st7" d="M188.4,83.1V61.7"/>
		<path class="st7" d="M199.7,72.4H177"/>
		<path class="st4" d="M223.7,79.1c-0.6,0-1.2-0.2-1.7-0.7l-33.6-31.9l-33.6,31.9c-1,1-2.6,0.9-3.6-0.1c-1-1-0.9-2.6,0.1-3.6
			l35.4-33.5c1-0.9,2.5-0.9,3.5,0l35.4,33.5c1,1,1.1,2.6,0.1,3.6C225.1,78.8,224.4,79.1,223.7,79.1L223.7,79.1z"/>
	</g>
</g>
<path class="st4" d="M295.4,197.2c0-1.6-1.8-2.7-3.4-2.7c-1.6,0-3.1,0.7-4.6,1.2c2.4-1.6,1.3-5.8-1.3-7.2c-2.6-1.4-5.8-0.8-8.6-0.2
	c3.1-3.8,3.2-9.8,0.3-13.7c-2.9-4-8.6-5.6-13.2-3.9c1.3-1.8,0.8-4.5-0.6-6.2c-1.5-1.7-3.8-2.4-6-2.5c-5.8-0.1-11,4.1-13.6,9.3
	c-2.7,5.1-3.4,11-4,16.8c-2.7-2.5-7.5-2.3-10,0.5c-2.4,2.8-2.1,7.6,0.8,9.9c-1.9,0-3.9,0-5.5,1c-1.6,1-2.4,3.5-1.1,4.8
	c0.9,1,2.4,1,3.8,1c17.3,0,34.6-0.1,51.9-0.1c2.3,0,4.6,0,6.8-0.6c3-0.8,5.8-2.8,7.5-5.4C295,198.6,295.4,197.9,295.4,197.2
	L295.4,197.2z"/>
<path class="st9" d="M292,194.5c-1.6,0-3.1,0.7-4.6,1.2c2.4-1.6,1.4-5.7-1.2-7.2c-0.3,1.1-0.7,2.2-1.4,3.1
	c-3.2,4.5-10.2,5.6-14.6,2.2c-2.1,1.8-4.8,3.2-7.6,3.4c-2.8,0.2-5.8-1-7.3-3.4c-3.3,2.5-7.6,3.7-11.7,3.2c-2.9-0.3-5.9-1.6-7.4-4
	c-1.3-2-1.2-4.9,0.3-6.7c-2.2-0.2-4.6,0.5-6,2.2c-2.4,2.8-2.1,7.6,0.8,9.9c-1.9,0-3.9,0-5.5,1c-1.6,1-2.4,3.5-1.1,4.8
	c0.9,1,2.4,1,3.8,1c17.3,0,34.6-0.1,51.9-0.1c2.3,0,4.6,0,6.8-0.6c3-0.8,5.8-2.8,7.5-5.4c0.4-0.6,0.8-1.4,0.8-2.1
	C295.4,195.6,293.6,194.5,292,194.5L292,194.5z"/>
<path class="st9" d="M47.1,159.8h-2.8v39.4h2.8V159.8z"/>
<path class="st9" d="M46.2,179.6v-1.3c2.8,0,5-0.9,6.8-2.8c4.8-5.1,4.4-15.4,4.4-15.5l1.3-0.1c0,0.4,0.5,10.9-4.7,16.4
	C51.9,178.5,49.3,179.6,46.2,179.6L46.2,179.6z"/>
<path class="st9" d="M57,170.2v-1.3c1.7,0,3.1-0.6,4.2-1.7c3.1-3.2,3.1-9.7,3-9.8l1.3,0c0,0.3,0.1,7.1-3.4,10.7
	C60.8,169.5,59,170.2,57,170.2L57,170.2z"/>
<path class="st9" d="M44.9,174.7c-2.1,0-3.8-0.7-5.2-2.2c-3.9-4-3.9-12.1-3.9-12.5l1.3,0c0,0.1-0.1,7.9,3.5,11.5
	c1.2,1.2,2.6,1.8,4.3,1.8L44.9,174.7L44.9,174.7z"/>
<path class="st9" d="M37.8,169.1c-6.1,0-8.1-8.5-8.2-8.8l1.3-0.3c0,0.1,1.9,7.8,6.9,7.8V169.1z"/>
<path class="st4" d="M28.6,161.5c-1.1,0.7-2.6,0.9-3.5,0c-1-0.8-0.7-2.8,0.5-3c-0.9-0.1-1.8-0.1-2.7-0.2c-0.3-1.1-0.2-2.2,0.3-3.2
	c-0.8,0.1-1.6,0.2-2.3-0.1c-0.7-0.3-1.1-1.3-0.7-1.9c-1.7-0.6-3.9-1.9-3.3-3.6c-1.9,0-3.9-0.5-5-2.1c-1.1-1.5-0.4-4.2,1.4-4.5
	c-1.1-0.3-1.9-1.4-2-2.5c0-1.1,0.7-2.3,1.8-2.6c-1.4-0.7-2-2.7-1.3-4.1c-0.8-0.4-1.5-1.3-1.5-2.2c0-0.5,0.2-1,0.4-1.4
	c0.5-1.1,0.9-2.3,1.4-3.4c-0.4-1.4-0.8-2.9-1.2-4.3c-0.3-1-0.5-2.1,0-3c0.5-0.9,2.1-1.1,2.4-0.1c0.2-2.7,2.3-5.2,5-5.8
	c-0.1-1.3,0.7-2.5,1.9-2.9c-1.6-0.7-2-3.3-0.6-4.3c1.4-1.1,3.8-0.1,4,1.7c0-0.7-0.1-1.5,0.4-2.1c0.4-0.6,1.4-0.9,1.9-0.3
	c-0.1-1.2,1.5-2.1,2.5-1.4c0.3-1.4,2.4-2,3.4-0.9c0.5-0.5,1.2-0.9,1.9-0.9c-0.9-1.6,0-3.8,1.7-4.4c1.7-0.5,3.7,0.8,3.9,2.6
	c0.4-1.3,2.6-1.5,3.3-0.3c1.3-1.2,3.5-1.3,4.9-0.2c-0.7-1.2,0-3,1.3-3.3c1.4-0.2,2.6,1.7,1.6,2.7c0.5-1.1,2.6-0.4,2.4,0.8
	c0.3-0.7,1.4-0.6,2.1-0.1c0.7,0.5,1.3,1.1,2.1,1c0.2,0.4,0.4,0.8,0.6,1.1c1,0.1,2.1,0.3,3.1,0.4c0.6,0.1,1.2,0.2,1.7,0.5
	c1.1,0.6,1.4,2.1,1.5,3.3c1.4-0.3,3,0.7,3.4,2.1c1.8,0.2,3.3,1.7,3.6,3.5c1.5-1.4,4.2-1.4,5.3,0.3c1.1,1.7-0.3,4.5-2.3,4.2
	c0.6,0.2,1.2,0.5,1.6,1c0.4,0.5,0.4,1.3-0.2,1.6c1,0.3,1.3,1.8,0.5,2.4c2.5,1.7,1,5.9,2.7,8.4c0.5,0.8,1.4,1.4,1.9,2.2
	c1.4,2.1-0.5,5.5-3,5.5c0.8,1.5,0.2,3.4-0.5,5c-0.4,1-0.8,2-1.6,2.8c-0.4,0.4-0.9,0.7-1.3,1.2c-1,1.2-0.7,2.9-1.1,4.4
	c-0.3,1.5-2.2,2.9-3.2,1.8c0.5,1.1,0.3,2.6-0.5,3.5c-0.8,1-2.2,1.3-3.5,1c-0.1,1.5-1.7,2.8-3.2,2.4c-0.3,1.4-2.3,2.2-3.4,1.3
	c-0.8,1.6-2.8,2.4-4.6,2c-0.8,1.7-1.8,3.4-3.5,4.1c-1.7,0.7-4.2-0.5-4-2.3c-0.7,2-4.2,2.2-5.1,0.2c-1.2,0.9-2.9,0.6-4.4,0.3
	c-1.1-0.2-2.5-0.8-2.5-1.9c-0.9,0.4-2,0.1-2.6-0.7c0.5,1.6-1.3,3.4-2.9,3C27.9,165.1,27.4,162.6,28.6,161.5L28.6,161.5z"/>
<path class="st9" d="M57.9,111.8c-0.2,0-0.3-0.1-0.3-0.3c0-0.2,0.1-0.3,0.3-0.3c0.4,0,0.5-0.4,0.6-0.5c0.1-0.3,0.1-0.7-0.1-1
	c-0.2-0.2-0.5-0.3-0.8-0.3c-0.4,0-0.8,0.2-1,0.5c-0.1,0.1-0.3,0.2-0.4,0.1c-0.1-0.1-0.2-0.2-0.1-0.4c0.1-0.2-0.1-0.6-0.3-0.7
	c-0.2-0.1-0.6,0.1-0.7,0.3c0,0.1-0.1,0.2-0.2,0.2c-0.1,0-0.2,0-0.3,0c-0.4-0.3-1-0.2-1.4,0.2c-0.1,0.1-0.3,0.1-0.4,0.1
	c-0.1-0.1-0.2-0.2-0.1-0.4c0.4-1.1,0.1-2.3-0.7-3.1c-0.8-0.8-2.1-1-3-0.5c-1,0.5-1.5,1.8-1.1,2.8c0,0.2,0,0.3-0.2,0.4
	c-0.1,0.1-0.3,0-0.4-0.1c-0.3-0.4-0.7-0.6-1.3-0.6c-0.5,0-1,0.2-1.3,0.5c-0.1,0.1-0.2,0.1-0.3,0.1c-0.1,0-0.2-0.1-0.2-0.1
	c-0.1-0.2-0.3-0.3-0.5-0.3c-0.2,0-0.4,0-0.6,0.1c-0.1,0.1-0.2,0.3-0.3,0.5c0,0.2,0,0.4,0.2,0.6c0.1,0.1,0.1,0.3,0,0.5
	c-0.1,0.1-0.3,0.1-0.5,0c-0.3-0.3-0.4-0.7-0.3-1.1c0-0.4,0.2-0.8,0.5-1c0.3-0.2,0.7-0.3,1.1-0.3c0.3,0,0.5,0.2,0.7,0.3
	c0.4-0.3,1-0.5,1.6-0.5c0.4,0,0.7,0.1,1,0.3c0-1.1,0.6-2.1,1.6-2.6c1.2-0.6,2.8-0.4,3.8,0.6c0.8,0.7,1.1,1.9,1,3
	c0.4-0.1,0.8-0.1,1.2,0c0.3-0.4,0.9-0.5,1.3-0.4c0.3,0.1,0.6,0.4,0.7,0.7c0.3-0.2,0.6-0.3,0.9-0.3c0.5,0,1,0.2,1.3,0.5
	c0.4,0.4,0.5,1.1,0.2,1.7C58.9,111.5,58.4,111.8,57.9,111.8L57.9,111.8L57.9,111.8z"/>
<path class="st9" d="M56.8,126.2c-0.3,0-0.6,0-0.8-0.1c-0.2-0.1-0.3-0.2-0.2-0.4c0.1-0.2,0.2-0.3,0.4-0.2c0.5,0.2,1.1,0.1,1.4-0.1
	c0.4-0.3,0.6-0.8,0.5-1.2c-0.1-0.4-0.5-0.8-1-0.7c-0.1,0-0.3-0.1-0.3-0.2c-0.1-0.1,0-0.3,0.1-0.4c0.1-0.1,0.2-0.4,0.1-0.5
	c-0.1-0.2-0.3-0.3-0.5-0.2c-0.1,0-0.2,0-0.3-0.1s-0.1-0.2,0-0.3c0.1-0.2,0.3-0.9,0-1.1c-0.3-0.2-0.7,0.2-1,0.5
	c-0.1,0.1-0.3,0.2-0.5,0c-0.1-0.1-0.2-0.3,0-0.5c0.7-0.8,1.3-1,1.9-0.6c0.2,0.2,0.6,0.6,0.4,1.5c0.3,0.1,0.5,0.3,0.7,0.6
	c0.1,0.2,0.2,0.5,0.1,0.8c0.5,0.2,1,0.6,1.1,1.2c0.2,0.7-0.2,1.5-0.8,1.9C57.7,126.1,57.2,126.2,56.8,126.2L56.8,126.2z"/>
<path class="st9" d="M50.2,160c-0.6,0-1.3-0.3-1.8-0.7c-0.4-0.4-0.6-0.8-0.7-1.2c-0.4,0.4-0.8,0.7-1.4,0.7c-0.5,0.1-1-0.1-1.4-0.4
	c-0.1-0.1-0.2-0.2-0.3-0.4c-0.3,0.2-0.7,0.4-1.2,0.5c-0.4,0-0.8-0.2-1.1-0.5c0-0.1-0.1-0.1-0.1-0.2c-0.3,0.2-0.7,0.2-1.1,0
	c-0.3-0.2-0.6-0.5-0.6-0.9c-1.2,0.6-2.4,0.7-3.3,0.4c-0.8-0.3-1.4-0.9-1.7-1.7c-0.2-0.6-0.2-1.3,0.1-1.8c0.1-0.2,0.3-0.2,0.4-0.1
	c0.2,0.1,0.2,0.3,0.1,0.4c-0.2,0.3-0.2,0.8-0.1,1.2c0.2,0.6,0.7,1.1,1.3,1.3c1.2,0.4,2.5-0.1,3.3-0.6c0.1-0.1,0.3,0,0.4,0
	c0.1,0.1,0.1,0.2,0.1,0.4c-0.1,0.2,0,0.6,0.2,0.7c0.2,0.1,0.6,0,0.7-0.2c0.1-0.1,0.2-0.2,0.4-0.2c0.2,0.1,0.2,0.2,0.2,0.4
	c0,0.1,0,0.3,0.1,0.3c0.1,0.2,0.4,0.2,0.6,0.3c0.4,0,0.9-0.4,1.2-0.7c0.1-0.1,0.2-0.1,0.4-0.1c0.1,0.1,0.2,0.2,0.2,0.3
	c0,0.2,0.1,0.4,0.2,0.5c0.2,0.2,0.6,0.3,0.9,0.3c0.6-0.1,1.1-0.6,1.5-1.1c0.1-0.1,0.2-0.1,0.4-0.1c0.1,0.1,0.2,0.2,0.2,0.3
	c0,0.5,0.2,1.1,0.6,1.5c0.4,0.4,1,0.6,1.5,0.5c0.5-0.1,1-0.4,1.3-0.9c0.3-0.5,0.4-1.1,0.2-1.6c-0.1-0.2,0-0.4,0.2-0.4
	c0.2-0.1,0.4,0,0.4,0.2c0.2,0.7,0.1,1.5-0.3,2.1c-0.4,0.7-1.1,1.1-1.8,1.2C50.4,160,50.3,160,50.2,160L50.2,160z"/>
<path class="st9" d="M20.1,126.5c-0.3,0-0.6,0-0.9-0.1c-0.4-0.2-0.8-0.5-0.8-1c0-0.3,0.1-0.5,0.2-0.7c0.3-0.6,0.8-1.1,1.4-1.5
	c-0.3-0.2-0.4-0.5-0.4-0.9c0-0.3,0.1-0.6,0.3-0.8c-0.3-0.1-0.5-0.2-0.7-0.5c-0.2-0.3-0.1-0.7,0.1-1.1c0.3-0.5,0.8-0.9,1.4-1.1
	c-0.3-0.3-0.6-0.7-0.8-1.1c-0.3-0.7-0.3-1.5,0-2.1c0.5-0.8,1.6-1.1,2.4-1c1.2,0.1,2.5,1,2.5,2.3c0,0.2-0.2,0.3-0.3,0.3
	c-0.2,0-0.3-0.2-0.3-0.3c0-0.8-0.9-1.5-1.9-1.6c-0.6-0.1-1.4,0.1-1.8,0.7c-0.2,0.4-0.2,0.9,0,1.5c0.2,0.5,0.7,1,1,1.3
	c0.1,0.1,0.1,0.2,0.1,0.3c0,0.1-0.2,0.2-0.3,0.2c-0.6,0-1.2,0.4-1.5,0.9c-0.1,0.2-0.2,0.4-0.1,0.5c0.1,0.1,0.2,0.2,0.5,0.2
	c0.2,0,0.5,0.1,0.7,0.3c0.1,0.1,0.2,0.2,0.1,0.4c-0.1,0.1-0.2,0.2-0.3,0.2c-0.1,0-0.3,0-0.4,0.2c-0.1,0.1-0.2,0.3-0.2,0.4
	c0,0.1,0.1,0.3,0.2,0.4c0.1,0.1,0.3,0.2,0.4,0.1c0.2,0,0.3,0.1,0.4,0.3c0,0.2-0.1,0.3-0.2,0.4c-0.8,0.2-1.4,0.7-1.8,1.5
	c-0.1,0.1-0.1,0.3-0.1,0.4c0,0.2,0.2,0.3,0.4,0.4c0.2,0.1,0.5,0.1,0.8,0.1h0c0.2,0,0.3,0.1,0.3,0.3c0,0.2-0.1,0.3-0.3,0.3
	C20.2,126.5,20.1,126.5,20.1,126.5L20.1,126.5z"/>
<path class="st9" d="M29.5,146.6c-0.1,0-0.2,0-0.4,0c-0.5-0.1-1-0.5-1.2-1.1c-0.1-0.2-0.1-0.5-0.1-0.7c-0.4,0-0.7-0.2-0.9-0.5
	c-0.2-0.3-0.2-0.6-0.2-1c-0.1,0-0.3,0-0.4,0c-0.2,0-0.3-0.1-0.3-0.3c0-0.4,0-0.9,0.1-1.3c0-0.2,0.2-0.3,0.4-0.2
	c0.2,0,0.3,0.2,0.2,0.4c-0.1,0.2-0.1,0.5-0.1,0.8c0.2,0,0.4-0.1,0.5-0.1c0.1-0.1,0.3,0,0.4,0.1c0.1,0.1,0.1,0.3,0,0.4
	c-0.2,0.2-0.3,0.6-0.1,0.9c0.1,0.1,0.2,0.2,0.4,0.2c0.1,0,0.2,0,0.2-0.1c0,0,0,0,0,0c0.1-0.1,0.3-0.2,0.4-0.1
	c0.1,0.1,0.2,0.3,0.1,0.4c0,0,0,0,0,0c-0.2,0.2-0.2,0.5-0.1,0.8c0.1,0.4,0.4,0.6,0.7,0.7c0.3,0.1,0.6,0,0.9-0.2
	c0.3-0.2,0.5-0.6,0.5-0.9c0-0.2,0.2-0.3,0.3-0.3c0.2,0,0.3,0.2,0.3,0.3c0,0.5-0.3,1.1-0.8,1.4C30.2,146.5,29.9,146.6,29.5,146.6
	L29.5,146.6z"/>
<path class="st9" d="M33.7,122.4c-0.5,0-1-0.3-1.1-0.8c-0.2-0.5,0.1-1.1,0.6-1.3c0.2-0.1,0.5-0.2,0.7-0.2c0.3,0,0.6,0,1,0.1
	c-0.3-0.4-0.5-0.9-0.6-1.4c-0.1-0.9,0.3-2,1.3-2.2c0.9-0.2,1.8,0.4,2.3,1.1c0.7,0.9,1,2.1,0.9,3.2c0,0.2-0.2,0.3-0.4,0.3
	c-0.2,0-0.3-0.2-0.3-0.3c0.1-1-0.2-2-0.8-2.8c-0.3-0.5-1-1-1.6-0.8c-0.6,0.2-0.9,0.9-0.8,1.5c0.1,0.7,0.6,1.3,1,1.9
	c0.1,0.1,0.1,0.3,0,0.4c-0.1,0.1-0.2,0.2-0.4,0.1c-0.5-0.2-1.1-0.3-1.6-0.3c-0.1,0-0.3,0-0.4,0.1c-0.2,0.1-0.3,0.4-0.2,0.6
	c0.1,0.2,0.3,0.4,0.5,0.3c0.2,0,0.3,0.1,0.4,0.3c0,0.2-0.1,0.3-0.3,0.4C33.8,122.4,33.7,122.4,33.7,122.4L33.7,122.4z"/>
<path class="st9" d="M70.1,120.4c-0.2,0-0.3-0.1-0.3-0.3c0-0.2,0.1-0.3,0.3-0.4l0.2,0c0.3-0.1,0.6-0.2,0.8-0.5
	c0.2-0.3,0.2-0.7,0-0.9c-0.1-0.1-0.3-0.2-0.4-0.2c0,0,0,0-0.1,0c-0.1,0.1-0.2,0.2-0.4,0.2c-0.1,0.1-0.3,0-0.4-0.1
	c-0.1-0.1-0.1-0.3,0-0.4c0.1-0.1,0.3-0.3,0.5-0.3c0.6-0.5,1-1.2,1-2c0-0.1,0-0.1,0-0.1l0,0c0,0,0,0-0.2,0c-0.7,0.1-1.4,0.5-1.7,1.2
	c-0.1,0.2-0.3,0.2-0.4,0.1c-0.2-0.1-0.2-0.3-0.1-0.4c0.4-0.8,1.3-1.4,2.2-1.5c0.1,0,0.5,0,0.7,0.2c0.2,0.2,0.2,0.4,0.2,0.6
	c0,0.8-0.2,1.5-0.7,2.1c0.2,0.1,0.3,0.2,0.4,0.3c0.4,0.5,0.4,1.2,0,1.7c-0.2,0.3-0.6,0.6-1,0.7c0,0-0.1,0-0.1,0l-0.1,0
	C70.3,120.4,70.2,120.4,70.1,120.4C70.1,120.4,70.1,120.4,70.1,120.4L70.1,120.4z"/>
<path class="st9" d="M16.7,136.3C16.6,136.3,16.6,136.3,16.7,136.3c-0.7-0.1-1.3-0.3-1.7-0.7c-0.5-0.5-0.7-1.2-0.5-1.9
	c0.1-0.4,0.4-0.7,0.7-0.9c-0.3-0.4-0.5-0.9-0.4-1.4c0.1-0.8,0.8-1.4,1.6-1.6c0.7-0.1,1.5,0.1,2.1,0.7c0.1,0.1,0.1,0.3,0,0.5
	c-0.1,0.1-0.3,0.1-0.5,0c-0.4-0.4-1-0.6-1.5-0.5c-0.5,0.1-1,0.5-1.1,1c-0.1,0.5,0.3,1,0.7,1.1c0.2,0,0.3,0.2,0.2,0.4
	c0,0.2-0.2,0.3-0.4,0.2c-0.4-0.1-0.8,0.2-0.9,0.6c-0.1,0.4,0,0.9,0.4,1.2c0.3,0.3,0.8,0.5,1.3,0.5c0.2,0,0.3,0.2,0.3,0.4
	C17,136.2,16.8,136.3,16.7,136.3L16.7,136.3z"/>
</svg>
