<svg width="34" height="34" viewBox="0 0 34 34" fill="current" xmlns="http://www.w3.org/2000/svg">
<path d="M29.75 9.91667H25.3102C26.2921 9.02144 27.0701 7.9257 27.5917 6.70362C28.1133 5.48154 28.3662 4.16166 28.3333 2.83333H25.5C25.5 6.91475 22.7077 8.93492 19.618 9.63333C20.5457 7.97838 21.1026 6.14152 21.25 4.25C21.25 3.12283 20.8022 2.04183 20.0052 1.2448C19.2082 0.447767 18.1272 0 17 0C15.8728 0 14.7918 0.447767 13.9948 1.2448C13.1978 2.04183 12.75 3.12283 12.75 4.25C12.8974 6.14152 13.4543 7.97838 14.382 9.63333C11.2923 8.93492 8.5 6.91475 8.5 2.83333H5.66667C5.63379 4.16166 5.8867 5.48154 6.40829 6.70362C6.92987 7.9257 7.70795 9.02144 8.68983 9.91667H4.25C3.12283 9.91667 2.04183 10.3644 1.2448 11.1615C0.447767 11.9585 0 13.0395 0 14.1667L0 19.8333H2.83333V34H31.1667V19.8333H34V14.1667C34 13.0395 33.5522 11.9585 32.7552 11.1615C31.9582 10.3644 30.8772 9.91667 29.75 9.91667ZM17 2.83333C17.3757 2.83333 17.7361 2.98259 18.0017 3.24827C18.2674 3.51394 18.4167 3.87428 18.4167 4.25C18.2456 5.75567 17.7632 7.20929 17 8.51842C16.2368 7.20929 15.7543 5.75567 15.5833 4.25C15.5833 3.87428 15.7326 3.51394 15.9983 3.24827C16.2639 2.98259 16.6243 2.83333 17 2.83333ZM2.83333 14.1667C2.83333 13.7909 2.98259 13.4306 3.24827 13.1649C3.51394 12.8993 3.87428 12.75 4.25 12.75H15.5833V17H2.83333V14.1667ZM5.66667 19.8333H15.5833V31.1667H5.66667V19.8333ZM28.3333 31.1667H18.4167V19.8333H28.3333V31.1667ZM31.1667 17H18.4167V12.75H29.75C30.1257 12.75 30.4861 12.8993 30.7517 13.1649C31.0174 13.4306 31.1667 13.7909 31.1667 14.1667V17Z" fill="current"/>
</svg>
