<svg width="33" height="33" viewBox="0 0 33 33" fill="current" xmlns="http://www.w3.org/2000/svg">
<path d="M20.6253 33H12.3753V28.1696C10.9416 27.6623 9.61358 26.8951 8.45796 25.9064L4.27246 28.325L0.147461 21.175L4.33159 18.7619C4.05674 17.2665 4.05674 15.7335 4.33159 14.2381L0.147461 11.825L4.27246 4.675L8.45796 7.09363C9.61358 6.1049 10.9416 5.33766 12.3753 4.83038V0H20.6253V4.83038C22.0591 5.33766 23.3871 6.1049 24.5427 7.09363L28.7282 4.675L32.8532 11.825L28.6691 14.2381C28.9439 15.7335 28.9439 17.2665 28.6691 18.7619L32.8532 21.175L28.7282 28.325L24.5427 25.9077C23.387 26.896 22.059 27.6628 20.6253 28.1696V33ZM15.1253 30.25H17.8753V26.0879L18.908 25.8211C20.602 25.3823 22.1439 24.4889 23.3671 23.2375L24.1137 22.4771L27.7203 24.5602L29.0953 22.1787L25.4928 20.0984L25.7761 19.0726C26.2417 17.3854 26.2417 15.6036 25.7761 13.9164L25.4928 12.8906L29.0953 10.8103L27.7203 8.42875L24.1137 10.5174L23.3671 9.7625C22.1432 8.5131 20.6014 7.62165 18.908 7.18437L17.8753 6.91213V2.75H15.1253V6.91213L14.0927 7.17888C12.3987 7.61771 10.8568 8.51109 9.63359 9.7625L8.88696 10.5229L5.28034 8.43425L3.90534 10.8158L7.50784 12.8961L7.22459 13.9219C6.75895 15.6091 6.75895 17.3909 7.22459 19.0781L7.50784 20.1039L3.90534 22.1843L5.28034 24.5657L8.88696 22.4826L9.63359 23.243C10.8575 24.4924 12.3993 25.3838 14.0927 25.8211L15.1253 26.0879V30.25ZM16.5003 22C15.4125 22 14.3492 21.6774 13.4447 21.0731C12.5402 20.4687 11.8353 19.6098 11.419 18.6048C11.0027 17.5998 10.8938 16.4939 11.106 15.427C11.3182 14.3601 11.8421 13.3801 12.6112 12.6109C13.3804 11.8417 14.3604 11.3179 15.4273 11.1057C16.4942 10.8935 17.6001 11.0024 18.6051 11.4187C19.6101 11.8349 20.4691 12.5399 21.0734 13.4444C21.6778 14.3488 22.0003 15.4122 22.0003 16.5C22.0003 17.9587 21.4209 19.3576 20.3894 20.3891C19.358 21.4205 17.959 22 16.5003 22ZM16.5003 13.75C15.9564 13.75 15.4248 13.9113 14.9725 14.2135C14.5203 14.5156 14.1678 14.9451 13.9597 15.4476C13.7515 15.9501 13.6971 16.503 13.8032 17.0365C13.9093 17.5699 14.1712 18.0599 14.5558 18.4445C14.9404 18.8291 15.4304 19.0911 15.9638 19.1972C16.4973 19.3033 17.0502 19.2488 17.5527 19.0407C18.0552 18.8325 18.4847 18.4801 18.7869 18.0278C19.0891 17.5756 19.2503 17.0439 19.2503 16.5C19.2503 15.7707 18.9606 15.0712 18.4449 14.5555C17.9292 14.0397 17.2297 13.75 16.5003 13.75Z" fill="current"/>
</svg>
