<svg width="38" height="38" viewBox="0 0 38 38" fill="current" xmlns="http://www.w3.org/2000/svg">
<circle cx="19" cy="19" r="18" stroke="current" stroke-width="2" fill="white"/>
<g clip-path="url(#clip0_651_4371)">
<path d="M26.4163 15.3333V14.479C26.4151 13.2473 25.9253 12.0663 25.0543 11.1954C24.1833 10.3244 23.0024 9.83455 21.7707 9.83333H20.9163V8H19.083V9.83333H18.2287C17.1262 9.83451 16.0601 10.2277 15.2209 10.9427C14.3817 11.6576 13.8241 12.6477 13.6478 13.736C13.4714 14.8242 13.6879 15.9397 14.2584 16.8831C14.8289 17.8265 15.7163 18.5362 16.762 18.8854L19.083 19.66V26.3333H18.2287C17.483 26.3326 16.7681 26.0361 16.2409 25.5088C15.7136 24.9816 15.4171 24.2667 15.4163 23.521V22.6667H13.583V23.521C13.5842 24.7527 14.0741 25.9337 14.945 26.8046C15.816 27.6756 16.9969 28.1655 18.2287 28.1667H19.083V30H20.9163V28.1667H21.7707C22.8731 28.1655 23.9392 27.7723 24.7784 27.0573C25.6177 26.3424 26.1752 25.3523 26.3516 24.264C26.5279 23.1758 26.3115 22.0603 25.7409 21.1169C25.1704 20.1735 24.283 19.4638 23.2373 19.1146L20.9163 18.34V11.6667H21.7707C22.5163 11.6674 23.2312 11.9639 23.7585 12.4912C24.2857 13.0184 24.5823 13.7333 24.583 14.479V15.3333H26.4163ZM22.658 20.8526C23.2917 21.0635 23.8296 21.493 24.1755 22.0642C24.5214 22.6355 24.6528 23.3112 24.5461 23.9705C24.4393 24.6297 24.1015 25.2295 23.593 25.6624C23.0845 26.0953 22.4385 26.3331 21.7707 26.3333H20.9163V20.2714L22.658 20.8526ZM19.083 17.7286L17.3413 17.1474C16.7077 16.9365 16.1698 16.507 15.8238 15.9358C15.4779 15.3645 15.3466 14.6888 15.4533 14.0295C15.56 13.3703 15.8979 12.7705 16.4064 12.3376C16.9149 11.9047 17.5608 11.6669 18.2287 11.6667H19.083V17.7286Z" fill="current" />
</g>
<defs>
<clipPath id="clip0_651_4371">
<rect width="22" height="22" fill="current" transform="translate(9 8)"/>
</clipPath>
</defs>
</svg>
