<svg width="33" height="33" viewBox="0 0 33 33" fill="current" xmlns="http://www.w3.org/2000/svg">
<path d="M16.5 0C12.4381 0.0122875 8.52265 1.51874 5.5 4.23225V0H2.75V7.07163C2.75073 7.7486 3.01998 8.39764 3.49867 8.87633C3.97736 9.35502 4.6264 9.62427 5.30338 9.625H12.375V6.875H6.70863C8.94336 4.61116 11.8949 3.19357 15.0588 2.86444C18.2228 2.53531 21.4029 3.31506 24.0557 5.07047C26.7086 6.82588 28.6695 9.448 29.6036 12.4888C30.5376 15.5296 30.3867 18.8005 29.1768 21.7424C27.9668 24.6843 25.7728 27.1148 22.9696 28.6186C20.1665 30.1223 16.9281 30.6061 13.8079 29.9871C10.6876 29.3681 7.87915 27.6849 5.86228 25.2249C3.84542 22.765 2.74534 19.681 2.75 16.5H0C0 19.7634 0.967708 22.9535 2.78075 25.6669C4.59379 28.3803 7.17074 30.4952 10.1857 31.744C13.2007 32.9929 16.5183 33.3196 19.719 32.683C22.9197 32.0463 25.8597 30.4748 28.1673 28.1673C30.4748 25.8597 32.0463 22.9197 32.683 19.719C33.3196 16.5183 32.9929 13.2007 31.744 10.1857C30.4952 7.17074 28.3803 4.59379 25.6669 2.78075C22.9535 0.967708 19.7634 0 16.5 0V0Z" fill="current"/>
<path d="M15.125 9.62402V17.0683L19.6529 21.5961L21.5971 19.6519L17.875 15.9298V9.62402H15.125Z" fill="current"/>
</svg>
