<svg width="36" height="31" viewBox="0 0 36 31" fill="current" xmlns="http://www.w3.org/2000/svg">
<path d="M34.875 15.5007H33.75V10.032C33.75 9.42823 33.246 8.93823 32.625 8.93823H31.5V5.65698C31.5 5.05323 30.996 4.56323 30.375 4.56323H26.5702L24.6307 0.791981C24.3517 0.249481 23.6768 0.0329179 23.121 0.30198L20.529 1.56417L20.1307 0.791981C19.8517 0.251668 19.1768 0.032918 18.621 0.304168L9.8595 4.56323H3.375C1.51425 4.56323 0 6.03542 0 7.84448V27.532C0 29.341 1.51425 30.8132 3.375 30.8132H32.625C33.246 30.8132 33.75 30.3232 33.75 29.7195V24.2507H34.875C35.496 24.2507 36 23.7607 36 23.157V16.5945C36 15.9907 35.496 15.5007 34.875 15.5007ZM29.25 6.75073V8.93823H28.8202L27.6952 6.75073H29.25ZM23.121 2.74979L26.3048 8.93823H24.3202L21.5347 3.51979L23.121 2.74979ZM18.621 2.74979L21.8048 8.93823H5.8905L18.621 2.74979ZM3.375 6.75073H5.3595L2.34 8.21854C2.295 8.09823 2.25 7.97573 2.25 7.84448C2.25 7.24073 2.754 6.75073 3.375 6.75073ZM31.5 28.6257H3.375C2.754 28.6257 2.25 28.1357 2.25 27.532V10.9157C2.619 11.0448 2.997 11.1257 3.375 11.1257H31.5V15.5007H27C24.5182 15.5007 22.5 17.4629 22.5 19.8757C22.5 22.2885 24.5182 24.2507 27 24.2507H31.5V28.6257ZM33.75 22.0632H27C25.7603 22.0632 24.75 21.081 24.75 19.8757C24.75 18.6704 25.7603 17.6882 27 17.6882H33.75V22.0632Z" fill="current"/>
</svg>
